G04 #@! TF.GenerationSoftware,KiCad,Pcbnew,(6.0.1-0)*
G04 #@! TF.CreationDate,2023-01-13T10:30:12+06:00*
G04 #@! TF.ProjectId,ESP_GSM,4553505f-4753-44d2-9e6b-696361645f70,rev?*
G04 #@! TF.SameCoordinates,Original*
G04 #@! TF.FileFunction,Copper,L4,Bot*
G04 #@! TF.FilePolarity,Positive*
%FSLAX46Y46*%
G04 Gerber Fmt 4.6, Leading zero omitted, Abs format (unit mm)*
G04 Created by KiCad (PCBNEW (6.0.1-0)) date 2023-01-13 10:30:12*
%MOMM*%
%LPD*%
G01*
G04 APERTURE LIST*
G04 Aperture macros list*
%AMRoundRect*
0 Rectangle with rounded corners*
0 $1 Rounding radius*
0 $2 $3 $4 $5 $6 $7 $8 $9 X,Y pos of 4 corners*
0 Add a 4 corners polygon primitive as box body*
4,1,4,$2,$3,$4,$5,$6,$7,$8,$9,$2,$3,0*
0 Add four circle primitives for the rounded corners*
1,1,$1+$1,$2,$3*
1,1,$1+$1,$4,$5*
1,1,$1+$1,$6,$7*
1,1,$1+$1,$8,$9*
0 Add four rect primitives between the rounded corners*
20,1,$1+$1,$2,$3,$4,$5,0*
20,1,$1+$1,$4,$5,$6,$7,0*
20,1,$1+$1,$6,$7,$8,$9,0*
20,1,$1+$1,$8,$9,$2,$3,0*%
G04 Aperture macros list end*
G04 #@! TA.AperFunction,ComponentPad*
%ADD10O,0.890000X1.550000*%
G04 #@! TD*
G04 #@! TA.AperFunction,ComponentPad*
%ADD11O,1.250000X0.950000*%
G04 #@! TD*
G04 #@! TA.AperFunction,ComponentPad*
%ADD12R,1.700000X1.700000*%
G04 #@! TD*
G04 #@! TA.AperFunction,ComponentPad*
%ADD13O,1.700000X1.700000*%
G04 #@! TD*
G04 #@! TA.AperFunction,ComponentPad*
%ADD14O,2.200000X3.500000*%
G04 #@! TD*
G04 #@! TA.AperFunction,ComponentPad*
%ADD15R,1.500000X2.500000*%
G04 #@! TD*
G04 #@! TA.AperFunction,ComponentPad*
%ADD16O,1.500000X2.500000*%
G04 #@! TD*
G04 #@! TA.AperFunction,ComponentPad*
%ADD17C,1.400000*%
G04 #@! TD*
G04 #@! TA.AperFunction,ComponentPad*
%ADD18RoundRect,0.250000X0.350000X0.625000X-0.350000X0.625000X-0.350000X-0.625000X0.350000X-0.625000X0*%
G04 #@! TD*
G04 #@! TA.AperFunction,ComponentPad*
%ADD19O,1.200000X1.750000*%
G04 #@! TD*
G04 #@! TA.AperFunction,ViaPad*
%ADD20C,0.800000*%
G04 #@! TD*
G04 #@! TA.AperFunction,Conductor*
%ADD21C,0.500000*%
G04 #@! TD*
G04 #@! TA.AperFunction,Conductor*
%ADD22C,0.250000*%
G04 #@! TD*
G04 #@! TA.AperFunction,Conductor*
%ADD23C,0.295910*%
G04 #@! TD*
G04 APERTURE END LIST*
D10*
X97220000Y-43455000D03*
D11*
X96220000Y-46155000D03*
X91220000Y-46155000D03*
D10*
X90220000Y-43455000D03*
D12*
X63000000Y-77600000D03*
D13*
X63000000Y-75060000D03*
X63000000Y-72520000D03*
X63000000Y-69980000D03*
X63000000Y-67440000D03*
X63000000Y-64900000D03*
X63000000Y-62360000D03*
D12*
X85010000Y-44150000D03*
D13*
X82470000Y-44150000D03*
D14*
X123230000Y-45092500D03*
X115030000Y-45092500D03*
D15*
X121130000Y-45092500D03*
D16*
X119130000Y-45092500D03*
X117130000Y-45092500D03*
D17*
X135330000Y-93010000D03*
X137870000Y-93010000D03*
D18*
X108040000Y-48520000D03*
D19*
X106040000Y-48520000D03*
D20*
X127110000Y-78380000D03*
X134760000Y-47020000D03*
X123440000Y-91590000D03*
X144560000Y-43450000D03*
X152300000Y-81160000D03*
X137275000Y-86165000D03*
X121730000Y-50210000D03*
X155380000Y-79870000D03*
X123080000Y-85180000D03*
X92410000Y-47990000D03*
X121545000Y-63845000D03*
X155030000Y-84940000D03*
X111290000Y-62220000D03*
X152395000Y-86405000D03*
X87320000Y-52920000D03*
X97620000Y-62360000D03*
X102260000Y-87220000D03*
X118595000Y-63855000D03*
X157740000Y-50030000D03*
X110620000Y-50580000D03*
X97780000Y-57410000D03*
X87460000Y-64170000D03*
X157690000Y-62480000D03*
X126415000Y-45705000D03*
X91715000Y-86012500D03*
X156660000Y-84780000D03*
X153637500Y-50362500D03*
X122660000Y-55360000D03*
X138880000Y-82100000D03*
X112075000Y-85825000D03*
X93920000Y-56200000D03*
X92570000Y-91370000D03*
X122375000Y-60635000D03*
X104250000Y-60460000D03*
X109800000Y-66320000D03*
X118594500Y-85979000D03*
X66840000Y-64900000D03*
X117940000Y-53350000D03*
X112860000Y-57220000D03*
X155420000Y-51650000D03*
X149370000Y-47050000D03*
X85910000Y-80920000D03*
X113600000Y-84610000D03*
X89400000Y-53140000D03*
X101640000Y-83470000D03*
X89380000Y-69410000D03*
X101850000Y-82130000D03*
X91950000Y-68500000D03*
X91950000Y-53200000D03*
X93850000Y-73300000D03*
X93845000Y-58245000D03*
X125100000Y-84720000D03*
X118680000Y-74150000D03*
X95105000Y-58145000D03*
X95080000Y-72960000D03*
X107280000Y-57140000D03*
X107130000Y-55250000D03*
X153610000Y-92100000D03*
X154005000Y-80455000D03*
X122740000Y-63560000D03*
X116560000Y-66950000D03*
X116900000Y-65660000D03*
X126110000Y-65360000D03*
X118850000Y-81010000D03*
X134060006Y-88400001D03*
X118770000Y-72040000D03*
X104680000Y-67700000D03*
X72750000Y-68840000D03*
X84840000Y-64070000D03*
X88640000Y-70420000D03*
X157450003Y-85830004D03*
X154090000Y-85850000D03*
X144600000Y-92120000D03*
X150600000Y-91250000D03*
X137130000Y-83840000D03*
X119880000Y-79530000D03*
D21*
X109800000Y-66320000D02*
X104250000Y-60770000D01*
X104250000Y-60770000D02*
X104250000Y-60460000D01*
D22*
X155670000Y-50230000D02*
X155670000Y-51090000D01*
X155420000Y-51340000D02*
X155420000Y-51650000D01*
X152490000Y-47050000D02*
X155670000Y-50230000D01*
X149370000Y-47050000D02*
X152490000Y-47050000D01*
X155670000Y-51090000D02*
X155420000Y-51340000D01*
X110670000Y-85020000D02*
X111080000Y-84610000D01*
X91510000Y-80920000D02*
X85910000Y-80920000D01*
X111080000Y-84610000D02*
X113600000Y-84610000D01*
X105760000Y-85020000D02*
X95610000Y-85020000D01*
X95610000Y-85020000D02*
X91510000Y-80920000D01*
X109680000Y-85020000D02*
X110670000Y-85020000D01*
X105760000Y-85020000D02*
X109680000Y-85020000D01*
X82470000Y-46210000D02*
X89400000Y-53140000D01*
D23*
X96970000Y-83780000D02*
X101330000Y-83780000D01*
X101330000Y-83780000D02*
X101640000Y-83470000D01*
X89400000Y-53140000D02*
X89400000Y-76210000D01*
D22*
X82470000Y-44150000D02*
X82470000Y-46210000D01*
D23*
X89400000Y-76210000D02*
X96970000Y-83780000D01*
X91950000Y-53200000D02*
X91950000Y-68500000D01*
X91950000Y-53200000D02*
X85010000Y-46260000D01*
X85010000Y-46260000D02*
X85010000Y-44150000D01*
X91950000Y-76200000D02*
X97880000Y-82130000D01*
X97880000Y-82130000D02*
X101850000Y-82130000D01*
X91950000Y-68500000D02*
X91950000Y-76200000D01*
D22*
X117530000Y-76080000D02*
X117530000Y-82330000D01*
X93845000Y-60265000D02*
X93845000Y-58245000D01*
X119090000Y-83890000D02*
X124270000Y-83890000D01*
X95620000Y-75070000D02*
X116520000Y-75070000D01*
X117530000Y-82330000D02*
X119090000Y-83890000D01*
X116520000Y-75070000D02*
X117530000Y-76080000D01*
X124270000Y-83890000D02*
X125100000Y-84720000D01*
X93850000Y-73300000D02*
X95620000Y-75070000D01*
X93845000Y-60265000D02*
X93850000Y-60270000D01*
X93850000Y-60270000D02*
X93850000Y-73300000D01*
X93865000Y-60285000D02*
X93845000Y-60265000D01*
X95155000Y-72885000D02*
X95080000Y-72960000D01*
X95155000Y-58195000D02*
X95155000Y-72885000D01*
X118680000Y-74150000D02*
X96270000Y-74150000D01*
X96270000Y-74150000D02*
X95080000Y-72960000D01*
X95105000Y-58145000D02*
X95155000Y-58195000D01*
X107280000Y-57140000D02*
X107280000Y-55400000D01*
X107280000Y-55400000D02*
X107130000Y-55250000D01*
X153610000Y-89270000D02*
X151500000Y-87160000D01*
X153610000Y-92100000D02*
X153610000Y-89270000D01*
X154080000Y-81220000D02*
X154080000Y-80530000D01*
X151500000Y-83800000D02*
X154080000Y-81220000D01*
X154080000Y-80530000D02*
X154005000Y-80455000D01*
X151500000Y-87160000D02*
X151500000Y-83800000D01*
X122770000Y-64060000D02*
X122770000Y-63590000D01*
X122770000Y-63590000D02*
X122740000Y-63560000D01*
X116560000Y-66950000D02*
X116120000Y-66510000D01*
X116760000Y-64630000D02*
X116120000Y-65270000D01*
X122200000Y-64630000D02*
X122770000Y-64060000D01*
X116120000Y-66510000D02*
X116120000Y-65270000D01*
X117710000Y-64630000D02*
X116760000Y-64630000D01*
X117710000Y-64630000D02*
X122200000Y-64630000D01*
X116900000Y-65660000D02*
X116900000Y-65650000D01*
X117350000Y-65200000D02*
X125950000Y-65200000D01*
X125950000Y-65200000D02*
X126110000Y-65360000D01*
X116900000Y-65650000D02*
X117350000Y-65200000D01*
D23*
X127380000Y-81010000D02*
X118850000Y-81010000D01*
X134060006Y-88400001D02*
X134060006Y-87690006D01*
X134060006Y-87690006D02*
X127380000Y-81010000D01*
D22*
X118300000Y-72060000D02*
X118750000Y-72060000D01*
X104680000Y-67700000D02*
X109040000Y-72060000D01*
X109040000Y-72060000D02*
X118300000Y-72060000D01*
X118750000Y-72060000D02*
X118770000Y-72040000D01*
X69220000Y-68840000D02*
X63000000Y-75060000D01*
X72750000Y-68840000D02*
X69220000Y-68840000D01*
D23*
X84840000Y-64070000D02*
X84840000Y-67870000D01*
X87390000Y-70420000D02*
X88640000Y-70420000D01*
X84840000Y-67870000D02*
X87390000Y-70420000D01*
X154109996Y-85830004D02*
X154090000Y-85850000D01*
X157450003Y-85830004D02*
X154109996Y-85830004D01*
D22*
X150600000Y-91250000D02*
X147370000Y-91250000D01*
X147370000Y-91250000D02*
X145470000Y-91250000D01*
X145470000Y-91250000D02*
X144600000Y-92120000D01*
X119880000Y-79530000D02*
X127900000Y-79530000D01*
X131380000Y-83010000D02*
X132160000Y-83790000D01*
X137080000Y-83790000D02*
X137130000Y-83840000D01*
X136900000Y-83790000D02*
X137080000Y-83790000D01*
X132160000Y-83790000D02*
X136900000Y-83790000D01*
X127900000Y-79530000D02*
X131380000Y-83010000D01*
M02*
