G04 #@! TF.GenerationSoftware,KiCad,Pcbnew,(6.0.1-0)*
G04 #@! TF.CreationDate,2023-01-13T10:30:12+06:00*
G04 #@! TF.ProjectId,ESP_GSM,4553505f-4753-44d2-9e6b-696361645f70,rev?*
G04 #@! TF.SameCoordinates,Original*
G04 #@! TF.FileFunction,Copper,L3,Inr*
G04 #@! TF.FilePolarity,Positive*
%FSLAX46Y46*%
G04 Gerber Fmt 4.6, Leading zero omitted, Abs format (unit mm)*
G04 Created by KiCad (PCBNEW (6.0.1-0)) date 2023-01-13 10:30:12*
%MOMM*%
%LPD*%
G01*
G04 APERTURE LIST*
G04 Aperture macros list*
%AMRoundRect*
0 Rectangle with rounded corners*
0 $1 Rounding radius*
0 $2 $3 $4 $5 $6 $7 $8 $9 X,Y pos of 4 corners*
0 Add a 4 corners polygon primitive as box body*
4,1,4,$2,$3,$4,$5,$6,$7,$8,$9,$2,$3,0*
0 Add four circle primitives for the rounded corners*
1,1,$1+$1,$2,$3*
1,1,$1+$1,$4,$5*
1,1,$1+$1,$6,$7*
1,1,$1+$1,$8,$9*
0 Add four rect primitives between the rounded corners*
20,1,$1+$1,$2,$3,$4,$5,0*
20,1,$1+$1,$4,$5,$6,$7,0*
20,1,$1+$1,$6,$7,$8,$9,0*
20,1,$1+$1,$8,$9,$2,$3,0*%
G04 Aperture macros list end*
G04 #@! TA.AperFunction,ComponentPad*
%ADD10O,0.890000X1.550000*%
G04 #@! TD*
G04 #@! TA.AperFunction,ComponentPad*
%ADD11O,1.250000X0.950000*%
G04 #@! TD*
G04 #@! TA.AperFunction,ComponentPad*
%ADD12R,1.700000X1.700000*%
G04 #@! TD*
G04 #@! TA.AperFunction,ComponentPad*
%ADD13O,1.700000X1.700000*%
G04 #@! TD*
G04 #@! TA.AperFunction,ComponentPad*
%ADD14O,2.200000X3.500000*%
G04 #@! TD*
G04 #@! TA.AperFunction,ComponentPad*
%ADD15R,1.500000X2.500000*%
G04 #@! TD*
G04 #@! TA.AperFunction,ComponentPad*
%ADD16O,1.500000X2.500000*%
G04 #@! TD*
G04 #@! TA.AperFunction,ComponentPad*
%ADD17C,1.400000*%
G04 #@! TD*
G04 #@! TA.AperFunction,ComponentPad*
%ADD18RoundRect,0.250000X0.350000X0.625000X-0.350000X0.625000X-0.350000X-0.625000X0.350000X-0.625000X0*%
G04 #@! TD*
G04 #@! TA.AperFunction,ComponentPad*
%ADD19O,1.200000X1.750000*%
G04 #@! TD*
G04 #@! TA.AperFunction,ViaPad*
%ADD20C,0.800000*%
G04 #@! TD*
G04 #@! TA.AperFunction,Conductor*
%ADD21C,1.000000*%
G04 #@! TD*
G04 APERTURE END LIST*
D10*
X97220000Y-43455000D03*
D11*
X96220000Y-46155000D03*
X91220000Y-46155000D03*
D10*
X90220000Y-43455000D03*
D12*
X63000000Y-77600000D03*
D13*
X63000000Y-75060000D03*
X63000000Y-72520000D03*
X63000000Y-69980000D03*
X63000000Y-67440000D03*
X63000000Y-64900000D03*
X63000000Y-62360000D03*
D12*
X85010000Y-44150000D03*
D13*
X82470000Y-44150000D03*
D14*
X123230000Y-45092500D03*
X115030000Y-45092500D03*
D15*
X121130000Y-45092500D03*
D16*
X119130000Y-45092500D03*
X117130000Y-45092500D03*
D17*
X135330000Y-93010000D03*
X137870000Y-93010000D03*
D18*
X108040000Y-48520000D03*
D19*
X106040000Y-48520000D03*
D20*
X127110000Y-78380000D03*
X134760000Y-47020000D03*
X123440000Y-91590000D03*
X144560000Y-43450000D03*
X152300000Y-81160000D03*
X137275000Y-86165000D03*
X121730000Y-50210000D03*
X155380000Y-79870000D03*
X123080000Y-85180000D03*
X92410000Y-47990000D03*
X121545000Y-63845000D03*
X155030000Y-84940000D03*
X111290000Y-62220000D03*
X152395000Y-86405000D03*
X87320000Y-52920000D03*
X97620000Y-62360000D03*
X102260000Y-87220000D03*
X118595000Y-63855000D03*
X157740000Y-50030000D03*
X110620000Y-50580000D03*
X97780000Y-57410000D03*
X87460000Y-64170000D03*
X157690000Y-62480000D03*
X126415000Y-45705000D03*
X91715000Y-86012500D03*
X156660000Y-84780000D03*
X153637500Y-50362500D03*
X122660000Y-55360000D03*
X138880000Y-82100000D03*
X112075000Y-85825000D03*
X93920000Y-56200000D03*
X92570000Y-91370000D03*
X122375000Y-60635000D03*
X104250000Y-60460000D03*
X109800000Y-66320000D03*
X118594500Y-85979000D03*
X66840000Y-64900000D03*
X117940000Y-53350000D03*
X112860000Y-57220000D03*
X155420000Y-51650000D03*
X149370000Y-47050000D03*
X85910000Y-80920000D03*
X113600000Y-84610000D03*
X89400000Y-53140000D03*
X101640000Y-83470000D03*
X89380000Y-69410000D03*
X101850000Y-82130000D03*
X91950000Y-68500000D03*
X91950000Y-53200000D03*
X93850000Y-73300000D03*
X93845000Y-58245000D03*
X125100000Y-84720000D03*
X118680000Y-74150000D03*
X95105000Y-58145000D03*
X95080000Y-72960000D03*
X107280000Y-57140000D03*
X107130000Y-55250000D03*
X153610000Y-92100000D03*
X154005000Y-80455000D03*
X122740000Y-63560000D03*
X116560000Y-66950000D03*
X116900000Y-65660000D03*
X126110000Y-65360000D03*
X118850000Y-81010000D03*
X134060006Y-88400001D03*
X118770000Y-72040000D03*
X104680000Y-67700000D03*
X72750000Y-68840000D03*
X84840000Y-64070000D03*
X88640000Y-70420000D03*
X157450003Y-85830004D03*
X154090000Y-85850000D03*
X144600000Y-92120000D03*
X150600000Y-91250000D03*
X137130000Y-83840000D03*
X119880000Y-79530000D03*
D21*
X119130000Y-46342500D02*
X119130000Y-45092500D01*
X108040000Y-48520000D02*
X116952500Y-48520000D01*
X116952500Y-48520000D02*
X119130000Y-46342500D01*
G04 #@! TA.AperFunction,Conductor*
G36*
X90336730Y-46020002D02*
G01*
X90383223Y-46073658D01*
X90394607Y-46126659D01*
X90394049Y-46233210D01*
X90395821Y-46240590D01*
X90395821Y-46240592D01*
X90429104Y-46379227D01*
X90432216Y-46392190D01*
X90507204Y-46537476D01*
X90512196Y-46543198D01*
X90512197Y-46543200D01*
X90609688Y-46654956D01*
X90609691Y-46654959D01*
X90614683Y-46660681D01*
X90748448Y-46754693D01*
X90900776Y-46814083D01*
X91025473Y-46830500D01*
X91410996Y-46830500D01*
X91532313Y-46815819D01*
X91685255Y-46758027D01*
X91703182Y-46745706D01*
X91813738Y-46669723D01*
X91813739Y-46669722D01*
X91819997Y-46665421D01*
X91928760Y-46543348D01*
X91932313Y-46536638D01*
X92001712Y-46405566D01*
X92001713Y-46405564D01*
X92005265Y-46398855D01*
X92025548Y-46318104D01*
X92043244Y-46247655D01*
X92043244Y-46247651D01*
X92045095Y-46240284D01*
X92045219Y-46216705D01*
X92045697Y-46125340D01*
X92066055Y-46057325D01*
X92119954Y-46011114D01*
X92171695Y-46000000D01*
X95268609Y-46000000D01*
X95336730Y-46020002D01*
X95383223Y-46073658D01*
X95394607Y-46126659D01*
X95394049Y-46233210D01*
X95395821Y-46240590D01*
X95395821Y-46240592D01*
X95429104Y-46379227D01*
X95432216Y-46392190D01*
X95507204Y-46537476D01*
X95512196Y-46543198D01*
X95512197Y-46543200D01*
X95609688Y-46654956D01*
X95609691Y-46654959D01*
X95614683Y-46660681D01*
X95748448Y-46754693D01*
X95900776Y-46814083D01*
X96025473Y-46830500D01*
X96410996Y-46830500D01*
X96532313Y-46815819D01*
X96685255Y-46758027D01*
X96703182Y-46745706D01*
X96813738Y-46669723D01*
X96813739Y-46669722D01*
X96819997Y-46665421D01*
X96928760Y-46543348D01*
X96932313Y-46536638D01*
X97001712Y-46405566D01*
X97001713Y-46405564D01*
X97005265Y-46398855D01*
X97025548Y-46318104D01*
X97043244Y-46247655D01*
X97043244Y-46247651D01*
X97045095Y-46240284D01*
X97045219Y-46216705D01*
X97045697Y-46125340D01*
X97066055Y-46057325D01*
X97119954Y-46011114D01*
X97171695Y-46000000D01*
X113655936Y-46000000D01*
X113724057Y-46020002D01*
X113770550Y-46073658D01*
X113777643Y-46093389D01*
X113789678Y-46138305D01*
X113803261Y-46188996D01*
X113805583Y-46193976D01*
X113805584Y-46193978D01*
X113894572Y-46384811D01*
X113899432Y-46395234D01*
X114029953Y-46581639D01*
X114190861Y-46742547D01*
X114377266Y-46873068D01*
X114382244Y-46875389D01*
X114382247Y-46875391D01*
X114578522Y-46966916D01*
X114583504Y-46969239D01*
X114588812Y-46970661D01*
X114588814Y-46970662D01*
X114797993Y-47026711D01*
X114797995Y-47026711D01*
X114803308Y-47028135D01*
X115030000Y-47047968D01*
X115256692Y-47028135D01*
X115262005Y-47026711D01*
X115262007Y-47026711D01*
X115471186Y-46970662D01*
X115471188Y-46970661D01*
X115476496Y-46969239D01*
X115481478Y-46966916D01*
X115677753Y-46875391D01*
X115677756Y-46875389D01*
X115682734Y-46873068D01*
X115869139Y-46742547D01*
X116030047Y-46581639D01*
X116160568Y-46395234D01*
X116165429Y-46384811D01*
X116220850Y-46265960D01*
X116267768Y-46212675D01*
X116336045Y-46193214D01*
X116404005Y-46213756D01*
X116430710Y-46237210D01*
X116471136Y-46284375D01*
X116476178Y-46288286D01*
X116476179Y-46288287D01*
X116618665Y-46398811D01*
X116618668Y-46398813D01*
X116623714Y-46402727D01*
X116796974Y-46487981D01*
X116803144Y-46489588D01*
X116803149Y-46489590D01*
X116977655Y-46535045D01*
X116977658Y-46535045D01*
X116983837Y-46536655D01*
X117067203Y-46541024D01*
X117170290Y-46546427D01*
X117170294Y-46546427D01*
X117176671Y-46546761D01*
X117367599Y-46517886D01*
X117437130Y-46492304D01*
X117542832Y-46453414D01*
X117542836Y-46453412D01*
X117548821Y-46451210D01*
X117712934Y-46349455D01*
X117820585Y-46247655D01*
X117848596Y-46221166D01*
X117848597Y-46221165D01*
X117853235Y-46216779D01*
X117869201Y-46193978D01*
X117963991Y-46058602D01*
X117965153Y-46059416D01*
X118010635Y-46014823D01*
X118069927Y-46000000D01*
X118177654Y-46000000D01*
X118245775Y-46020002D01*
X118292268Y-46073658D01*
X118302372Y-46143932D01*
X118272878Y-46208512D01*
X118266749Y-46215095D01*
X116699248Y-47782595D01*
X116636936Y-47816621D01*
X116610153Y-47819500D01*
X108930281Y-47819500D01*
X108862160Y-47799498D01*
X108815667Y-47745842D01*
X108811398Y-47735249D01*
X108809880Y-47730927D01*
X108792634Y-47681816D01*
X108787042Y-47674246D01*
X108787041Y-47674243D01*
X108717742Y-47580421D01*
X108712150Y-47572850D01*
X108690278Y-47556695D01*
X108610757Y-47497959D01*
X108610754Y-47497958D01*
X108603184Y-47492366D01*
X108475369Y-47447481D01*
X108467723Y-47446758D01*
X108467722Y-47446758D01*
X108461752Y-47446194D01*
X108443834Y-47444500D01*
X107636166Y-47444500D01*
X107618248Y-47446194D01*
X107612278Y-47446758D01*
X107612277Y-47446758D01*
X107604631Y-47447481D01*
X107476816Y-47492366D01*
X107469246Y-47497958D01*
X107469243Y-47497959D01*
X107389722Y-47556695D01*
X107367850Y-47572850D01*
X107362258Y-47580421D01*
X107292959Y-47674243D01*
X107292958Y-47674246D01*
X107287366Y-47681816D01*
X107242481Y-47809631D01*
X107239500Y-47841166D01*
X107239500Y-49198834D01*
X107242481Y-49230369D01*
X107287366Y-49358184D01*
X107292958Y-49365754D01*
X107292959Y-49365757D01*
X107355335Y-49450206D01*
X107367850Y-49467150D01*
X107375421Y-49472742D01*
X107469243Y-49542041D01*
X107469246Y-49542042D01*
X107476816Y-49547634D01*
X107604631Y-49592519D01*
X107612277Y-49593242D01*
X107612278Y-49593242D01*
X107618248Y-49593806D01*
X107636166Y-49595500D01*
X108443834Y-49595500D01*
X108461752Y-49593806D01*
X108467722Y-49593242D01*
X108467723Y-49593242D01*
X108475369Y-49592519D01*
X108603184Y-49547634D01*
X108610754Y-49542042D01*
X108610757Y-49542041D01*
X108704579Y-49472742D01*
X108712150Y-49467150D01*
X108724665Y-49450206D01*
X108787041Y-49365757D01*
X108787042Y-49365754D01*
X108792634Y-49358184D01*
X108811398Y-49304751D01*
X108852842Y-49247106D01*
X108918871Y-49221018D01*
X108930281Y-49220500D01*
X116923859Y-49220500D01*
X116932429Y-49220792D01*
X116981854Y-49224162D01*
X116981858Y-49224162D01*
X116989430Y-49224678D01*
X116996906Y-49223373D01*
X116996909Y-49223373D01*
X117051632Y-49213822D01*
X117058158Y-49212859D01*
X117098596Y-49207965D01*
X117120820Y-49205276D01*
X117127927Y-49202591D01*
X117131220Y-49201782D01*
X117145691Y-49197823D01*
X117148967Y-49196834D01*
X117156454Y-49195527D01*
X117163414Y-49192472D01*
X117214260Y-49170153D01*
X117220366Y-49167661D01*
X117272318Y-49148030D01*
X117272320Y-49148029D01*
X117279423Y-49145345D01*
X117285678Y-49141046D01*
X117288703Y-49139465D01*
X117301799Y-49132175D01*
X117304743Y-49130434D01*
X117311702Y-49127379D01*
X117361773Y-49088958D01*
X117367109Y-49085081D01*
X117412886Y-49053619D01*
X117412892Y-49053614D01*
X117419151Y-49049312D01*
X117460109Y-49003342D01*
X117465089Y-48998067D01*
X119605074Y-46858083D01*
X119611340Y-46852229D01*
X119648669Y-46819665D01*
X119654396Y-46814669D01*
X119690702Y-46763010D01*
X119694627Y-46757726D01*
X119710331Y-46737698D01*
X119733583Y-46708043D01*
X119736711Y-46701116D01*
X119738486Y-46698185D01*
X119745903Y-46685182D01*
X119747519Y-46682168D01*
X119751887Y-46675953D01*
X119754646Y-46668877D01*
X119754648Y-46668873D01*
X119774819Y-46617136D01*
X119777375Y-46611055D01*
X119800231Y-46560435D01*
X119800231Y-46560434D01*
X119803355Y-46553516D01*
X119804739Y-46546050D01*
X119805757Y-46542801D01*
X119809877Y-46528336D01*
X119810717Y-46525063D01*
X119813476Y-46517987D01*
X119819356Y-46473317D01*
X119821716Y-46455394D01*
X119822748Y-46448877D01*
X119830779Y-46405547D01*
X119834252Y-46386808D01*
X119830709Y-46325356D01*
X119830500Y-46318104D01*
X119830500Y-46288975D01*
X119853285Y-46216707D01*
X119950289Y-46078171D01*
X120005743Y-46033844D01*
X120076363Y-46026535D01*
X120139723Y-46058565D01*
X120175709Y-46119766D01*
X120179500Y-46150443D01*
X120179500Y-46362248D01*
X120180707Y-46368316D01*
X120188113Y-46405547D01*
X120191133Y-46420731D01*
X120235448Y-46487052D01*
X120301769Y-46531367D01*
X120313938Y-46533788D01*
X120313939Y-46533788D01*
X120354184Y-46541793D01*
X120360252Y-46543000D01*
X121899748Y-46543000D01*
X121905816Y-46541793D01*
X121946061Y-46533788D01*
X121946062Y-46533788D01*
X121958231Y-46531367D01*
X121968548Y-46524473D01*
X121968551Y-46524472D01*
X122016859Y-46492193D01*
X122084612Y-46470977D01*
X122153079Y-46489759D01*
X122190075Y-46524687D01*
X122229953Y-46581639D01*
X122390861Y-46742547D01*
X122577266Y-46873068D01*
X122582244Y-46875389D01*
X122582247Y-46875391D01*
X122778522Y-46966916D01*
X122783504Y-46969239D01*
X122788812Y-46970661D01*
X122788814Y-46970662D01*
X122997993Y-47026711D01*
X122997995Y-47026711D01*
X123003308Y-47028135D01*
X123230000Y-47047968D01*
X123456692Y-47028135D01*
X123462005Y-47026711D01*
X123462007Y-47026711D01*
X123487053Y-47020000D01*
X134154318Y-47020000D01*
X134174956Y-47176762D01*
X134235464Y-47322841D01*
X134282637Y-47384318D01*
X134325510Y-47440191D01*
X134331718Y-47448282D01*
X134457159Y-47544536D01*
X134603238Y-47605044D01*
X134760000Y-47625682D01*
X134768188Y-47624604D01*
X134786525Y-47622190D01*
X134916762Y-47605044D01*
X135062841Y-47544536D01*
X135188282Y-47448282D01*
X135194491Y-47440191D01*
X135237363Y-47384318D01*
X135284536Y-47322841D01*
X135345044Y-47176762D01*
X135361732Y-47050000D01*
X148764318Y-47050000D01*
X148784956Y-47206762D01*
X148845464Y-47352841D01*
X148850491Y-47359392D01*
X148927602Y-47459885D01*
X148941718Y-47478282D01*
X149067159Y-47574536D01*
X149213238Y-47635044D01*
X149370000Y-47655682D01*
X149378188Y-47654604D01*
X149518574Y-47636122D01*
X149526762Y-47635044D01*
X149672841Y-47574536D01*
X149798282Y-47478282D01*
X149812399Y-47459885D01*
X149889509Y-47359392D01*
X149894536Y-47352841D01*
X149955044Y-47206762D01*
X149975682Y-47050000D01*
X149955044Y-46893238D01*
X149894536Y-46747159D01*
X149798282Y-46621718D01*
X149672841Y-46525464D01*
X149526762Y-46464956D01*
X149370000Y-46444318D01*
X149213238Y-46464956D01*
X149067159Y-46525464D01*
X148941718Y-46621718D01*
X148845464Y-46747159D01*
X148784956Y-46893238D01*
X148764318Y-47050000D01*
X135361732Y-47050000D01*
X135365682Y-47020000D01*
X135345044Y-46863238D01*
X135284536Y-46717159D01*
X135207786Y-46617136D01*
X135193305Y-46598264D01*
X135188282Y-46591718D01*
X135062841Y-46495464D01*
X134916762Y-46434956D01*
X134760000Y-46414318D01*
X134603238Y-46434956D01*
X134457159Y-46495464D01*
X134331718Y-46591718D01*
X134326695Y-46598264D01*
X134312214Y-46617136D01*
X134235464Y-46717159D01*
X134174956Y-46863238D01*
X134154318Y-47020000D01*
X123487053Y-47020000D01*
X123671186Y-46970662D01*
X123671188Y-46970661D01*
X123676496Y-46969239D01*
X123681478Y-46966916D01*
X123877753Y-46875391D01*
X123877756Y-46875389D01*
X123882734Y-46873068D01*
X124069139Y-46742547D01*
X124230047Y-46581639D01*
X124360568Y-46395234D01*
X124365429Y-46384811D01*
X124454416Y-46193978D01*
X124454417Y-46193976D01*
X124456739Y-46188996D01*
X124470322Y-46138305D01*
X124482357Y-46093389D01*
X124519309Y-46032766D01*
X124583170Y-46001745D01*
X124604064Y-46000000D01*
X125822310Y-46000000D01*
X125890431Y-46020002D01*
X125922272Y-46049296D01*
X125981691Y-46126732D01*
X125981695Y-46126736D01*
X125986718Y-46133282D01*
X126112159Y-46229536D01*
X126258238Y-46290044D01*
X126415000Y-46310682D01*
X126423188Y-46309604D01*
X126563574Y-46291122D01*
X126571762Y-46290044D01*
X126717841Y-46229536D01*
X126843282Y-46133282D01*
X126848305Y-46126736D01*
X126848309Y-46126732D01*
X126907728Y-46049296D01*
X126965066Y-46007429D01*
X127007690Y-46000000D01*
X153874000Y-46000000D01*
X153942121Y-46020002D01*
X153988614Y-46073658D01*
X154000000Y-46126000D01*
X154000000Y-49674103D01*
X153979998Y-49742224D01*
X153926342Y-49788717D01*
X153856068Y-49798821D01*
X153825782Y-49790512D01*
X153801891Y-49780616D01*
X153794262Y-49777456D01*
X153637500Y-49756818D01*
X153480738Y-49777456D01*
X153334659Y-49837964D01*
X153209218Y-49934218D01*
X153112964Y-50059659D01*
X153052456Y-50205738D01*
X153031818Y-50362500D01*
X153052456Y-50519262D01*
X153112964Y-50665341D01*
X153209218Y-50790782D01*
X153215764Y-50795805D01*
X153241668Y-50815682D01*
X153334659Y-50887036D01*
X153480738Y-50947544D01*
X153637500Y-50968182D01*
X153645688Y-50967104D01*
X153786074Y-50948622D01*
X153794262Y-50947544D01*
X153825782Y-50934488D01*
X153896372Y-50926899D01*
X153959859Y-50958678D01*
X153996086Y-51019736D01*
X154000000Y-51050897D01*
X154000000Y-79739477D01*
X153979998Y-79807598D01*
X153926342Y-79854091D01*
X153890447Y-79864399D01*
X153856426Y-79868878D01*
X153848238Y-79869956D01*
X153702159Y-79930464D01*
X153576718Y-80026718D01*
X153480464Y-80152159D01*
X153419956Y-80298238D01*
X153399318Y-80455000D01*
X153400396Y-80463188D01*
X153414969Y-80573878D01*
X153419956Y-80611762D01*
X153480464Y-80757841D01*
X153576718Y-80883282D01*
X153702159Y-80979536D01*
X153848238Y-81040044D01*
X153856426Y-81041122D01*
X153890447Y-81045601D01*
X153955374Y-81074324D01*
X153994465Y-81133589D01*
X154000000Y-81170523D01*
X154000000Y-85153112D01*
X153979998Y-85221233D01*
X153922219Y-85269520D01*
X153787159Y-85325464D01*
X153661718Y-85421718D01*
X153565464Y-85547159D01*
X153504956Y-85693238D01*
X153484318Y-85850000D01*
X153504956Y-86006762D01*
X153565464Y-86152841D01*
X153661718Y-86278282D01*
X153787159Y-86374536D01*
X153922219Y-86430480D01*
X153977499Y-86475027D01*
X154000000Y-86546888D01*
X154000000Y-91422994D01*
X153979998Y-91491115D01*
X153926342Y-91537608D01*
X153856068Y-91547712D01*
X153825782Y-91539403D01*
X153774391Y-91518116D01*
X153766762Y-91514956D01*
X153610000Y-91494318D01*
X153453238Y-91514956D01*
X153307159Y-91575464D01*
X153181718Y-91671718D01*
X153176695Y-91678264D01*
X153161349Y-91698264D01*
X153085464Y-91797159D01*
X153024956Y-91943238D01*
X153004318Y-92100000D01*
X153024956Y-92256762D01*
X153085464Y-92402841D01*
X153181718Y-92528282D01*
X153307159Y-92624536D01*
X153453238Y-92685044D01*
X153610000Y-92705682D01*
X153618188Y-92704604D01*
X153758574Y-92686122D01*
X153766762Y-92685044D01*
X153825782Y-92660597D01*
X153896371Y-92653008D01*
X153959859Y-92684787D01*
X153996086Y-92745845D01*
X154000000Y-92777006D01*
X154000000Y-93874000D01*
X153979998Y-93942121D01*
X153926342Y-93988614D01*
X153874000Y-94000000D01*
X138427191Y-94000000D01*
X138359070Y-93979998D01*
X138312577Y-93926342D01*
X138302473Y-93856068D01*
X138331967Y-93791488D01*
X138353130Y-93772064D01*
X138470532Y-93686767D01*
X138475871Y-93682888D01*
X138602533Y-93542216D01*
X138697179Y-93378284D01*
X138755674Y-93198256D01*
X138775460Y-93010000D01*
X138755674Y-92821744D01*
X138697179Y-92641716D01*
X138602533Y-92477784D01*
X138546192Y-92415211D01*
X138480286Y-92342015D01*
X138480284Y-92342014D01*
X138475871Y-92337112D01*
X138470532Y-92333233D01*
X138328072Y-92229730D01*
X138328071Y-92229729D01*
X138322730Y-92225849D01*
X138149803Y-92148856D01*
X138051788Y-92128022D01*
X138014047Y-92120000D01*
X143994318Y-92120000D01*
X144014956Y-92276762D01*
X144075464Y-92422841D01*
X144080491Y-92429392D01*
X144156372Y-92528282D01*
X144171718Y-92548282D01*
X144297159Y-92644536D01*
X144443238Y-92705044D01*
X144600000Y-92725682D01*
X144608188Y-92724604D01*
X144748574Y-92706122D01*
X144756762Y-92705044D01*
X144902841Y-92644536D01*
X145028282Y-92548282D01*
X145043629Y-92528282D01*
X145119509Y-92429392D01*
X145124536Y-92422841D01*
X145185044Y-92276762D01*
X145205682Y-92120000D01*
X145185044Y-91963238D01*
X145124536Y-91817159D01*
X145028282Y-91691718D01*
X144902841Y-91595464D01*
X144756762Y-91534956D01*
X144600000Y-91514318D01*
X144443238Y-91534956D01*
X144297159Y-91595464D01*
X144171718Y-91691718D01*
X144075464Y-91817159D01*
X144014956Y-91963238D01*
X143994318Y-92120000D01*
X138014047Y-92120000D01*
X137971103Y-92110872D01*
X137971099Y-92110872D01*
X137964646Y-92109500D01*
X137775354Y-92109500D01*
X137768901Y-92110872D01*
X137768897Y-92110872D01*
X137688212Y-92128022D01*
X137590197Y-92148856D01*
X137417270Y-92225849D01*
X137411929Y-92229729D01*
X137411928Y-92229730D01*
X137269468Y-92333233D01*
X137264129Y-92337112D01*
X137259716Y-92342014D01*
X137259714Y-92342015D01*
X137193808Y-92415211D01*
X137137467Y-92477784D01*
X137042821Y-92641716D01*
X136984326Y-92821744D01*
X136964540Y-93010000D01*
X136984326Y-93198256D01*
X137042821Y-93378284D01*
X137137467Y-93542216D01*
X137264129Y-93682888D01*
X137269468Y-93686767D01*
X137386870Y-93772064D01*
X137430224Y-93828286D01*
X137436299Y-93899022D01*
X137403168Y-93961814D01*
X137341348Y-93996725D01*
X137312809Y-94000000D01*
X135887191Y-94000000D01*
X135819070Y-93979998D01*
X135772577Y-93926342D01*
X135762473Y-93856068D01*
X135791967Y-93791488D01*
X135813130Y-93772064D01*
X135930532Y-93686767D01*
X135935871Y-93682888D01*
X136062533Y-93542216D01*
X136157179Y-93378284D01*
X136215674Y-93198256D01*
X136235460Y-93010000D01*
X136215674Y-92821744D01*
X136157179Y-92641716D01*
X136062533Y-92477784D01*
X136006192Y-92415211D01*
X135940286Y-92342015D01*
X135940284Y-92342014D01*
X135935871Y-92337112D01*
X135930532Y-92333233D01*
X135788072Y-92229730D01*
X135788071Y-92229729D01*
X135782730Y-92225849D01*
X135609803Y-92148856D01*
X135511788Y-92128022D01*
X135431103Y-92110872D01*
X135431099Y-92110872D01*
X135424646Y-92109500D01*
X135235354Y-92109500D01*
X135228901Y-92110872D01*
X135228897Y-92110872D01*
X135148212Y-92128022D01*
X135050197Y-92148856D01*
X134877270Y-92225849D01*
X134871929Y-92229729D01*
X134871928Y-92229730D01*
X134729468Y-92333233D01*
X134724129Y-92337112D01*
X134719716Y-92342014D01*
X134719714Y-92342015D01*
X134653808Y-92415211D01*
X134597467Y-92477784D01*
X134502821Y-92641716D01*
X134444326Y-92821744D01*
X134424540Y-93010000D01*
X134444326Y-93198256D01*
X134502821Y-93378284D01*
X134597467Y-93542216D01*
X134724129Y-93682888D01*
X134729468Y-93686767D01*
X134846870Y-93772064D01*
X134890224Y-93828286D01*
X134896299Y-93899022D01*
X134863168Y-93961814D01*
X134801348Y-93996725D01*
X134772809Y-94000000D01*
X122066000Y-94000000D01*
X121997879Y-93979998D01*
X121951386Y-93926342D01*
X121940000Y-93874000D01*
X121940000Y-91590000D01*
X122834318Y-91590000D01*
X122854956Y-91746762D01*
X122915464Y-91892841D01*
X123011718Y-92018282D01*
X123137159Y-92114536D01*
X123283238Y-92175044D01*
X123440000Y-92195682D01*
X123448188Y-92194604D01*
X123588574Y-92176122D01*
X123596762Y-92175044D01*
X123742841Y-92114536D01*
X123868282Y-92018282D01*
X123964536Y-91892841D01*
X124025044Y-91746762D01*
X124045682Y-91590000D01*
X124025044Y-91433238D01*
X123964536Y-91287159D01*
X123936023Y-91250000D01*
X149994318Y-91250000D01*
X150014956Y-91406762D01*
X150075464Y-91552841D01*
X150171718Y-91678282D01*
X150297159Y-91774536D01*
X150443238Y-91835044D01*
X150600000Y-91855682D01*
X150608188Y-91854604D01*
X150748574Y-91836122D01*
X150756762Y-91835044D01*
X150902841Y-91774536D01*
X151028282Y-91678282D01*
X151124536Y-91552841D01*
X151185044Y-91406762D01*
X151205682Y-91250000D01*
X151185044Y-91093238D01*
X151124536Y-90947159D01*
X151028282Y-90821718D01*
X150902841Y-90725464D01*
X150756762Y-90664956D01*
X150600000Y-90644318D01*
X150443238Y-90664956D01*
X150297159Y-90725464D01*
X150171718Y-90821718D01*
X150075464Y-90947159D01*
X150014956Y-91093238D01*
X149994318Y-91250000D01*
X123936023Y-91250000D01*
X123868282Y-91161718D01*
X123742841Y-91065464D01*
X123596762Y-91004956D01*
X123440000Y-90984318D01*
X123283238Y-91004956D01*
X123137159Y-91065464D01*
X123011718Y-91161718D01*
X122915464Y-91287159D01*
X122854956Y-91433238D01*
X122834318Y-91590000D01*
X121940000Y-91590000D01*
X121940000Y-88960000D01*
X118285451Y-88962612D01*
X118217316Y-88942659D01*
X118187474Y-88908935D01*
X118184844Y-88911031D01*
X118184593Y-88910715D01*
X118179384Y-88904178D01*
X118170084Y-88889353D01*
X118166688Y-88885084D01*
X118160547Y-88872295D01*
X118149464Y-88863432D01*
X118146293Y-88859446D01*
X118140809Y-88853952D01*
X118136827Y-88850773D01*
X118127985Y-88839677D01*
X118115207Y-88833514D01*
X118110936Y-88830104D01*
X118105286Y-88826546D01*
X118100366Y-88824168D01*
X118089285Y-88815306D01*
X118075457Y-88812126D01*
X118070876Y-88809912D01*
X118063551Y-88807339D01*
X118058580Y-88806201D01*
X118045798Y-88800035D01*
X118022787Y-88800015D01*
X118022789Y-88798003D01*
X118022723Y-88797988D01*
X118022723Y-88800000D01*
X118005877Y-88800000D01*
X117954551Y-88799955D01*
X117954555Y-88795150D01*
X117954457Y-88795144D01*
X117954457Y-88800000D01*
X98005877Y-88800000D01*
X97968742Y-88799967D01*
X97968740Y-88799967D01*
X97954551Y-88799955D01*
X97941758Y-88806098D01*
X97936790Y-88807227D01*
X97929465Y-88809785D01*
X97924875Y-88811994D01*
X97911038Y-88815150D01*
X97899939Y-88823994D01*
X97895015Y-88826364D01*
X97889353Y-88829916D01*
X97885084Y-88833312D01*
X97872295Y-88839453D01*
X97863432Y-88850536D01*
X97859446Y-88853707D01*
X97853952Y-88859191D01*
X97850773Y-88863173D01*
X97839677Y-88872015D01*
X97833514Y-88884793D01*
X97830104Y-88889064D01*
X97826546Y-88894714D01*
X97824168Y-88899634D01*
X97815306Y-88910715D01*
X97814768Y-88913057D01*
X97773357Y-88958785D01*
X97707663Y-88977321D01*
X93978118Y-88979987D01*
X93960000Y-88980000D01*
X93960000Y-93874000D01*
X93939998Y-93942121D01*
X93886342Y-93988614D01*
X93834000Y-94000000D01*
X66126000Y-94000000D01*
X66057879Y-93979998D01*
X66011386Y-93926342D01*
X66000000Y-93874000D01*
X66000000Y-91370000D01*
X91964318Y-91370000D01*
X91984956Y-91526762D01*
X92045464Y-91672841D01*
X92056095Y-91686695D01*
X92135830Y-91790608D01*
X92141718Y-91798282D01*
X92267159Y-91894536D01*
X92413238Y-91955044D01*
X92570000Y-91975682D01*
X92578188Y-91974604D01*
X92718574Y-91956122D01*
X92726762Y-91955044D01*
X92872841Y-91894536D01*
X92998282Y-91798282D01*
X93004171Y-91790608D01*
X93083905Y-91686695D01*
X93094536Y-91672841D01*
X93155044Y-91526762D01*
X93175682Y-91370000D01*
X93155044Y-91213238D01*
X93094536Y-91067159D01*
X92998282Y-90941718D01*
X92872841Y-90845464D01*
X92726762Y-90784956D01*
X92570000Y-90764318D01*
X92413238Y-90784956D01*
X92267159Y-90845464D01*
X92141718Y-90941718D01*
X92045464Y-91067159D01*
X91984956Y-91213238D01*
X91964318Y-91370000D01*
X66000000Y-91370000D01*
X66000000Y-88400001D01*
X133454324Y-88400001D01*
X133474962Y-88556763D01*
X133535470Y-88702842D01*
X133631724Y-88828283D01*
X133757165Y-88924537D01*
X133903244Y-88985045D01*
X134060006Y-89005683D01*
X134068194Y-89004605D01*
X134208580Y-88986123D01*
X134216768Y-88985045D01*
X134362847Y-88924537D01*
X134488288Y-88828283D01*
X134584542Y-88702842D01*
X134645050Y-88556763D01*
X134665688Y-88400001D01*
X134645050Y-88243239D01*
X134584542Y-88097160D01*
X134488288Y-87971719D01*
X134362847Y-87875465D01*
X134216768Y-87814957D01*
X134060006Y-87794319D01*
X133903244Y-87814957D01*
X133757165Y-87875465D01*
X133631724Y-87971719D01*
X133535470Y-88097160D01*
X133474962Y-88243239D01*
X133454324Y-88400001D01*
X66000000Y-88400001D01*
X66000000Y-87220000D01*
X101654318Y-87220000D01*
X101674956Y-87376762D01*
X101735464Y-87522841D01*
X101831718Y-87648282D01*
X101957159Y-87744536D01*
X102103238Y-87805044D01*
X102260000Y-87825682D01*
X102268188Y-87824604D01*
X102408574Y-87806122D01*
X102416762Y-87805044D01*
X102562841Y-87744536D01*
X102688282Y-87648282D01*
X102784536Y-87522841D01*
X102845044Y-87376762D01*
X102865682Y-87220000D01*
X102845044Y-87063238D01*
X102784536Y-86917159D01*
X102688282Y-86791718D01*
X102562841Y-86695464D01*
X102416762Y-86634956D01*
X102260000Y-86614318D01*
X102103238Y-86634956D01*
X101957159Y-86695464D01*
X101831718Y-86791718D01*
X101735464Y-86917159D01*
X101674956Y-87063238D01*
X101654318Y-87220000D01*
X66000000Y-87220000D01*
X66000000Y-86012500D01*
X91109318Y-86012500D01*
X91129956Y-86169262D01*
X91190464Y-86315341D01*
X91286718Y-86440782D01*
X91412159Y-86537036D01*
X91558238Y-86597544D01*
X91715000Y-86618182D01*
X91723188Y-86617104D01*
X91863574Y-86598622D01*
X91871762Y-86597544D01*
X92017841Y-86537036D01*
X92143282Y-86440782D01*
X92239536Y-86315341D01*
X92300044Y-86169262D01*
X92320682Y-86012500D01*
X92300044Y-85855738D01*
X92287312Y-85825000D01*
X111469318Y-85825000D01*
X111489956Y-85981762D01*
X111550464Y-86127841D01*
X111646718Y-86253282D01*
X111772159Y-86349536D01*
X111918238Y-86410044D01*
X112075000Y-86430682D01*
X112083188Y-86429604D01*
X112223574Y-86411122D01*
X112231762Y-86410044D01*
X112377841Y-86349536D01*
X112503282Y-86253282D01*
X112571023Y-86165000D01*
X136669318Y-86165000D01*
X136689956Y-86321762D01*
X136750464Y-86467841D01*
X136846718Y-86593282D01*
X136853264Y-86598305D01*
X136879168Y-86618182D01*
X136972159Y-86689536D01*
X137118238Y-86750044D01*
X137275000Y-86770682D01*
X137283188Y-86769604D01*
X137423574Y-86751122D01*
X137431762Y-86750044D01*
X137577841Y-86689536D01*
X137670832Y-86618182D01*
X137696736Y-86598305D01*
X137703282Y-86593282D01*
X137799536Y-86467841D01*
X137825566Y-86405000D01*
X151789318Y-86405000D01*
X151809956Y-86561762D01*
X151870464Y-86707841D01*
X151966718Y-86833282D01*
X152092159Y-86929536D01*
X152238238Y-86990044D01*
X152395000Y-87010682D01*
X152403188Y-87009604D01*
X152543574Y-86991122D01*
X152551762Y-86990044D01*
X152697841Y-86929536D01*
X152823282Y-86833282D01*
X152919536Y-86707841D01*
X152980044Y-86561762D01*
X153000682Y-86405000D01*
X152980044Y-86248238D01*
X152919536Y-86102159D01*
X152823282Y-85976718D01*
X152697841Y-85880464D01*
X152551762Y-85819956D01*
X152395000Y-85799318D01*
X152238238Y-85819956D01*
X152092159Y-85880464D01*
X151966718Y-85976718D01*
X151870464Y-86102159D01*
X151809956Y-86248238D01*
X151789318Y-86405000D01*
X137825566Y-86405000D01*
X137860044Y-86321762D01*
X137880682Y-86165000D01*
X137860044Y-86008238D01*
X137799536Y-85862159D01*
X137725017Y-85765044D01*
X137708305Y-85743264D01*
X137703282Y-85736718D01*
X137577841Y-85640464D01*
X137431762Y-85579956D01*
X137275000Y-85559318D01*
X137118238Y-85579956D01*
X136972159Y-85640464D01*
X136846718Y-85736718D01*
X136841695Y-85743264D01*
X136824983Y-85765044D01*
X136750464Y-85862159D01*
X136689956Y-86008238D01*
X136669318Y-86165000D01*
X112571023Y-86165000D01*
X112599536Y-86127841D01*
X112660044Y-85981762D01*
X112680682Y-85825000D01*
X112660044Y-85668238D01*
X112599536Y-85522159D01*
X112503282Y-85396718D01*
X112377841Y-85300464D01*
X112231762Y-85239956D01*
X112075000Y-85219318D01*
X111918238Y-85239956D01*
X111772159Y-85300464D01*
X111646718Y-85396718D01*
X111550464Y-85522159D01*
X111489956Y-85668238D01*
X111469318Y-85825000D01*
X92287312Y-85825000D01*
X92239536Y-85709659D01*
X92143282Y-85584218D01*
X92112237Y-85560396D01*
X92086448Y-85540608D01*
X92017841Y-85487964D01*
X91871762Y-85427456D01*
X91715000Y-85406818D01*
X91558238Y-85427456D01*
X91412159Y-85487964D01*
X91343552Y-85540608D01*
X91317764Y-85560396D01*
X91286718Y-85584218D01*
X91190464Y-85709659D01*
X91129956Y-85855738D01*
X91109318Y-86012500D01*
X66000000Y-86012500D01*
X66000000Y-84610000D01*
X112994318Y-84610000D01*
X113014956Y-84766762D01*
X113075464Y-84912841D01*
X113171718Y-85038282D01*
X113297159Y-85134536D01*
X113443238Y-85195044D01*
X113600000Y-85215682D01*
X113608188Y-85214604D01*
X113748574Y-85196122D01*
X113756762Y-85195044D01*
X113793081Y-85180000D01*
X122474318Y-85180000D01*
X122494956Y-85336762D01*
X122555464Y-85482841D01*
X122614147Y-85559318D01*
X122632408Y-85583116D01*
X122651718Y-85608282D01*
X122777159Y-85704536D01*
X122923238Y-85765044D01*
X123080000Y-85785682D01*
X123088188Y-85784604D01*
X123228574Y-85766122D01*
X123236762Y-85765044D01*
X123382841Y-85704536D01*
X123508282Y-85608282D01*
X123527593Y-85583116D01*
X123545853Y-85559318D01*
X123604536Y-85482841D01*
X123665044Y-85336762D01*
X123685682Y-85180000D01*
X123665044Y-85023238D01*
X123604536Y-84877159D01*
X123508282Y-84751718D01*
X123466946Y-84720000D01*
X124494318Y-84720000D01*
X124514956Y-84876762D01*
X124575464Y-85022841D01*
X124671718Y-85148282D01*
X124797159Y-85244536D01*
X124943238Y-85305044D01*
X125100000Y-85325682D01*
X125108188Y-85324604D01*
X125125659Y-85322304D01*
X125256762Y-85305044D01*
X125402841Y-85244536D01*
X125528282Y-85148282D01*
X125624536Y-85022841D01*
X125685044Y-84876762D01*
X125705682Y-84720000D01*
X125685044Y-84563238D01*
X125624536Y-84417159D01*
X125528282Y-84291718D01*
X125402841Y-84195464D01*
X125256762Y-84134956D01*
X125100000Y-84114318D01*
X124943238Y-84134956D01*
X124797159Y-84195464D01*
X124671718Y-84291718D01*
X124575464Y-84417159D01*
X124514956Y-84563238D01*
X124494318Y-84720000D01*
X123466946Y-84720000D01*
X123382841Y-84655464D01*
X123236762Y-84594956D01*
X123080000Y-84574318D01*
X122923238Y-84594956D01*
X122777159Y-84655464D01*
X122651718Y-84751718D01*
X122555464Y-84877159D01*
X122494956Y-85023238D01*
X122474318Y-85180000D01*
X113793081Y-85180000D01*
X113902841Y-85134536D01*
X114028282Y-85038282D01*
X114124536Y-84912841D01*
X114185044Y-84766762D01*
X114205682Y-84610000D01*
X114185044Y-84453238D01*
X114124536Y-84307159D01*
X114028282Y-84181718D01*
X113902841Y-84085464D01*
X113756762Y-84024956D01*
X113600000Y-84004318D01*
X113443238Y-84024956D01*
X113297159Y-84085464D01*
X113171718Y-84181718D01*
X113075464Y-84307159D01*
X113014956Y-84453238D01*
X112994318Y-84610000D01*
X66000000Y-84610000D01*
X66000000Y-83470000D01*
X101034318Y-83470000D01*
X101054956Y-83626762D01*
X101115464Y-83772841D01*
X101211718Y-83898282D01*
X101337159Y-83994536D01*
X101483238Y-84055044D01*
X101640000Y-84075682D01*
X101648188Y-84074604D01*
X101788574Y-84056122D01*
X101796762Y-84055044D01*
X101942841Y-83994536D01*
X102068282Y-83898282D01*
X102113003Y-83840000D01*
X136524318Y-83840000D01*
X136544956Y-83996762D01*
X136605464Y-84142841D01*
X136701718Y-84268282D01*
X136827159Y-84364536D01*
X136973238Y-84425044D01*
X137130000Y-84445682D01*
X137138188Y-84444604D01*
X137278574Y-84426122D01*
X137286762Y-84425044D01*
X137432841Y-84364536D01*
X137558282Y-84268282D01*
X137654536Y-84142841D01*
X137715044Y-83996762D01*
X137735682Y-83840000D01*
X137715044Y-83683238D01*
X137654536Y-83537159D01*
X137558282Y-83411718D01*
X137432841Y-83315464D01*
X137286762Y-83254956D01*
X137130000Y-83234318D01*
X136973238Y-83254956D01*
X136827159Y-83315464D01*
X136701718Y-83411718D01*
X136605464Y-83537159D01*
X136544956Y-83683238D01*
X136524318Y-83840000D01*
X102113003Y-83840000D01*
X102164536Y-83772841D01*
X102225044Y-83626762D01*
X102245682Y-83470000D01*
X102225044Y-83313238D01*
X102164536Y-83167159D01*
X102068282Y-83041718D01*
X101942841Y-82945464D01*
X101943630Y-82944436D01*
X101900423Y-82899120D01*
X101886989Y-82829406D01*
X101913377Y-82763496D01*
X101971210Y-82722315D01*
X101995971Y-82716465D01*
X102006762Y-82715044D01*
X102152841Y-82654536D01*
X102278282Y-82558282D01*
X102297448Y-82533305D01*
X102369509Y-82439392D01*
X102374536Y-82432841D01*
X102435044Y-82286762D01*
X102455682Y-82130000D01*
X102451732Y-82100000D01*
X138274318Y-82100000D01*
X138294956Y-82256762D01*
X138355464Y-82402841D01*
X138451718Y-82528282D01*
X138577159Y-82624536D01*
X138723238Y-82685044D01*
X138880000Y-82705682D01*
X138888188Y-82704604D01*
X139028574Y-82686122D01*
X139036762Y-82685044D01*
X139182841Y-82624536D01*
X139308282Y-82528282D01*
X139404536Y-82402841D01*
X139465044Y-82256762D01*
X139485682Y-82100000D01*
X139465044Y-81943238D01*
X139404536Y-81797159D01*
X139331302Y-81701718D01*
X139313305Y-81678264D01*
X139308282Y-81671718D01*
X139182841Y-81575464D01*
X139036762Y-81514956D01*
X138880000Y-81494318D01*
X138723238Y-81514956D01*
X138577159Y-81575464D01*
X138451718Y-81671718D01*
X138446695Y-81678264D01*
X138428698Y-81701718D01*
X138355464Y-81797159D01*
X138294956Y-81943238D01*
X138274318Y-82100000D01*
X102451732Y-82100000D01*
X102435044Y-81973238D01*
X102374536Y-81827159D01*
X102278282Y-81701718D01*
X102152841Y-81605464D01*
X102006762Y-81544956D01*
X101850000Y-81524318D01*
X101693238Y-81544956D01*
X101547159Y-81605464D01*
X101421718Y-81701718D01*
X101325464Y-81827159D01*
X101264956Y-81973238D01*
X101244318Y-82130000D01*
X101264956Y-82286762D01*
X101325464Y-82432841D01*
X101330491Y-82439392D01*
X101402553Y-82533305D01*
X101421718Y-82558282D01*
X101428264Y-82563305D01*
X101547159Y-82654536D01*
X101546370Y-82655564D01*
X101589577Y-82700880D01*
X101603011Y-82770594D01*
X101576623Y-82836504D01*
X101518790Y-82877685D01*
X101494029Y-82883535D01*
X101483238Y-82884956D01*
X101337159Y-82945464D01*
X101211718Y-83041718D01*
X101115464Y-83167159D01*
X101054956Y-83313238D01*
X101034318Y-83470000D01*
X66000000Y-83470000D01*
X66000000Y-80920000D01*
X85304318Y-80920000D01*
X85324956Y-81076762D01*
X85385464Y-81222841D01*
X85481718Y-81348282D01*
X85607159Y-81444536D01*
X85753238Y-81505044D01*
X85910000Y-81525682D01*
X85918188Y-81524604D01*
X85920361Y-81524318D01*
X86066762Y-81505044D01*
X86212841Y-81444536D01*
X86338282Y-81348282D01*
X86434536Y-81222841D01*
X86495044Y-81076762D01*
X86503833Y-81010000D01*
X118244318Y-81010000D01*
X118264956Y-81166762D01*
X118325464Y-81312841D01*
X118421718Y-81438282D01*
X118547159Y-81534536D01*
X118693238Y-81595044D01*
X118850000Y-81615682D01*
X118858188Y-81614604D01*
X118998574Y-81596122D01*
X119006762Y-81595044D01*
X119152841Y-81534536D01*
X119278282Y-81438282D01*
X119374536Y-81312841D01*
X119435044Y-81166762D01*
X119435934Y-81160000D01*
X151694318Y-81160000D01*
X151714956Y-81316762D01*
X151775464Y-81462841D01*
X151871718Y-81588282D01*
X151997159Y-81684536D01*
X152143238Y-81745044D01*
X152300000Y-81765682D01*
X152308188Y-81764604D01*
X152448574Y-81746122D01*
X152456762Y-81745044D01*
X152602841Y-81684536D01*
X152728282Y-81588282D01*
X152824536Y-81462841D01*
X152885044Y-81316762D01*
X152905682Y-81160000D01*
X152890621Y-81045601D01*
X152886122Y-81011426D01*
X152885044Y-81003238D01*
X152824536Y-80857159D01*
X152728282Y-80731718D01*
X152602841Y-80635464D01*
X152456762Y-80574956D01*
X152300000Y-80554318D01*
X152143238Y-80574956D01*
X151997159Y-80635464D01*
X151871718Y-80731718D01*
X151775464Y-80857159D01*
X151714956Y-81003238D01*
X151713878Y-81011426D01*
X151709379Y-81045601D01*
X151694318Y-81160000D01*
X119435934Y-81160000D01*
X119455682Y-81010000D01*
X119435044Y-80853238D01*
X119374536Y-80707159D01*
X119278282Y-80581718D01*
X119152841Y-80485464D01*
X119006762Y-80424956D01*
X118850000Y-80404318D01*
X118693238Y-80424956D01*
X118547159Y-80485464D01*
X118421718Y-80581718D01*
X118325464Y-80707159D01*
X118264956Y-80853238D01*
X118244318Y-81010000D01*
X86503833Y-81010000D01*
X86515682Y-80920000D01*
X86495044Y-80763238D01*
X86434536Y-80617159D01*
X86338282Y-80491718D01*
X86212841Y-80395464D01*
X86066762Y-80334956D01*
X85910000Y-80314318D01*
X85753238Y-80334956D01*
X85607159Y-80395464D01*
X85481718Y-80491718D01*
X85385464Y-80617159D01*
X85324956Y-80763238D01*
X85304318Y-80920000D01*
X66000000Y-80920000D01*
X66000000Y-79530000D01*
X119274318Y-79530000D01*
X119294956Y-79686762D01*
X119355464Y-79832841D01*
X119451718Y-79958282D01*
X119577159Y-80054536D01*
X119723238Y-80115044D01*
X119880000Y-80135682D01*
X119888188Y-80134604D01*
X120028574Y-80116122D01*
X120036762Y-80115044D01*
X120182841Y-80054536D01*
X120308282Y-79958282D01*
X120404536Y-79832841D01*
X120465044Y-79686762D01*
X120485682Y-79530000D01*
X120465044Y-79373238D01*
X120404536Y-79227159D01*
X120308282Y-79101718D01*
X120182841Y-79005464D01*
X120036762Y-78944956D01*
X119880000Y-78924318D01*
X119723238Y-78944956D01*
X119577159Y-79005464D01*
X119451718Y-79101718D01*
X119355464Y-79227159D01*
X119294956Y-79373238D01*
X119274318Y-79530000D01*
X66000000Y-79530000D01*
X66000000Y-78380000D01*
X126504318Y-78380000D01*
X126524956Y-78536762D01*
X126585464Y-78682841D01*
X126681718Y-78808282D01*
X126807159Y-78904536D01*
X126953238Y-78965044D01*
X127110000Y-78985682D01*
X127118188Y-78984604D01*
X127258574Y-78966122D01*
X127266762Y-78965044D01*
X127412841Y-78904536D01*
X127538282Y-78808282D01*
X127634536Y-78682841D01*
X127695044Y-78536762D01*
X127715682Y-78380000D01*
X127695044Y-78223238D01*
X127634536Y-78077159D01*
X127538282Y-77951718D01*
X127412841Y-77855464D01*
X127266762Y-77794956D01*
X127110000Y-77774318D01*
X126953238Y-77794956D01*
X126807159Y-77855464D01*
X126681718Y-77951718D01*
X126585464Y-78077159D01*
X126524956Y-78223238D01*
X126504318Y-78380000D01*
X66000000Y-78380000D01*
X66000000Y-74150000D01*
X118074318Y-74150000D01*
X118094956Y-74306762D01*
X118155464Y-74452841D01*
X118251718Y-74578282D01*
X118377159Y-74674536D01*
X118523238Y-74735044D01*
X118680000Y-74755682D01*
X118688188Y-74754604D01*
X118828574Y-74736122D01*
X118836762Y-74735044D01*
X118982841Y-74674536D01*
X119108282Y-74578282D01*
X119204536Y-74452841D01*
X119265044Y-74306762D01*
X119285682Y-74150000D01*
X119265044Y-73993238D01*
X119204536Y-73847159D01*
X119108282Y-73721718D01*
X118982841Y-73625464D01*
X118836762Y-73564956D01*
X118680000Y-73544318D01*
X118523238Y-73564956D01*
X118377159Y-73625464D01*
X118251718Y-73721718D01*
X118155464Y-73847159D01*
X118094956Y-73993238D01*
X118074318Y-74150000D01*
X66000000Y-74150000D01*
X66000000Y-73300000D01*
X93244318Y-73300000D01*
X93264956Y-73456762D01*
X93325464Y-73602841D01*
X93421718Y-73728282D01*
X93547159Y-73824536D01*
X93693238Y-73885044D01*
X93850000Y-73905682D01*
X93858188Y-73904604D01*
X93998574Y-73886122D01*
X94006762Y-73885044D01*
X94152841Y-73824536D01*
X94278282Y-73728282D01*
X94374536Y-73602841D01*
X94435044Y-73456762D01*
X94436122Y-73448574D01*
X94438259Y-73440598D01*
X94442290Y-73441678D01*
X94461273Y-73394868D01*
X94519289Y-73353945D01*
X94590220Y-73350884D01*
X94648091Y-73383555D01*
X94651718Y-73388282D01*
X94777159Y-73484536D01*
X94923238Y-73545044D01*
X95080000Y-73565682D01*
X95088188Y-73564604D01*
X95228574Y-73546122D01*
X95236762Y-73545044D01*
X95382841Y-73484536D01*
X95508282Y-73388282D01*
X95604536Y-73262841D01*
X95665044Y-73116762D01*
X95685682Y-72960000D01*
X95665044Y-72803238D01*
X95604536Y-72657159D01*
X95508282Y-72531718D01*
X95382841Y-72435464D01*
X95236762Y-72374956D01*
X95080000Y-72354318D01*
X94923238Y-72374956D01*
X94777159Y-72435464D01*
X94651718Y-72531718D01*
X94555464Y-72657159D01*
X94494956Y-72803238D01*
X94493878Y-72811426D01*
X94491741Y-72819402D01*
X94487710Y-72818322D01*
X94468727Y-72865132D01*
X94410711Y-72906055D01*
X94339780Y-72909116D01*
X94281909Y-72876445D01*
X94278282Y-72871718D01*
X94152841Y-72775464D01*
X94006762Y-72714956D01*
X93850000Y-72694318D01*
X93693238Y-72714956D01*
X93547159Y-72775464D01*
X93421718Y-72871718D01*
X93325464Y-72997159D01*
X93264956Y-73143238D01*
X93244318Y-73300000D01*
X66000000Y-73300000D01*
X66000000Y-72040000D01*
X118164318Y-72040000D01*
X118184956Y-72196762D01*
X118245464Y-72342841D01*
X118341718Y-72468282D01*
X118467159Y-72564536D01*
X118613238Y-72625044D01*
X118770000Y-72645682D01*
X118778188Y-72644604D01*
X118918574Y-72626122D01*
X118926762Y-72625044D01*
X119072841Y-72564536D01*
X119198282Y-72468282D01*
X119294536Y-72342841D01*
X119355044Y-72196762D01*
X119375682Y-72040000D01*
X119355044Y-71883238D01*
X119294536Y-71737159D01*
X119198282Y-71611718D01*
X119072841Y-71515464D01*
X118926762Y-71454956D01*
X118770000Y-71434318D01*
X118613238Y-71454956D01*
X118467159Y-71515464D01*
X118341718Y-71611718D01*
X118245464Y-71737159D01*
X118184956Y-71883238D01*
X118164318Y-72040000D01*
X66000000Y-72040000D01*
X66000000Y-70420000D01*
X88034318Y-70420000D01*
X88054956Y-70576762D01*
X88115464Y-70722841D01*
X88211718Y-70848282D01*
X88337159Y-70944536D01*
X88483238Y-71005044D01*
X88640000Y-71025682D01*
X88648188Y-71024604D01*
X88788574Y-71006122D01*
X88796762Y-71005044D01*
X88942841Y-70944536D01*
X89068282Y-70848282D01*
X89164536Y-70722841D01*
X89225044Y-70576762D01*
X89245682Y-70420000D01*
X89225044Y-70263238D01*
X89191167Y-70181452D01*
X89183578Y-70110862D01*
X89215357Y-70047375D01*
X89276415Y-70011148D01*
X89324020Y-70008312D01*
X89380000Y-70015682D01*
X89388188Y-70014604D01*
X89528574Y-69996122D01*
X89536762Y-69995044D01*
X89682841Y-69934536D01*
X89808282Y-69838282D01*
X89904536Y-69712841D01*
X89965044Y-69566762D01*
X89985682Y-69410000D01*
X89965044Y-69253238D01*
X89904536Y-69107159D01*
X89808282Y-68981718D01*
X89682841Y-68885464D01*
X89536762Y-68824956D01*
X89380000Y-68804318D01*
X89223238Y-68824956D01*
X89077159Y-68885464D01*
X88951718Y-68981718D01*
X88855464Y-69107159D01*
X88794956Y-69253238D01*
X88774318Y-69410000D01*
X88794956Y-69566762D01*
X88798116Y-69574391D01*
X88828833Y-69648548D01*
X88836422Y-69719138D01*
X88804643Y-69782625D01*
X88743585Y-69818852D01*
X88695980Y-69821688D01*
X88640000Y-69814318D01*
X88483238Y-69834956D01*
X88337159Y-69895464D01*
X88211718Y-69991718D01*
X88115464Y-70117159D01*
X88054956Y-70263238D01*
X88034318Y-70420000D01*
X66000000Y-70420000D01*
X66000000Y-68840000D01*
X72144318Y-68840000D01*
X72164956Y-68996762D01*
X72225464Y-69142841D01*
X72321718Y-69268282D01*
X72447159Y-69364536D01*
X72593238Y-69425044D01*
X72750000Y-69445682D01*
X72758188Y-69444604D01*
X72898574Y-69426122D01*
X72906762Y-69425044D01*
X73052841Y-69364536D01*
X73178282Y-69268282D01*
X73274536Y-69142841D01*
X73335044Y-68996762D01*
X73355682Y-68840000D01*
X73335044Y-68683238D01*
X73274536Y-68537159D01*
X73246023Y-68500000D01*
X91344318Y-68500000D01*
X91364956Y-68656762D01*
X91425464Y-68802841D01*
X91521718Y-68928282D01*
X91647159Y-69024536D01*
X91793238Y-69085044D01*
X91950000Y-69105682D01*
X91958188Y-69104604D01*
X92098574Y-69086122D01*
X92106762Y-69085044D01*
X92252841Y-69024536D01*
X92378282Y-68928282D01*
X92474536Y-68802841D01*
X92535044Y-68656762D01*
X92555682Y-68500000D01*
X92535044Y-68343238D01*
X92474536Y-68197159D01*
X92378282Y-68071718D01*
X92252841Y-67975464D01*
X92106762Y-67914956D01*
X91950000Y-67894318D01*
X91793238Y-67914956D01*
X91647159Y-67975464D01*
X91521718Y-68071718D01*
X91425464Y-68197159D01*
X91364956Y-68343238D01*
X91344318Y-68500000D01*
X73246023Y-68500000D01*
X73178282Y-68411718D01*
X73052841Y-68315464D01*
X72906762Y-68254956D01*
X72750000Y-68234318D01*
X72593238Y-68254956D01*
X72447159Y-68315464D01*
X72321718Y-68411718D01*
X72225464Y-68537159D01*
X72164956Y-68683238D01*
X72144318Y-68840000D01*
X66000000Y-68840000D01*
X66000000Y-67700000D01*
X104074318Y-67700000D01*
X104094956Y-67856762D01*
X104155464Y-68002841D01*
X104251718Y-68128282D01*
X104377159Y-68224536D01*
X104523238Y-68285044D01*
X104680000Y-68305682D01*
X104688188Y-68304604D01*
X104828574Y-68286122D01*
X104836762Y-68285044D01*
X104982841Y-68224536D01*
X105108282Y-68128282D01*
X105204536Y-68002841D01*
X105265044Y-67856762D01*
X105285682Y-67700000D01*
X105265044Y-67543238D01*
X105204536Y-67397159D01*
X105108282Y-67271718D01*
X104982841Y-67175464D01*
X104836762Y-67114956D01*
X104680000Y-67094318D01*
X104523238Y-67114956D01*
X104377159Y-67175464D01*
X104251718Y-67271718D01*
X104155464Y-67397159D01*
X104094956Y-67543238D01*
X104074318Y-67700000D01*
X66000000Y-67700000D01*
X66000000Y-66950000D01*
X115954318Y-66950000D01*
X115974956Y-67106762D01*
X116035464Y-67252841D01*
X116131718Y-67378282D01*
X116257159Y-67474536D01*
X116403238Y-67535044D01*
X116560000Y-67555682D01*
X116568188Y-67554604D01*
X116708574Y-67536122D01*
X116716762Y-67535044D01*
X116862841Y-67474536D01*
X116988282Y-67378282D01*
X117084536Y-67252841D01*
X117145044Y-67106762D01*
X117165682Y-66950000D01*
X117155363Y-66871619D01*
X117146122Y-66801426D01*
X117145044Y-66793238D01*
X117084536Y-66647159D01*
X116988282Y-66521718D01*
X116931877Y-66478437D01*
X116890010Y-66421099D01*
X116885788Y-66350228D01*
X116920552Y-66288325D01*
X116983265Y-66255044D01*
X116992128Y-66253553D01*
X117056762Y-66245044D01*
X117202841Y-66184536D01*
X117328282Y-66088282D01*
X117424536Y-65962841D01*
X117485044Y-65816762D01*
X117505682Y-65660000D01*
X117485044Y-65503238D01*
X117425713Y-65360000D01*
X125504318Y-65360000D01*
X125524956Y-65516762D01*
X125585464Y-65662841D01*
X125681718Y-65788282D01*
X125807159Y-65884536D01*
X125953238Y-65945044D01*
X126110000Y-65965682D01*
X126118188Y-65964604D01*
X126131580Y-65962841D01*
X126266762Y-65945044D01*
X126412841Y-65884536D01*
X126538282Y-65788282D01*
X126634536Y-65662841D01*
X126695044Y-65516762D01*
X126715682Y-65360000D01*
X126695044Y-65203238D01*
X126634536Y-65057159D01*
X126538282Y-64931718D01*
X126412841Y-64835464D01*
X126266762Y-64774956D01*
X126110000Y-64754318D01*
X125953238Y-64774956D01*
X125807159Y-64835464D01*
X125681718Y-64931718D01*
X125585464Y-65057159D01*
X125524956Y-65203238D01*
X125504318Y-65360000D01*
X117425713Y-65360000D01*
X117424536Y-65357159D01*
X117328282Y-65231718D01*
X117202841Y-65135464D01*
X117056762Y-65074956D01*
X116900000Y-65054318D01*
X116743238Y-65074956D01*
X116597159Y-65135464D01*
X116471718Y-65231718D01*
X116375464Y-65357159D01*
X116314956Y-65503238D01*
X116294318Y-65660000D01*
X116314956Y-65816762D01*
X116375464Y-65962841D01*
X116471718Y-66088282D01*
X116478264Y-66093305D01*
X116528123Y-66131563D01*
X116569990Y-66188901D01*
X116574212Y-66259772D01*
X116539448Y-66321675D01*
X116476735Y-66354956D01*
X116467872Y-66356447D01*
X116403238Y-66364956D01*
X116257159Y-66425464D01*
X116131718Y-66521718D01*
X116035464Y-66647159D01*
X115974956Y-66793238D01*
X115973878Y-66801426D01*
X115964637Y-66871619D01*
X115954318Y-66950000D01*
X66000000Y-66950000D01*
X66000000Y-66320000D01*
X109194318Y-66320000D01*
X109195396Y-66328188D01*
X109207787Y-66422304D01*
X109214956Y-66476762D01*
X109275464Y-66622841D01*
X109371718Y-66748282D01*
X109497159Y-66844536D01*
X109643238Y-66905044D01*
X109800000Y-66925682D01*
X109808188Y-66924604D01*
X109948574Y-66906122D01*
X109956762Y-66905044D01*
X110102841Y-66844536D01*
X110228282Y-66748282D01*
X110324536Y-66622841D01*
X110385044Y-66476762D01*
X110392214Y-66422304D01*
X110404604Y-66328188D01*
X110405682Y-66320000D01*
X110385044Y-66163238D01*
X110324536Y-66017159D01*
X110228282Y-65891718D01*
X110102841Y-65795464D01*
X109956762Y-65734956D01*
X109800000Y-65714318D01*
X109643238Y-65734956D01*
X109497159Y-65795464D01*
X109371718Y-65891718D01*
X109275464Y-66017159D01*
X109214956Y-66163238D01*
X109194318Y-66320000D01*
X66000000Y-66320000D01*
X66000000Y-64070000D01*
X84234318Y-64070000D01*
X84254956Y-64226762D01*
X84315464Y-64372841D01*
X84411718Y-64498282D01*
X84537159Y-64594536D01*
X84683238Y-64655044D01*
X84840000Y-64675682D01*
X84848188Y-64674604D01*
X84988574Y-64656122D01*
X84996762Y-64655044D01*
X85142841Y-64594536D01*
X85268282Y-64498282D01*
X85364536Y-64372841D01*
X85425044Y-64226762D01*
X85432517Y-64170000D01*
X86854318Y-64170000D01*
X86874956Y-64326762D01*
X86935464Y-64472841D01*
X87031718Y-64598282D01*
X87157159Y-64694536D01*
X87303238Y-64755044D01*
X87460000Y-64775682D01*
X87468188Y-64774604D01*
X87608574Y-64756122D01*
X87616762Y-64755044D01*
X87762841Y-64694536D01*
X87888282Y-64598282D01*
X87984536Y-64472841D01*
X88045044Y-64326762D01*
X88065682Y-64170000D01*
X88045044Y-64013238D01*
X88040291Y-64001762D01*
X88007014Y-63921426D01*
X87984536Y-63867159D01*
X87975206Y-63855000D01*
X117989318Y-63855000D01*
X117990396Y-63863188D01*
X118007562Y-63993574D01*
X118009956Y-64011762D01*
X118070464Y-64157841D01*
X118166718Y-64283282D01*
X118292159Y-64379536D01*
X118438238Y-64440044D01*
X118595000Y-64460682D01*
X118603188Y-64459604D01*
X118743574Y-64441122D01*
X118751762Y-64440044D01*
X118897841Y-64379536D01*
X119023282Y-64283282D01*
X119119536Y-64157841D01*
X119180044Y-64011762D01*
X119182439Y-63993574D01*
X119199604Y-63863188D01*
X119200682Y-63855000D01*
X119199365Y-63845000D01*
X120939318Y-63845000D01*
X120959956Y-64001762D01*
X120963116Y-64009391D01*
X120967258Y-64019391D01*
X121020464Y-64147841D01*
X121116718Y-64273282D01*
X121242159Y-64369536D01*
X121388238Y-64430044D01*
X121545000Y-64450682D01*
X121553188Y-64449604D01*
X121693574Y-64431122D01*
X121701762Y-64430044D01*
X121847841Y-64369536D01*
X121973282Y-64273282D01*
X122069536Y-64147841D01*
X122115486Y-64036908D01*
X122160034Y-63981627D01*
X122227398Y-63959206D01*
X122296189Y-63976764D01*
X122311456Y-63988624D01*
X122311718Y-63988282D01*
X122437159Y-64084536D01*
X122583238Y-64145044D01*
X122740000Y-64165682D01*
X122748188Y-64164604D01*
X122749799Y-64164392D01*
X122896762Y-64145044D01*
X123042841Y-64084536D01*
X123148353Y-64003574D01*
X123161736Y-63993305D01*
X123168282Y-63988282D01*
X123264536Y-63862841D01*
X123325044Y-63716762D01*
X123345682Y-63560000D01*
X123325044Y-63403238D01*
X123264536Y-63257159D01*
X123168282Y-63131718D01*
X123042841Y-63035464D01*
X122896762Y-62974956D01*
X122740000Y-62954318D01*
X122583238Y-62974956D01*
X122437159Y-63035464D01*
X122311718Y-63131718D01*
X122215464Y-63257159D01*
X122190551Y-63317304D01*
X122169514Y-63368092D01*
X122124966Y-63423373D01*
X122057602Y-63445794D01*
X121988811Y-63428236D01*
X121973544Y-63416376D01*
X121973282Y-63416718D01*
X121909911Y-63368092D01*
X121847841Y-63320464D01*
X121701762Y-63259956D01*
X121545000Y-63239318D01*
X121388238Y-63259956D01*
X121242159Y-63320464D01*
X121180089Y-63368092D01*
X121134286Y-63403238D01*
X121116718Y-63416718D01*
X121020464Y-63542159D01*
X120959956Y-63688238D01*
X120958878Y-63696426D01*
X120957279Y-63708574D01*
X120939318Y-63845000D01*
X119199365Y-63845000D01*
X119180044Y-63698238D01*
X119119536Y-63552159D01*
X119051059Y-63462918D01*
X119028305Y-63433264D01*
X119023282Y-63426718D01*
X118897841Y-63330464D01*
X118751762Y-63269956D01*
X118595000Y-63249318D01*
X118438238Y-63269956D01*
X118292159Y-63330464D01*
X118166718Y-63426718D01*
X118161695Y-63433264D01*
X118138941Y-63462918D01*
X118070464Y-63552159D01*
X118009956Y-63698238D01*
X117989318Y-63855000D01*
X87975206Y-63855000D01*
X87888282Y-63741718D01*
X87762841Y-63645464D01*
X87616762Y-63584956D01*
X87460000Y-63564318D01*
X87303238Y-63584956D01*
X87157159Y-63645464D01*
X87031718Y-63741718D01*
X86935464Y-63867159D01*
X86912986Y-63921426D01*
X86879710Y-64001762D01*
X86874956Y-64013238D01*
X86854318Y-64170000D01*
X85432517Y-64170000D01*
X85445682Y-64070000D01*
X85425044Y-63913238D01*
X85364536Y-63767159D01*
X85268282Y-63641718D01*
X85142841Y-63545464D01*
X84996762Y-63484956D01*
X84840000Y-63464318D01*
X84683238Y-63484956D01*
X84537159Y-63545464D01*
X84411718Y-63641718D01*
X84315464Y-63767159D01*
X84254956Y-63913238D01*
X84234318Y-64070000D01*
X66000000Y-64070000D01*
X66000000Y-62360000D01*
X97014318Y-62360000D01*
X97034956Y-62516762D01*
X97095464Y-62662841D01*
X97191718Y-62788282D01*
X97198264Y-62793305D01*
X97213563Y-62805044D01*
X97317159Y-62884536D01*
X97463238Y-62945044D01*
X97620000Y-62965682D01*
X97628188Y-62964604D01*
X97768574Y-62946122D01*
X97776762Y-62945044D01*
X97922841Y-62884536D01*
X98026437Y-62805044D01*
X98041736Y-62793305D01*
X98048282Y-62788282D01*
X98144536Y-62662841D01*
X98205044Y-62516762D01*
X98225682Y-62360000D01*
X98207251Y-62220000D01*
X110684318Y-62220000D01*
X110704956Y-62376762D01*
X110765464Y-62522841D01*
X110861718Y-62648282D01*
X110987159Y-62744536D01*
X111133238Y-62805044D01*
X111290000Y-62825682D01*
X111298188Y-62824604D01*
X111438574Y-62806122D01*
X111446762Y-62805044D01*
X111592841Y-62744536D01*
X111718282Y-62648282D01*
X111814536Y-62522841D01*
X111875044Y-62376762D01*
X111895682Y-62220000D01*
X111875044Y-62063238D01*
X111814536Y-61917159D01*
X111718282Y-61791718D01*
X111700556Y-61778116D01*
X111599392Y-61700491D01*
X111592841Y-61695464D01*
X111446762Y-61634956D01*
X111290000Y-61614318D01*
X111133238Y-61634956D01*
X110987159Y-61695464D01*
X110980608Y-61700491D01*
X110879445Y-61778116D01*
X110861718Y-61791718D01*
X110765464Y-61917159D01*
X110704956Y-62063238D01*
X110684318Y-62220000D01*
X98207251Y-62220000D01*
X98205044Y-62203238D01*
X98144536Y-62057159D01*
X98048282Y-61931718D01*
X97922841Y-61835464D01*
X97776762Y-61774956D01*
X97620000Y-61754318D01*
X97463238Y-61774956D01*
X97317159Y-61835464D01*
X97191718Y-61931718D01*
X97095464Y-62057159D01*
X97034956Y-62203238D01*
X97014318Y-62360000D01*
X66000000Y-62360000D01*
X66000000Y-60460000D01*
X103644318Y-60460000D01*
X103664956Y-60616762D01*
X103725464Y-60762841D01*
X103821718Y-60888282D01*
X103947159Y-60984536D01*
X104093238Y-61045044D01*
X104250000Y-61065682D01*
X104258188Y-61064604D01*
X104398574Y-61046122D01*
X104406762Y-61045044D01*
X104552841Y-60984536D01*
X104678282Y-60888282D01*
X104774536Y-60762841D01*
X104827490Y-60635000D01*
X121769318Y-60635000D01*
X121789956Y-60791762D01*
X121850464Y-60937841D01*
X121855491Y-60944392D01*
X121932724Y-61045044D01*
X121946718Y-61063282D01*
X122072159Y-61159536D01*
X122218238Y-61220044D01*
X122375000Y-61240682D01*
X122383188Y-61239604D01*
X122523574Y-61221122D01*
X122531762Y-61220044D01*
X122677841Y-61159536D01*
X122803282Y-61063282D01*
X122817277Y-61045044D01*
X122894509Y-60944392D01*
X122899536Y-60937841D01*
X122960044Y-60791762D01*
X122980682Y-60635000D01*
X122960044Y-60478238D01*
X122899536Y-60332159D01*
X122803282Y-60206718D01*
X122677841Y-60110464D01*
X122531762Y-60049956D01*
X122375000Y-60029318D01*
X122218238Y-60049956D01*
X122072159Y-60110464D01*
X121946718Y-60206718D01*
X121850464Y-60332159D01*
X121789956Y-60478238D01*
X121769318Y-60635000D01*
X104827490Y-60635000D01*
X104835044Y-60616762D01*
X104855682Y-60460000D01*
X104835044Y-60303238D01*
X104774536Y-60157159D01*
X104694701Y-60053116D01*
X104683305Y-60038264D01*
X104678282Y-60031718D01*
X104552841Y-59935464D01*
X104406762Y-59874956D01*
X104250000Y-59854318D01*
X104093238Y-59874956D01*
X103947159Y-59935464D01*
X103821718Y-60031718D01*
X103816695Y-60038264D01*
X103805299Y-60053116D01*
X103725464Y-60157159D01*
X103664956Y-60303238D01*
X103644318Y-60460000D01*
X66000000Y-60460000D01*
X66000000Y-58245000D01*
X93239318Y-58245000D01*
X93259956Y-58401762D01*
X93320464Y-58547841D01*
X93416718Y-58673282D01*
X93542159Y-58769536D01*
X93688238Y-58830044D01*
X93845000Y-58850682D01*
X93853188Y-58849604D01*
X93993574Y-58831122D01*
X94001762Y-58830044D01*
X94147841Y-58769536D01*
X94273282Y-58673282D01*
X94369536Y-58547841D01*
X94386865Y-58506005D01*
X94431413Y-58450724D01*
X94498777Y-58428303D01*
X94567568Y-58445861D01*
X94603236Y-58477518D01*
X94676718Y-58573282D01*
X94802159Y-58669536D01*
X94948238Y-58730044D01*
X95105000Y-58750682D01*
X95113188Y-58749604D01*
X95253574Y-58731122D01*
X95261762Y-58730044D01*
X95407841Y-58669536D01*
X95533282Y-58573282D01*
X95629536Y-58447841D01*
X95690044Y-58301762D01*
X95710682Y-58145000D01*
X95690044Y-57988238D01*
X95629536Y-57842159D01*
X95533282Y-57716718D01*
X95407841Y-57620464D01*
X95261762Y-57559956D01*
X95105000Y-57539318D01*
X94948238Y-57559956D01*
X94802159Y-57620464D01*
X94676718Y-57716718D01*
X94580464Y-57842159D01*
X94577304Y-57849789D01*
X94563135Y-57883995D01*
X94518587Y-57939276D01*
X94451223Y-57961697D01*
X94382432Y-57944139D01*
X94346763Y-57912481D01*
X94278305Y-57823264D01*
X94273282Y-57816718D01*
X94147841Y-57720464D01*
X94001762Y-57659956D01*
X93845000Y-57639318D01*
X93688238Y-57659956D01*
X93542159Y-57720464D01*
X93416718Y-57816718D01*
X93320464Y-57942159D01*
X93259956Y-58088238D01*
X93239318Y-58245000D01*
X66000000Y-58245000D01*
X66000000Y-57410000D01*
X97174318Y-57410000D01*
X97194956Y-57566762D01*
X97255464Y-57712841D01*
X97351718Y-57838282D01*
X97477159Y-57934536D01*
X97623238Y-57995044D01*
X97780000Y-58015682D01*
X97788188Y-58014604D01*
X97928574Y-57996122D01*
X97936762Y-57995044D01*
X98082841Y-57934536D01*
X98208282Y-57838282D01*
X98304536Y-57712841D01*
X98365044Y-57566762D01*
X98385682Y-57410000D01*
X98365044Y-57253238D01*
X98318139Y-57140000D01*
X106674318Y-57140000D01*
X106694956Y-57296762D01*
X106755464Y-57442841D01*
X106851718Y-57568282D01*
X106977159Y-57664536D01*
X107123238Y-57725044D01*
X107280000Y-57745682D01*
X107288188Y-57744604D01*
X107428574Y-57726122D01*
X107436762Y-57725044D01*
X107582841Y-57664536D01*
X107708282Y-57568282D01*
X107804536Y-57442841D01*
X107865044Y-57296762D01*
X107885682Y-57140000D01*
X107865044Y-56983238D01*
X107804536Y-56837159D01*
X107708282Y-56711718D01*
X107582841Y-56615464D01*
X107436762Y-56554956D01*
X107280000Y-56534318D01*
X107123238Y-56554956D01*
X106977159Y-56615464D01*
X106851718Y-56711718D01*
X106755464Y-56837159D01*
X106694956Y-56983238D01*
X106674318Y-57140000D01*
X98318139Y-57140000D01*
X98304536Y-57107159D01*
X98208282Y-56981718D01*
X98082841Y-56885464D01*
X97936762Y-56824956D01*
X97780000Y-56804318D01*
X97623238Y-56824956D01*
X97477159Y-56885464D01*
X97351718Y-56981718D01*
X97255464Y-57107159D01*
X97194956Y-57253238D01*
X97174318Y-57410000D01*
X66000000Y-57410000D01*
X66000000Y-56200000D01*
X93314318Y-56200000D01*
X93334956Y-56356762D01*
X93395464Y-56502841D01*
X93491718Y-56628282D01*
X93617159Y-56724536D01*
X93763238Y-56785044D01*
X93920000Y-56805682D01*
X93928188Y-56804604D01*
X93930361Y-56804318D01*
X94076762Y-56785044D01*
X94222841Y-56724536D01*
X94348282Y-56628282D01*
X94444536Y-56502841D01*
X94505044Y-56356762D01*
X94525682Y-56200000D01*
X94505044Y-56043238D01*
X94444536Y-55897159D01*
X94348282Y-55771718D01*
X94222841Y-55675464D01*
X94076762Y-55614956D01*
X93920000Y-55594318D01*
X93763238Y-55614956D01*
X93617159Y-55675464D01*
X93491718Y-55771718D01*
X93395464Y-55897159D01*
X93334956Y-56043238D01*
X93314318Y-56200000D01*
X66000000Y-56200000D01*
X66000000Y-55250000D01*
X106524318Y-55250000D01*
X106544956Y-55406762D01*
X106605464Y-55552841D01*
X106701718Y-55678282D01*
X106827159Y-55774536D01*
X106973238Y-55835044D01*
X107130000Y-55855682D01*
X107138188Y-55854604D01*
X107278574Y-55836122D01*
X107286762Y-55835044D01*
X107432841Y-55774536D01*
X107558282Y-55678282D01*
X107654536Y-55552841D01*
X107715044Y-55406762D01*
X107721200Y-55360000D01*
X122054318Y-55360000D01*
X122074956Y-55516762D01*
X122135464Y-55662841D01*
X122231718Y-55788282D01*
X122357159Y-55884536D01*
X122503238Y-55945044D01*
X122660000Y-55965682D01*
X122668188Y-55964604D01*
X122808574Y-55946122D01*
X122816762Y-55945044D01*
X122962841Y-55884536D01*
X123088282Y-55788282D01*
X123184536Y-55662841D01*
X123245044Y-55516762D01*
X123265682Y-55360000D01*
X123245044Y-55203238D01*
X123184536Y-55057159D01*
X123088282Y-54931718D01*
X122962841Y-54835464D01*
X122816762Y-54774956D01*
X122660000Y-54754318D01*
X122503238Y-54774956D01*
X122357159Y-54835464D01*
X122231718Y-54931718D01*
X122135464Y-55057159D01*
X122074956Y-55203238D01*
X122054318Y-55360000D01*
X107721200Y-55360000D01*
X107735682Y-55250000D01*
X107715044Y-55093238D01*
X107654536Y-54947159D01*
X107558282Y-54821718D01*
X107432841Y-54725464D01*
X107286762Y-54664956D01*
X107130000Y-54644318D01*
X106973238Y-54664956D01*
X106827159Y-54725464D01*
X106701718Y-54821718D01*
X106605464Y-54947159D01*
X106544956Y-55093238D01*
X106524318Y-55250000D01*
X66000000Y-55250000D01*
X66000000Y-52920000D01*
X86714318Y-52920000D01*
X86715396Y-52928188D01*
X86730543Y-53043238D01*
X86734956Y-53076762D01*
X86795464Y-53222841D01*
X86891718Y-53348282D01*
X87017159Y-53444536D01*
X87163238Y-53505044D01*
X87171426Y-53506122D01*
X87241619Y-53515363D01*
X87320000Y-53525682D01*
X87328188Y-53524604D01*
X87468574Y-53506122D01*
X87476762Y-53505044D01*
X87622841Y-53444536D01*
X87748282Y-53348282D01*
X87844536Y-53222841D01*
X87878850Y-53140000D01*
X88794318Y-53140000D01*
X88814956Y-53296762D01*
X88875464Y-53442841D01*
X88971718Y-53568282D01*
X89097159Y-53664536D01*
X89243238Y-53725044D01*
X89400000Y-53745682D01*
X89408188Y-53744604D01*
X89548574Y-53726122D01*
X89556762Y-53725044D01*
X89702841Y-53664536D01*
X89828282Y-53568282D01*
X89924536Y-53442841D01*
X89985044Y-53296762D01*
X89997783Y-53200000D01*
X91344318Y-53200000D01*
X91364956Y-53356762D01*
X91425464Y-53502841D01*
X91521718Y-53628282D01*
X91647159Y-53724536D01*
X91793238Y-53785044D01*
X91950000Y-53805682D01*
X91958188Y-53804604D01*
X92098574Y-53786122D01*
X92106762Y-53785044D01*
X92252841Y-53724536D01*
X92378282Y-53628282D01*
X92474536Y-53502841D01*
X92535044Y-53356762D01*
X92555682Y-53200000D01*
X92540462Y-53084391D01*
X92536122Y-53051426D01*
X92535044Y-53043238D01*
X92474536Y-52897159D01*
X92378282Y-52771718D01*
X92252841Y-52675464D01*
X92106762Y-52614956D01*
X92073736Y-52610608D01*
X91958188Y-52595396D01*
X91950000Y-52594318D01*
X91941812Y-52595396D01*
X91826265Y-52610608D01*
X91793238Y-52614956D01*
X91647159Y-52675464D01*
X91521718Y-52771718D01*
X91425464Y-52897159D01*
X91364956Y-53043238D01*
X91363878Y-53051426D01*
X91359538Y-53084391D01*
X91344318Y-53200000D01*
X89997783Y-53200000D01*
X90005682Y-53140000D01*
X89985044Y-52983238D01*
X89924536Y-52837159D01*
X89828282Y-52711718D01*
X89702841Y-52615464D01*
X89556762Y-52554956D01*
X89400000Y-52534318D01*
X89243238Y-52554956D01*
X89097159Y-52615464D01*
X88971718Y-52711718D01*
X88875464Y-52837159D01*
X88814956Y-52983238D01*
X88794318Y-53140000D01*
X87878850Y-53140000D01*
X87905044Y-53076762D01*
X87909458Y-53043238D01*
X87924604Y-52928188D01*
X87925682Y-52920000D01*
X87905044Y-52763238D01*
X87844536Y-52617159D01*
X87748282Y-52491718D01*
X87622841Y-52395464D01*
X87476762Y-52334956D01*
X87320000Y-52314318D01*
X87163238Y-52334956D01*
X87017159Y-52395464D01*
X86891718Y-52491718D01*
X86795464Y-52617159D01*
X86734956Y-52763238D01*
X86714318Y-52920000D01*
X66000000Y-52920000D01*
X66000000Y-50580000D01*
X110014318Y-50580000D01*
X110034956Y-50736762D01*
X110095464Y-50882841D01*
X110191718Y-51008282D01*
X110317159Y-51104536D01*
X110463238Y-51165044D01*
X110620000Y-51185682D01*
X110628188Y-51184604D01*
X110768574Y-51166122D01*
X110776762Y-51165044D01*
X110922841Y-51104536D01*
X111048282Y-51008282D01*
X111144536Y-50882841D01*
X111205044Y-50736762D01*
X111225682Y-50580000D01*
X111205044Y-50423238D01*
X111144536Y-50277159D01*
X111093003Y-50210000D01*
X121124318Y-50210000D01*
X121144956Y-50366762D01*
X121205464Y-50512841D01*
X121301718Y-50638282D01*
X121427159Y-50734536D01*
X121573238Y-50795044D01*
X121730000Y-50815682D01*
X121738188Y-50814604D01*
X121878574Y-50796122D01*
X121886762Y-50795044D01*
X122032841Y-50734536D01*
X122158282Y-50638282D01*
X122254536Y-50512841D01*
X122315044Y-50366762D01*
X122335682Y-50210000D01*
X122315044Y-50053238D01*
X122254536Y-49907159D01*
X122158282Y-49781718D01*
X122127237Y-49757896D01*
X122039392Y-49690491D01*
X122032841Y-49685464D01*
X121886762Y-49624956D01*
X121730000Y-49604318D01*
X121573238Y-49624956D01*
X121427159Y-49685464D01*
X121420608Y-49690491D01*
X121332764Y-49757896D01*
X121301718Y-49781718D01*
X121205464Y-49907159D01*
X121144956Y-50053238D01*
X121124318Y-50210000D01*
X111093003Y-50210000D01*
X111048282Y-50151718D01*
X110922841Y-50055464D01*
X110776762Y-49994956D01*
X110620000Y-49974318D01*
X110463238Y-49994956D01*
X110317159Y-50055464D01*
X110191718Y-50151718D01*
X110095464Y-50277159D01*
X110034956Y-50423238D01*
X110014318Y-50580000D01*
X66000000Y-50580000D01*
X66000000Y-48840155D01*
X105239500Y-48840155D01*
X105254454Y-48973472D01*
X105313515Y-49143073D01*
X105317248Y-49149047D01*
X105317249Y-49149049D01*
X105368064Y-49230369D01*
X105408684Y-49295375D01*
X105422287Y-49309073D01*
X105530267Y-49417810D01*
X105530271Y-49417813D01*
X105535230Y-49422807D01*
X105541176Y-49426581D01*
X105541178Y-49426582D01*
X105593140Y-49459558D01*
X105686864Y-49519037D01*
X105706890Y-49526168D01*
X105849414Y-49576919D01*
X105849419Y-49576920D01*
X105856049Y-49579281D01*
X105863035Y-49580114D01*
X105863039Y-49580115D01*
X105989727Y-49595221D01*
X106034376Y-49600545D01*
X106041379Y-49599809D01*
X106041380Y-49599809D01*
X106205975Y-49582510D01*
X106205979Y-49582509D01*
X106212983Y-49581773D01*
X106313266Y-49547634D01*
X106376323Y-49526168D01*
X106376326Y-49526167D01*
X106382993Y-49523897D01*
X106397036Y-49515258D01*
X106529955Y-49433485D01*
X106535955Y-49429794D01*
X106540986Y-49424868D01*
X106540989Y-49424865D01*
X106618152Y-49349301D01*
X106664268Y-49304141D01*
X106669918Y-49295375D01*
X106757735Y-49159109D01*
X106761554Y-49153183D01*
X106768232Y-49134837D01*
X106820570Y-48991039D01*
X106820571Y-48991036D01*
X106822978Y-48984422D01*
X106840500Y-48845717D01*
X106840500Y-48199845D01*
X106825546Y-48066528D01*
X106766485Y-47896927D01*
X106729800Y-47838218D01*
X106675049Y-47750599D01*
X106671316Y-47744625D01*
X106601423Y-47674243D01*
X106549733Y-47622190D01*
X106549729Y-47622187D01*
X106544770Y-47617193D01*
X106533761Y-47610206D01*
X106466085Y-47567258D01*
X106393136Y-47520963D01*
X106363352Y-47510357D01*
X106230586Y-47463081D01*
X106230581Y-47463080D01*
X106223951Y-47460719D01*
X106216965Y-47459886D01*
X106216961Y-47459885D01*
X106087933Y-47444500D01*
X106045624Y-47439455D01*
X106038621Y-47440191D01*
X106038620Y-47440191D01*
X105874025Y-47457490D01*
X105874021Y-47457491D01*
X105867017Y-47458227D01*
X105860346Y-47460498D01*
X105703677Y-47513832D01*
X105703674Y-47513833D01*
X105697007Y-47516103D01*
X105691009Y-47519793D01*
X105691007Y-47519794D01*
X105658961Y-47539509D01*
X105544045Y-47610206D01*
X105539014Y-47615132D01*
X105539011Y-47615135D01*
X105531807Y-47622190D01*
X105415732Y-47735859D01*
X105411913Y-47741784D01*
X105411912Y-47741786D01*
X105322265Y-47880891D01*
X105318446Y-47886817D01*
X105316037Y-47893437D01*
X105316035Y-47893440D01*
X105280890Y-47990000D01*
X105257022Y-48055578D01*
X105239500Y-48194283D01*
X105239500Y-48840155D01*
X66000000Y-48840155D01*
X66000000Y-47990000D01*
X91804318Y-47990000D01*
X91824956Y-48146762D01*
X91885464Y-48292841D01*
X91981718Y-48418282D01*
X92107159Y-48514536D01*
X92253238Y-48575044D01*
X92410000Y-48595682D01*
X92418188Y-48594604D01*
X92558574Y-48576122D01*
X92566762Y-48575044D01*
X92712841Y-48514536D01*
X92838282Y-48418282D01*
X92934536Y-48292841D01*
X92995044Y-48146762D01*
X93015682Y-47990000D01*
X92995044Y-47833238D01*
X92934536Y-47687159D01*
X92838282Y-47561718D01*
X92712841Y-47465464D01*
X92566762Y-47404956D01*
X92410000Y-47384318D01*
X92253238Y-47404956D01*
X92107159Y-47465464D01*
X91981718Y-47561718D01*
X91885464Y-47687159D01*
X91824956Y-47833238D01*
X91804318Y-47990000D01*
X66000000Y-47990000D01*
X66000000Y-46126000D01*
X66020002Y-46057879D01*
X66073658Y-46011386D01*
X66126000Y-46000000D01*
X90268609Y-46000000D01*
X90336730Y-46020002D01*
G37*
G04 #@! TD.AperFunction*
M02*
