G04 #@! TF.GenerationSoftware,KiCad,Pcbnew,(6.0.1-0)*
G04 #@! TF.CreationDate,2023-01-13T10:30:12+06:00*
G04 #@! TF.ProjectId,ESP_GSM,4553505f-4753-44d2-9e6b-696361645f70,rev?*
G04 #@! TF.SameCoordinates,Original*
G04 #@! TF.FileFunction,Legend,Top*
G04 #@! TF.FilePolarity,Positive*
%FSLAX46Y46*%
G04 Gerber Fmt 4.6, Leading zero omitted, Abs format (unit mm)*
G04 Created by KiCad (PCBNEW (6.0.1-0)) date 2023-01-13 10:30:12*
%MOMM*%
%LPD*%
G01*
G04 APERTURE LIST*
%ADD10C,0.150000*%
%ADD11C,0.080000*%
%ADD12C,0.120000*%
%ADD13C,0.127000*%
%ADD14C,0.200000*%
%ADD15C,0.100000*%
G04 APERTURE END LIST*
D10*
X81562380Y-47811904D02*
X81562380Y-47240476D01*
X82562380Y-47526190D02*
X81562380Y-47526190D01*
X81562380Y-47002380D02*
X82562380Y-46335714D01*
X81562380Y-46335714D02*
X82562380Y-47002380D01*
X85782380Y-47216666D02*
X85306190Y-47550000D01*
X85782380Y-47788095D02*
X84782380Y-47788095D01*
X84782380Y-47407142D01*
X84830000Y-47311904D01*
X84877619Y-47264285D01*
X84972857Y-47216666D01*
X85115714Y-47216666D01*
X85210952Y-47264285D01*
X85258571Y-47311904D01*
X85306190Y-47407142D01*
X85306190Y-47788095D01*
X84782380Y-46883333D02*
X85782380Y-46216666D01*
X84782380Y-46216666D02*
X85782380Y-46883333D01*
X106306428Y-54561428D02*
X106306428Y-53799523D01*
X106163571Y-52990000D02*
X106211190Y-52847142D01*
X106258809Y-52799523D01*
X106354047Y-52751904D01*
X106496904Y-52751904D01*
X106592142Y-52799523D01*
X106639761Y-52847142D01*
X106687380Y-52942380D01*
X106687380Y-53323333D01*
X105687380Y-53323333D01*
X105687380Y-52990000D01*
X105735000Y-52894761D01*
X105782619Y-52847142D01*
X105877857Y-52799523D01*
X105973095Y-52799523D01*
X106068333Y-52847142D01*
X106115952Y-52894761D01*
X106163571Y-52990000D01*
X106163571Y-53323333D01*
X106401666Y-52370952D02*
X106401666Y-51894761D01*
X106687380Y-52466190D02*
X105687380Y-52132857D01*
X106687380Y-51799523D01*
X105687380Y-51609047D02*
X105687380Y-51037619D01*
X106687380Y-51323333D02*
X105687380Y-51323333D01*
X105687380Y-50847142D02*
X105687380Y-50275714D01*
X106687380Y-50561428D02*
X105687380Y-50561428D01*
X107916428Y-54561428D02*
X107916428Y-53799523D01*
X108297380Y-54180476D02*
X107535476Y-54180476D01*
X107773571Y-52990000D02*
X107821190Y-52847142D01*
X107868809Y-52799523D01*
X107964047Y-52751904D01*
X108106904Y-52751904D01*
X108202142Y-52799523D01*
X108249761Y-52847142D01*
X108297380Y-52942380D01*
X108297380Y-53323333D01*
X107297380Y-53323333D01*
X107297380Y-52990000D01*
X107345000Y-52894761D01*
X107392619Y-52847142D01*
X107487857Y-52799523D01*
X107583095Y-52799523D01*
X107678333Y-52847142D01*
X107725952Y-52894761D01*
X107773571Y-52990000D01*
X107773571Y-53323333D01*
X108011666Y-52370952D02*
X108011666Y-51894761D01*
X108297380Y-52466190D02*
X107297380Y-52132857D01*
X108297380Y-51799523D01*
X107297380Y-51609047D02*
X107297380Y-51037619D01*
X108297380Y-51323333D02*
X107297380Y-51323333D01*
X107297380Y-50847142D02*
X107297380Y-50275714D01*
X108297380Y-50561428D02*
X107297380Y-50561428D01*
D11*
X140236190Y-48079523D02*
X139998095Y-48246190D01*
X140236190Y-48365238D02*
X139736190Y-48365238D01*
X139736190Y-48174761D01*
X139760000Y-48127142D01*
X139783809Y-48103333D01*
X139831428Y-48079523D01*
X139902857Y-48079523D01*
X139950476Y-48103333D01*
X139974285Y-48127142D01*
X139998095Y-48174761D01*
X139998095Y-48365238D01*
X139783809Y-47889047D02*
X139760000Y-47865238D01*
X139736190Y-47817619D01*
X139736190Y-47698571D01*
X139760000Y-47650952D01*
X139783809Y-47627142D01*
X139831428Y-47603333D01*
X139879047Y-47603333D01*
X139950476Y-47627142D01*
X140236190Y-47912857D01*
X140236190Y-47603333D01*
X139736190Y-47293809D02*
X139736190Y-47246190D01*
X139760000Y-47198571D01*
X139783809Y-47174761D01*
X139831428Y-47150952D01*
X139926666Y-47127142D01*
X140045714Y-47127142D01*
X140140952Y-47150952D01*
X140188571Y-47174761D01*
X140212380Y-47198571D01*
X140236190Y-47246190D01*
X140236190Y-47293809D01*
X140212380Y-47341428D01*
X140188571Y-47365238D01*
X140140952Y-47389047D01*
X140045714Y-47412857D01*
X139926666Y-47412857D01*
X139831428Y-47389047D01*
X139783809Y-47365238D01*
X139760000Y-47341428D01*
X139736190Y-47293809D01*
X139950476Y-46841428D02*
X139926666Y-46889047D01*
X139902857Y-46912857D01*
X139855238Y-46936666D01*
X139831428Y-46936666D01*
X139783809Y-46912857D01*
X139760000Y-46889047D01*
X139736190Y-46841428D01*
X139736190Y-46746190D01*
X139760000Y-46698571D01*
X139783809Y-46674761D01*
X139831428Y-46650952D01*
X139855238Y-46650952D01*
X139902857Y-46674761D01*
X139926666Y-46698571D01*
X139950476Y-46746190D01*
X139950476Y-46841428D01*
X139974285Y-46889047D01*
X139998095Y-46912857D01*
X140045714Y-46936666D01*
X140140952Y-46936666D01*
X140188571Y-46912857D01*
X140212380Y-46889047D01*
X140236190Y-46841428D01*
X140236190Y-46746190D01*
X140212380Y-46698571D01*
X140188571Y-46674761D01*
X140140952Y-46650952D01*
X140045714Y-46650952D01*
X139998095Y-46674761D01*
X139974285Y-46698571D01*
X139950476Y-46746190D01*
X122166190Y-54187142D02*
X122570952Y-54187142D01*
X122618571Y-54163333D01*
X122642380Y-54139523D01*
X122666190Y-54091904D01*
X122666190Y-53996666D01*
X122642380Y-53949047D01*
X122618571Y-53925238D01*
X122570952Y-53901428D01*
X122166190Y-53901428D01*
X122332857Y-53449047D02*
X122666190Y-53449047D01*
X122142380Y-53568095D02*
X122499523Y-53687142D01*
X122499523Y-53377619D01*
X122166190Y-53091904D02*
X122166190Y-53044285D01*
X122190000Y-52996666D01*
X122213809Y-52972857D01*
X122261428Y-52949047D01*
X122356666Y-52925238D01*
X122475714Y-52925238D01*
X122570952Y-52949047D01*
X122618571Y-52972857D01*
X122642380Y-52996666D01*
X122666190Y-53044285D01*
X122666190Y-53091904D01*
X122642380Y-53139523D01*
X122618571Y-53163333D01*
X122570952Y-53187142D01*
X122475714Y-53210952D01*
X122356666Y-53210952D01*
X122261428Y-53187142D01*
X122213809Y-53163333D01*
X122190000Y-53139523D01*
X122166190Y-53091904D01*
X122213809Y-52734761D02*
X122190000Y-52710952D01*
X122166190Y-52663333D01*
X122166190Y-52544285D01*
X122190000Y-52496666D01*
X122213809Y-52472857D01*
X122261428Y-52449047D01*
X122309047Y-52449047D01*
X122380476Y-52472857D01*
X122666190Y-52758571D01*
X122666190Y-52449047D01*
X86440476Y-76376190D02*
X86273809Y-76138095D01*
X86154761Y-76376190D02*
X86154761Y-75876190D01*
X86345238Y-75876190D01*
X86392857Y-75900000D01*
X86416666Y-75923809D01*
X86440476Y-75971428D01*
X86440476Y-76042857D01*
X86416666Y-76090476D01*
X86392857Y-76114285D01*
X86345238Y-76138095D01*
X86154761Y-76138095D01*
X86892857Y-75876190D02*
X86654761Y-75876190D01*
X86630952Y-76114285D01*
X86654761Y-76090476D01*
X86702380Y-76066666D01*
X86821428Y-76066666D01*
X86869047Y-76090476D01*
X86892857Y-76114285D01*
X86916666Y-76161904D01*
X86916666Y-76280952D01*
X86892857Y-76328571D01*
X86869047Y-76352380D01*
X86821428Y-76376190D01*
X86702380Y-76376190D01*
X86654761Y-76352380D01*
X86630952Y-76328571D01*
X87226190Y-75876190D02*
X87273809Y-75876190D01*
X87321428Y-75900000D01*
X87345238Y-75923809D01*
X87369047Y-75971428D01*
X87392857Y-76066666D01*
X87392857Y-76185714D01*
X87369047Y-76280952D01*
X87345238Y-76328571D01*
X87321428Y-76352380D01*
X87273809Y-76376190D01*
X87226190Y-76376190D01*
X87178571Y-76352380D01*
X87154761Y-76328571D01*
X87130952Y-76280952D01*
X87107142Y-76185714D01*
X87107142Y-76066666D01*
X87130952Y-75971428D01*
X87154761Y-75923809D01*
X87178571Y-75900000D01*
X87226190Y-75876190D01*
X87583333Y-75923809D02*
X87607142Y-75900000D01*
X87654761Y-75876190D01*
X87773809Y-75876190D01*
X87821428Y-75900000D01*
X87845238Y-75923809D01*
X87869047Y-75971428D01*
X87869047Y-76019047D01*
X87845238Y-76090476D01*
X87559523Y-76376190D01*
X87869047Y-76376190D01*
X121966190Y-77747142D02*
X122370952Y-77747142D01*
X122418571Y-77723333D01*
X122442380Y-77699523D01*
X122466190Y-77651904D01*
X122466190Y-77556666D01*
X122442380Y-77509047D01*
X122418571Y-77485238D01*
X122370952Y-77461428D01*
X121966190Y-77461428D01*
X122013809Y-77247142D02*
X121990000Y-77223333D01*
X121966190Y-77175714D01*
X121966190Y-77056666D01*
X121990000Y-77009047D01*
X122013809Y-76985238D01*
X122061428Y-76961428D01*
X122109047Y-76961428D01*
X122180476Y-76985238D01*
X122466190Y-77270952D01*
X122466190Y-76961428D01*
X121966190Y-76651904D02*
X121966190Y-76604285D01*
X121990000Y-76556666D01*
X122013809Y-76532857D01*
X122061428Y-76509047D01*
X122156666Y-76485238D01*
X122275714Y-76485238D01*
X122370952Y-76509047D01*
X122418571Y-76532857D01*
X122442380Y-76556666D01*
X122466190Y-76604285D01*
X122466190Y-76651904D01*
X122442380Y-76699523D01*
X122418571Y-76723333D01*
X122370952Y-76747142D01*
X122275714Y-76770952D01*
X122156666Y-76770952D01*
X122061428Y-76747142D01*
X122013809Y-76723333D01*
X121990000Y-76699523D01*
X121966190Y-76651904D01*
X122466190Y-76009047D02*
X122466190Y-76294761D01*
X122466190Y-76151904D02*
X121966190Y-76151904D01*
X122037619Y-76199523D01*
X122085238Y-76247142D01*
X122109047Y-76294761D01*
X151356190Y-84139523D02*
X151118095Y-84306190D01*
X151356190Y-84425238D02*
X150856190Y-84425238D01*
X150856190Y-84234761D01*
X150880000Y-84187142D01*
X150903809Y-84163333D01*
X150951428Y-84139523D01*
X151022857Y-84139523D01*
X151070476Y-84163333D01*
X151094285Y-84187142D01*
X151118095Y-84234761D01*
X151118095Y-84425238D01*
X150903809Y-83949047D02*
X150880000Y-83925238D01*
X150856190Y-83877619D01*
X150856190Y-83758571D01*
X150880000Y-83710952D01*
X150903809Y-83687142D01*
X150951428Y-83663333D01*
X150999047Y-83663333D01*
X151070476Y-83687142D01*
X151356190Y-83972857D01*
X151356190Y-83663333D01*
X150856190Y-83353809D02*
X150856190Y-83306190D01*
X150880000Y-83258571D01*
X150903809Y-83234761D01*
X150951428Y-83210952D01*
X151046666Y-83187142D01*
X151165714Y-83187142D01*
X151260952Y-83210952D01*
X151308571Y-83234761D01*
X151332380Y-83258571D01*
X151356190Y-83306190D01*
X151356190Y-83353809D01*
X151332380Y-83401428D01*
X151308571Y-83425238D01*
X151260952Y-83449047D01*
X151165714Y-83472857D01*
X151046666Y-83472857D01*
X150951428Y-83449047D01*
X150903809Y-83425238D01*
X150880000Y-83401428D01*
X150856190Y-83353809D01*
X150903809Y-82996666D02*
X150880000Y-82972857D01*
X150856190Y-82925238D01*
X150856190Y-82806190D01*
X150880000Y-82758571D01*
X150903809Y-82734761D01*
X150951428Y-82710952D01*
X150999047Y-82710952D01*
X151070476Y-82734761D01*
X151356190Y-83020476D01*
X151356190Y-82710952D01*
X131007142Y-42516190D02*
X131007142Y-42873333D01*
X130983333Y-42944761D01*
X130935714Y-42992380D01*
X130864285Y-43016190D01*
X130816666Y-43016190D01*
X131221428Y-42563809D02*
X131245238Y-42540000D01*
X131292857Y-42516190D01*
X131411904Y-42516190D01*
X131459523Y-42540000D01*
X131483333Y-42563809D01*
X131507142Y-42611428D01*
X131507142Y-42659047D01*
X131483333Y-42730476D01*
X131197619Y-43016190D01*
X131507142Y-43016190D01*
X131816666Y-42516190D02*
X131864285Y-42516190D01*
X131911904Y-42540000D01*
X131935714Y-42563809D01*
X131959523Y-42611428D01*
X131983333Y-42706666D01*
X131983333Y-42825714D01*
X131959523Y-42920952D01*
X131935714Y-42968571D01*
X131911904Y-42992380D01*
X131864285Y-43016190D01*
X131816666Y-43016190D01*
X131769047Y-42992380D01*
X131745238Y-42968571D01*
X131721428Y-42920952D01*
X131697619Y-42825714D01*
X131697619Y-42706666D01*
X131721428Y-42611428D01*
X131745238Y-42563809D01*
X131769047Y-42540000D01*
X131816666Y-42516190D01*
X132411904Y-42682857D02*
X132411904Y-43016190D01*
X132292857Y-42492380D02*
X132173809Y-42849523D01*
X132483333Y-42849523D01*
X95340476Y-86246190D02*
X95173809Y-86008095D01*
X95054761Y-86246190D02*
X95054761Y-85746190D01*
X95245238Y-85746190D01*
X95292857Y-85770000D01*
X95316666Y-85793809D01*
X95340476Y-85841428D01*
X95340476Y-85912857D01*
X95316666Y-85960476D01*
X95292857Y-85984285D01*
X95245238Y-86008095D01*
X95054761Y-86008095D01*
X95792857Y-85746190D02*
X95554761Y-85746190D01*
X95530952Y-85984285D01*
X95554761Y-85960476D01*
X95602380Y-85936666D01*
X95721428Y-85936666D01*
X95769047Y-85960476D01*
X95792857Y-85984285D01*
X95816666Y-86031904D01*
X95816666Y-86150952D01*
X95792857Y-86198571D01*
X95769047Y-86222380D01*
X95721428Y-86246190D01*
X95602380Y-86246190D01*
X95554761Y-86222380D01*
X95530952Y-86198571D01*
X96126190Y-85746190D02*
X96173809Y-85746190D01*
X96221428Y-85770000D01*
X96245238Y-85793809D01*
X96269047Y-85841428D01*
X96292857Y-85936666D01*
X96292857Y-86055714D01*
X96269047Y-86150952D01*
X96245238Y-86198571D01*
X96221428Y-86222380D01*
X96173809Y-86246190D01*
X96126190Y-86246190D01*
X96078571Y-86222380D01*
X96054761Y-86198571D01*
X96030952Y-86150952D01*
X96007142Y-86055714D01*
X96007142Y-85936666D01*
X96030952Y-85841428D01*
X96054761Y-85793809D01*
X96078571Y-85770000D01*
X96126190Y-85746190D01*
X96459523Y-85746190D02*
X96792857Y-85746190D01*
X96578571Y-86246190D01*
X155918571Y-58689523D02*
X155942380Y-58713333D01*
X155966190Y-58784761D01*
X155966190Y-58832380D01*
X155942380Y-58903809D01*
X155894761Y-58951428D01*
X155847142Y-58975238D01*
X155751904Y-58999047D01*
X155680476Y-58999047D01*
X155585238Y-58975238D01*
X155537619Y-58951428D01*
X155490000Y-58903809D01*
X155466190Y-58832380D01*
X155466190Y-58784761D01*
X155490000Y-58713333D01*
X155513809Y-58689523D01*
X155513809Y-58499047D02*
X155490000Y-58475238D01*
X155466190Y-58427619D01*
X155466190Y-58308571D01*
X155490000Y-58260952D01*
X155513809Y-58237142D01*
X155561428Y-58213333D01*
X155609047Y-58213333D01*
X155680476Y-58237142D01*
X155966190Y-58522857D01*
X155966190Y-58213333D01*
X155966190Y-57737142D02*
X155966190Y-58022857D01*
X155966190Y-57880000D02*
X155466190Y-57880000D01*
X155537619Y-57927619D01*
X155585238Y-57975238D01*
X155609047Y-58022857D01*
X155466190Y-57570476D02*
X155466190Y-57260952D01*
X155656666Y-57427619D01*
X155656666Y-57356190D01*
X155680476Y-57308571D01*
X155704285Y-57284761D01*
X155751904Y-57260952D01*
X155870952Y-57260952D01*
X155918571Y-57284761D01*
X155942380Y-57308571D01*
X155966190Y-57356190D01*
X155966190Y-57499047D01*
X155942380Y-57546666D01*
X155918571Y-57570476D01*
X61642857Y-40726190D02*
X61642857Y-40226190D01*
X61642857Y-40464285D02*
X61928571Y-40464285D01*
X61928571Y-40726190D02*
X61928571Y-40226190D01*
X62404761Y-40226190D02*
X62166666Y-40226190D01*
X62142857Y-40464285D01*
X62166666Y-40440476D01*
X62214285Y-40416666D01*
X62333333Y-40416666D01*
X62380952Y-40440476D01*
X62404761Y-40464285D01*
X62428571Y-40511904D01*
X62428571Y-40630952D01*
X62404761Y-40678571D01*
X62380952Y-40702380D01*
X62333333Y-40726190D01*
X62214285Y-40726190D01*
X62166666Y-40702380D01*
X62142857Y-40678571D01*
X62738095Y-40226190D02*
X62785714Y-40226190D01*
X62833333Y-40250000D01*
X62857142Y-40273809D01*
X62880952Y-40321428D01*
X62904761Y-40416666D01*
X62904761Y-40535714D01*
X62880952Y-40630952D01*
X62857142Y-40678571D01*
X62833333Y-40702380D01*
X62785714Y-40726190D01*
X62738095Y-40726190D01*
X62690476Y-40702380D01*
X62666666Y-40678571D01*
X62642857Y-40630952D01*
X62619047Y-40535714D01*
X62619047Y-40416666D01*
X62642857Y-40321428D01*
X62666666Y-40273809D01*
X62690476Y-40250000D01*
X62738095Y-40226190D01*
X63380952Y-40726190D02*
X63095238Y-40726190D01*
X63238095Y-40726190D02*
X63238095Y-40226190D01*
X63190476Y-40297619D01*
X63142857Y-40345238D01*
X63095238Y-40369047D01*
X155028571Y-86279523D02*
X155052380Y-86303333D01*
X155076190Y-86374761D01*
X155076190Y-86422380D01*
X155052380Y-86493809D01*
X155004761Y-86541428D01*
X154957142Y-86565238D01*
X154861904Y-86589047D01*
X154790476Y-86589047D01*
X154695238Y-86565238D01*
X154647619Y-86541428D01*
X154600000Y-86493809D01*
X154576190Y-86422380D01*
X154576190Y-86374761D01*
X154600000Y-86303333D01*
X154623809Y-86279523D01*
X154623809Y-86089047D02*
X154600000Y-86065238D01*
X154576190Y-86017619D01*
X154576190Y-85898571D01*
X154600000Y-85850952D01*
X154623809Y-85827142D01*
X154671428Y-85803333D01*
X154719047Y-85803333D01*
X154790476Y-85827142D01*
X155076190Y-86112857D01*
X155076190Y-85803333D01*
X154576190Y-85493809D02*
X154576190Y-85446190D01*
X154600000Y-85398571D01*
X154623809Y-85374761D01*
X154671428Y-85350952D01*
X154766666Y-85327142D01*
X154885714Y-85327142D01*
X154980952Y-85350952D01*
X155028571Y-85374761D01*
X155052380Y-85398571D01*
X155076190Y-85446190D01*
X155076190Y-85493809D01*
X155052380Y-85541428D01*
X155028571Y-85565238D01*
X154980952Y-85589047D01*
X154885714Y-85612857D01*
X154766666Y-85612857D01*
X154671428Y-85589047D01*
X154623809Y-85565238D01*
X154600000Y-85541428D01*
X154576190Y-85493809D01*
X154576190Y-85160476D02*
X154576190Y-84850952D01*
X154766666Y-85017619D01*
X154766666Y-84946190D01*
X154790476Y-84898571D01*
X154814285Y-84874761D01*
X154861904Y-84850952D01*
X154980952Y-84850952D01*
X155028571Y-84874761D01*
X155052380Y-84898571D01*
X155076190Y-84946190D01*
X155076190Y-85089047D01*
X155052380Y-85136666D01*
X155028571Y-85160476D01*
X121844571Y-88951523D02*
X121868380Y-88975333D01*
X121892190Y-89046761D01*
X121892190Y-89094380D01*
X121868380Y-89165809D01*
X121820761Y-89213428D01*
X121773142Y-89237238D01*
X121677904Y-89261047D01*
X121606476Y-89261047D01*
X121511238Y-89237238D01*
X121463619Y-89213428D01*
X121416000Y-89165809D01*
X121392190Y-89094380D01*
X121392190Y-89046761D01*
X121416000Y-88975333D01*
X121439809Y-88951523D01*
X121392190Y-88499142D02*
X121392190Y-88737238D01*
X121630285Y-88761047D01*
X121606476Y-88737238D01*
X121582666Y-88689619D01*
X121582666Y-88570571D01*
X121606476Y-88522952D01*
X121630285Y-88499142D01*
X121677904Y-88475333D01*
X121796952Y-88475333D01*
X121844571Y-88499142D01*
X121868380Y-88522952D01*
X121892190Y-88570571D01*
X121892190Y-88689619D01*
X121868380Y-88737238D01*
X121844571Y-88761047D01*
X121392190Y-88165809D02*
X121392190Y-88118190D01*
X121416000Y-88070571D01*
X121439809Y-88046761D01*
X121487428Y-88022952D01*
X121582666Y-87999142D01*
X121701714Y-87999142D01*
X121796952Y-88022952D01*
X121844571Y-88046761D01*
X121868380Y-88070571D01*
X121892190Y-88118190D01*
X121892190Y-88165809D01*
X121868380Y-88213428D01*
X121844571Y-88237238D01*
X121796952Y-88261047D01*
X121701714Y-88284857D01*
X121582666Y-88284857D01*
X121487428Y-88261047D01*
X121439809Y-88237238D01*
X121416000Y-88213428D01*
X121392190Y-88165809D01*
X121892190Y-87522952D02*
X121892190Y-87808666D01*
X121892190Y-87665809D02*
X121392190Y-87665809D01*
X121463619Y-87713428D01*
X121511238Y-87761047D01*
X121535047Y-87808666D01*
X156652857Y-97716190D02*
X156652857Y-97216190D01*
X156652857Y-97454285D02*
X156938571Y-97454285D01*
X156938571Y-97716190D02*
X156938571Y-97216190D01*
X157414761Y-97216190D02*
X157176666Y-97216190D01*
X157152857Y-97454285D01*
X157176666Y-97430476D01*
X157224285Y-97406666D01*
X157343333Y-97406666D01*
X157390952Y-97430476D01*
X157414761Y-97454285D01*
X157438571Y-97501904D01*
X157438571Y-97620952D01*
X157414761Y-97668571D01*
X157390952Y-97692380D01*
X157343333Y-97716190D01*
X157224285Y-97716190D01*
X157176666Y-97692380D01*
X157152857Y-97668571D01*
X157748095Y-97216190D02*
X157795714Y-97216190D01*
X157843333Y-97240000D01*
X157867142Y-97263809D01*
X157890952Y-97311428D01*
X157914761Y-97406666D01*
X157914761Y-97525714D01*
X157890952Y-97620952D01*
X157867142Y-97668571D01*
X157843333Y-97692380D01*
X157795714Y-97716190D01*
X157748095Y-97716190D01*
X157700476Y-97692380D01*
X157676666Y-97668571D01*
X157652857Y-97620952D01*
X157629047Y-97525714D01*
X157629047Y-97406666D01*
X157652857Y-97311428D01*
X157676666Y-97263809D01*
X157700476Y-97240000D01*
X157748095Y-97216190D01*
X158081428Y-97216190D02*
X158390952Y-97216190D01*
X158224285Y-97406666D01*
X158295714Y-97406666D01*
X158343333Y-97430476D01*
X158367142Y-97454285D01*
X158390952Y-97501904D01*
X158390952Y-97620952D01*
X158367142Y-97668571D01*
X158343333Y-97692380D01*
X158295714Y-97716190D01*
X158152857Y-97716190D01*
X158105238Y-97692380D01*
X158081428Y-97668571D01*
X133680476Y-81838571D02*
X133656666Y-81862380D01*
X133585238Y-81886190D01*
X133537619Y-81886190D01*
X133466190Y-81862380D01*
X133418571Y-81814761D01*
X133394761Y-81767142D01*
X133370952Y-81671904D01*
X133370952Y-81600476D01*
X133394761Y-81505238D01*
X133418571Y-81457619D01*
X133466190Y-81410000D01*
X133537619Y-81386190D01*
X133585238Y-81386190D01*
X133656666Y-81410000D01*
X133680476Y-81433809D01*
X133870952Y-81433809D02*
X133894761Y-81410000D01*
X133942380Y-81386190D01*
X134061428Y-81386190D01*
X134109047Y-81410000D01*
X134132857Y-81433809D01*
X134156666Y-81481428D01*
X134156666Y-81529047D01*
X134132857Y-81600476D01*
X133847142Y-81886190D01*
X134156666Y-81886190D01*
X134632857Y-81886190D02*
X134347142Y-81886190D01*
X134490000Y-81886190D02*
X134490000Y-81386190D01*
X134442380Y-81457619D01*
X134394761Y-81505238D01*
X134347142Y-81529047D01*
X135061428Y-81386190D02*
X134966190Y-81386190D01*
X134918571Y-81410000D01*
X134894761Y-81433809D01*
X134847142Y-81505238D01*
X134823333Y-81600476D01*
X134823333Y-81790952D01*
X134847142Y-81838571D01*
X134870952Y-81862380D01*
X134918571Y-81886190D01*
X135013809Y-81886190D01*
X135061428Y-81862380D01*
X135085238Y-81838571D01*
X135109047Y-81790952D01*
X135109047Y-81671904D01*
X135085238Y-81624285D01*
X135061428Y-81600476D01*
X135013809Y-81576666D01*
X134918571Y-81576666D01*
X134870952Y-81600476D01*
X134847142Y-81624285D01*
X134823333Y-81671904D01*
X136470476Y-46076190D02*
X136303809Y-45838095D01*
X136184761Y-46076190D02*
X136184761Y-45576190D01*
X136375238Y-45576190D01*
X136422857Y-45600000D01*
X136446666Y-45623809D01*
X136470476Y-45671428D01*
X136470476Y-45742857D01*
X136446666Y-45790476D01*
X136422857Y-45814285D01*
X136375238Y-45838095D01*
X136184761Y-45838095D01*
X136660952Y-45623809D02*
X136684761Y-45600000D01*
X136732380Y-45576190D01*
X136851428Y-45576190D01*
X136899047Y-45600000D01*
X136922857Y-45623809D01*
X136946666Y-45671428D01*
X136946666Y-45719047D01*
X136922857Y-45790476D01*
X136637142Y-46076190D01*
X136946666Y-46076190D01*
X137256190Y-45576190D02*
X137303809Y-45576190D01*
X137351428Y-45600000D01*
X137375238Y-45623809D01*
X137399047Y-45671428D01*
X137422857Y-45766666D01*
X137422857Y-45885714D01*
X137399047Y-45980952D01*
X137375238Y-46028571D01*
X137351428Y-46052380D01*
X137303809Y-46076190D01*
X137256190Y-46076190D01*
X137208571Y-46052380D01*
X137184761Y-46028571D01*
X137160952Y-45980952D01*
X137137142Y-45885714D01*
X137137142Y-45766666D01*
X137160952Y-45671428D01*
X137184761Y-45623809D01*
X137208571Y-45600000D01*
X137256190Y-45576190D01*
X137589523Y-45576190D02*
X137922857Y-45576190D01*
X137708571Y-46076190D01*
X156642857Y-40726190D02*
X156642857Y-40226190D01*
X156642857Y-40464285D02*
X156928571Y-40464285D01*
X156928571Y-40726190D02*
X156928571Y-40226190D01*
X157404761Y-40226190D02*
X157166666Y-40226190D01*
X157142857Y-40464285D01*
X157166666Y-40440476D01*
X157214285Y-40416666D01*
X157333333Y-40416666D01*
X157380952Y-40440476D01*
X157404761Y-40464285D01*
X157428571Y-40511904D01*
X157428571Y-40630952D01*
X157404761Y-40678571D01*
X157380952Y-40702380D01*
X157333333Y-40726190D01*
X157214285Y-40726190D01*
X157166666Y-40702380D01*
X157142857Y-40678571D01*
X157738095Y-40226190D02*
X157785714Y-40226190D01*
X157833333Y-40250000D01*
X157857142Y-40273809D01*
X157880952Y-40321428D01*
X157904761Y-40416666D01*
X157904761Y-40535714D01*
X157880952Y-40630952D01*
X157857142Y-40678571D01*
X157833333Y-40702380D01*
X157785714Y-40726190D01*
X157738095Y-40726190D01*
X157690476Y-40702380D01*
X157666666Y-40678571D01*
X157642857Y-40630952D01*
X157619047Y-40535714D01*
X157619047Y-40416666D01*
X157642857Y-40321428D01*
X157666666Y-40273809D01*
X157690476Y-40250000D01*
X157738095Y-40226190D01*
X158333333Y-40392857D02*
X158333333Y-40726190D01*
X158214285Y-40202380D02*
X158095238Y-40559523D01*
X158404761Y-40559523D01*
X121506190Y-79239523D02*
X121268095Y-79406190D01*
X121506190Y-79525238D02*
X121006190Y-79525238D01*
X121006190Y-79334761D01*
X121030000Y-79287142D01*
X121053809Y-79263333D01*
X121101428Y-79239523D01*
X121172857Y-79239523D01*
X121220476Y-79263333D01*
X121244285Y-79287142D01*
X121268095Y-79334761D01*
X121268095Y-79525238D01*
X121006190Y-78787142D02*
X121006190Y-79025238D01*
X121244285Y-79049047D01*
X121220476Y-79025238D01*
X121196666Y-78977619D01*
X121196666Y-78858571D01*
X121220476Y-78810952D01*
X121244285Y-78787142D01*
X121291904Y-78763333D01*
X121410952Y-78763333D01*
X121458571Y-78787142D01*
X121482380Y-78810952D01*
X121506190Y-78858571D01*
X121506190Y-78977619D01*
X121482380Y-79025238D01*
X121458571Y-79049047D01*
X121006190Y-78453809D02*
X121006190Y-78406190D01*
X121030000Y-78358571D01*
X121053809Y-78334761D01*
X121101428Y-78310952D01*
X121196666Y-78287142D01*
X121315714Y-78287142D01*
X121410952Y-78310952D01*
X121458571Y-78334761D01*
X121482380Y-78358571D01*
X121506190Y-78406190D01*
X121506190Y-78453809D01*
X121482380Y-78501428D01*
X121458571Y-78525238D01*
X121410952Y-78549047D01*
X121315714Y-78572857D01*
X121196666Y-78572857D01*
X121101428Y-78549047D01*
X121053809Y-78525238D01*
X121030000Y-78501428D01*
X121006190Y-78453809D01*
X121506190Y-77810952D02*
X121506190Y-78096666D01*
X121506190Y-77953809D02*
X121006190Y-77953809D01*
X121077619Y-78001428D01*
X121125238Y-78049047D01*
X121149047Y-78096666D01*
X157336190Y-89419523D02*
X157098095Y-89586190D01*
X157336190Y-89705238D02*
X156836190Y-89705238D01*
X156836190Y-89514761D01*
X156860000Y-89467142D01*
X156883809Y-89443333D01*
X156931428Y-89419523D01*
X157002857Y-89419523D01*
X157050476Y-89443333D01*
X157074285Y-89467142D01*
X157098095Y-89514761D01*
X157098095Y-89705238D01*
X156883809Y-89229047D02*
X156860000Y-89205238D01*
X156836190Y-89157619D01*
X156836190Y-89038571D01*
X156860000Y-88990952D01*
X156883809Y-88967142D01*
X156931428Y-88943333D01*
X156979047Y-88943333D01*
X157050476Y-88967142D01*
X157336190Y-89252857D01*
X157336190Y-88943333D01*
X156836190Y-88633809D02*
X156836190Y-88586190D01*
X156860000Y-88538571D01*
X156883809Y-88514761D01*
X156931428Y-88490952D01*
X157026666Y-88467142D01*
X157145714Y-88467142D01*
X157240952Y-88490952D01*
X157288571Y-88514761D01*
X157312380Y-88538571D01*
X157336190Y-88586190D01*
X157336190Y-88633809D01*
X157312380Y-88681428D01*
X157288571Y-88705238D01*
X157240952Y-88729047D01*
X157145714Y-88752857D01*
X157026666Y-88752857D01*
X156931428Y-88729047D01*
X156883809Y-88705238D01*
X156860000Y-88681428D01*
X156836190Y-88633809D01*
X156836190Y-88300476D02*
X156836190Y-87990952D01*
X157026666Y-88157619D01*
X157026666Y-88086190D01*
X157050476Y-88038571D01*
X157074285Y-88014761D01*
X157121904Y-87990952D01*
X157240952Y-87990952D01*
X157288571Y-88014761D01*
X157312380Y-88038571D01*
X157336190Y-88086190D01*
X157336190Y-88229047D01*
X157312380Y-88276666D01*
X157288571Y-88300476D01*
X121166190Y-75149523D02*
X121166190Y-75387619D01*
X120666190Y-75387619D01*
X120713809Y-75006666D02*
X120690000Y-74982857D01*
X120666190Y-74935238D01*
X120666190Y-74816190D01*
X120690000Y-74768571D01*
X120713809Y-74744761D01*
X120761428Y-74720952D01*
X120809047Y-74720952D01*
X120880476Y-74744761D01*
X121166190Y-75030476D01*
X121166190Y-74720952D01*
X120666190Y-74411428D02*
X120666190Y-74363809D01*
X120690000Y-74316190D01*
X120713809Y-74292380D01*
X120761428Y-74268571D01*
X120856666Y-74244761D01*
X120975714Y-74244761D01*
X121070952Y-74268571D01*
X121118571Y-74292380D01*
X121142380Y-74316190D01*
X121166190Y-74363809D01*
X121166190Y-74411428D01*
X121142380Y-74459047D01*
X121118571Y-74482857D01*
X121070952Y-74506666D01*
X120975714Y-74530476D01*
X120856666Y-74530476D01*
X120761428Y-74506666D01*
X120713809Y-74482857D01*
X120690000Y-74459047D01*
X120666190Y-74411428D01*
X120713809Y-74054285D02*
X120690000Y-74030476D01*
X120666190Y-73982857D01*
X120666190Y-73863809D01*
X120690000Y-73816190D01*
X120713809Y-73792380D01*
X120761428Y-73768571D01*
X120809047Y-73768571D01*
X120880476Y-73792380D01*
X121166190Y-74078095D01*
X121166190Y-73768571D01*
X95270476Y-84026190D02*
X95103809Y-83788095D01*
X94984761Y-84026190D02*
X94984761Y-83526190D01*
X95175238Y-83526190D01*
X95222857Y-83550000D01*
X95246666Y-83573809D01*
X95270476Y-83621428D01*
X95270476Y-83692857D01*
X95246666Y-83740476D01*
X95222857Y-83764285D01*
X95175238Y-83788095D01*
X94984761Y-83788095D01*
X95722857Y-83526190D02*
X95484761Y-83526190D01*
X95460952Y-83764285D01*
X95484761Y-83740476D01*
X95532380Y-83716666D01*
X95651428Y-83716666D01*
X95699047Y-83740476D01*
X95722857Y-83764285D01*
X95746666Y-83811904D01*
X95746666Y-83930952D01*
X95722857Y-83978571D01*
X95699047Y-84002380D01*
X95651428Y-84026190D01*
X95532380Y-84026190D01*
X95484761Y-84002380D01*
X95460952Y-83978571D01*
X96056190Y-83526190D02*
X96103809Y-83526190D01*
X96151428Y-83550000D01*
X96175238Y-83573809D01*
X96199047Y-83621428D01*
X96222857Y-83716666D01*
X96222857Y-83835714D01*
X96199047Y-83930952D01*
X96175238Y-83978571D01*
X96151428Y-84002380D01*
X96103809Y-84026190D01*
X96056190Y-84026190D01*
X96008571Y-84002380D01*
X95984761Y-83978571D01*
X95960952Y-83930952D01*
X95937142Y-83835714D01*
X95937142Y-83716666D01*
X95960952Y-83621428D01*
X95984761Y-83573809D01*
X96008571Y-83550000D01*
X96056190Y-83526190D01*
X96651428Y-83526190D02*
X96556190Y-83526190D01*
X96508571Y-83550000D01*
X96484761Y-83573809D01*
X96437142Y-83645238D01*
X96413333Y-83740476D01*
X96413333Y-83930952D01*
X96437142Y-83978571D01*
X96460952Y-84002380D01*
X96508571Y-84026190D01*
X96603809Y-84026190D01*
X96651428Y-84002380D01*
X96675238Y-83978571D01*
X96699047Y-83930952D01*
X96699047Y-83811904D01*
X96675238Y-83764285D01*
X96651428Y-83740476D01*
X96603809Y-83716666D01*
X96508571Y-83716666D01*
X96460952Y-83740476D01*
X96437142Y-83764285D01*
X96413333Y-83811904D01*
X90077142Y-47981190D02*
X90077142Y-48338333D01*
X90053333Y-48409761D01*
X90005714Y-48457380D01*
X89934285Y-48481190D01*
X89886666Y-48481190D01*
X90267619Y-47981190D02*
X90577142Y-47981190D01*
X90410476Y-48171666D01*
X90481904Y-48171666D01*
X90529523Y-48195476D01*
X90553333Y-48219285D01*
X90577142Y-48266904D01*
X90577142Y-48385952D01*
X90553333Y-48433571D01*
X90529523Y-48457380D01*
X90481904Y-48481190D01*
X90339047Y-48481190D01*
X90291428Y-48457380D01*
X90267619Y-48433571D01*
X90886666Y-47981190D02*
X90934285Y-47981190D01*
X90981904Y-48005000D01*
X91005714Y-48028809D01*
X91029523Y-48076428D01*
X91053333Y-48171666D01*
X91053333Y-48290714D01*
X91029523Y-48385952D01*
X91005714Y-48433571D01*
X90981904Y-48457380D01*
X90934285Y-48481190D01*
X90886666Y-48481190D01*
X90839047Y-48457380D01*
X90815238Y-48433571D01*
X90791428Y-48385952D01*
X90767619Y-48290714D01*
X90767619Y-48171666D01*
X90791428Y-48076428D01*
X90815238Y-48028809D01*
X90839047Y-48005000D01*
X90886666Y-47981190D01*
X91529523Y-48481190D02*
X91243809Y-48481190D01*
X91386666Y-48481190D02*
X91386666Y-47981190D01*
X91339047Y-48052619D01*
X91291428Y-48100238D01*
X91243809Y-48124047D01*
X95536190Y-70830476D02*
X95298095Y-70997142D01*
X95536190Y-71116190D02*
X95036190Y-71116190D01*
X95036190Y-70925714D01*
X95060000Y-70878095D01*
X95083809Y-70854285D01*
X95131428Y-70830476D01*
X95202857Y-70830476D01*
X95250476Y-70854285D01*
X95274285Y-70878095D01*
X95298095Y-70925714D01*
X95298095Y-71116190D01*
X95036190Y-70663809D02*
X95536190Y-70330476D01*
X95036190Y-70330476D02*
X95536190Y-70663809D01*
X95583809Y-70259047D02*
X95583809Y-69878095D01*
X95536190Y-69520952D02*
X95536190Y-69759047D01*
X95036190Y-69759047D01*
X95274285Y-69354285D02*
X95274285Y-69187619D01*
X95536190Y-69116190D02*
X95536190Y-69354285D01*
X95036190Y-69354285D01*
X95036190Y-69116190D01*
X95536190Y-68901904D02*
X95036190Y-68901904D01*
X95036190Y-68782857D01*
X95060000Y-68711428D01*
X95107619Y-68663809D01*
X95155238Y-68640000D01*
X95250476Y-68616190D01*
X95321904Y-68616190D01*
X95417142Y-68640000D01*
X95464761Y-68663809D01*
X95512380Y-68711428D01*
X95536190Y-68782857D01*
X95536190Y-68901904D01*
X95536190Y-68140000D02*
X95536190Y-68425714D01*
X95536190Y-68282857D02*
X95036190Y-68282857D01*
X95107619Y-68330476D01*
X95155238Y-68378095D01*
X95179047Y-68425714D01*
X81218571Y-91459523D02*
X81242380Y-91483333D01*
X81266190Y-91554761D01*
X81266190Y-91602380D01*
X81242380Y-91673809D01*
X81194761Y-91721428D01*
X81147142Y-91745238D01*
X81051904Y-91769047D01*
X80980476Y-91769047D01*
X80885238Y-91745238D01*
X80837619Y-91721428D01*
X80790000Y-91673809D01*
X80766190Y-91602380D01*
X80766190Y-91554761D01*
X80790000Y-91483333D01*
X80813809Y-91459523D01*
X80766190Y-91007142D02*
X80766190Y-91245238D01*
X81004285Y-91269047D01*
X80980476Y-91245238D01*
X80956666Y-91197619D01*
X80956666Y-91078571D01*
X80980476Y-91030952D01*
X81004285Y-91007142D01*
X81051904Y-90983333D01*
X81170952Y-90983333D01*
X81218571Y-91007142D01*
X81242380Y-91030952D01*
X81266190Y-91078571D01*
X81266190Y-91197619D01*
X81242380Y-91245238D01*
X81218571Y-91269047D01*
X80766190Y-90673809D02*
X80766190Y-90626190D01*
X80790000Y-90578571D01*
X80813809Y-90554761D01*
X80861428Y-90530952D01*
X80956666Y-90507142D01*
X81075714Y-90507142D01*
X81170952Y-90530952D01*
X81218571Y-90554761D01*
X81242380Y-90578571D01*
X81266190Y-90626190D01*
X81266190Y-90673809D01*
X81242380Y-90721428D01*
X81218571Y-90745238D01*
X81170952Y-90769047D01*
X81075714Y-90792857D01*
X80956666Y-90792857D01*
X80861428Y-90769047D01*
X80813809Y-90745238D01*
X80790000Y-90721428D01*
X80766190Y-90673809D01*
X80813809Y-90316666D02*
X80790000Y-90292857D01*
X80766190Y-90245238D01*
X80766190Y-90126190D01*
X80790000Y-90078571D01*
X80813809Y-90054761D01*
X80861428Y-90030952D01*
X80909047Y-90030952D01*
X80980476Y-90054761D01*
X81266190Y-90340476D01*
X81266190Y-90030952D01*
X144697142Y-88566190D02*
X144697142Y-88923333D01*
X144673333Y-88994761D01*
X144625714Y-89042380D01*
X144554285Y-89066190D01*
X144506666Y-89066190D01*
X144911428Y-88613809D02*
X144935238Y-88590000D01*
X144982857Y-88566190D01*
X145101904Y-88566190D01*
X145149523Y-88590000D01*
X145173333Y-88613809D01*
X145197142Y-88661428D01*
X145197142Y-88709047D01*
X145173333Y-88780476D01*
X144887619Y-89066190D01*
X145197142Y-89066190D01*
X145506666Y-88566190D02*
X145554285Y-88566190D01*
X145601904Y-88590000D01*
X145625714Y-88613809D01*
X145649523Y-88661428D01*
X145673333Y-88756666D01*
X145673333Y-88875714D01*
X145649523Y-88970952D01*
X145625714Y-89018571D01*
X145601904Y-89042380D01*
X145554285Y-89066190D01*
X145506666Y-89066190D01*
X145459047Y-89042380D01*
X145435238Y-89018571D01*
X145411428Y-88970952D01*
X145387619Y-88875714D01*
X145387619Y-88756666D01*
X145411428Y-88661428D01*
X145435238Y-88613809D01*
X145459047Y-88590000D01*
X145506666Y-88566190D01*
X146149523Y-89066190D02*
X145863809Y-89066190D01*
X146006666Y-89066190D02*
X146006666Y-88566190D01*
X145959047Y-88637619D01*
X145911428Y-88685238D01*
X145863809Y-88709047D01*
X62357142Y-80096190D02*
X62357142Y-80453333D01*
X62333333Y-80524761D01*
X62285714Y-80572380D01*
X62214285Y-80596190D01*
X62166666Y-80596190D01*
X62833333Y-80096190D02*
X62595238Y-80096190D01*
X62571428Y-80334285D01*
X62595238Y-80310476D01*
X62642857Y-80286666D01*
X62761904Y-80286666D01*
X62809523Y-80310476D01*
X62833333Y-80334285D01*
X62857142Y-80381904D01*
X62857142Y-80500952D01*
X62833333Y-80548571D01*
X62809523Y-80572380D01*
X62761904Y-80596190D01*
X62642857Y-80596190D01*
X62595238Y-80572380D01*
X62571428Y-80548571D01*
X63166666Y-80096190D02*
X63214285Y-80096190D01*
X63261904Y-80120000D01*
X63285714Y-80143809D01*
X63309523Y-80191428D01*
X63333333Y-80286666D01*
X63333333Y-80405714D01*
X63309523Y-80500952D01*
X63285714Y-80548571D01*
X63261904Y-80572380D01*
X63214285Y-80596190D01*
X63166666Y-80596190D01*
X63119047Y-80572380D01*
X63095238Y-80548571D01*
X63071428Y-80500952D01*
X63047619Y-80405714D01*
X63047619Y-80286666D01*
X63071428Y-80191428D01*
X63095238Y-80143809D01*
X63119047Y-80120000D01*
X63166666Y-80096190D01*
X63809523Y-80596190D02*
X63523809Y-80596190D01*
X63666666Y-80596190D02*
X63666666Y-80096190D01*
X63619047Y-80167619D01*
X63571428Y-80215238D01*
X63523809Y-80239047D01*
X154026190Y-88189523D02*
X153788095Y-88356190D01*
X154026190Y-88475238D02*
X153526190Y-88475238D01*
X153526190Y-88284761D01*
X153550000Y-88237142D01*
X153573809Y-88213333D01*
X153621428Y-88189523D01*
X153692857Y-88189523D01*
X153740476Y-88213333D01*
X153764285Y-88237142D01*
X153788095Y-88284761D01*
X153788095Y-88475238D01*
X153573809Y-87999047D02*
X153550000Y-87975238D01*
X153526190Y-87927619D01*
X153526190Y-87808571D01*
X153550000Y-87760952D01*
X153573809Y-87737142D01*
X153621428Y-87713333D01*
X153669047Y-87713333D01*
X153740476Y-87737142D01*
X154026190Y-88022857D01*
X154026190Y-87713333D01*
X153526190Y-87403809D02*
X153526190Y-87356190D01*
X153550000Y-87308571D01*
X153573809Y-87284761D01*
X153621428Y-87260952D01*
X153716666Y-87237142D01*
X153835714Y-87237142D01*
X153930952Y-87260952D01*
X153978571Y-87284761D01*
X154002380Y-87308571D01*
X154026190Y-87356190D01*
X154026190Y-87403809D01*
X154002380Y-87451428D01*
X153978571Y-87475238D01*
X153930952Y-87499047D01*
X153835714Y-87522857D01*
X153716666Y-87522857D01*
X153621428Y-87499047D01*
X153573809Y-87475238D01*
X153550000Y-87451428D01*
X153526190Y-87403809D01*
X154026190Y-86760952D02*
X154026190Y-87046666D01*
X154026190Y-86903809D02*
X153526190Y-86903809D01*
X153597619Y-86951428D01*
X153645238Y-86999047D01*
X153669047Y-87046666D01*
X97536190Y-71248095D02*
X97536190Y-70962380D01*
X98036190Y-71105238D02*
X97536190Y-71105238D01*
X97536190Y-70843333D02*
X98036190Y-70510000D01*
X97536190Y-70510000D02*
X98036190Y-70843333D01*
X98083809Y-70438571D02*
X98083809Y-70057619D01*
X98036190Y-69700476D02*
X98036190Y-69938571D01*
X97536190Y-69938571D01*
X97774285Y-69533809D02*
X97774285Y-69367142D01*
X98036190Y-69295714D02*
X98036190Y-69533809D01*
X97536190Y-69533809D01*
X97536190Y-69295714D01*
X98036190Y-69081428D02*
X97536190Y-69081428D01*
X97536190Y-68962380D01*
X97560000Y-68890952D01*
X97607619Y-68843333D01*
X97655238Y-68819523D01*
X97750476Y-68795714D01*
X97821904Y-68795714D01*
X97917142Y-68819523D01*
X97964761Y-68843333D01*
X98012380Y-68890952D01*
X98036190Y-68962380D01*
X98036190Y-69081428D01*
X98036190Y-68319523D02*
X98036190Y-68605238D01*
X98036190Y-68462380D02*
X97536190Y-68462380D01*
X97607619Y-68510000D01*
X97655238Y-68557619D01*
X97679047Y-68605238D01*
X153588571Y-86109523D02*
X153612380Y-86133333D01*
X153636190Y-86204761D01*
X153636190Y-86252380D01*
X153612380Y-86323809D01*
X153564761Y-86371428D01*
X153517142Y-86395238D01*
X153421904Y-86419047D01*
X153350476Y-86419047D01*
X153255238Y-86395238D01*
X153207619Y-86371428D01*
X153160000Y-86323809D01*
X153136190Y-86252380D01*
X153136190Y-86204761D01*
X153160000Y-86133333D01*
X153183809Y-86109523D01*
X153183809Y-85919047D02*
X153160000Y-85895238D01*
X153136190Y-85847619D01*
X153136190Y-85728571D01*
X153160000Y-85680952D01*
X153183809Y-85657142D01*
X153231428Y-85633333D01*
X153279047Y-85633333D01*
X153350476Y-85657142D01*
X153636190Y-85942857D01*
X153636190Y-85633333D01*
X153136190Y-85323809D02*
X153136190Y-85276190D01*
X153160000Y-85228571D01*
X153183809Y-85204761D01*
X153231428Y-85180952D01*
X153326666Y-85157142D01*
X153445714Y-85157142D01*
X153540952Y-85180952D01*
X153588571Y-85204761D01*
X153612380Y-85228571D01*
X153636190Y-85276190D01*
X153636190Y-85323809D01*
X153612380Y-85371428D01*
X153588571Y-85395238D01*
X153540952Y-85419047D01*
X153445714Y-85442857D01*
X153326666Y-85442857D01*
X153231428Y-85419047D01*
X153183809Y-85395238D01*
X153160000Y-85371428D01*
X153136190Y-85323809D01*
X153636190Y-84680952D02*
X153636190Y-84966666D01*
X153636190Y-84823809D02*
X153136190Y-84823809D01*
X153207619Y-84871428D01*
X153255238Y-84919047D01*
X153279047Y-84966666D01*
X141676190Y-44793809D02*
X141628571Y-44770000D01*
X141580952Y-44722380D01*
X141509523Y-44650952D01*
X141461904Y-44627142D01*
X141414285Y-44627142D01*
X141438095Y-44746190D02*
X141390476Y-44722380D01*
X141342857Y-44674761D01*
X141319047Y-44579523D01*
X141319047Y-44412857D01*
X141342857Y-44317619D01*
X141390476Y-44270000D01*
X141438095Y-44246190D01*
X141533333Y-44246190D01*
X141580952Y-44270000D01*
X141628571Y-44317619D01*
X141652380Y-44412857D01*
X141652380Y-44579523D01*
X141628571Y-44674761D01*
X141580952Y-44722380D01*
X141533333Y-44746190D01*
X141438095Y-44746190D01*
X141842857Y-44293809D02*
X141866666Y-44270000D01*
X141914285Y-44246190D01*
X142033333Y-44246190D01*
X142080952Y-44270000D01*
X142104761Y-44293809D01*
X142128571Y-44341428D01*
X142128571Y-44389047D01*
X142104761Y-44460476D01*
X141819047Y-44746190D01*
X142128571Y-44746190D01*
X142438095Y-44246190D02*
X142485714Y-44246190D01*
X142533333Y-44270000D01*
X142557142Y-44293809D01*
X142580952Y-44341428D01*
X142604761Y-44436666D01*
X142604761Y-44555714D01*
X142580952Y-44650952D01*
X142557142Y-44698571D01*
X142533333Y-44722380D01*
X142485714Y-44746190D01*
X142438095Y-44746190D01*
X142390476Y-44722380D01*
X142366666Y-44698571D01*
X142342857Y-44650952D01*
X142319047Y-44555714D01*
X142319047Y-44436666D01*
X142342857Y-44341428D01*
X142366666Y-44293809D01*
X142390476Y-44270000D01*
X142438095Y-44246190D01*
X143080952Y-44746190D02*
X142795238Y-44746190D01*
X142938095Y-44746190D02*
X142938095Y-44246190D01*
X142890476Y-44317619D01*
X142842857Y-44365238D01*
X142795238Y-44389047D01*
X152750476Y-45568571D02*
X152726666Y-45592380D01*
X152655238Y-45616190D01*
X152607619Y-45616190D01*
X152536190Y-45592380D01*
X152488571Y-45544761D01*
X152464761Y-45497142D01*
X152440952Y-45401904D01*
X152440952Y-45330476D01*
X152464761Y-45235238D01*
X152488571Y-45187619D01*
X152536190Y-45140000D01*
X152607619Y-45116190D01*
X152655238Y-45116190D01*
X152726666Y-45140000D01*
X152750476Y-45163809D01*
X152940952Y-45163809D02*
X152964761Y-45140000D01*
X153012380Y-45116190D01*
X153131428Y-45116190D01*
X153179047Y-45140000D01*
X153202857Y-45163809D01*
X153226666Y-45211428D01*
X153226666Y-45259047D01*
X153202857Y-45330476D01*
X152917142Y-45616190D01*
X153226666Y-45616190D01*
X153536190Y-45116190D02*
X153583809Y-45116190D01*
X153631428Y-45140000D01*
X153655238Y-45163809D01*
X153679047Y-45211428D01*
X153702857Y-45306666D01*
X153702857Y-45425714D01*
X153679047Y-45520952D01*
X153655238Y-45568571D01*
X153631428Y-45592380D01*
X153583809Y-45616190D01*
X153536190Y-45616190D01*
X153488571Y-45592380D01*
X153464761Y-45568571D01*
X153440952Y-45520952D01*
X153417142Y-45425714D01*
X153417142Y-45306666D01*
X153440952Y-45211428D01*
X153464761Y-45163809D01*
X153488571Y-45140000D01*
X153536190Y-45116190D01*
X153869523Y-45116190D02*
X154202857Y-45116190D01*
X153988571Y-45616190D01*
X127076190Y-82573809D02*
X127028571Y-82550000D01*
X126980952Y-82502380D01*
X126909523Y-82430952D01*
X126861904Y-82407142D01*
X126814285Y-82407142D01*
X126838095Y-82526190D02*
X126790476Y-82502380D01*
X126742857Y-82454761D01*
X126719047Y-82359523D01*
X126719047Y-82192857D01*
X126742857Y-82097619D01*
X126790476Y-82050000D01*
X126838095Y-82026190D01*
X126933333Y-82026190D01*
X126980952Y-82050000D01*
X127028571Y-82097619D01*
X127052380Y-82192857D01*
X127052380Y-82359523D01*
X127028571Y-82454761D01*
X126980952Y-82502380D01*
X126933333Y-82526190D01*
X126838095Y-82526190D01*
X127504761Y-82026190D02*
X127266666Y-82026190D01*
X127242857Y-82264285D01*
X127266666Y-82240476D01*
X127314285Y-82216666D01*
X127433333Y-82216666D01*
X127480952Y-82240476D01*
X127504761Y-82264285D01*
X127528571Y-82311904D01*
X127528571Y-82430952D01*
X127504761Y-82478571D01*
X127480952Y-82502380D01*
X127433333Y-82526190D01*
X127314285Y-82526190D01*
X127266666Y-82502380D01*
X127242857Y-82478571D01*
X127838095Y-82026190D02*
X127885714Y-82026190D01*
X127933333Y-82050000D01*
X127957142Y-82073809D01*
X127980952Y-82121428D01*
X128004761Y-82216666D01*
X128004761Y-82335714D01*
X127980952Y-82430952D01*
X127957142Y-82478571D01*
X127933333Y-82502380D01*
X127885714Y-82526190D01*
X127838095Y-82526190D01*
X127790476Y-82502380D01*
X127766666Y-82478571D01*
X127742857Y-82430952D01*
X127719047Y-82335714D01*
X127719047Y-82216666D01*
X127742857Y-82121428D01*
X127766666Y-82073809D01*
X127790476Y-82050000D01*
X127838095Y-82026190D01*
X128480952Y-82526190D02*
X128195238Y-82526190D01*
X128338095Y-82526190D02*
X128338095Y-82026190D01*
X128290476Y-82097619D01*
X128242857Y-82145238D01*
X128195238Y-82169047D01*
X67306190Y-73407142D02*
X67710952Y-73407142D01*
X67758571Y-73383333D01*
X67782380Y-73359523D01*
X67806190Y-73311904D01*
X67806190Y-73216666D01*
X67782380Y-73169047D01*
X67758571Y-73145238D01*
X67710952Y-73121428D01*
X67306190Y-73121428D01*
X67306190Y-72645238D02*
X67306190Y-72883333D01*
X67544285Y-72907142D01*
X67520476Y-72883333D01*
X67496666Y-72835714D01*
X67496666Y-72716666D01*
X67520476Y-72669047D01*
X67544285Y-72645238D01*
X67591904Y-72621428D01*
X67710952Y-72621428D01*
X67758571Y-72645238D01*
X67782380Y-72669047D01*
X67806190Y-72716666D01*
X67806190Y-72835714D01*
X67782380Y-72883333D01*
X67758571Y-72907142D01*
X67306190Y-72311904D02*
X67306190Y-72264285D01*
X67330000Y-72216666D01*
X67353809Y-72192857D01*
X67401428Y-72169047D01*
X67496666Y-72145238D01*
X67615714Y-72145238D01*
X67710952Y-72169047D01*
X67758571Y-72192857D01*
X67782380Y-72216666D01*
X67806190Y-72264285D01*
X67806190Y-72311904D01*
X67782380Y-72359523D01*
X67758571Y-72383333D01*
X67710952Y-72407142D01*
X67615714Y-72430952D01*
X67496666Y-72430952D01*
X67401428Y-72407142D01*
X67353809Y-72383333D01*
X67330000Y-72359523D01*
X67306190Y-72311904D01*
X67353809Y-71954761D02*
X67330000Y-71930952D01*
X67306190Y-71883333D01*
X67306190Y-71764285D01*
X67330000Y-71716666D01*
X67353809Y-71692857D01*
X67401428Y-71669047D01*
X67449047Y-71669047D01*
X67520476Y-71692857D01*
X67806190Y-71978571D01*
X67806190Y-71669047D01*
X60642857Y-98726190D02*
X60642857Y-98226190D01*
X60642857Y-98464285D02*
X60928571Y-98464285D01*
X60928571Y-98726190D02*
X60928571Y-98226190D01*
X61404761Y-98226190D02*
X61166666Y-98226190D01*
X61142857Y-98464285D01*
X61166666Y-98440476D01*
X61214285Y-98416666D01*
X61333333Y-98416666D01*
X61380952Y-98440476D01*
X61404761Y-98464285D01*
X61428571Y-98511904D01*
X61428571Y-98630952D01*
X61404761Y-98678571D01*
X61380952Y-98702380D01*
X61333333Y-98726190D01*
X61214285Y-98726190D01*
X61166666Y-98702380D01*
X61142857Y-98678571D01*
X61738095Y-98226190D02*
X61785714Y-98226190D01*
X61833333Y-98250000D01*
X61857142Y-98273809D01*
X61880952Y-98321428D01*
X61904761Y-98416666D01*
X61904761Y-98535714D01*
X61880952Y-98630952D01*
X61857142Y-98678571D01*
X61833333Y-98702380D01*
X61785714Y-98726190D01*
X61738095Y-98726190D01*
X61690476Y-98702380D01*
X61666666Y-98678571D01*
X61642857Y-98630952D01*
X61619047Y-98535714D01*
X61619047Y-98416666D01*
X61642857Y-98321428D01*
X61666666Y-98273809D01*
X61690476Y-98250000D01*
X61738095Y-98226190D01*
X62095238Y-98273809D02*
X62119047Y-98250000D01*
X62166666Y-98226190D01*
X62285714Y-98226190D01*
X62333333Y-98250000D01*
X62357142Y-98273809D01*
X62380952Y-98321428D01*
X62380952Y-98369047D01*
X62357142Y-98440476D01*
X62071428Y-98726190D01*
X62380952Y-98726190D01*
X94774761Y-88676190D02*
X94774761Y-88176190D01*
X94893809Y-88176190D01*
X94965238Y-88200000D01*
X95012857Y-88247619D01*
X95036666Y-88295238D01*
X95060476Y-88390476D01*
X95060476Y-88461904D01*
X95036666Y-88557142D01*
X95012857Y-88604761D01*
X94965238Y-88652380D01*
X94893809Y-88676190D01*
X94774761Y-88676190D01*
X95512857Y-88176190D02*
X95274761Y-88176190D01*
X95250952Y-88414285D01*
X95274761Y-88390476D01*
X95322380Y-88366666D01*
X95441428Y-88366666D01*
X95489047Y-88390476D01*
X95512857Y-88414285D01*
X95536666Y-88461904D01*
X95536666Y-88580952D01*
X95512857Y-88628571D01*
X95489047Y-88652380D01*
X95441428Y-88676190D01*
X95322380Y-88676190D01*
X95274761Y-88652380D01*
X95250952Y-88628571D01*
X95846190Y-88176190D02*
X95893809Y-88176190D01*
X95941428Y-88200000D01*
X95965238Y-88223809D01*
X95989047Y-88271428D01*
X96012857Y-88366666D01*
X96012857Y-88485714D01*
X95989047Y-88580952D01*
X95965238Y-88628571D01*
X95941428Y-88652380D01*
X95893809Y-88676190D01*
X95846190Y-88676190D01*
X95798571Y-88652380D01*
X95774761Y-88628571D01*
X95750952Y-88580952D01*
X95727142Y-88485714D01*
X95727142Y-88366666D01*
X95750952Y-88271428D01*
X95774761Y-88223809D01*
X95798571Y-88200000D01*
X95846190Y-88176190D01*
X96179523Y-88176190D02*
X96489047Y-88176190D01*
X96322380Y-88366666D01*
X96393809Y-88366666D01*
X96441428Y-88390476D01*
X96465238Y-88414285D01*
X96489047Y-88461904D01*
X96489047Y-88580952D01*
X96465238Y-88628571D01*
X96441428Y-88652380D01*
X96393809Y-88676190D01*
X96250952Y-88676190D01*
X96203333Y-88652380D01*
X96179523Y-88628571D01*
X134440476Y-88576190D02*
X134273809Y-88338095D01*
X134154761Y-88576190D02*
X134154761Y-88076190D01*
X134345238Y-88076190D01*
X134392857Y-88100000D01*
X134416666Y-88123809D01*
X134440476Y-88171428D01*
X134440476Y-88242857D01*
X134416666Y-88290476D01*
X134392857Y-88314285D01*
X134345238Y-88338095D01*
X134154761Y-88338095D01*
X134892857Y-88076190D02*
X134654761Y-88076190D01*
X134630952Y-88314285D01*
X134654761Y-88290476D01*
X134702380Y-88266666D01*
X134821428Y-88266666D01*
X134869047Y-88290476D01*
X134892857Y-88314285D01*
X134916666Y-88361904D01*
X134916666Y-88480952D01*
X134892857Y-88528571D01*
X134869047Y-88552380D01*
X134821428Y-88576190D01*
X134702380Y-88576190D01*
X134654761Y-88552380D01*
X134630952Y-88528571D01*
X135226190Y-88076190D02*
X135273809Y-88076190D01*
X135321428Y-88100000D01*
X135345238Y-88123809D01*
X135369047Y-88171428D01*
X135392857Y-88266666D01*
X135392857Y-88385714D01*
X135369047Y-88480952D01*
X135345238Y-88528571D01*
X135321428Y-88552380D01*
X135273809Y-88576190D01*
X135226190Y-88576190D01*
X135178571Y-88552380D01*
X135154761Y-88528571D01*
X135130952Y-88480952D01*
X135107142Y-88385714D01*
X135107142Y-88266666D01*
X135130952Y-88171428D01*
X135154761Y-88123809D01*
X135178571Y-88100000D01*
X135226190Y-88076190D01*
X135821428Y-88242857D02*
X135821428Y-88576190D01*
X135702380Y-88052380D02*
X135583333Y-88409523D01*
X135892857Y-88409523D01*
X119730476Y-63438571D02*
X119706666Y-63462380D01*
X119635238Y-63486190D01*
X119587619Y-63486190D01*
X119516190Y-63462380D01*
X119468571Y-63414761D01*
X119444761Y-63367142D01*
X119420952Y-63271904D01*
X119420952Y-63200476D01*
X119444761Y-63105238D01*
X119468571Y-63057619D01*
X119516190Y-63010000D01*
X119587619Y-62986190D01*
X119635238Y-62986190D01*
X119706666Y-63010000D01*
X119730476Y-63033809D01*
X119920952Y-63033809D02*
X119944761Y-63010000D01*
X119992380Y-62986190D01*
X120111428Y-62986190D01*
X120159047Y-63010000D01*
X120182857Y-63033809D01*
X120206666Y-63081428D01*
X120206666Y-63129047D01*
X120182857Y-63200476D01*
X119897142Y-63486190D01*
X120206666Y-63486190D01*
X120682857Y-63486190D02*
X120397142Y-63486190D01*
X120540000Y-63486190D02*
X120540000Y-62986190D01*
X120492380Y-63057619D01*
X120444761Y-63105238D01*
X120397142Y-63129047D01*
X121135238Y-62986190D02*
X120897142Y-62986190D01*
X120873333Y-63224285D01*
X120897142Y-63200476D01*
X120944761Y-63176666D01*
X121063809Y-63176666D01*
X121111428Y-63200476D01*
X121135238Y-63224285D01*
X121159047Y-63271904D01*
X121159047Y-63390952D01*
X121135238Y-63438571D01*
X121111428Y-63462380D01*
X121063809Y-63486190D01*
X120944761Y-63486190D01*
X120897142Y-63462380D01*
X120873333Y-63438571D01*
X155818571Y-54079523D02*
X155842380Y-54103333D01*
X155866190Y-54174761D01*
X155866190Y-54222380D01*
X155842380Y-54293809D01*
X155794761Y-54341428D01*
X155747142Y-54365238D01*
X155651904Y-54389047D01*
X155580476Y-54389047D01*
X155485238Y-54365238D01*
X155437619Y-54341428D01*
X155390000Y-54293809D01*
X155366190Y-54222380D01*
X155366190Y-54174761D01*
X155390000Y-54103333D01*
X155413809Y-54079523D01*
X155413809Y-53889047D02*
X155390000Y-53865238D01*
X155366190Y-53817619D01*
X155366190Y-53698571D01*
X155390000Y-53650952D01*
X155413809Y-53627142D01*
X155461428Y-53603333D01*
X155509047Y-53603333D01*
X155580476Y-53627142D01*
X155866190Y-53912857D01*
X155866190Y-53603333D01*
X155866190Y-53127142D02*
X155866190Y-53412857D01*
X155866190Y-53270000D02*
X155366190Y-53270000D01*
X155437619Y-53317619D01*
X155485238Y-53365238D01*
X155509047Y-53412857D01*
X155413809Y-52936666D02*
X155390000Y-52912857D01*
X155366190Y-52865238D01*
X155366190Y-52746190D01*
X155390000Y-52698571D01*
X155413809Y-52674761D01*
X155461428Y-52650952D01*
X155509047Y-52650952D01*
X155580476Y-52674761D01*
X155866190Y-52960476D01*
X155866190Y-52650952D01*
X115123571Y-61497023D02*
X115147380Y-61520833D01*
X115171190Y-61592261D01*
X115171190Y-61639880D01*
X115147380Y-61711309D01*
X115099761Y-61758928D01*
X115052142Y-61782738D01*
X114956904Y-61806547D01*
X114885476Y-61806547D01*
X114790238Y-61782738D01*
X114742619Y-61758928D01*
X114695000Y-61711309D01*
X114671190Y-61639880D01*
X114671190Y-61592261D01*
X114695000Y-61520833D01*
X114718809Y-61497023D01*
X114837857Y-61068452D02*
X115171190Y-61068452D01*
X114647380Y-61187500D02*
X115004523Y-61306547D01*
X115004523Y-60997023D01*
X114671190Y-60711309D02*
X114671190Y-60663690D01*
X114695000Y-60616071D01*
X114718809Y-60592261D01*
X114766428Y-60568452D01*
X114861666Y-60544642D01*
X114980714Y-60544642D01*
X115075952Y-60568452D01*
X115123571Y-60592261D01*
X115147380Y-60616071D01*
X115171190Y-60663690D01*
X115171190Y-60711309D01*
X115147380Y-60758928D01*
X115123571Y-60782738D01*
X115075952Y-60806547D01*
X114980714Y-60830357D01*
X114861666Y-60830357D01*
X114766428Y-60806547D01*
X114718809Y-60782738D01*
X114695000Y-60758928D01*
X114671190Y-60711309D01*
X115171190Y-60068452D02*
X115171190Y-60354166D01*
X115171190Y-60211309D02*
X114671190Y-60211309D01*
X114742619Y-60258928D01*
X114790238Y-60306547D01*
X114814047Y-60354166D01*
X150716190Y-48689523D02*
X150478095Y-48856190D01*
X150716190Y-48975238D02*
X150216190Y-48975238D01*
X150216190Y-48784761D01*
X150240000Y-48737142D01*
X150263809Y-48713333D01*
X150311428Y-48689523D01*
X150382857Y-48689523D01*
X150430476Y-48713333D01*
X150454285Y-48737142D01*
X150478095Y-48784761D01*
X150478095Y-48975238D01*
X150263809Y-48499047D02*
X150240000Y-48475238D01*
X150216190Y-48427619D01*
X150216190Y-48308571D01*
X150240000Y-48260952D01*
X150263809Y-48237142D01*
X150311428Y-48213333D01*
X150359047Y-48213333D01*
X150430476Y-48237142D01*
X150716190Y-48522857D01*
X150716190Y-48213333D01*
X150216190Y-47903809D02*
X150216190Y-47856190D01*
X150240000Y-47808571D01*
X150263809Y-47784761D01*
X150311428Y-47760952D01*
X150406666Y-47737142D01*
X150525714Y-47737142D01*
X150620952Y-47760952D01*
X150668571Y-47784761D01*
X150692380Y-47808571D01*
X150716190Y-47856190D01*
X150716190Y-47903809D01*
X150692380Y-47951428D01*
X150668571Y-47975238D01*
X150620952Y-47999047D01*
X150525714Y-48022857D01*
X150406666Y-48022857D01*
X150311428Y-47999047D01*
X150263809Y-47975238D01*
X150240000Y-47951428D01*
X150216190Y-47903809D01*
X150216190Y-47308571D02*
X150216190Y-47403809D01*
X150240000Y-47451428D01*
X150263809Y-47475238D01*
X150335238Y-47522857D01*
X150430476Y-47546666D01*
X150620952Y-47546666D01*
X150668571Y-47522857D01*
X150692380Y-47499047D01*
X150716190Y-47451428D01*
X150716190Y-47356190D01*
X150692380Y-47308571D01*
X150668571Y-47284761D01*
X150620952Y-47260952D01*
X150501904Y-47260952D01*
X150454285Y-47284761D01*
X150430476Y-47308571D01*
X150406666Y-47356190D01*
X150406666Y-47451428D01*
X150430476Y-47499047D01*
X150454285Y-47522857D01*
X150501904Y-47546666D01*
X103305476Y-67171190D02*
X103138809Y-66933095D01*
X103019761Y-67171190D02*
X103019761Y-66671190D01*
X103210238Y-66671190D01*
X103257857Y-66695000D01*
X103281666Y-66718809D01*
X103305476Y-66766428D01*
X103305476Y-66837857D01*
X103281666Y-66885476D01*
X103257857Y-66909285D01*
X103210238Y-66933095D01*
X103019761Y-66933095D01*
X103734047Y-66837857D02*
X103734047Y-67171190D01*
X103615000Y-66647380D02*
X103495952Y-67004523D01*
X103805476Y-67004523D01*
X104091190Y-66671190D02*
X104138809Y-66671190D01*
X104186428Y-66695000D01*
X104210238Y-66718809D01*
X104234047Y-66766428D01*
X104257857Y-66861666D01*
X104257857Y-66980714D01*
X104234047Y-67075952D01*
X104210238Y-67123571D01*
X104186428Y-67147380D01*
X104138809Y-67171190D01*
X104091190Y-67171190D01*
X104043571Y-67147380D01*
X104019761Y-67123571D01*
X103995952Y-67075952D01*
X103972142Y-66980714D01*
X103972142Y-66861666D01*
X103995952Y-66766428D01*
X104019761Y-66718809D01*
X104043571Y-66695000D01*
X104091190Y-66671190D01*
X104734047Y-67171190D02*
X104448333Y-67171190D01*
X104591190Y-67171190D02*
X104591190Y-66671190D01*
X104543571Y-66742619D01*
X104495952Y-66790238D01*
X104448333Y-66814047D01*
X90976190Y-76573809D02*
X90928571Y-76550000D01*
X90880952Y-76502380D01*
X90809523Y-76430952D01*
X90761904Y-76407142D01*
X90714285Y-76407142D01*
X90738095Y-76526190D02*
X90690476Y-76502380D01*
X90642857Y-76454761D01*
X90619047Y-76359523D01*
X90619047Y-76192857D01*
X90642857Y-76097619D01*
X90690476Y-76050000D01*
X90738095Y-76026190D01*
X90833333Y-76026190D01*
X90880952Y-76050000D01*
X90928571Y-76097619D01*
X90952380Y-76192857D01*
X90952380Y-76359523D01*
X90928571Y-76454761D01*
X90880952Y-76502380D01*
X90833333Y-76526190D01*
X90738095Y-76526190D01*
X91404761Y-76026190D02*
X91166666Y-76026190D01*
X91142857Y-76264285D01*
X91166666Y-76240476D01*
X91214285Y-76216666D01*
X91333333Y-76216666D01*
X91380952Y-76240476D01*
X91404761Y-76264285D01*
X91428571Y-76311904D01*
X91428571Y-76430952D01*
X91404761Y-76478571D01*
X91380952Y-76502380D01*
X91333333Y-76526190D01*
X91214285Y-76526190D01*
X91166666Y-76502380D01*
X91142857Y-76478571D01*
X91738095Y-76026190D02*
X91785714Y-76026190D01*
X91833333Y-76050000D01*
X91857142Y-76073809D01*
X91880952Y-76121428D01*
X91904761Y-76216666D01*
X91904761Y-76335714D01*
X91880952Y-76430952D01*
X91857142Y-76478571D01*
X91833333Y-76502380D01*
X91785714Y-76526190D01*
X91738095Y-76526190D01*
X91690476Y-76502380D01*
X91666666Y-76478571D01*
X91642857Y-76430952D01*
X91619047Y-76335714D01*
X91619047Y-76216666D01*
X91642857Y-76121428D01*
X91666666Y-76073809D01*
X91690476Y-76050000D01*
X91738095Y-76026190D01*
X92095238Y-76073809D02*
X92119047Y-76050000D01*
X92166666Y-76026190D01*
X92285714Y-76026190D01*
X92333333Y-76050000D01*
X92357142Y-76073809D01*
X92380952Y-76121428D01*
X92380952Y-76169047D01*
X92357142Y-76240476D01*
X92071428Y-76526190D01*
X92380952Y-76526190D01*
X93741190Y-59672142D02*
X94145952Y-59672142D01*
X94193571Y-59648333D01*
X94217380Y-59624523D01*
X94241190Y-59576904D01*
X94241190Y-59481666D01*
X94217380Y-59434047D01*
X94193571Y-59410238D01*
X94145952Y-59386428D01*
X93741190Y-59386428D01*
X93741190Y-59195952D02*
X93741190Y-58886428D01*
X93931666Y-59053095D01*
X93931666Y-58981666D01*
X93955476Y-58934047D01*
X93979285Y-58910238D01*
X94026904Y-58886428D01*
X94145952Y-58886428D01*
X94193571Y-58910238D01*
X94217380Y-58934047D01*
X94241190Y-58981666D01*
X94241190Y-59124523D01*
X94217380Y-59172142D01*
X94193571Y-59195952D01*
X93741190Y-58576904D02*
X93741190Y-58529285D01*
X93765000Y-58481666D01*
X93788809Y-58457857D01*
X93836428Y-58434047D01*
X93931666Y-58410238D01*
X94050714Y-58410238D01*
X94145952Y-58434047D01*
X94193571Y-58457857D01*
X94217380Y-58481666D01*
X94241190Y-58529285D01*
X94241190Y-58576904D01*
X94217380Y-58624523D01*
X94193571Y-58648333D01*
X94145952Y-58672142D01*
X94050714Y-58695952D01*
X93931666Y-58695952D01*
X93836428Y-58672142D01*
X93788809Y-58648333D01*
X93765000Y-58624523D01*
X93741190Y-58576904D01*
X94241190Y-57934047D02*
X94241190Y-58219761D01*
X94241190Y-58076904D02*
X93741190Y-58076904D01*
X93812619Y-58124523D01*
X93860238Y-58172142D01*
X93884047Y-58219761D01*
X86741142Y-87084380D02*
X86812571Y-87108190D01*
X86931619Y-87108190D01*
X86979238Y-87084380D01*
X87003047Y-87060571D01*
X87026857Y-87012952D01*
X87026857Y-86965333D01*
X87003047Y-86917714D01*
X86979238Y-86893904D01*
X86931619Y-86870095D01*
X86836380Y-86846285D01*
X86788761Y-86822476D01*
X86764952Y-86798666D01*
X86741142Y-86751047D01*
X86741142Y-86703428D01*
X86764952Y-86655809D01*
X86788761Y-86632000D01*
X86836380Y-86608190D01*
X86955428Y-86608190D01*
X87026857Y-86632000D01*
X87193523Y-86608190D02*
X87312571Y-87108190D01*
X87407809Y-86751047D01*
X87503047Y-87108190D01*
X87622095Y-86608190D01*
X88050666Y-86608190D02*
X87812571Y-86608190D01*
X87788761Y-86846285D01*
X87812571Y-86822476D01*
X87860190Y-86798666D01*
X87979238Y-86798666D01*
X88026857Y-86822476D01*
X88050666Y-86846285D01*
X88074476Y-86893904D01*
X88074476Y-87012952D01*
X88050666Y-87060571D01*
X88026857Y-87084380D01*
X87979238Y-87108190D01*
X87860190Y-87108190D01*
X87812571Y-87084380D01*
X87788761Y-87060571D01*
X88384000Y-86608190D02*
X88431619Y-86608190D01*
X88479238Y-86632000D01*
X88503047Y-86655809D01*
X88526857Y-86703428D01*
X88550666Y-86798666D01*
X88550666Y-86917714D01*
X88526857Y-87012952D01*
X88503047Y-87060571D01*
X88479238Y-87084380D01*
X88431619Y-87108190D01*
X88384000Y-87108190D01*
X88336380Y-87084380D01*
X88312571Y-87060571D01*
X88288761Y-87012952D01*
X88264952Y-86917714D01*
X88264952Y-86798666D01*
X88288761Y-86703428D01*
X88312571Y-86655809D01*
X88336380Y-86632000D01*
X88384000Y-86608190D01*
X88741142Y-86655809D02*
X88764952Y-86632000D01*
X88812571Y-86608190D01*
X88931619Y-86608190D01*
X88979238Y-86632000D01*
X89003047Y-86655809D01*
X89026857Y-86703428D01*
X89026857Y-86751047D01*
X89003047Y-86822476D01*
X88717333Y-87108190D01*
X89026857Y-87108190D01*
X150626190Y-46729523D02*
X150388095Y-46896190D01*
X150626190Y-47015238D02*
X150126190Y-47015238D01*
X150126190Y-46824761D01*
X150150000Y-46777142D01*
X150173809Y-46753333D01*
X150221428Y-46729523D01*
X150292857Y-46729523D01*
X150340476Y-46753333D01*
X150364285Y-46777142D01*
X150388095Y-46824761D01*
X150388095Y-47015238D01*
X150173809Y-46539047D02*
X150150000Y-46515238D01*
X150126190Y-46467619D01*
X150126190Y-46348571D01*
X150150000Y-46300952D01*
X150173809Y-46277142D01*
X150221428Y-46253333D01*
X150269047Y-46253333D01*
X150340476Y-46277142D01*
X150626190Y-46562857D01*
X150626190Y-46253333D01*
X150126190Y-45943809D02*
X150126190Y-45896190D01*
X150150000Y-45848571D01*
X150173809Y-45824761D01*
X150221428Y-45800952D01*
X150316666Y-45777142D01*
X150435714Y-45777142D01*
X150530952Y-45800952D01*
X150578571Y-45824761D01*
X150602380Y-45848571D01*
X150626190Y-45896190D01*
X150626190Y-45943809D01*
X150602380Y-45991428D01*
X150578571Y-46015238D01*
X150530952Y-46039047D01*
X150435714Y-46062857D01*
X150316666Y-46062857D01*
X150221428Y-46039047D01*
X150173809Y-46015238D01*
X150150000Y-45991428D01*
X150126190Y-45943809D01*
X150126190Y-45324761D02*
X150126190Y-45562857D01*
X150364285Y-45586666D01*
X150340476Y-45562857D01*
X150316666Y-45515238D01*
X150316666Y-45396190D01*
X150340476Y-45348571D01*
X150364285Y-45324761D01*
X150411904Y-45300952D01*
X150530952Y-45300952D01*
X150578571Y-45324761D01*
X150602380Y-45348571D01*
X150626190Y-45396190D01*
X150626190Y-45515238D01*
X150602380Y-45562857D01*
X150578571Y-45586666D01*
X157520476Y-81878571D02*
X157496666Y-81902380D01*
X157425238Y-81926190D01*
X157377619Y-81926190D01*
X157306190Y-81902380D01*
X157258571Y-81854761D01*
X157234761Y-81807142D01*
X157210952Y-81711904D01*
X157210952Y-81640476D01*
X157234761Y-81545238D01*
X157258571Y-81497619D01*
X157306190Y-81450000D01*
X157377619Y-81426190D01*
X157425238Y-81426190D01*
X157496666Y-81450000D01*
X157520476Y-81473809D01*
X157710952Y-81473809D02*
X157734761Y-81450000D01*
X157782380Y-81426190D01*
X157901428Y-81426190D01*
X157949047Y-81450000D01*
X157972857Y-81473809D01*
X157996666Y-81521428D01*
X157996666Y-81569047D01*
X157972857Y-81640476D01*
X157687142Y-81926190D01*
X157996666Y-81926190D01*
X158306190Y-81426190D02*
X158353809Y-81426190D01*
X158401428Y-81450000D01*
X158425238Y-81473809D01*
X158449047Y-81521428D01*
X158472857Y-81616666D01*
X158472857Y-81735714D01*
X158449047Y-81830952D01*
X158425238Y-81878571D01*
X158401428Y-81902380D01*
X158353809Y-81926190D01*
X158306190Y-81926190D01*
X158258571Y-81902380D01*
X158234761Y-81878571D01*
X158210952Y-81830952D01*
X158187142Y-81735714D01*
X158187142Y-81616666D01*
X158210952Y-81521428D01*
X158234761Y-81473809D01*
X158258571Y-81450000D01*
X158306190Y-81426190D01*
X158901428Y-81592857D02*
X158901428Y-81926190D01*
X158782380Y-81402380D02*
X158663333Y-81759523D01*
X158972857Y-81759523D01*
X104866190Y-57315238D02*
X104366190Y-57315238D01*
X104366190Y-57196190D01*
X104390000Y-57124761D01*
X104437619Y-57077142D01*
X104485238Y-57053333D01*
X104580476Y-57029523D01*
X104651904Y-57029523D01*
X104747142Y-57053333D01*
X104794761Y-57077142D01*
X104842380Y-57124761D01*
X104866190Y-57196190D01*
X104866190Y-57315238D01*
X104532857Y-56600952D02*
X104866190Y-56600952D01*
X104342380Y-56720000D02*
X104699523Y-56839047D01*
X104699523Y-56529523D01*
X104366190Y-56243809D02*
X104366190Y-56196190D01*
X104390000Y-56148571D01*
X104413809Y-56124761D01*
X104461428Y-56100952D01*
X104556666Y-56077142D01*
X104675714Y-56077142D01*
X104770952Y-56100952D01*
X104818571Y-56124761D01*
X104842380Y-56148571D01*
X104866190Y-56196190D01*
X104866190Y-56243809D01*
X104842380Y-56291428D01*
X104818571Y-56315238D01*
X104770952Y-56339047D01*
X104675714Y-56362857D01*
X104556666Y-56362857D01*
X104461428Y-56339047D01*
X104413809Y-56315238D01*
X104390000Y-56291428D01*
X104366190Y-56243809D01*
X104866190Y-55600952D02*
X104866190Y-55886666D01*
X104866190Y-55743809D02*
X104366190Y-55743809D01*
X104437619Y-55791428D01*
X104485238Y-55839047D01*
X104509047Y-55886666D01*
X96043571Y-59474523D02*
X96067380Y-59498333D01*
X96091190Y-59569761D01*
X96091190Y-59617380D01*
X96067380Y-59688809D01*
X96019761Y-59736428D01*
X95972142Y-59760238D01*
X95876904Y-59784047D01*
X95805476Y-59784047D01*
X95710238Y-59760238D01*
X95662619Y-59736428D01*
X95615000Y-59688809D01*
X95591190Y-59617380D01*
X95591190Y-59569761D01*
X95615000Y-59498333D01*
X95638809Y-59474523D01*
X95591190Y-59307857D02*
X95591190Y-58998333D01*
X95781666Y-59165000D01*
X95781666Y-59093571D01*
X95805476Y-59045952D01*
X95829285Y-59022142D01*
X95876904Y-58998333D01*
X95995952Y-58998333D01*
X96043571Y-59022142D01*
X96067380Y-59045952D01*
X96091190Y-59093571D01*
X96091190Y-59236428D01*
X96067380Y-59284047D01*
X96043571Y-59307857D01*
X95591190Y-58688809D02*
X95591190Y-58641190D01*
X95615000Y-58593571D01*
X95638809Y-58569761D01*
X95686428Y-58545952D01*
X95781666Y-58522142D01*
X95900714Y-58522142D01*
X95995952Y-58545952D01*
X96043571Y-58569761D01*
X96067380Y-58593571D01*
X96091190Y-58641190D01*
X96091190Y-58688809D01*
X96067380Y-58736428D01*
X96043571Y-58760238D01*
X95995952Y-58784047D01*
X95900714Y-58807857D01*
X95781666Y-58807857D01*
X95686428Y-58784047D01*
X95638809Y-58760238D01*
X95615000Y-58736428D01*
X95591190Y-58688809D01*
X96091190Y-58045952D02*
X96091190Y-58331666D01*
X96091190Y-58188809D02*
X95591190Y-58188809D01*
X95662619Y-58236428D01*
X95710238Y-58284047D01*
X95734047Y-58331666D01*
X100780476Y-64298571D02*
X100756666Y-64322380D01*
X100685238Y-64346190D01*
X100637619Y-64346190D01*
X100566190Y-64322380D01*
X100518571Y-64274761D01*
X100494761Y-64227142D01*
X100470952Y-64131904D01*
X100470952Y-64060476D01*
X100494761Y-63965238D01*
X100518571Y-63917619D01*
X100566190Y-63870000D01*
X100637619Y-63846190D01*
X100685238Y-63846190D01*
X100756666Y-63870000D01*
X100780476Y-63893809D01*
X101209047Y-64012857D02*
X101209047Y-64346190D01*
X101090000Y-63822380D02*
X100970952Y-64179523D01*
X101280476Y-64179523D01*
X101566190Y-63846190D02*
X101613809Y-63846190D01*
X101661428Y-63870000D01*
X101685238Y-63893809D01*
X101709047Y-63941428D01*
X101732857Y-64036666D01*
X101732857Y-64155714D01*
X101709047Y-64250952D01*
X101685238Y-64298571D01*
X101661428Y-64322380D01*
X101613809Y-64346190D01*
X101566190Y-64346190D01*
X101518571Y-64322380D01*
X101494761Y-64298571D01*
X101470952Y-64250952D01*
X101447142Y-64155714D01*
X101447142Y-64036666D01*
X101470952Y-63941428D01*
X101494761Y-63893809D01*
X101518571Y-63870000D01*
X101566190Y-63846190D01*
X101923333Y-63893809D02*
X101947142Y-63870000D01*
X101994761Y-63846190D01*
X102113809Y-63846190D01*
X102161428Y-63870000D01*
X102185238Y-63893809D01*
X102209047Y-63941428D01*
X102209047Y-63989047D01*
X102185238Y-64060476D01*
X101899523Y-64346190D01*
X102209047Y-64346190D01*
X95872142Y-51229285D02*
X95705476Y-51229285D01*
X95705476Y-51491190D02*
X95705476Y-50991190D01*
X95943571Y-50991190D01*
X96300714Y-51229285D02*
X96372142Y-51253095D01*
X96395952Y-51276904D01*
X96419761Y-51324523D01*
X96419761Y-51395952D01*
X96395952Y-51443571D01*
X96372142Y-51467380D01*
X96324523Y-51491190D01*
X96134047Y-51491190D01*
X96134047Y-50991190D01*
X96300714Y-50991190D01*
X96348333Y-51015000D01*
X96372142Y-51038809D01*
X96395952Y-51086428D01*
X96395952Y-51134047D01*
X96372142Y-51181666D01*
X96348333Y-51205476D01*
X96300714Y-51229285D01*
X96134047Y-51229285D01*
X96586428Y-50991190D02*
X96895952Y-50991190D01*
X96729285Y-51181666D01*
X96800714Y-51181666D01*
X96848333Y-51205476D01*
X96872142Y-51229285D01*
X96895952Y-51276904D01*
X96895952Y-51395952D01*
X96872142Y-51443571D01*
X96848333Y-51467380D01*
X96800714Y-51491190D01*
X96657857Y-51491190D01*
X96610238Y-51467380D01*
X96586428Y-51443571D01*
X97205476Y-50991190D02*
X97253095Y-50991190D01*
X97300714Y-51015000D01*
X97324523Y-51038809D01*
X97348333Y-51086428D01*
X97372142Y-51181666D01*
X97372142Y-51300714D01*
X97348333Y-51395952D01*
X97324523Y-51443571D01*
X97300714Y-51467380D01*
X97253095Y-51491190D01*
X97205476Y-51491190D01*
X97157857Y-51467380D01*
X97134047Y-51443571D01*
X97110238Y-51395952D01*
X97086428Y-51300714D01*
X97086428Y-51181666D01*
X97110238Y-51086428D01*
X97134047Y-51038809D01*
X97157857Y-51015000D01*
X97205476Y-50991190D01*
X97848333Y-51491190D02*
X97562619Y-51491190D01*
X97705476Y-51491190D02*
X97705476Y-50991190D01*
X97657857Y-51062619D01*
X97610238Y-51110238D01*
X97562619Y-51134047D01*
X119590476Y-71216190D02*
X119352380Y-71216190D01*
X119352380Y-70716190D01*
X119733333Y-70763809D02*
X119757142Y-70740000D01*
X119804761Y-70716190D01*
X119923809Y-70716190D01*
X119971428Y-70740000D01*
X119995238Y-70763809D01*
X120019047Y-70811428D01*
X120019047Y-70859047D01*
X119995238Y-70930476D01*
X119709523Y-71216190D01*
X120019047Y-71216190D01*
X120328571Y-70716190D02*
X120376190Y-70716190D01*
X120423809Y-70740000D01*
X120447619Y-70763809D01*
X120471428Y-70811428D01*
X120495238Y-70906666D01*
X120495238Y-71025714D01*
X120471428Y-71120952D01*
X120447619Y-71168571D01*
X120423809Y-71192380D01*
X120376190Y-71216190D01*
X120328571Y-71216190D01*
X120280952Y-71192380D01*
X120257142Y-71168571D01*
X120233333Y-71120952D01*
X120209523Y-71025714D01*
X120209523Y-70906666D01*
X120233333Y-70811428D01*
X120257142Y-70763809D01*
X120280952Y-70740000D01*
X120328571Y-70716190D01*
X120971428Y-71216190D02*
X120685714Y-71216190D01*
X120828571Y-71216190D02*
X120828571Y-70716190D01*
X120780952Y-70787619D01*
X120733333Y-70835238D01*
X120685714Y-70859047D01*
D10*
X87232380Y-45435714D02*
X87946666Y-45435714D01*
X88089523Y-45483333D01*
X88184761Y-45578571D01*
X88232380Y-45721428D01*
X88232380Y-45816666D01*
X87232380Y-44483333D02*
X87232380Y-44959523D01*
X87708571Y-45007142D01*
X87660952Y-44959523D01*
X87613333Y-44864285D01*
X87613333Y-44626190D01*
X87660952Y-44530952D01*
X87708571Y-44483333D01*
X87803809Y-44435714D01*
X88041904Y-44435714D01*
X88137142Y-44483333D01*
X88184761Y-44530952D01*
X88232380Y-44626190D01*
X88232380Y-44864285D01*
X88184761Y-44959523D01*
X88137142Y-45007142D01*
X87232380Y-43816666D02*
X87232380Y-43721428D01*
X87280000Y-43626190D01*
X87327619Y-43578571D01*
X87422857Y-43530952D01*
X87613333Y-43483333D01*
X87851428Y-43483333D01*
X88041904Y-43530952D01*
X88137142Y-43578571D01*
X88184761Y-43626190D01*
X88232380Y-43721428D01*
X88232380Y-43816666D01*
X88184761Y-43911904D01*
X88137142Y-43959523D01*
X88041904Y-44007142D01*
X87851428Y-44054761D01*
X87613333Y-44054761D01*
X87422857Y-44007142D01*
X87327619Y-43959523D01*
X87280000Y-43911904D01*
X87232380Y-43816666D01*
X87327619Y-43102380D02*
X87280000Y-43054761D01*
X87232380Y-42959523D01*
X87232380Y-42721428D01*
X87280000Y-42626190D01*
X87327619Y-42578571D01*
X87422857Y-42530952D01*
X87518095Y-42530952D01*
X87660952Y-42578571D01*
X88232380Y-43150000D01*
X88232380Y-42530952D01*
D11*
X101612261Y-59526190D02*
X101612261Y-59026190D01*
X101731309Y-59026190D01*
X101802738Y-59050000D01*
X101850357Y-59097619D01*
X101874166Y-59145238D01*
X101897976Y-59240476D01*
X101897976Y-59311904D01*
X101874166Y-59407142D01*
X101850357Y-59454761D01*
X101802738Y-59502380D01*
X101731309Y-59526190D01*
X101612261Y-59526190D01*
X102326547Y-59192857D02*
X102326547Y-59526190D01*
X102207500Y-59002380D02*
X102088452Y-59359523D01*
X102397976Y-59359523D01*
X102683690Y-59026190D02*
X102731309Y-59026190D01*
X102778928Y-59050000D01*
X102802738Y-59073809D01*
X102826547Y-59121428D01*
X102850357Y-59216666D01*
X102850357Y-59335714D01*
X102826547Y-59430952D01*
X102802738Y-59478571D01*
X102778928Y-59502380D01*
X102731309Y-59526190D01*
X102683690Y-59526190D01*
X102636071Y-59502380D01*
X102612261Y-59478571D01*
X102588452Y-59430952D01*
X102564642Y-59335714D01*
X102564642Y-59216666D01*
X102588452Y-59121428D01*
X102612261Y-59073809D01*
X102636071Y-59050000D01*
X102683690Y-59026190D01*
X103040833Y-59073809D02*
X103064642Y-59050000D01*
X103112261Y-59026190D01*
X103231309Y-59026190D01*
X103278928Y-59050000D01*
X103302738Y-59073809D01*
X103326547Y-59121428D01*
X103326547Y-59169047D01*
X103302738Y-59240476D01*
X103017023Y-59526190D01*
X103326547Y-59526190D01*
X87130476Y-71976190D02*
X86963809Y-71738095D01*
X86844761Y-71976190D02*
X86844761Y-71476190D01*
X87035238Y-71476190D01*
X87082857Y-71500000D01*
X87106666Y-71523809D01*
X87130476Y-71571428D01*
X87130476Y-71642857D01*
X87106666Y-71690476D01*
X87082857Y-71714285D01*
X87035238Y-71738095D01*
X86844761Y-71738095D01*
X87297142Y-71476190D02*
X87606666Y-71476190D01*
X87440000Y-71666666D01*
X87511428Y-71666666D01*
X87559047Y-71690476D01*
X87582857Y-71714285D01*
X87606666Y-71761904D01*
X87606666Y-71880952D01*
X87582857Y-71928571D01*
X87559047Y-71952380D01*
X87511428Y-71976190D01*
X87368571Y-71976190D01*
X87320952Y-71952380D01*
X87297142Y-71928571D01*
X87916190Y-71476190D02*
X87963809Y-71476190D01*
X88011428Y-71500000D01*
X88035238Y-71523809D01*
X88059047Y-71571428D01*
X88082857Y-71666666D01*
X88082857Y-71785714D01*
X88059047Y-71880952D01*
X88035238Y-71928571D01*
X88011428Y-71952380D01*
X87963809Y-71976190D01*
X87916190Y-71976190D01*
X87868571Y-71952380D01*
X87844761Y-71928571D01*
X87820952Y-71880952D01*
X87797142Y-71785714D01*
X87797142Y-71666666D01*
X87820952Y-71571428D01*
X87844761Y-71523809D01*
X87868571Y-71500000D01*
X87916190Y-71476190D01*
X88559047Y-71976190D02*
X88273333Y-71976190D01*
X88416190Y-71976190D02*
X88416190Y-71476190D01*
X88368571Y-71547619D01*
X88320952Y-71595238D01*
X88273333Y-71619047D01*
X134796190Y-87153809D02*
X134748571Y-87130000D01*
X134700952Y-87082380D01*
X134629523Y-87010952D01*
X134581904Y-86987142D01*
X134534285Y-86987142D01*
X134558095Y-87106190D02*
X134510476Y-87082380D01*
X134462857Y-87034761D01*
X134439047Y-86939523D01*
X134439047Y-86772857D01*
X134462857Y-86677619D01*
X134510476Y-86630000D01*
X134558095Y-86606190D01*
X134653333Y-86606190D01*
X134700952Y-86630000D01*
X134748571Y-86677619D01*
X134772380Y-86772857D01*
X134772380Y-86939523D01*
X134748571Y-87034761D01*
X134700952Y-87082380D01*
X134653333Y-87106190D01*
X134558095Y-87106190D01*
X134962857Y-86653809D02*
X134986666Y-86630000D01*
X135034285Y-86606190D01*
X135153333Y-86606190D01*
X135200952Y-86630000D01*
X135224761Y-86653809D01*
X135248571Y-86701428D01*
X135248571Y-86749047D01*
X135224761Y-86820476D01*
X134939047Y-87106190D01*
X135248571Y-87106190D01*
X135558095Y-86606190D02*
X135605714Y-86606190D01*
X135653333Y-86630000D01*
X135677142Y-86653809D01*
X135700952Y-86701428D01*
X135724761Y-86796666D01*
X135724761Y-86915714D01*
X135700952Y-87010952D01*
X135677142Y-87058571D01*
X135653333Y-87082380D01*
X135605714Y-87106190D01*
X135558095Y-87106190D01*
X135510476Y-87082380D01*
X135486666Y-87058571D01*
X135462857Y-87010952D01*
X135439047Y-86915714D01*
X135439047Y-86796666D01*
X135462857Y-86701428D01*
X135486666Y-86653809D01*
X135510476Y-86630000D01*
X135558095Y-86606190D01*
X135915238Y-86653809D02*
X135939047Y-86630000D01*
X135986666Y-86606190D01*
X136105714Y-86606190D01*
X136153333Y-86630000D01*
X136177142Y-86653809D01*
X136200952Y-86701428D01*
X136200952Y-86749047D01*
X136177142Y-86820476D01*
X135891428Y-87106190D01*
X136200952Y-87106190D01*
X88154761Y-83226190D02*
X88154761Y-82726190D01*
X88273809Y-82726190D01*
X88345238Y-82750000D01*
X88392857Y-82797619D01*
X88416666Y-82845238D01*
X88440476Y-82940476D01*
X88440476Y-83011904D01*
X88416666Y-83107142D01*
X88392857Y-83154761D01*
X88345238Y-83202380D01*
X88273809Y-83226190D01*
X88154761Y-83226190D01*
X88892857Y-82726190D02*
X88654761Y-82726190D01*
X88630952Y-82964285D01*
X88654761Y-82940476D01*
X88702380Y-82916666D01*
X88821428Y-82916666D01*
X88869047Y-82940476D01*
X88892857Y-82964285D01*
X88916666Y-83011904D01*
X88916666Y-83130952D01*
X88892857Y-83178571D01*
X88869047Y-83202380D01*
X88821428Y-83226190D01*
X88702380Y-83226190D01*
X88654761Y-83202380D01*
X88630952Y-83178571D01*
X89226190Y-82726190D02*
X89273809Y-82726190D01*
X89321428Y-82750000D01*
X89345238Y-82773809D01*
X89369047Y-82821428D01*
X89392857Y-82916666D01*
X89392857Y-83035714D01*
X89369047Y-83130952D01*
X89345238Y-83178571D01*
X89321428Y-83202380D01*
X89273809Y-83226190D01*
X89226190Y-83226190D01*
X89178571Y-83202380D01*
X89154761Y-83178571D01*
X89130952Y-83130952D01*
X89107142Y-83035714D01*
X89107142Y-82916666D01*
X89130952Y-82821428D01*
X89154761Y-82773809D01*
X89178571Y-82750000D01*
X89226190Y-82726190D01*
X89869047Y-83226190D02*
X89583333Y-83226190D01*
X89726190Y-83226190D02*
X89726190Y-82726190D01*
X89678571Y-82797619D01*
X89630952Y-82845238D01*
X89583333Y-82869047D01*
X143987142Y-43376190D02*
X143987142Y-43733333D01*
X143963333Y-43804761D01*
X143915714Y-43852380D01*
X143844285Y-43876190D01*
X143796666Y-43876190D01*
X144201428Y-43423809D02*
X144225238Y-43400000D01*
X144272857Y-43376190D01*
X144391904Y-43376190D01*
X144439523Y-43400000D01*
X144463333Y-43423809D01*
X144487142Y-43471428D01*
X144487142Y-43519047D01*
X144463333Y-43590476D01*
X144177619Y-43876190D01*
X144487142Y-43876190D01*
X144796666Y-43376190D02*
X144844285Y-43376190D01*
X144891904Y-43400000D01*
X144915714Y-43423809D01*
X144939523Y-43471428D01*
X144963333Y-43566666D01*
X144963333Y-43685714D01*
X144939523Y-43780952D01*
X144915714Y-43828571D01*
X144891904Y-43852380D01*
X144844285Y-43876190D01*
X144796666Y-43876190D01*
X144749047Y-43852380D01*
X144725238Y-43828571D01*
X144701428Y-43780952D01*
X144677619Y-43685714D01*
X144677619Y-43566666D01*
X144701428Y-43471428D01*
X144725238Y-43423809D01*
X144749047Y-43400000D01*
X144796666Y-43376190D01*
X145153809Y-43423809D02*
X145177619Y-43400000D01*
X145225238Y-43376190D01*
X145344285Y-43376190D01*
X145391904Y-43400000D01*
X145415714Y-43423809D01*
X145439523Y-43471428D01*
X145439523Y-43519047D01*
X145415714Y-43590476D01*
X145130000Y-43876190D01*
X145439523Y-43876190D01*
X111588571Y-55199523D02*
X111612380Y-55223333D01*
X111636190Y-55294761D01*
X111636190Y-55342380D01*
X111612380Y-55413809D01*
X111564761Y-55461428D01*
X111517142Y-55485238D01*
X111421904Y-55509047D01*
X111350476Y-55509047D01*
X111255238Y-55485238D01*
X111207619Y-55461428D01*
X111160000Y-55413809D01*
X111136190Y-55342380D01*
X111136190Y-55294761D01*
X111160000Y-55223333D01*
X111183809Y-55199523D01*
X111302857Y-54770952D02*
X111636190Y-54770952D01*
X111112380Y-54890000D02*
X111469523Y-55009047D01*
X111469523Y-54699523D01*
X111136190Y-54413809D02*
X111136190Y-54366190D01*
X111160000Y-54318571D01*
X111183809Y-54294761D01*
X111231428Y-54270952D01*
X111326666Y-54247142D01*
X111445714Y-54247142D01*
X111540952Y-54270952D01*
X111588571Y-54294761D01*
X111612380Y-54318571D01*
X111636190Y-54366190D01*
X111636190Y-54413809D01*
X111612380Y-54461428D01*
X111588571Y-54485238D01*
X111540952Y-54509047D01*
X111445714Y-54532857D01*
X111326666Y-54532857D01*
X111231428Y-54509047D01*
X111183809Y-54485238D01*
X111160000Y-54461428D01*
X111136190Y-54413809D01*
X111302857Y-53818571D02*
X111636190Y-53818571D01*
X111112380Y-53937619D02*
X111469523Y-54056666D01*
X111469523Y-53747142D01*
X119487142Y-64106190D02*
X119487142Y-64463333D01*
X119463333Y-64534761D01*
X119415714Y-64582380D01*
X119344285Y-64606190D01*
X119296666Y-64606190D01*
X119701428Y-64153809D02*
X119725238Y-64130000D01*
X119772857Y-64106190D01*
X119891904Y-64106190D01*
X119939523Y-64130000D01*
X119963333Y-64153809D01*
X119987142Y-64201428D01*
X119987142Y-64249047D01*
X119963333Y-64320476D01*
X119677619Y-64606190D01*
X119987142Y-64606190D01*
X120296666Y-64106190D02*
X120344285Y-64106190D01*
X120391904Y-64130000D01*
X120415714Y-64153809D01*
X120439523Y-64201428D01*
X120463333Y-64296666D01*
X120463333Y-64415714D01*
X120439523Y-64510952D01*
X120415714Y-64558571D01*
X120391904Y-64582380D01*
X120344285Y-64606190D01*
X120296666Y-64606190D01*
X120249047Y-64582380D01*
X120225238Y-64558571D01*
X120201428Y-64510952D01*
X120177619Y-64415714D01*
X120177619Y-64296666D01*
X120201428Y-64201428D01*
X120225238Y-64153809D01*
X120249047Y-64130000D01*
X120296666Y-64106190D01*
X120630000Y-64106190D02*
X120939523Y-64106190D01*
X120772857Y-64296666D01*
X120844285Y-64296666D01*
X120891904Y-64320476D01*
X120915714Y-64344285D01*
X120939523Y-64391904D01*
X120939523Y-64510952D01*
X120915714Y-64558571D01*
X120891904Y-64582380D01*
X120844285Y-64606190D01*
X120701428Y-64606190D01*
X120653809Y-64582380D01*
X120630000Y-64558571D01*
X115997142Y-48284880D02*
X116068571Y-48308690D01*
X116187619Y-48308690D01*
X116235238Y-48284880D01*
X116259047Y-48261071D01*
X116282857Y-48213452D01*
X116282857Y-48165833D01*
X116259047Y-48118214D01*
X116235238Y-48094404D01*
X116187619Y-48070595D01*
X116092380Y-48046785D01*
X116044761Y-48022976D01*
X116020952Y-47999166D01*
X115997142Y-47951547D01*
X115997142Y-47903928D01*
X116020952Y-47856309D01*
X116044761Y-47832500D01*
X116092380Y-47808690D01*
X116211428Y-47808690D01*
X116282857Y-47832500D01*
X116449523Y-47808690D02*
X116568571Y-48308690D01*
X116663809Y-47951547D01*
X116759047Y-48308690D01*
X116878095Y-47808690D01*
X117282857Y-47975357D02*
X117282857Y-48308690D01*
X117163809Y-47784880D02*
X117044761Y-48142023D01*
X117354285Y-48142023D01*
X117640000Y-47808690D02*
X117687619Y-47808690D01*
X117735238Y-47832500D01*
X117759047Y-47856309D01*
X117782857Y-47903928D01*
X117806666Y-47999166D01*
X117806666Y-48118214D01*
X117782857Y-48213452D01*
X117759047Y-48261071D01*
X117735238Y-48284880D01*
X117687619Y-48308690D01*
X117640000Y-48308690D01*
X117592380Y-48284880D01*
X117568571Y-48261071D01*
X117544761Y-48213452D01*
X117520952Y-48118214D01*
X117520952Y-47999166D01*
X117544761Y-47903928D01*
X117568571Y-47856309D01*
X117592380Y-47832500D01*
X117640000Y-47808690D01*
X118282857Y-48308690D02*
X117997142Y-48308690D01*
X118140000Y-48308690D02*
X118140000Y-47808690D01*
X118092380Y-47880119D01*
X118044761Y-47927738D01*
X117997142Y-47951547D01*
X132286190Y-45959523D02*
X132048095Y-46126190D01*
X132286190Y-46245238D02*
X131786190Y-46245238D01*
X131786190Y-46054761D01*
X131810000Y-46007142D01*
X131833809Y-45983333D01*
X131881428Y-45959523D01*
X131952857Y-45959523D01*
X132000476Y-45983333D01*
X132024285Y-46007142D01*
X132048095Y-46054761D01*
X132048095Y-46245238D01*
X131833809Y-45769047D02*
X131810000Y-45745238D01*
X131786190Y-45697619D01*
X131786190Y-45578571D01*
X131810000Y-45530952D01*
X131833809Y-45507142D01*
X131881428Y-45483333D01*
X131929047Y-45483333D01*
X132000476Y-45507142D01*
X132286190Y-45792857D01*
X132286190Y-45483333D01*
X131786190Y-45173809D02*
X131786190Y-45126190D01*
X131810000Y-45078571D01*
X131833809Y-45054761D01*
X131881428Y-45030952D01*
X131976666Y-45007142D01*
X132095714Y-45007142D01*
X132190952Y-45030952D01*
X132238571Y-45054761D01*
X132262380Y-45078571D01*
X132286190Y-45126190D01*
X132286190Y-45173809D01*
X132262380Y-45221428D01*
X132238571Y-45245238D01*
X132190952Y-45269047D01*
X132095714Y-45292857D01*
X131976666Y-45292857D01*
X131881428Y-45269047D01*
X131833809Y-45245238D01*
X131810000Y-45221428D01*
X131786190Y-45173809D01*
X131952857Y-44578571D02*
X132286190Y-44578571D01*
X131762380Y-44697619D02*
X132119523Y-44816666D01*
X132119523Y-44507142D01*
X88154761Y-85226190D02*
X88154761Y-84726190D01*
X88273809Y-84726190D01*
X88345238Y-84750000D01*
X88392857Y-84797619D01*
X88416666Y-84845238D01*
X88440476Y-84940476D01*
X88440476Y-85011904D01*
X88416666Y-85107142D01*
X88392857Y-85154761D01*
X88345238Y-85202380D01*
X88273809Y-85226190D01*
X88154761Y-85226190D01*
X88892857Y-84726190D02*
X88654761Y-84726190D01*
X88630952Y-84964285D01*
X88654761Y-84940476D01*
X88702380Y-84916666D01*
X88821428Y-84916666D01*
X88869047Y-84940476D01*
X88892857Y-84964285D01*
X88916666Y-85011904D01*
X88916666Y-85130952D01*
X88892857Y-85178571D01*
X88869047Y-85202380D01*
X88821428Y-85226190D01*
X88702380Y-85226190D01*
X88654761Y-85202380D01*
X88630952Y-85178571D01*
X89226190Y-84726190D02*
X89273809Y-84726190D01*
X89321428Y-84750000D01*
X89345238Y-84773809D01*
X89369047Y-84821428D01*
X89392857Y-84916666D01*
X89392857Y-85035714D01*
X89369047Y-85130952D01*
X89345238Y-85178571D01*
X89321428Y-85202380D01*
X89273809Y-85226190D01*
X89226190Y-85226190D01*
X89178571Y-85202380D01*
X89154761Y-85178571D01*
X89130952Y-85130952D01*
X89107142Y-85035714D01*
X89107142Y-84916666D01*
X89130952Y-84821428D01*
X89154761Y-84773809D01*
X89178571Y-84750000D01*
X89226190Y-84726190D01*
X89583333Y-84773809D02*
X89607142Y-84750000D01*
X89654761Y-84726190D01*
X89773809Y-84726190D01*
X89821428Y-84750000D01*
X89845238Y-84773809D01*
X89869047Y-84821428D01*
X89869047Y-84869047D01*
X89845238Y-84940476D01*
X89559523Y-85226190D01*
X89869047Y-85226190D01*
X126857142Y-87352380D02*
X126928571Y-87376190D01*
X127047619Y-87376190D01*
X127095238Y-87352380D01*
X127119047Y-87328571D01*
X127142857Y-87280952D01*
X127142857Y-87233333D01*
X127119047Y-87185714D01*
X127095238Y-87161904D01*
X127047619Y-87138095D01*
X126952380Y-87114285D01*
X126904761Y-87090476D01*
X126880952Y-87066666D01*
X126857142Y-87019047D01*
X126857142Y-86971428D01*
X126880952Y-86923809D01*
X126904761Y-86900000D01*
X126952380Y-86876190D01*
X127071428Y-86876190D01*
X127142857Y-86900000D01*
X127309523Y-86876190D02*
X127428571Y-87376190D01*
X127523809Y-87019047D01*
X127619047Y-87376190D01*
X127738095Y-86876190D01*
X128166666Y-86876190D02*
X127928571Y-86876190D01*
X127904761Y-87114285D01*
X127928571Y-87090476D01*
X127976190Y-87066666D01*
X128095238Y-87066666D01*
X128142857Y-87090476D01*
X128166666Y-87114285D01*
X128190476Y-87161904D01*
X128190476Y-87280952D01*
X128166666Y-87328571D01*
X128142857Y-87352380D01*
X128095238Y-87376190D01*
X127976190Y-87376190D01*
X127928571Y-87352380D01*
X127904761Y-87328571D01*
X128500000Y-86876190D02*
X128547619Y-86876190D01*
X128595238Y-86900000D01*
X128619047Y-86923809D01*
X128642857Y-86971428D01*
X128666666Y-87066666D01*
X128666666Y-87185714D01*
X128642857Y-87280952D01*
X128619047Y-87328571D01*
X128595238Y-87352380D01*
X128547619Y-87376190D01*
X128500000Y-87376190D01*
X128452380Y-87352380D01*
X128428571Y-87328571D01*
X128404761Y-87280952D01*
X128380952Y-87185714D01*
X128380952Y-87066666D01*
X128404761Y-86971428D01*
X128428571Y-86923809D01*
X128452380Y-86900000D01*
X128500000Y-86876190D01*
X129142857Y-87376190D02*
X128857142Y-87376190D01*
X129000000Y-87376190D02*
X129000000Y-86876190D01*
X128952380Y-86947619D01*
X128904761Y-86995238D01*
X128857142Y-87019047D01*
X123138476Y-84252571D02*
X123114666Y-84276380D01*
X123043238Y-84300190D01*
X122995619Y-84300190D01*
X122924190Y-84276380D01*
X122876571Y-84228761D01*
X122852761Y-84181142D01*
X122828952Y-84085904D01*
X122828952Y-84014476D01*
X122852761Y-83919238D01*
X122876571Y-83871619D01*
X122924190Y-83824000D01*
X122995619Y-83800190D01*
X123043238Y-83800190D01*
X123114666Y-83824000D01*
X123138476Y-83847809D01*
X123590857Y-83800190D02*
X123352761Y-83800190D01*
X123328952Y-84038285D01*
X123352761Y-84014476D01*
X123400380Y-83990666D01*
X123519428Y-83990666D01*
X123567047Y-84014476D01*
X123590857Y-84038285D01*
X123614666Y-84085904D01*
X123614666Y-84204952D01*
X123590857Y-84252571D01*
X123567047Y-84276380D01*
X123519428Y-84300190D01*
X123400380Y-84300190D01*
X123352761Y-84276380D01*
X123328952Y-84252571D01*
X123924190Y-83800190D02*
X123971809Y-83800190D01*
X124019428Y-83824000D01*
X124043238Y-83847809D01*
X124067047Y-83895428D01*
X124090857Y-83990666D01*
X124090857Y-84109714D01*
X124067047Y-84204952D01*
X124043238Y-84252571D01*
X124019428Y-84276380D01*
X123971809Y-84300190D01*
X123924190Y-84300190D01*
X123876571Y-84276380D01*
X123852761Y-84252571D01*
X123828952Y-84204952D01*
X123805142Y-84109714D01*
X123805142Y-83990666D01*
X123828952Y-83895428D01*
X123852761Y-83847809D01*
X123876571Y-83824000D01*
X123924190Y-83800190D01*
X124257523Y-83800190D02*
X124567047Y-83800190D01*
X124400380Y-83990666D01*
X124471809Y-83990666D01*
X124519428Y-84014476D01*
X124543238Y-84038285D01*
X124567047Y-84085904D01*
X124567047Y-84204952D01*
X124543238Y-84252571D01*
X124519428Y-84276380D01*
X124471809Y-84300190D01*
X124328952Y-84300190D01*
X124281333Y-84276380D01*
X124257523Y-84252571D01*
X120014190Y-83219523D02*
X119776095Y-83386190D01*
X120014190Y-83505238D02*
X119514190Y-83505238D01*
X119514190Y-83314761D01*
X119538000Y-83267142D01*
X119561809Y-83243333D01*
X119609428Y-83219523D01*
X119680857Y-83219523D01*
X119728476Y-83243333D01*
X119752285Y-83267142D01*
X119776095Y-83314761D01*
X119776095Y-83505238D01*
X119514190Y-82767142D02*
X119514190Y-83005238D01*
X119752285Y-83029047D01*
X119728476Y-83005238D01*
X119704666Y-82957619D01*
X119704666Y-82838571D01*
X119728476Y-82790952D01*
X119752285Y-82767142D01*
X119799904Y-82743333D01*
X119918952Y-82743333D01*
X119966571Y-82767142D01*
X119990380Y-82790952D01*
X120014190Y-82838571D01*
X120014190Y-82957619D01*
X119990380Y-83005238D01*
X119966571Y-83029047D01*
X119514190Y-82433809D02*
X119514190Y-82386190D01*
X119538000Y-82338571D01*
X119561809Y-82314761D01*
X119609428Y-82290952D01*
X119704666Y-82267142D01*
X119823714Y-82267142D01*
X119918952Y-82290952D01*
X119966571Y-82314761D01*
X119990380Y-82338571D01*
X120014190Y-82386190D01*
X120014190Y-82433809D01*
X119990380Y-82481428D01*
X119966571Y-82505238D01*
X119918952Y-82529047D01*
X119823714Y-82552857D01*
X119704666Y-82552857D01*
X119609428Y-82529047D01*
X119561809Y-82505238D01*
X119538000Y-82481428D01*
X119514190Y-82433809D01*
X119514190Y-82100476D02*
X119514190Y-81790952D01*
X119704666Y-81957619D01*
X119704666Y-81886190D01*
X119728476Y-81838571D01*
X119752285Y-81814761D01*
X119799904Y-81790952D01*
X119918952Y-81790952D01*
X119966571Y-81814761D01*
X119990380Y-81838571D01*
X120014190Y-81886190D01*
X120014190Y-82029047D01*
X119990380Y-82076666D01*
X119966571Y-82100476D01*
X118286190Y-71421142D02*
X118690952Y-71421142D01*
X118738571Y-71397333D01*
X118762380Y-71373523D01*
X118786190Y-71325904D01*
X118786190Y-71230666D01*
X118762380Y-71183047D01*
X118738571Y-71159238D01*
X118690952Y-71135428D01*
X118286190Y-71135428D01*
X118286190Y-70659238D02*
X118286190Y-70897333D01*
X118524285Y-70921142D01*
X118500476Y-70897333D01*
X118476666Y-70849714D01*
X118476666Y-70730666D01*
X118500476Y-70683047D01*
X118524285Y-70659238D01*
X118571904Y-70635428D01*
X118690952Y-70635428D01*
X118738571Y-70659238D01*
X118762380Y-70683047D01*
X118786190Y-70730666D01*
X118786190Y-70849714D01*
X118762380Y-70897333D01*
X118738571Y-70921142D01*
X118286190Y-70325904D02*
X118286190Y-70278285D01*
X118310000Y-70230666D01*
X118333809Y-70206857D01*
X118381428Y-70183047D01*
X118476666Y-70159238D01*
X118595714Y-70159238D01*
X118690952Y-70183047D01*
X118738571Y-70206857D01*
X118762380Y-70230666D01*
X118786190Y-70278285D01*
X118786190Y-70325904D01*
X118762380Y-70373523D01*
X118738571Y-70397333D01*
X118690952Y-70421142D01*
X118595714Y-70444952D01*
X118476666Y-70444952D01*
X118381428Y-70421142D01*
X118333809Y-70397333D01*
X118310000Y-70373523D01*
X118286190Y-70325904D01*
X118786190Y-69683047D02*
X118786190Y-69968761D01*
X118786190Y-69825904D02*
X118286190Y-69825904D01*
X118357619Y-69873523D01*
X118405238Y-69921142D01*
X118429047Y-69968761D01*
X144952261Y-47056190D02*
X144952261Y-46556190D01*
X145071309Y-46556190D01*
X145142738Y-46580000D01*
X145190357Y-46627619D01*
X145214166Y-46675238D01*
X145237976Y-46770476D01*
X145237976Y-46841904D01*
X145214166Y-46937142D01*
X145190357Y-46984761D01*
X145142738Y-47032380D01*
X145071309Y-47056190D01*
X144952261Y-47056190D01*
X145428452Y-46603809D02*
X145452261Y-46580000D01*
X145499880Y-46556190D01*
X145618928Y-46556190D01*
X145666547Y-46580000D01*
X145690357Y-46603809D01*
X145714166Y-46651428D01*
X145714166Y-46699047D01*
X145690357Y-46770476D01*
X145404642Y-47056190D01*
X145714166Y-47056190D01*
X146023690Y-46556190D02*
X146071309Y-46556190D01*
X146118928Y-46580000D01*
X146142738Y-46603809D01*
X146166547Y-46651428D01*
X146190357Y-46746666D01*
X146190357Y-46865714D01*
X146166547Y-46960952D01*
X146142738Y-47008571D01*
X146118928Y-47032380D01*
X146071309Y-47056190D01*
X146023690Y-47056190D01*
X145976071Y-47032380D01*
X145952261Y-47008571D01*
X145928452Y-46960952D01*
X145904642Y-46865714D01*
X145904642Y-46746666D01*
X145928452Y-46651428D01*
X145952261Y-46603809D01*
X145976071Y-46580000D01*
X146023690Y-46556190D01*
X146666547Y-47056190D02*
X146380833Y-47056190D01*
X146523690Y-47056190D02*
X146523690Y-46556190D01*
X146476071Y-46627619D01*
X146428452Y-46675238D01*
X146380833Y-46699047D01*
X133444761Y-83186190D02*
X133444761Y-82686190D01*
X133563809Y-82686190D01*
X133635238Y-82710000D01*
X133682857Y-82757619D01*
X133706666Y-82805238D01*
X133730476Y-82900476D01*
X133730476Y-82971904D01*
X133706666Y-83067142D01*
X133682857Y-83114761D01*
X133635238Y-83162380D01*
X133563809Y-83186190D01*
X133444761Y-83186190D01*
X133920952Y-82733809D02*
X133944761Y-82710000D01*
X133992380Y-82686190D01*
X134111428Y-82686190D01*
X134159047Y-82710000D01*
X134182857Y-82733809D01*
X134206666Y-82781428D01*
X134206666Y-82829047D01*
X134182857Y-82900476D01*
X133897142Y-83186190D01*
X134206666Y-83186190D01*
X134516190Y-82686190D02*
X134563809Y-82686190D01*
X134611428Y-82710000D01*
X134635238Y-82733809D01*
X134659047Y-82781428D01*
X134682857Y-82876666D01*
X134682857Y-82995714D01*
X134659047Y-83090952D01*
X134635238Y-83138571D01*
X134611428Y-83162380D01*
X134563809Y-83186190D01*
X134516190Y-83186190D01*
X134468571Y-83162380D01*
X134444761Y-83138571D01*
X134420952Y-83090952D01*
X134397142Y-82995714D01*
X134397142Y-82876666D01*
X134420952Y-82781428D01*
X134444761Y-82733809D01*
X134468571Y-82710000D01*
X134516190Y-82686190D01*
X134849523Y-82686190D02*
X135159047Y-82686190D01*
X134992380Y-82876666D01*
X135063809Y-82876666D01*
X135111428Y-82900476D01*
X135135238Y-82924285D01*
X135159047Y-82971904D01*
X135159047Y-83090952D01*
X135135238Y-83138571D01*
X135111428Y-83162380D01*
X135063809Y-83186190D01*
X134920952Y-83186190D01*
X134873333Y-83162380D01*
X134849523Y-83138571D01*
X156878571Y-86169523D02*
X156902380Y-86193333D01*
X156926190Y-86264761D01*
X156926190Y-86312380D01*
X156902380Y-86383809D01*
X156854761Y-86431428D01*
X156807142Y-86455238D01*
X156711904Y-86479047D01*
X156640476Y-86479047D01*
X156545238Y-86455238D01*
X156497619Y-86431428D01*
X156450000Y-86383809D01*
X156426190Y-86312380D01*
X156426190Y-86264761D01*
X156450000Y-86193333D01*
X156473809Y-86169523D01*
X156473809Y-85979047D02*
X156450000Y-85955238D01*
X156426190Y-85907619D01*
X156426190Y-85788571D01*
X156450000Y-85740952D01*
X156473809Y-85717142D01*
X156521428Y-85693333D01*
X156569047Y-85693333D01*
X156640476Y-85717142D01*
X156926190Y-86002857D01*
X156926190Y-85693333D01*
X156426190Y-85383809D02*
X156426190Y-85336190D01*
X156450000Y-85288571D01*
X156473809Y-85264761D01*
X156521428Y-85240952D01*
X156616666Y-85217142D01*
X156735714Y-85217142D01*
X156830952Y-85240952D01*
X156878571Y-85264761D01*
X156902380Y-85288571D01*
X156926190Y-85336190D01*
X156926190Y-85383809D01*
X156902380Y-85431428D01*
X156878571Y-85455238D01*
X156830952Y-85479047D01*
X156735714Y-85502857D01*
X156616666Y-85502857D01*
X156521428Y-85479047D01*
X156473809Y-85455238D01*
X156450000Y-85431428D01*
X156426190Y-85383809D01*
X156473809Y-85026666D02*
X156450000Y-85002857D01*
X156426190Y-84955238D01*
X156426190Y-84836190D01*
X156450000Y-84788571D01*
X156473809Y-84764761D01*
X156521428Y-84740952D01*
X156569047Y-84740952D01*
X156640476Y-84764761D01*
X156926190Y-85050476D01*
X156926190Y-84740952D01*
X116420476Y-63728571D02*
X116396666Y-63752380D01*
X116325238Y-63776190D01*
X116277619Y-63776190D01*
X116206190Y-63752380D01*
X116158571Y-63704761D01*
X116134761Y-63657142D01*
X116110952Y-63561904D01*
X116110952Y-63490476D01*
X116134761Y-63395238D01*
X116158571Y-63347619D01*
X116206190Y-63300000D01*
X116277619Y-63276190D01*
X116325238Y-63276190D01*
X116396666Y-63300000D01*
X116420476Y-63323809D01*
X116610952Y-63323809D02*
X116634761Y-63300000D01*
X116682380Y-63276190D01*
X116801428Y-63276190D01*
X116849047Y-63300000D01*
X116872857Y-63323809D01*
X116896666Y-63371428D01*
X116896666Y-63419047D01*
X116872857Y-63490476D01*
X116587142Y-63776190D01*
X116896666Y-63776190D01*
X117372857Y-63776190D02*
X117087142Y-63776190D01*
X117230000Y-63776190D02*
X117230000Y-63276190D01*
X117182380Y-63347619D01*
X117134761Y-63395238D01*
X117087142Y-63419047D01*
X117801428Y-63442857D02*
X117801428Y-63776190D01*
X117682380Y-63252380D02*
X117563333Y-63609523D01*
X117872857Y-63609523D01*
X98043571Y-59474523D02*
X98067380Y-59498333D01*
X98091190Y-59569761D01*
X98091190Y-59617380D01*
X98067380Y-59688809D01*
X98019761Y-59736428D01*
X97972142Y-59760238D01*
X97876904Y-59784047D01*
X97805476Y-59784047D01*
X97710238Y-59760238D01*
X97662619Y-59736428D01*
X97615000Y-59688809D01*
X97591190Y-59617380D01*
X97591190Y-59569761D01*
X97615000Y-59498333D01*
X97638809Y-59474523D01*
X97591190Y-59307857D02*
X97591190Y-58998333D01*
X97781666Y-59165000D01*
X97781666Y-59093571D01*
X97805476Y-59045952D01*
X97829285Y-59022142D01*
X97876904Y-58998333D01*
X97995952Y-58998333D01*
X98043571Y-59022142D01*
X98067380Y-59045952D01*
X98091190Y-59093571D01*
X98091190Y-59236428D01*
X98067380Y-59284047D01*
X98043571Y-59307857D01*
X97591190Y-58688809D02*
X97591190Y-58641190D01*
X97615000Y-58593571D01*
X97638809Y-58569761D01*
X97686428Y-58545952D01*
X97781666Y-58522142D01*
X97900714Y-58522142D01*
X97995952Y-58545952D01*
X98043571Y-58569761D01*
X98067380Y-58593571D01*
X98091190Y-58641190D01*
X98091190Y-58688809D01*
X98067380Y-58736428D01*
X98043571Y-58760238D01*
X97995952Y-58784047D01*
X97900714Y-58807857D01*
X97781666Y-58807857D01*
X97686428Y-58784047D01*
X97638809Y-58760238D01*
X97615000Y-58736428D01*
X97591190Y-58688809D01*
X97638809Y-58331666D02*
X97615000Y-58307857D01*
X97591190Y-58260238D01*
X97591190Y-58141190D01*
X97615000Y-58093571D01*
X97638809Y-58069761D01*
X97686428Y-58045952D01*
X97734047Y-58045952D01*
X97805476Y-58069761D01*
X98091190Y-58355476D01*
X98091190Y-58045952D01*
X111508571Y-49469523D02*
X111532380Y-49493333D01*
X111556190Y-49564761D01*
X111556190Y-49612380D01*
X111532380Y-49683809D01*
X111484761Y-49731428D01*
X111437142Y-49755238D01*
X111341904Y-49779047D01*
X111270476Y-49779047D01*
X111175238Y-49755238D01*
X111127619Y-49731428D01*
X111080000Y-49683809D01*
X111056190Y-49612380D01*
X111056190Y-49564761D01*
X111080000Y-49493333D01*
X111103809Y-49469523D01*
X111222857Y-49040952D02*
X111556190Y-49040952D01*
X111032380Y-49160000D02*
X111389523Y-49279047D01*
X111389523Y-48969523D01*
X111056190Y-48683809D02*
X111056190Y-48636190D01*
X111080000Y-48588571D01*
X111103809Y-48564761D01*
X111151428Y-48540952D01*
X111246666Y-48517142D01*
X111365714Y-48517142D01*
X111460952Y-48540952D01*
X111508571Y-48564761D01*
X111532380Y-48588571D01*
X111556190Y-48636190D01*
X111556190Y-48683809D01*
X111532380Y-48731428D01*
X111508571Y-48755238D01*
X111460952Y-48779047D01*
X111365714Y-48802857D01*
X111246666Y-48802857D01*
X111151428Y-48779047D01*
X111103809Y-48755238D01*
X111080000Y-48731428D01*
X111056190Y-48683809D01*
X111056190Y-48350476D02*
X111056190Y-48040952D01*
X111246666Y-48207619D01*
X111246666Y-48136190D01*
X111270476Y-48088571D01*
X111294285Y-48064761D01*
X111341904Y-48040952D01*
X111460952Y-48040952D01*
X111508571Y-48064761D01*
X111532380Y-48088571D01*
X111556190Y-48136190D01*
X111556190Y-48279047D01*
X111532380Y-48326666D01*
X111508571Y-48350476D01*
X132900476Y-46468571D02*
X132876666Y-46492380D01*
X132805238Y-46516190D01*
X132757619Y-46516190D01*
X132686190Y-46492380D01*
X132638571Y-46444761D01*
X132614761Y-46397142D01*
X132590952Y-46301904D01*
X132590952Y-46230476D01*
X132614761Y-46135238D01*
X132638571Y-46087619D01*
X132686190Y-46040000D01*
X132757619Y-46016190D01*
X132805238Y-46016190D01*
X132876666Y-46040000D01*
X132900476Y-46063809D01*
X133090952Y-46063809D02*
X133114761Y-46040000D01*
X133162380Y-46016190D01*
X133281428Y-46016190D01*
X133329047Y-46040000D01*
X133352857Y-46063809D01*
X133376666Y-46111428D01*
X133376666Y-46159047D01*
X133352857Y-46230476D01*
X133067142Y-46516190D01*
X133376666Y-46516190D01*
X133686190Y-46016190D02*
X133733809Y-46016190D01*
X133781428Y-46040000D01*
X133805238Y-46063809D01*
X133829047Y-46111428D01*
X133852857Y-46206666D01*
X133852857Y-46325714D01*
X133829047Y-46420952D01*
X133805238Y-46468571D01*
X133781428Y-46492380D01*
X133733809Y-46516190D01*
X133686190Y-46516190D01*
X133638571Y-46492380D01*
X133614761Y-46468571D01*
X133590952Y-46420952D01*
X133567142Y-46325714D01*
X133567142Y-46206666D01*
X133590952Y-46111428D01*
X133614761Y-46063809D01*
X133638571Y-46040000D01*
X133686190Y-46016190D01*
X134138571Y-46230476D02*
X134090952Y-46206666D01*
X134067142Y-46182857D01*
X134043333Y-46135238D01*
X134043333Y-46111428D01*
X134067142Y-46063809D01*
X134090952Y-46040000D01*
X134138571Y-46016190D01*
X134233809Y-46016190D01*
X134281428Y-46040000D01*
X134305238Y-46063809D01*
X134329047Y-46111428D01*
X134329047Y-46135238D01*
X134305238Y-46182857D01*
X134281428Y-46206666D01*
X134233809Y-46230476D01*
X134138571Y-46230476D01*
X134090952Y-46254285D01*
X134067142Y-46278095D01*
X134043333Y-46325714D01*
X134043333Y-46420952D01*
X134067142Y-46468571D01*
X134090952Y-46492380D01*
X134138571Y-46516190D01*
X134233809Y-46516190D01*
X134281428Y-46492380D01*
X134305238Y-46468571D01*
X134329047Y-46420952D01*
X134329047Y-46325714D01*
X134305238Y-46278095D01*
X134281428Y-46254285D01*
X134233809Y-46230476D01*
X95270476Y-81606190D02*
X95103809Y-81368095D01*
X94984761Y-81606190D02*
X94984761Y-81106190D01*
X95175238Y-81106190D01*
X95222857Y-81130000D01*
X95246666Y-81153809D01*
X95270476Y-81201428D01*
X95270476Y-81272857D01*
X95246666Y-81320476D01*
X95222857Y-81344285D01*
X95175238Y-81368095D01*
X94984761Y-81368095D01*
X95722857Y-81106190D02*
X95484761Y-81106190D01*
X95460952Y-81344285D01*
X95484761Y-81320476D01*
X95532380Y-81296666D01*
X95651428Y-81296666D01*
X95699047Y-81320476D01*
X95722857Y-81344285D01*
X95746666Y-81391904D01*
X95746666Y-81510952D01*
X95722857Y-81558571D01*
X95699047Y-81582380D01*
X95651428Y-81606190D01*
X95532380Y-81606190D01*
X95484761Y-81582380D01*
X95460952Y-81558571D01*
X96056190Y-81106190D02*
X96103809Y-81106190D01*
X96151428Y-81130000D01*
X96175238Y-81153809D01*
X96199047Y-81201428D01*
X96222857Y-81296666D01*
X96222857Y-81415714D01*
X96199047Y-81510952D01*
X96175238Y-81558571D01*
X96151428Y-81582380D01*
X96103809Y-81606190D01*
X96056190Y-81606190D01*
X96008571Y-81582380D01*
X95984761Y-81558571D01*
X95960952Y-81510952D01*
X95937142Y-81415714D01*
X95937142Y-81296666D01*
X95960952Y-81201428D01*
X95984761Y-81153809D01*
X96008571Y-81130000D01*
X96056190Y-81106190D01*
X96675238Y-81106190D02*
X96437142Y-81106190D01*
X96413333Y-81344285D01*
X96437142Y-81320476D01*
X96484761Y-81296666D01*
X96603809Y-81296666D01*
X96651428Y-81320476D01*
X96675238Y-81344285D01*
X96699047Y-81391904D01*
X96699047Y-81510952D01*
X96675238Y-81558571D01*
X96651428Y-81582380D01*
X96603809Y-81606190D01*
X96484761Y-81606190D01*
X96437142Y-81582380D01*
X96413333Y-81558571D01*
X136970476Y-83936190D02*
X136803809Y-83698095D01*
X136684761Y-83936190D02*
X136684761Y-83436190D01*
X136875238Y-83436190D01*
X136922857Y-83460000D01*
X136946666Y-83483809D01*
X136970476Y-83531428D01*
X136970476Y-83602857D01*
X136946666Y-83650476D01*
X136922857Y-83674285D01*
X136875238Y-83698095D01*
X136684761Y-83698095D01*
X137160952Y-83483809D02*
X137184761Y-83460000D01*
X137232380Y-83436190D01*
X137351428Y-83436190D01*
X137399047Y-83460000D01*
X137422857Y-83483809D01*
X137446666Y-83531428D01*
X137446666Y-83579047D01*
X137422857Y-83650476D01*
X137137142Y-83936190D01*
X137446666Y-83936190D01*
X137922857Y-83936190D02*
X137637142Y-83936190D01*
X137780000Y-83936190D02*
X137780000Y-83436190D01*
X137732380Y-83507619D01*
X137684761Y-83555238D01*
X137637142Y-83579047D01*
X138232380Y-83436190D02*
X138280000Y-83436190D01*
X138327619Y-83460000D01*
X138351428Y-83483809D01*
X138375238Y-83531428D01*
X138399047Y-83626666D01*
X138399047Y-83745714D01*
X138375238Y-83840952D01*
X138351428Y-83888571D01*
X138327619Y-83912380D01*
X138280000Y-83936190D01*
X138232380Y-83936190D01*
X138184761Y-83912380D01*
X138160952Y-83888571D01*
X138137142Y-83840952D01*
X138113333Y-83745714D01*
X138113333Y-83626666D01*
X138137142Y-83531428D01*
X138160952Y-83483809D01*
X138184761Y-83460000D01*
X138232380Y-83436190D01*
X126832976Y-49338571D02*
X126809166Y-49362380D01*
X126737738Y-49386190D01*
X126690119Y-49386190D01*
X126618690Y-49362380D01*
X126571071Y-49314761D01*
X126547261Y-49267142D01*
X126523452Y-49171904D01*
X126523452Y-49100476D01*
X126547261Y-49005238D01*
X126571071Y-48957619D01*
X126618690Y-48910000D01*
X126690119Y-48886190D01*
X126737738Y-48886190D01*
X126809166Y-48910000D01*
X126832976Y-48933809D01*
X127023452Y-48933809D02*
X127047261Y-48910000D01*
X127094880Y-48886190D01*
X127213928Y-48886190D01*
X127261547Y-48910000D01*
X127285357Y-48933809D01*
X127309166Y-48981428D01*
X127309166Y-49029047D01*
X127285357Y-49100476D01*
X126999642Y-49386190D01*
X127309166Y-49386190D01*
X127618690Y-48886190D02*
X127666309Y-48886190D01*
X127713928Y-48910000D01*
X127737738Y-48933809D01*
X127761547Y-48981428D01*
X127785357Y-49076666D01*
X127785357Y-49195714D01*
X127761547Y-49290952D01*
X127737738Y-49338571D01*
X127713928Y-49362380D01*
X127666309Y-49386190D01*
X127618690Y-49386190D01*
X127571071Y-49362380D01*
X127547261Y-49338571D01*
X127523452Y-49290952D01*
X127499642Y-49195714D01*
X127499642Y-49076666D01*
X127523452Y-48981428D01*
X127547261Y-48933809D01*
X127571071Y-48910000D01*
X127618690Y-48886190D01*
X128237738Y-48886190D02*
X127999642Y-48886190D01*
X127975833Y-49124285D01*
X127999642Y-49100476D01*
X128047261Y-49076666D01*
X128166309Y-49076666D01*
X128213928Y-49100476D01*
X128237738Y-49124285D01*
X128261547Y-49171904D01*
X128261547Y-49290952D01*
X128237738Y-49338571D01*
X128213928Y-49362380D01*
X128166309Y-49386190D01*
X128047261Y-49386190D01*
X127999642Y-49362380D01*
X127975833Y-49338571D01*
X121258571Y-57239523D02*
X121282380Y-57263333D01*
X121306190Y-57334761D01*
X121306190Y-57382380D01*
X121282380Y-57453809D01*
X121234761Y-57501428D01*
X121187142Y-57525238D01*
X121091904Y-57549047D01*
X121020476Y-57549047D01*
X120925238Y-57525238D01*
X120877619Y-57501428D01*
X120830000Y-57453809D01*
X120806190Y-57382380D01*
X120806190Y-57334761D01*
X120830000Y-57263333D01*
X120853809Y-57239523D01*
X120853809Y-57049047D02*
X120830000Y-57025238D01*
X120806190Y-56977619D01*
X120806190Y-56858571D01*
X120830000Y-56810952D01*
X120853809Y-56787142D01*
X120901428Y-56763333D01*
X120949047Y-56763333D01*
X121020476Y-56787142D01*
X121306190Y-57072857D01*
X121306190Y-56763333D01*
X121306190Y-56287142D02*
X121306190Y-56572857D01*
X121306190Y-56430000D02*
X120806190Y-56430000D01*
X120877619Y-56477619D01*
X120925238Y-56525238D01*
X120949047Y-56572857D01*
X120806190Y-55977619D02*
X120806190Y-55930000D01*
X120830000Y-55882380D01*
X120853809Y-55858571D01*
X120901428Y-55834761D01*
X120996666Y-55810952D01*
X121115714Y-55810952D01*
X121210952Y-55834761D01*
X121258571Y-55858571D01*
X121282380Y-55882380D01*
X121306190Y-55930000D01*
X121306190Y-55977619D01*
X121282380Y-56025238D01*
X121258571Y-56049047D01*
X121210952Y-56072857D01*
X121115714Y-56096666D01*
X120996666Y-56096666D01*
X120901428Y-56072857D01*
X120853809Y-56049047D01*
X120830000Y-56025238D01*
X120806190Y-55977619D01*
X104254190Y-63872142D02*
X104658952Y-63872142D01*
X104706571Y-63848333D01*
X104730380Y-63824523D01*
X104754190Y-63776904D01*
X104754190Y-63681666D01*
X104730380Y-63634047D01*
X104706571Y-63610238D01*
X104658952Y-63586428D01*
X104254190Y-63586428D01*
X104420857Y-63134047D02*
X104754190Y-63134047D01*
X104230380Y-63253095D02*
X104587523Y-63372142D01*
X104587523Y-63062619D01*
X104254190Y-62776904D02*
X104254190Y-62729285D01*
X104278000Y-62681666D01*
X104301809Y-62657857D01*
X104349428Y-62634047D01*
X104444666Y-62610238D01*
X104563714Y-62610238D01*
X104658952Y-62634047D01*
X104706571Y-62657857D01*
X104730380Y-62681666D01*
X104754190Y-62729285D01*
X104754190Y-62776904D01*
X104730380Y-62824523D01*
X104706571Y-62848333D01*
X104658952Y-62872142D01*
X104563714Y-62895952D01*
X104444666Y-62895952D01*
X104349428Y-62872142D01*
X104301809Y-62848333D01*
X104278000Y-62824523D01*
X104254190Y-62776904D01*
X104754190Y-62134047D02*
X104754190Y-62419761D01*
X104754190Y-62276904D02*
X104254190Y-62276904D01*
X104325619Y-62324523D01*
X104373238Y-62372142D01*
X104397047Y-62419761D01*
X156330476Y-47368571D02*
X156306666Y-47392380D01*
X156235238Y-47416190D01*
X156187619Y-47416190D01*
X156116190Y-47392380D01*
X156068571Y-47344761D01*
X156044761Y-47297142D01*
X156020952Y-47201904D01*
X156020952Y-47130476D01*
X156044761Y-47035238D01*
X156068571Y-46987619D01*
X156116190Y-46940000D01*
X156187619Y-46916190D01*
X156235238Y-46916190D01*
X156306666Y-46940000D01*
X156330476Y-46963809D01*
X156520952Y-46963809D02*
X156544761Y-46940000D01*
X156592380Y-46916190D01*
X156711428Y-46916190D01*
X156759047Y-46940000D01*
X156782857Y-46963809D01*
X156806666Y-47011428D01*
X156806666Y-47059047D01*
X156782857Y-47130476D01*
X156497142Y-47416190D01*
X156806666Y-47416190D01*
X157116190Y-46916190D02*
X157163809Y-46916190D01*
X157211428Y-46940000D01*
X157235238Y-46963809D01*
X157259047Y-47011428D01*
X157282857Y-47106666D01*
X157282857Y-47225714D01*
X157259047Y-47320952D01*
X157235238Y-47368571D01*
X157211428Y-47392380D01*
X157163809Y-47416190D01*
X157116190Y-47416190D01*
X157068571Y-47392380D01*
X157044761Y-47368571D01*
X157020952Y-47320952D01*
X156997142Y-47225714D01*
X156997142Y-47106666D01*
X157020952Y-47011428D01*
X157044761Y-46963809D01*
X157068571Y-46940000D01*
X157116190Y-46916190D01*
X157520952Y-47416190D02*
X157616190Y-47416190D01*
X157663809Y-47392380D01*
X157687619Y-47368571D01*
X157735238Y-47297142D01*
X157759047Y-47201904D01*
X157759047Y-47011428D01*
X157735238Y-46963809D01*
X157711428Y-46940000D01*
X157663809Y-46916190D01*
X157568571Y-46916190D01*
X157520952Y-46940000D01*
X157497142Y-46963809D01*
X157473333Y-47011428D01*
X157473333Y-47130476D01*
X157497142Y-47178095D01*
X157520952Y-47201904D01*
X157568571Y-47225714D01*
X157663809Y-47225714D01*
X157711428Y-47201904D01*
X157735238Y-47178095D01*
X157759047Y-47130476D01*
X120048571Y-75099523D02*
X120072380Y-75123333D01*
X120096190Y-75194761D01*
X120096190Y-75242380D01*
X120072380Y-75313809D01*
X120024761Y-75361428D01*
X119977142Y-75385238D01*
X119881904Y-75409047D01*
X119810476Y-75409047D01*
X119715238Y-75385238D01*
X119667619Y-75361428D01*
X119620000Y-75313809D01*
X119596190Y-75242380D01*
X119596190Y-75194761D01*
X119620000Y-75123333D01*
X119643809Y-75099523D01*
X119643809Y-74909047D02*
X119620000Y-74885238D01*
X119596190Y-74837619D01*
X119596190Y-74718571D01*
X119620000Y-74670952D01*
X119643809Y-74647142D01*
X119691428Y-74623333D01*
X119739047Y-74623333D01*
X119810476Y-74647142D01*
X120096190Y-74932857D01*
X120096190Y-74623333D01*
X119596190Y-74313809D02*
X119596190Y-74266190D01*
X119620000Y-74218571D01*
X119643809Y-74194761D01*
X119691428Y-74170952D01*
X119786666Y-74147142D01*
X119905714Y-74147142D01*
X120000952Y-74170952D01*
X120048571Y-74194761D01*
X120072380Y-74218571D01*
X120096190Y-74266190D01*
X120096190Y-74313809D01*
X120072380Y-74361428D01*
X120048571Y-74385238D01*
X120000952Y-74409047D01*
X119905714Y-74432857D01*
X119786666Y-74432857D01*
X119691428Y-74409047D01*
X119643809Y-74385238D01*
X119620000Y-74361428D01*
X119596190Y-74313809D01*
X119596190Y-73718571D02*
X119596190Y-73813809D01*
X119620000Y-73861428D01*
X119643809Y-73885238D01*
X119715238Y-73932857D01*
X119810476Y-73956666D01*
X120000952Y-73956666D01*
X120048571Y-73932857D01*
X120072380Y-73909047D01*
X120096190Y-73861428D01*
X120096190Y-73766190D01*
X120072380Y-73718571D01*
X120048571Y-73694761D01*
X120000952Y-73670952D01*
X119881904Y-73670952D01*
X119834285Y-73694761D01*
X119810476Y-73718571D01*
X119786666Y-73766190D01*
X119786666Y-73861428D01*
X119810476Y-73909047D01*
X119834285Y-73932857D01*
X119881904Y-73956666D01*
X145154761Y-45726190D02*
X145154761Y-45226190D01*
X145273809Y-45226190D01*
X145345238Y-45250000D01*
X145392857Y-45297619D01*
X145416666Y-45345238D01*
X145440476Y-45440476D01*
X145440476Y-45511904D01*
X145416666Y-45607142D01*
X145392857Y-45654761D01*
X145345238Y-45702380D01*
X145273809Y-45726190D01*
X145154761Y-45726190D01*
X145630952Y-45273809D02*
X145654761Y-45250000D01*
X145702380Y-45226190D01*
X145821428Y-45226190D01*
X145869047Y-45250000D01*
X145892857Y-45273809D01*
X145916666Y-45321428D01*
X145916666Y-45369047D01*
X145892857Y-45440476D01*
X145607142Y-45726190D01*
X145916666Y-45726190D01*
X146226190Y-45226190D02*
X146273809Y-45226190D01*
X146321428Y-45250000D01*
X146345238Y-45273809D01*
X146369047Y-45321428D01*
X146392857Y-45416666D01*
X146392857Y-45535714D01*
X146369047Y-45630952D01*
X146345238Y-45678571D01*
X146321428Y-45702380D01*
X146273809Y-45726190D01*
X146226190Y-45726190D01*
X146178571Y-45702380D01*
X146154761Y-45678571D01*
X146130952Y-45630952D01*
X146107142Y-45535714D01*
X146107142Y-45416666D01*
X146130952Y-45321428D01*
X146154761Y-45273809D01*
X146178571Y-45250000D01*
X146226190Y-45226190D01*
X146583333Y-45273809D02*
X146607142Y-45250000D01*
X146654761Y-45226190D01*
X146773809Y-45226190D01*
X146821428Y-45250000D01*
X146845238Y-45273809D01*
X146869047Y-45321428D01*
X146869047Y-45369047D01*
X146845238Y-45440476D01*
X146559523Y-45726190D01*
X146869047Y-45726190D01*
X103386190Y-57279523D02*
X103148095Y-57446190D01*
X103386190Y-57565238D02*
X102886190Y-57565238D01*
X102886190Y-57374761D01*
X102910000Y-57327142D01*
X102933809Y-57303333D01*
X102981428Y-57279523D01*
X103052857Y-57279523D01*
X103100476Y-57303333D01*
X103124285Y-57327142D01*
X103148095Y-57374761D01*
X103148095Y-57565238D01*
X103052857Y-56850952D02*
X103386190Y-56850952D01*
X102862380Y-56970000D02*
X103219523Y-57089047D01*
X103219523Y-56779523D01*
X102886190Y-56493809D02*
X102886190Y-56446190D01*
X102910000Y-56398571D01*
X102933809Y-56374761D01*
X102981428Y-56350952D01*
X103076666Y-56327142D01*
X103195714Y-56327142D01*
X103290952Y-56350952D01*
X103338571Y-56374761D01*
X103362380Y-56398571D01*
X103386190Y-56446190D01*
X103386190Y-56493809D01*
X103362380Y-56541428D01*
X103338571Y-56565238D01*
X103290952Y-56589047D01*
X103195714Y-56612857D01*
X103076666Y-56612857D01*
X102981428Y-56589047D01*
X102933809Y-56565238D01*
X102910000Y-56541428D01*
X102886190Y-56493809D01*
X102886190Y-56160476D02*
X102886190Y-55850952D01*
X103076666Y-56017619D01*
X103076666Y-55946190D01*
X103100476Y-55898571D01*
X103124285Y-55874761D01*
X103171904Y-55850952D01*
X103290952Y-55850952D01*
X103338571Y-55874761D01*
X103362380Y-55898571D01*
X103386190Y-55946190D01*
X103386190Y-56089047D01*
X103362380Y-56136666D01*
X103338571Y-56160476D01*
X157820476Y-48038571D02*
X157796666Y-48062380D01*
X157725238Y-48086190D01*
X157677619Y-48086190D01*
X157606190Y-48062380D01*
X157558571Y-48014761D01*
X157534761Y-47967142D01*
X157510952Y-47871904D01*
X157510952Y-47800476D01*
X157534761Y-47705238D01*
X157558571Y-47657619D01*
X157606190Y-47610000D01*
X157677619Y-47586190D01*
X157725238Y-47586190D01*
X157796666Y-47610000D01*
X157820476Y-47633809D01*
X158010952Y-47633809D02*
X158034761Y-47610000D01*
X158082380Y-47586190D01*
X158201428Y-47586190D01*
X158249047Y-47610000D01*
X158272857Y-47633809D01*
X158296666Y-47681428D01*
X158296666Y-47729047D01*
X158272857Y-47800476D01*
X157987142Y-48086190D01*
X158296666Y-48086190D01*
X158772857Y-48086190D02*
X158487142Y-48086190D01*
X158630000Y-48086190D02*
X158630000Y-47586190D01*
X158582380Y-47657619D01*
X158534761Y-47705238D01*
X158487142Y-47729047D01*
X159249047Y-48086190D02*
X158963333Y-48086190D01*
X159106190Y-48086190D02*
X159106190Y-47586190D01*
X159058571Y-47657619D01*
X159010952Y-47705238D01*
X158963333Y-47729047D01*
X87210476Y-70636190D02*
X87043809Y-70398095D01*
X86924761Y-70636190D02*
X86924761Y-70136190D01*
X87115238Y-70136190D01*
X87162857Y-70160000D01*
X87186666Y-70183809D01*
X87210476Y-70231428D01*
X87210476Y-70302857D01*
X87186666Y-70350476D01*
X87162857Y-70374285D01*
X87115238Y-70398095D01*
X86924761Y-70398095D01*
X87377142Y-70136190D02*
X87686666Y-70136190D01*
X87520000Y-70326666D01*
X87591428Y-70326666D01*
X87639047Y-70350476D01*
X87662857Y-70374285D01*
X87686666Y-70421904D01*
X87686666Y-70540952D01*
X87662857Y-70588571D01*
X87639047Y-70612380D01*
X87591428Y-70636190D01*
X87448571Y-70636190D01*
X87400952Y-70612380D01*
X87377142Y-70588571D01*
X87996190Y-70136190D02*
X88043809Y-70136190D01*
X88091428Y-70160000D01*
X88115238Y-70183809D01*
X88139047Y-70231428D01*
X88162857Y-70326666D01*
X88162857Y-70445714D01*
X88139047Y-70540952D01*
X88115238Y-70588571D01*
X88091428Y-70612380D01*
X88043809Y-70636190D01*
X87996190Y-70636190D01*
X87948571Y-70612380D01*
X87924761Y-70588571D01*
X87900952Y-70540952D01*
X87877142Y-70445714D01*
X87877142Y-70326666D01*
X87900952Y-70231428D01*
X87924761Y-70183809D01*
X87948571Y-70160000D01*
X87996190Y-70136190D01*
X88353333Y-70183809D02*
X88377142Y-70160000D01*
X88424761Y-70136190D01*
X88543809Y-70136190D01*
X88591428Y-70160000D01*
X88615238Y-70183809D01*
X88639047Y-70231428D01*
X88639047Y-70279047D01*
X88615238Y-70350476D01*
X88329523Y-70636190D01*
X88639047Y-70636190D01*
X135054761Y-91736190D02*
X135054761Y-91236190D01*
X135221428Y-91593333D01*
X135388095Y-91236190D01*
X135388095Y-91736190D01*
X135721428Y-91236190D02*
X135816666Y-91236190D01*
X135864285Y-91260000D01*
X135911904Y-91307619D01*
X135935714Y-91402857D01*
X135935714Y-91569523D01*
X135911904Y-91664761D01*
X135864285Y-91712380D01*
X135816666Y-91736190D01*
X135721428Y-91736190D01*
X135673809Y-91712380D01*
X135626190Y-91664761D01*
X135602380Y-91569523D01*
X135602380Y-91402857D01*
X135626190Y-91307619D01*
X135673809Y-91260000D01*
X135721428Y-91236190D01*
X136078571Y-91236190D02*
X136364285Y-91236190D01*
X136221428Y-91736190D02*
X136221428Y-91236190D01*
X136626190Y-91236190D02*
X136721428Y-91236190D01*
X136769047Y-91260000D01*
X136816666Y-91307619D01*
X136840476Y-91402857D01*
X136840476Y-91569523D01*
X136816666Y-91664761D01*
X136769047Y-91712380D01*
X136721428Y-91736190D01*
X136626190Y-91736190D01*
X136578571Y-91712380D01*
X136530952Y-91664761D01*
X136507142Y-91569523D01*
X136507142Y-91402857D01*
X136530952Y-91307619D01*
X136578571Y-91260000D01*
X136626190Y-91236190D01*
X137340476Y-91736190D02*
X137173809Y-91498095D01*
X137054761Y-91736190D02*
X137054761Y-91236190D01*
X137245238Y-91236190D01*
X137292857Y-91260000D01*
X137316666Y-91283809D01*
X137340476Y-91331428D01*
X137340476Y-91402857D01*
X137316666Y-91450476D01*
X137292857Y-91474285D01*
X137245238Y-91498095D01*
X137054761Y-91498095D01*
X137792857Y-91236190D02*
X137554761Y-91236190D01*
X137530952Y-91474285D01*
X137554761Y-91450476D01*
X137602380Y-91426666D01*
X137721428Y-91426666D01*
X137769047Y-91450476D01*
X137792857Y-91474285D01*
X137816666Y-91521904D01*
X137816666Y-91640952D01*
X137792857Y-91688571D01*
X137769047Y-91712380D01*
X137721428Y-91736190D01*
X137602380Y-91736190D01*
X137554761Y-91712380D01*
X137530952Y-91688571D01*
X138126190Y-91236190D02*
X138173809Y-91236190D01*
X138221428Y-91260000D01*
X138245238Y-91283809D01*
X138269047Y-91331428D01*
X138292857Y-91426666D01*
X138292857Y-91545714D01*
X138269047Y-91640952D01*
X138245238Y-91688571D01*
X138221428Y-91712380D01*
X138173809Y-91736190D01*
X138126190Y-91736190D01*
X138078571Y-91712380D01*
X138054761Y-91688571D01*
X138030952Y-91640952D01*
X138007142Y-91545714D01*
X138007142Y-91426666D01*
X138030952Y-91331428D01*
X138054761Y-91283809D01*
X138078571Y-91260000D01*
X138126190Y-91236190D01*
X138769047Y-91736190D02*
X138483333Y-91736190D01*
X138626190Y-91736190D02*
X138626190Y-91236190D01*
X138578571Y-91307619D01*
X138530952Y-91355238D01*
X138483333Y-91379047D01*
X135540476Y-86206190D02*
X135373809Y-85968095D01*
X135254761Y-86206190D02*
X135254761Y-85706190D01*
X135445238Y-85706190D01*
X135492857Y-85730000D01*
X135516666Y-85753809D01*
X135540476Y-85801428D01*
X135540476Y-85872857D01*
X135516666Y-85920476D01*
X135492857Y-85944285D01*
X135445238Y-85968095D01*
X135254761Y-85968095D01*
X135730952Y-85753809D02*
X135754761Y-85730000D01*
X135802380Y-85706190D01*
X135921428Y-85706190D01*
X135969047Y-85730000D01*
X135992857Y-85753809D01*
X136016666Y-85801428D01*
X136016666Y-85849047D01*
X135992857Y-85920476D01*
X135707142Y-86206190D01*
X136016666Y-86206190D01*
X136326190Y-85706190D02*
X136373809Y-85706190D01*
X136421428Y-85730000D01*
X136445238Y-85753809D01*
X136469047Y-85801428D01*
X136492857Y-85896666D01*
X136492857Y-86015714D01*
X136469047Y-86110952D01*
X136445238Y-86158571D01*
X136421428Y-86182380D01*
X136373809Y-86206190D01*
X136326190Y-86206190D01*
X136278571Y-86182380D01*
X136254761Y-86158571D01*
X136230952Y-86110952D01*
X136207142Y-86015714D01*
X136207142Y-85896666D01*
X136230952Y-85801428D01*
X136254761Y-85753809D01*
X136278571Y-85730000D01*
X136326190Y-85706190D01*
X136730952Y-86206190D02*
X136826190Y-86206190D01*
X136873809Y-86182380D01*
X136897619Y-86158571D01*
X136945238Y-86087142D01*
X136969047Y-85991904D01*
X136969047Y-85801428D01*
X136945238Y-85753809D01*
X136921428Y-85730000D01*
X136873809Y-85706190D01*
X136778571Y-85706190D01*
X136730952Y-85730000D01*
X136707142Y-85753809D01*
X136683333Y-85801428D01*
X136683333Y-85920476D01*
X136707142Y-85968095D01*
X136730952Y-85991904D01*
X136778571Y-86015714D01*
X136873809Y-86015714D01*
X136921428Y-85991904D01*
X136945238Y-85968095D01*
X136969047Y-85920476D01*
X102107142Y-48986190D02*
X102107142Y-49343333D01*
X102083333Y-49414761D01*
X102035714Y-49462380D01*
X101964285Y-49486190D01*
X101916666Y-49486190D01*
X102559523Y-49152857D02*
X102559523Y-49486190D01*
X102440476Y-48962380D02*
X102321428Y-49319523D01*
X102630952Y-49319523D01*
X102916666Y-48986190D02*
X102964285Y-48986190D01*
X103011904Y-49010000D01*
X103035714Y-49033809D01*
X103059523Y-49081428D01*
X103083333Y-49176666D01*
X103083333Y-49295714D01*
X103059523Y-49390952D01*
X103035714Y-49438571D01*
X103011904Y-49462380D01*
X102964285Y-49486190D01*
X102916666Y-49486190D01*
X102869047Y-49462380D01*
X102845238Y-49438571D01*
X102821428Y-49390952D01*
X102797619Y-49295714D01*
X102797619Y-49176666D01*
X102821428Y-49081428D01*
X102845238Y-49033809D01*
X102869047Y-49010000D01*
X102916666Y-48986190D01*
X103559523Y-49486190D02*
X103273809Y-49486190D01*
X103416666Y-49486190D02*
X103416666Y-48986190D01*
X103369047Y-49057619D01*
X103321428Y-49105238D01*
X103273809Y-49129047D01*
X107596190Y-56979523D02*
X107358095Y-57146190D01*
X107596190Y-57265238D02*
X107096190Y-57265238D01*
X107096190Y-57074761D01*
X107120000Y-57027142D01*
X107143809Y-57003333D01*
X107191428Y-56979523D01*
X107262857Y-56979523D01*
X107310476Y-57003333D01*
X107334285Y-57027142D01*
X107358095Y-57074761D01*
X107358095Y-57265238D01*
X107262857Y-56550952D02*
X107596190Y-56550952D01*
X107072380Y-56670000D02*
X107429523Y-56789047D01*
X107429523Y-56479523D01*
X107096190Y-56193809D02*
X107096190Y-56146190D01*
X107120000Y-56098571D01*
X107143809Y-56074761D01*
X107191428Y-56050952D01*
X107286666Y-56027142D01*
X107405714Y-56027142D01*
X107500952Y-56050952D01*
X107548571Y-56074761D01*
X107572380Y-56098571D01*
X107596190Y-56146190D01*
X107596190Y-56193809D01*
X107572380Y-56241428D01*
X107548571Y-56265238D01*
X107500952Y-56289047D01*
X107405714Y-56312857D01*
X107286666Y-56312857D01*
X107191428Y-56289047D01*
X107143809Y-56265238D01*
X107120000Y-56241428D01*
X107096190Y-56193809D01*
X107143809Y-55836666D02*
X107120000Y-55812857D01*
X107096190Y-55765238D01*
X107096190Y-55646190D01*
X107120000Y-55598571D01*
X107143809Y-55574761D01*
X107191428Y-55550952D01*
X107239047Y-55550952D01*
X107310476Y-55574761D01*
X107596190Y-55860476D01*
X107596190Y-55550952D01*
D12*
X138460000Y-47366359D02*
X138460000Y-47673641D01*
X139220000Y-47366359D02*
X139220000Y-47673641D01*
X121350000Y-55240000D02*
X120090000Y-55240000D01*
X114530000Y-55240000D02*
X115790000Y-55240000D01*
X121350000Y-49230000D02*
X121350000Y-55240000D01*
X114530000Y-51480000D02*
X114530000Y-55240000D01*
X86772936Y-78535000D02*
X87227064Y-78535000D01*
X86772936Y-77065000D02*
X87227064Y-77065000D01*
D13*
X154320000Y-49860000D02*
X154320000Y-53560000D01*
X124320000Y-79860000D02*
X124320000Y-76160000D01*
X154320000Y-76160000D02*
X154320000Y-79860000D01*
X129120000Y-79860000D02*
X124320000Y-79860000D01*
X154320000Y-79860000D02*
X150620000Y-79860000D01*
X124320000Y-53560000D02*
X124320000Y-49860000D01*
X124320000Y-49860000D02*
X128020000Y-49860000D01*
X150620000Y-49860000D02*
X154320000Y-49860000D01*
D14*
X129320000Y-81460000D02*
G75*
G03*
X129320000Y-81460000I-100000J0D01*
G01*
D12*
X152640000Y-83326359D02*
X152640000Y-83633641D01*
X151880000Y-83326359D02*
X151880000Y-83633641D01*
D13*
X129170000Y-42390000D02*
X126570000Y-42390000D01*
D12*
X95923641Y-86880000D02*
X95616359Y-86880000D01*
X95923641Y-87640000D02*
X95616359Y-87640000D01*
X159200000Y-56462500D02*
X156180000Y-56462500D01*
X159200000Y-60672500D02*
X159200000Y-56462500D01*
X156180000Y-56462500D02*
X156180000Y-60672500D01*
X155180000Y-83296359D02*
X155180000Y-83603641D01*
X154420000Y-83296359D02*
X154420000Y-83603641D01*
X122160000Y-85462164D02*
X122160000Y-85677836D01*
X121440000Y-85462164D02*
X121440000Y-85677836D01*
X132202164Y-82310000D02*
X132417836Y-82310000D01*
X132202164Y-81590000D02*
X132417836Y-81590000D01*
X136876359Y-47400000D02*
X137183641Y-47400000D01*
X136876359Y-46640000D02*
X137183641Y-46640000D01*
X120875000Y-81332936D02*
X120875000Y-81787064D01*
X122345000Y-81332936D02*
X122345000Y-81787064D01*
X155490000Y-89176359D02*
X155490000Y-89483641D01*
X156250000Y-89176359D02*
X156250000Y-89483641D01*
X122620000Y-72809622D02*
X122620000Y-72010378D01*
X121500000Y-72809622D02*
X121500000Y-72010378D01*
X95993641Y-85190000D02*
X95686359Y-85190000D01*
X95993641Y-84430000D02*
X95686359Y-84430000D01*
X95030000Y-47095000D02*
X95480000Y-47095000D01*
X95480000Y-46645000D02*
X95480000Y-47095000D01*
X89960000Y-42465000D02*
X89960000Y-42065000D01*
X97480000Y-44435000D02*
X97480000Y-46415000D01*
X97480000Y-42065000D02*
X97480000Y-42465000D01*
X89960000Y-44435000D02*
X89960000Y-46415000D01*
X97480000Y-46415000D02*
X97060000Y-46415000D01*
X89960000Y-46415000D02*
X90380000Y-46415000D01*
D15*
X94450000Y-68810000D02*
G75*
G03*
X94450000Y-68810000I-50000J0D01*
G01*
D12*
X81840000Y-91007836D02*
X81840000Y-90792164D01*
X82560000Y-91007836D02*
X82560000Y-90792164D01*
D14*
X140730000Y-81900000D02*
X142000000Y-81900000D01*
X140730000Y-85980000D02*
X140730000Y-81900000D01*
X150270000Y-94100000D02*
X150270000Y-90020000D01*
X140730000Y-94100000D02*
X142000000Y-94100000D01*
X149000000Y-81900000D02*
X150270000Y-81900000D01*
X149000000Y-94100000D02*
X150270000Y-94100000D01*
X140730000Y-94100000D02*
X140730000Y-93020000D01*
X150270000Y-82980000D02*
X150270000Y-81900000D01*
D12*
X63000000Y-78930000D02*
X61670000Y-78930000D01*
X64330000Y-61030000D02*
X61670000Y-61030000D01*
X64330000Y-76330000D02*
X61670000Y-76330000D01*
X64330000Y-76330000D02*
X64330000Y-61030000D01*
X61670000Y-76330000D02*
X61670000Y-61030000D01*
X61670000Y-78930000D02*
X61670000Y-77600000D01*
X153570000Y-89536359D02*
X153570000Y-89843641D01*
X154330000Y-89536359D02*
X154330000Y-89843641D01*
D15*
X96950000Y-68810000D02*
G75*
G03*
X96950000Y-68810000I-50000J0D01*
G01*
D12*
X152970000Y-83326359D02*
X152970000Y-83633641D01*
X153730000Y-83326359D02*
X153730000Y-83633641D01*
X142900000Y-45130000D02*
X143550000Y-45130000D01*
X142900000Y-48250000D02*
X143550000Y-48250000D01*
X142900000Y-45130000D02*
X141225000Y-45130000D01*
X142900000Y-48250000D02*
X142250000Y-48250000D01*
X152658748Y-43035000D02*
X153181252Y-43035000D01*
X152658748Y-44505000D02*
X153181252Y-44505000D01*
X127600000Y-83140000D02*
X125925000Y-83140000D01*
X127600000Y-86260000D02*
X128250000Y-86260000D01*
X127600000Y-83140000D02*
X128250000Y-83140000D01*
X127600000Y-86260000D02*
X126950000Y-86260000D01*
D15*
X92407500Y-86880000D02*
G75*
G03*
X92407500Y-86880000I-50000J0D01*
G01*
D12*
X134772936Y-90735000D02*
X135227064Y-90735000D01*
X134772936Y-89265000D02*
X135227064Y-89265000D01*
X119540000Y-57962500D02*
X119540000Y-62172500D01*
X122560000Y-62172500D02*
X122560000Y-57962500D01*
X122560000Y-57962500D02*
X119540000Y-57962500D01*
X156180000Y-56077500D02*
X159200000Y-56077500D01*
X156180000Y-51867500D02*
X156180000Y-56077500D01*
X159200000Y-56077500D02*
X159200000Y-51867500D01*
X112260000Y-58627500D02*
X112260000Y-62537500D01*
X114130000Y-62537500D02*
X114130000Y-58627500D01*
X114130000Y-58627500D02*
X112260000Y-58627500D01*
X149143641Y-48320000D02*
X148836359Y-48320000D01*
X149143641Y-47560000D02*
X148836359Y-47560000D01*
X108067064Y-66370000D02*
X107612936Y-66370000D01*
X108067064Y-67840000D02*
X107612936Y-67840000D01*
X91500000Y-77140000D02*
X92150000Y-77140000D01*
X91500000Y-77140000D02*
X89825000Y-77140000D01*
X91500000Y-80260000D02*
X92150000Y-80260000D01*
X91500000Y-80260000D02*
X90850000Y-80260000D01*
D10*
X82440000Y-61690000D02*
X83090000Y-61690000D01*
X92515000Y-55940000D02*
X92515000Y-54340000D01*
X93090000Y-61690000D02*
X92440000Y-61690000D01*
X82440000Y-55940000D02*
X83090000Y-55940000D01*
X82440000Y-55940000D02*
X82440000Y-61690000D01*
X93090000Y-55940000D02*
X92515000Y-55940000D01*
X93090000Y-55940000D02*
X93090000Y-61690000D01*
D12*
X91114000Y-94162000D02*
X91114000Y-94132000D01*
X91114000Y-87702000D02*
X91114000Y-87732000D01*
X91114000Y-89632000D02*
X91114000Y-92232000D01*
X84654000Y-94162000D02*
X84654000Y-94132000D01*
X84654000Y-87732000D02*
X84654000Y-87702000D01*
X84654000Y-87702000D02*
X91114000Y-87702000D01*
X84654000Y-89632000D02*
X84654000Y-92232000D01*
X84654000Y-94162000D02*
X91114000Y-94162000D01*
X151850000Y-45696359D02*
X151850000Y-46003641D01*
X151090000Y-45696359D02*
X151090000Y-46003641D01*
X155162164Y-82080000D02*
X155377836Y-82080000D01*
X155162164Y-81360000D02*
X155377836Y-81360000D01*
D15*
X105990000Y-55480000D02*
G75*
G03*
X105990000Y-55480000I-50000J0D01*
G01*
D12*
X96175000Y-55274420D02*
X96175000Y-55555580D01*
X95155000Y-55274420D02*
X95155000Y-55555580D01*
X99740000Y-63305000D02*
X103650000Y-63305000D01*
X103650000Y-63305000D02*
X103650000Y-61435000D01*
X103650000Y-61435000D02*
X99740000Y-61435000D01*
X96365378Y-52255000D02*
X97164622Y-52255000D01*
X96365378Y-53375000D02*
X97164622Y-53375000D01*
X120740378Y-69110000D02*
X121539622Y-69110000D01*
X120740378Y-70230000D02*
X121539622Y-70230000D01*
X86340000Y-44150000D02*
X86340000Y-45480000D01*
X83740000Y-42820000D02*
X83740000Y-45480000D01*
X86340000Y-45480000D02*
X85010000Y-45480000D01*
X81140000Y-42820000D02*
X81140000Y-45480000D01*
X83740000Y-45480000D02*
X81140000Y-45480000D01*
X83740000Y-42820000D02*
X81140000Y-42820000D01*
D15*
X101417500Y-60470000D02*
G75*
G03*
X101417500Y-60470000I-50000J0D01*
G01*
D12*
X90836359Y-71830000D02*
X91143641Y-71830000D01*
X90836359Y-71070000D02*
X91143641Y-71070000D01*
X131230000Y-85860000D02*
X131230000Y-85210000D01*
X134350000Y-85860000D02*
X134350000Y-84185000D01*
X131230000Y-85860000D02*
X131230000Y-86510000D01*
X134350000Y-85860000D02*
X134350000Y-86510000D01*
D15*
X91160000Y-83000000D02*
G75*
G03*
X91160000Y-83000000I-50000J0D01*
G01*
D13*
X149300000Y-42340000D02*
X146700000Y-42340000D01*
D12*
X111925000Y-52477500D02*
X111925000Y-56387500D01*
X113795000Y-56387500D02*
X113795000Y-52477500D01*
X111925000Y-56387500D02*
X113795000Y-56387500D01*
D13*
X121370000Y-65010000D02*
X118770000Y-65010000D01*
D12*
X114720000Y-47352500D02*
X114720000Y-47042500D01*
X121130000Y-47552500D02*
X120630000Y-48052500D01*
X120630000Y-48052500D02*
X121630000Y-48052500D01*
X123540000Y-47042500D02*
X123540000Y-47352500D01*
X121630000Y-48052500D02*
X121130000Y-47552500D01*
X114720000Y-42832500D02*
X123540000Y-42832500D01*
X123540000Y-42832500D02*
X123540000Y-43142500D01*
X114720000Y-42832500D02*
X114720000Y-43142500D01*
X123540000Y-47352500D02*
X114720000Y-47352500D01*
X131220000Y-45236359D02*
X131220000Y-45543641D01*
X130460000Y-45236359D02*
X130460000Y-45543641D01*
D15*
X91160000Y-84800000D02*
G75*
G03*
X91160000Y-84800000I-50000J0D01*
G01*
D12*
X124770000Y-94430000D02*
X124770000Y-94400000D01*
X124770000Y-89900000D02*
X124770000Y-92500000D01*
X131230000Y-89900000D02*
X131230000Y-92500000D01*
X124770000Y-88000000D02*
X124770000Y-87970000D01*
X124770000Y-94430000D02*
X131230000Y-94430000D01*
X131230000Y-87970000D02*
X131230000Y-88000000D01*
X124770000Y-87970000D02*
X131230000Y-87970000D01*
X131230000Y-94430000D02*
X131230000Y-94400000D01*
X123540000Y-86372164D02*
X123540000Y-86587836D01*
X124260000Y-86372164D02*
X124260000Y-86587836D01*
X119153000Y-86587064D02*
X119153000Y-86132936D01*
X120623000Y-86587064D02*
X120623000Y-86132936D01*
X117070000Y-94859000D02*
X117070000Y-88439000D01*
X117070000Y-88439000D02*
X117450000Y-88439000D01*
X117070000Y-94859000D02*
X98830000Y-94859000D01*
X117070000Y-69114000D02*
X116070000Y-69114000D01*
X98830000Y-69894000D02*
X98830000Y-69114000D01*
X98830000Y-69114000D02*
X99830000Y-69114000D01*
X98830000Y-94859000D02*
X98830000Y-88439000D01*
X117070000Y-69894000D02*
X117070000Y-69114000D01*
D15*
X148830000Y-46690000D02*
G75*
G03*
X148830000Y-46690000I-50000J0D01*
G01*
X131300000Y-83240000D02*
G75*
G03*
X131300000Y-83240000I-50000J0D01*
G01*
D12*
X156270000Y-83306359D02*
X156270000Y-83613641D01*
X157030000Y-83306359D02*
X157030000Y-83613641D01*
X116000000Y-57922500D02*
X116000000Y-62132500D01*
X119020000Y-62132500D02*
X119020000Y-57922500D01*
X119020000Y-57922500D02*
X116000000Y-57922500D01*
X97255000Y-55274420D02*
X97255000Y-55555580D01*
X98275000Y-55274420D02*
X98275000Y-55555580D01*
X112015000Y-46952500D02*
X112015000Y-50862500D01*
X113885000Y-46952500D02*
X112015000Y-46952500D01*
X113885000Y-50862500D02*
X113885000Y-46952500D01*
X131558748Y-46825000D02*
X132081252Y-46825000D01*
X131558748Y-48295000D02*
X132081252Y-48295000D01*
X95963641Y-82180000D02*
X95656359Y-82180000D01*
X95963641Y-82940000D02*
X95656359Y-82940000D01*
X135406359Y-84220000D02*
X135713641Y-84220000D01*
X135406359Y-83460000D02*
X135713641Y-83460000D01*
X127653752Y-48215000D02*
X127131248Y-48215000D01*
X127653752Y-46745000D02*
X127131248Y-46745000D01*
X121810000Y-56667836D02*
X121810000Y-56452164D01*
X122530000Y-56667836D02*
X122530000Y-56452164D01*
D13*
X110440000Y-64220000D02*
X110440000Y-60220000D01*
X105340000Y-64220000D02*
X105340000Y-60220000D01*
D14*
X105485000Y-66665000D02*
G75*
G03*
X105485000Y-66665000I-100000J0D01*
G01*
D12*
X153818748Y-48095000D02*
X154341252Y-48095000D01*
X153818748Y-46625000D02*
X154341252Y-46625000D01*
X120600000Y-72336359D02*
X120600000Y-72643641D01*
X119840000Y-72336359D02*
X119840000Y-72643641D01*
D15*
X145217500Y-47950000D02*
G75*
G03*
X145217500Y-47950000I-50000J0D01*
G01*
D12*
X102370000Y-56566359D02*
X102370000Y-56873641D01*
X101610000Y-56566359D02*
X101610000Y-56873641D01*
X156852164Y-49300000D02*
X157067836Y-49300000D01*
X156852164Y-48580000D02*
X157067836Y-48580000D01*
X90816359Y-70790000D02*
X91123641Y-70790000D01*
X90816359Y-70030000D02*
X91123641Y-70030000D01*
D10*
X134800000Y-92110000D02*
X138400000Y-92110000D01*
X134300000Y-92610000D02*
X134800000Y-92110000D01*
X134300000Y-93410000D02*
X134300000Y-92610000D01*
X138900000Y-92610000D02*
X138900000Y-93410000D01*
X138400000Y-92110000D02*
X138900000Y-92610000D01*
X138400000Y-93910000D02*
X134800000Y-93910000D01*
X134800000Y-93910000D02*
X134300000Y-93410000D01*
X138900000Y-93410000D02*
X138400000Y-93910000D01*
D12*
X135723641Y-85350000D02*
X135416359Y-85350000D01*
X135723641Y-84590000D02*
X135416359Y-84590000D01*
X108340000Y-44420000D02*
X108340000Y-42160000D01*
X109180000Y-48380000D02*
X109180000Y-49980000D01*
X108900000Y-48380000D02*
X108900000Y-49595000D01*
X108900000Y-48380000D02*
X109180000Y-48380000D01*
X105740000Y-44420000D02*
X105740000Y-46020000D01*
X103980000Y-42160000D02*
X103980000Y-49980000D01*
X108340000Y-44420000D02*
X108340000Y-46020000D01*
X107540000Y-46520000D02*
X106540000Y-46520000D01*
X105740000Y-46020000D02*
X104740000Y-46020000D01*
X109340000Y-44420000D02*
X108340000Y-44420000D01*
X109180000Y-49980000D02*
X110100000Y-49980000D01*
X104900000Y-49980000D02*
X104900000Y-48380000D01*
X108840000Y-44420000D02*
X108840000Y-42160000D01*
X104900000Y-48380000D02*
X105180000Y-48380000D01*
X108340000Y-46020000D02*
X109340000Y-46020000D01*
X104740000Y-44420000D02*
X105740000Y-44420000D01*
X103980000Y-48380000D02*
X104900000Y-48380000D01*
X110100000Y-42160000D02*
X103980000Y-42160000D01*
X106540000Y-46520000D02*
X106540000Y-42160000D01*
X110100000Y-48380000D02*
X109180000Y-48380000D01*
X103980000Y-49980000D02*
X104900000Y-49980000D01*
X104740000Y-46020000D02*
X104740000Y-44420000D01*
X110100000Y-49980000D02*
X110100000Y-42160000D01*
X107540000Y-42160000D02*
X107540000Y-46520000D01*
X109340000Y-46020000D02*
X109340000Y-44420000D01*
X108920000Y-56573641D02*
X108920000Y-56266359D01*
X108160000Y-56573641D02*
X108160000Y-56266359D01*
M02*
