M48
INCH,TZ
T1C0.0157
T2C0.0197
T3C0.0217
T4C0.0295
T5C0.0315
T6C0.0394
T7C0.0591
T8C0.0787
%
G90
G05
T1
X26315Y-25551
X28642Y-27102
X33402Y-25224
X33823Y-31858
X34378Y-20835
X34433Y-25264
X34898Y-27724
X35189Y-27327
X35197Y-20921
X36108Y-33863
X36201Y-20945
X36201Y-26969
X36382Y-18894
X36445Y-35972
X36947Y-22931
X36949Y-28858
X36976Y-22126
X37433Y-28724
X37443Y-22892
X38433Y-24551
X38496Y-22602
X40016Y-32862
X40098Y-32335
X40260Y-34339
X41043Y-23803
X41213Y-26654
X42177Y-21752
X42236Y-22496
X43228Y-26110
X43551Y-19913
X43815Y-24496
X44124Y-33789
X44433Y-22528
X44724Y-33311
X45890Y-26358
X46024Y-25850
X46433Y-21004
X46691Y-33850
X46691Y-25140
X46724Y-29193
X46760Y-28362
X46791Y-31894
X47197Y-31311
X47852Y-25136
X47925Y-19768
X48179Y-23872
X48291Y-21795
X48323Y-25024
X48457Y-33535
X48598Y-36059
X49252Y-33354
X49650Y-25732
X49770Y-17994
X50043Y-30858
X52780Y-34803
X53055Y-18512
X53988Y-33008
X54045Y-33923
X54677Y-32323
X56913Y-17106
X56929Y-36268
X58807Y-18524
X59291Y-35925
X59961Y-31953
X59998Y-34018
X60476Y-36260
X60487Y-19828
X60632Y-31675
X60665Y-33799
X61035Y-33441
X61173Y-31445
X61189Y-20335
X61677Y-33378
X61988Y-33791
X62083Y-24598
X62102Y-19697
T4
X41748Y-19102
X42535Y-19102
T5
X46114Y-17753
X46902Y-17753
X47689Y-17753
X53280Y-36618
X54280Y-36618
T6
X24803Y-24551
X24803Y-25551
X24803Y-26551
X24803Y-27551
X24803Y-28551
X24803Y-29551
X24803Y-30551
X32469Y-17382
X33469Y-17382
T7
X45287Y-17753
X48516Y-17753
T8
X24606Y-17520
X24606Y-36417
X62008Y-17520
X62012Y-36413
T2
G00X35520Y-17236
M15
G01X35520Y-16980
M16
G05
G00X38276Y-17236
M15
G01X38276Y-16980
M16
G05
T3
G00X35972Y-18171
M15
G01X35854Y-18171
M16
G05
G00X37941Y-18171
M15
G01X37823Y-18171
M16
G05
T0
M30
