G04 #@! TF.GenerationSoftware,KiCad,Pcbnew,(6.0.1-0)*
G04 #@! TF.CreationDate,2023-01-13T10:30:12+06:00*
G04 #@! TF.ProjectId,ESP_GSM,4553505f-4753-44d2-9e6b-696361645f70,rev?*
G04 #@! TF.SameCoordinates,Original*
G04 #@! TF.FileFunction,Copper,L1,Top*
G04 #@! TF.FilePolarity,Positive*
%FSLAX46Y46*%
G04 Gerber Fmt 4.6, Leading zero omitted, Abs format (unit mm)*
G04 Created by KiCad (PCBNEW (6.0.1-0)) date 2023-01-13 10:30:12*
%MOMM*%
%LPD*%
G01*
G04 APERTURE LIST*
G04 Aperture macros list*
%AMRoundRect*
0 Rectangle with rounded corners*
0 $1 Rounding radius*
0 $2 $3 $4 $5 $6 $7 $8 $9 X,Y pos of 4 corners*
0 Add a 4 corners polygon primitive as box body*
4,1,4,$2,$3,$4,$5,$6,$7,$8,$9,$2,$3,0*
0 Add four circle primitives for the rounded corners*
1,1,$1+$1,$2,$3*
1,1,$1+$1,$4,$5*
1,1,$1+$1,$6,$7*
1,1,$1+$1,$8,$9*
0 Add four rect primitives between the rounded corners*
20,1,$1+$1,$2,$3,$4,$5,0*
20,1,$1+$1,$4,$5,$6,$7,0*
20,1,$1+$1,$6,$7,$8,$9,0*
20,1,$1+$1,$8,$9,$2,$3,0*%
G04 Aperture macros list end*
G04 #@! TA.AperFunction,SMDPad,CuDef*
%ADD10RoundRect,0.135000X-0.185000X0.135000X-0.185000X-0.135000X0.185000X-0.135000X0.185000X0.135000X0*%
G04 #@! TD*
G04 #@! TA.AperFunction,SMDPad,CuDef*
%ADD11R,1.500000X2.000000*%
G04 #@! TD*
G04 #@! TA.AperFunction,SMDPad,CuDef*
%ADD12R,3.800000X2.000000*%
G04 #@! TD*
G04 #@! TA.AperFunction,SMDPad,CuDef*
%ADD13RoundRect,0.250000X-0.262500X-0.450000X0.262500X-0.450000X0.262500X0.450000X-0.262500X0.450000X0*%
G04 #@! TD*
G04 #@! TA.AperFunction,SMDPad,CuDef*
%ADD14O,0.600000X1.800000*%
G04 #@! TD*
G04 #@! TA.AperFunction,SMDPad,CuDef*
%ADD15O,1.800000X0.600000*%
G04 #@! TD*
G04 #@! TA.AperFunction,SMDPad,CuDef*
%ADD16R,1.100000X2.250000*%
G04 #@! TD*
G04 #@! TA.AperFunction,SMDPad,CuDef*
%ADD17R,1.050000X1.100000*%
G04 #@! TD*
G04 #@! TA.AperFunction,SMDPad,CuDef*
%ADD18RoundRect,0.135000X0.135000X0.185000X-0.135000X0.185000X-0.135000X-0.185000X0.135000X-0.185000X0*%
G04 #@! TD*
G04 #@! TA.AperFunction,SMDPad,CuDef*
%ADD19RoundRect,0.250000X-0.925000X0.412500X-0.925000X-0.412500X0.925000X-0.412500X0.925000X0.412500X0*%
G04 #@! TD*
G04 #@! TA.AperFunction,SMDPad,CuDef*
%ADD20RoundRect,0.140000X-0.170000X0.140000X-0.170000X-0.140000X0.170000X-0.140000X0.170000X0.140000X0*%
G04 #@! TD*
G04 #@! TA.AperFunction,SMDPad,CuDef*
%ADD21RoundRect,0.140000X-0.140000X-0.170000X0.140000X-0.170000X0.140000X0.170000X-0.140000X0.170000X0*%
G04 #@! TD*
G04 #@! TA.AperFunction,SMDPad,CuDef*
%ADD22RoundRect,0.135000X-0.135000X-0.185000X0.135000X-0.185000X0.135000X0.185000X-0.135000X0.185000X0*%
G04 #@! TD*
G04 #@! TA.AperFunction,SMDPad,CuDef*
%ADD23RoundRect,0.250000X-0.450000X0.262500X-0.450000X-0.262500X0.450000X-0.262500X0.450000X0.262500X0*%
G04 #@! TD*
G04 #@! TA.AperFunction,SMDPad,CuDef*
%ADD24RoundRect,0.218750X0.381250X-0.218750X0.381250X0.218750X-0.381250X0.218750X-0.381250X-0.218750X0*%
G04 #@! TD*
G04 #@! TA.AperFunction,SMDPad,CuDef*
%ADD25R,0.400000X1.350000*%
G04 #@! TD*
G04 #@! TA.AperFunction,ComponentPad*
%ADD26O,0.890000X1.550000*%
G04 #@! TD*
G04 #@! TA.AperFunction,SMDPad,CuDef*
%ADD27R,1.500000X1.550000*%
G04 #@! TD*
G04 #@! TA.AperFunction,SMDPad,CuDef*
%ADD28R,1.200000X1.550000*%
G04 #@! TD*
G04 #@! TA.AperFunction,ComponentPad*
%ADD29O,1.250000X0.950000*%
G04 #@! TD*
G04 #@! TA.AperFunction,SMDPad,CuDef*
%ADD30RoundRect,0.147500X-0.172500X0.147500X-0.172500X-0.147500X0.172500X-0.147500X0.172500X0.147500X0*%
G04 #@! TD*
G04 #@! TA.AperFunction,SMDPad,CuDef*
%ADD31RoundRect,0.140000X0.170000X-0.140000X0.170000X0.140000X-0.170000X0.140000X-0.170000X-0.140000X0*%
G04 #@! TD*
G04 #@! TA.AperFunction,SMDPad,CuDef*
%ADD32R,1.000000X1.100000*%
G04 #@! TD*
G04 #@! TA.AperFunction,SMDPad,CuDef*
%ADD33R,1.000000X3.000000*%
G04 #@! TD*
G04 #@! TA.AperFunction,ComponentPad*
%ADD34R,1.700000X1.700000*%
G04 #@! TD*
G04 #@! TA.AperFunction,ComponentPad*
%ADD35O,1.700000X1.700000*%
G04 #@! TD*
G04 #@! TA.AperFunction,SMDPad,CuDef*
%ADD36RoundRect,0.150000X-0.587500X-0.150000X0.587500X-0.150000X0.587500X0.150000X-0.587500X0.150000X0*%
G04 #@! TD*
G04 #@! TA.AperFunction,SMDPad,CuDef*
%ADD37RoundRect,0.250000X-0.337500X-0.475000X0.337500X-0.475000X0.337500X0.475000X-0.337500X0.475000X0*%
G04 #@! TD*
G04 #@! TA.AperFunction,SMDPad,CuDef*
%ADD38RoundRect,0.147500X-0.147500X-0.172500X0.147500X-0.172500X0.147500X0.172500X-0.147500X0.172500X0*%
G04 #@! TD*
G04 #@! TA.AperFunction,SMDPad,CuDef*
%ADD39RoundRect,0.250000X0.925000X-0.412500X0.925000X0.412500X-0.925000X0.412500X-0.925000X-0.412500X0*%
G04 #@! TD*
G04 #@! TA.AperFunction,SMDPad,CuDef*
%ADD40RoundRect,0.250000X-0.425000X0.450000X-0.425000X-0.450000X0.425000X-0.450000X0.425000X0.450000X0*%
G04 #@! TD*
G04 #@! TA.AperFunction,SMDPad,CuDef*
%ADD41RoundRect,0.250000X0.262500X0.450000X-0.262500X0.450000X-0.262500X-0.450000X0.262500X-0.450000X0*%
G04 #@! TD*
G04 #@! TA.AperFunction,SMDPad,CuDef*
%ADD42R,0.450000X1.750000*%
G04 #@! TD*
G04 #@! TA.AperFunction,SMDPad,CuDef*
%ADD43R,1.550000X1.300000*%
G04 #@! TD*
G04 #@! TA.AperFunction,SMDPad,CuDef*
%ADD44RoundRect,0.225000X-0.250000X0.225000X-0.250000X-0.225000X0.250000X-0.225000X0.250000X0.225000X0*%
G04 #@! TD*
G04 #@! TA.AperFunction,SMDPad,CuDef*
%ADD45RoundRect,0.250000X0.450000X0.425000X-0.450000X0.425000X-0.450000X-0.425000X0.450000X-0.425000X0*%
G04 #@! TD*
G04 #@! TA.AperFunction,SMDPad,CuDef*
%ADD46RoundRect,0.218750X-0.218750X-0.381250X0.218750X-0.381250X0.218750X0.381250X-0.218750X0.381250X0*%
G04 #@! TD*
G04 #@! TA.AperFunction,SMDPad,CuDef*
%ADD47RoundRect,0.150000X-0.150000X0.587500X-0.150000X-0.587500X0.150000X-0.587500X0.150000X0.587500X0*%
G04 #@! TD*
G04 #@! TA.AperFunction,SMDPad,CuDef*
%ADD48RoundRect,0.250000X0.425000X-0.450000X0.425000X0.450000X-0.425000X0.450000X-0.425000X-0.450000X0*%
G04 #@! TD*
G04 #@! TA.AperFunction,ComponentPad*
%ADD49O,2.200000X3.500000*%
G04 #@! TD*
G04 #@! TA.AperFunction,ComponentPad*
%ADD50R,1.500000X2.500000*%
G04 #@! TD*
G04 #@! TA.AperFunction,ComponentPad*
%ADD51O,1.500000X2.500000*%
G04 #@! TD*
G04 #@! TA.AperFunction,SMDPad,CuDef*
%ADD52RoundRect,0.250000X0.450000X-0.262500X0.450000X0.262500X-0.450000X0.262500X-0.450000X-0.262500X0*%
G04 #@! TD*
G04 #@! TA.AperFunction,SMDPad,CuDef*
%ADD53R,2.000000X0.900000*%
G04 #@! TD*
G04 #@! TA.AperFunction,SMDPad,CuDef*
%ADD54R,0.900000X2.000000*%
G04 #@! TD*
G04 #@! TA.AperFunction,SMDPad,CuDef*
%ADD55R,5.000000X5.000000*%
G04 #@! TD*
G04 #@! TA.AperFunction,SMDPad,CuDef*
%ADD56RoundRect,0.147500X0.147500X0.172500X-0.147500X0.172500X-0.147500X-0.172500X0.147500X-0.172500X0*%
G04 #@! TD*
G04 #@! TA.AperFunction,SMDPad,CuDef*
%ADD57RoundRect,0.250000X0.337500X0.475000X-0.337500X0.475000X-0.337500X-0.475000X0.337500X-0.475000X0*%
G04 #@! TD*
G04 #@! TA.AperFunction,SMDPad,CuDef*
%ADD58RoundRect,0.042000X0.258000X-0.943000X0.258000X0.943000X-0.258000X0.943000X-0.258000X-0.943000X0*%
G04 #@! TD*
G04 #@! TA.AperFunction,SMDPad,CuDef*
%ADD59R,3.302000X2.413000*%
G04 #@! TD*
G04 #@! TA.AperFunction,ComponentPad*
%ADD60C,1.400000*%
G04 #@! TD*
G04 #@! TA.AperFunction,ComponentPad*
%ADD61RoundRect,0.250000X0.350000X0.625000X-0.350000X0.625000X-0.350000X-0.625000X0.350000X-0.625000X0*%
G04 #@! TD*
G04 #@! TA.AperFunction,ComponentPad*
%ADD62O,1.200000X1.750000*%
G04 #@! TD*
G04 #@! TA.AperFunction,SMDPad,CuDef*
%ADD63RoundRect,0.135000X0.185000X-0.135000X0.185000X0.135000X-0.185000X0.135000X-0.185000X-0.135000X0*%
G04 #@! TD*
G04 #@! TA.AperFunction,ViaPad*
%ADD64C,0.800000*%
G04 #@! TD*
G04 #@! TA.AperFunction,Conductor*
%ADD65C,0.250000*%
G04 #@! TD*
G04 #@! TA.AperFunction,Conductor*
%ADD66C,0.295910*%
G04 #@! TD*
G04 #@! TA.AperFunction,Conductor*
%ADD67C,1.000000*%
G04 #@! TD*
G04 #@! TA.AperFunction,Conductor*
%ADD68C,0.500000*%
G04 #@! TD*
G04 #@! TA.AperFunction,Conductor*
%ADD69C,0.200000*%
G04 #@! TD*
G04 APERTURE END LIST*
D10*
X138840000Y-47010000D03*
X138840000Y-48030000D03*
D11*
X120240000Y-50180000D03*
D12*
X117940000Y-56480000D03*
D11*
X117940000Y-50180000D03*
X115640000Y-50180000D03*
D13*
X86087500Y-77800000D03*
X87912500Y-77800000D03*
D14*
X129820000Y-79960000D03*
X130820000Y-79960000D03*
X131820000Y-79960000D03*
X132820000Y-79960000D03*
X133820000Y-79960000D03*
X134820000Y-79960000D03*
X135820000Y-79960000D03*
X136820000Y-79960000D03*
X137820000Y-79960000D03*
X138820000Y-79960000D03*
X139820000Y-79960000D03*
X140820000Y-79960000D03*
X141820000Y-79960000D03*
X142820000Y-79960000D03*
X143820000Y-79960000D03*
X144820000Y-79960000D03*
X145820000Y-79960000D03*
X146820000Y-79960000D03*
X147820000Y-79960000D03*
X148820000Y-79960000D03*
D15*
X154420000Y-74360000D03*
X154420000Y-73360000D03*
X154420000Y-72360000D03*
X154420000Y-71360000D03*
X154420000Y-70360000D03*
X154420000Y-69360000D03*
X154420000Y-68360000D03*
X154420000Y-67360000D03*
X154420000Y-66360000D03*
X154420000Y-65360000D03*
X154420000Y-64360000D03*
X154420000Y-63360000D03*
X154420000Y-62360000D03*
X154420000Y-61360000D03*
X154420000Y-60360000D03*
X154420000Y-59360000D03*
X154420000Y-58360000D03*
X154420000Y-57360000D03*
X154420000Y-56360000D03*
X154420000Y-55360000D03*
D14*
X148820000Y-49760000D03*
X147820000Y-49760000D03*
X146820000Y-49760000D03*
X145820000Y-49760000D03*
X144820000Y-49760000D03*
X143820000Y-49760000D03*
X142820000Y-49760000D03*
X141820000Y-49760000D03*
X140820000Y-49760000D03*
X139820000Y-49760000D03*
X138820000Y-49760000D03*
X137820000Y-49760000D03*
X136820000Y-49760000D03*
X135820000Y-49760000D03*
X134820000Y-49760000D03*
X133820000Y-49760000D03*
X132820000Y-49760000D03*
X131820000Y-49760000D03*
X130820000Y-49760000D03*
X129820000Y-49760000D03*
D15*
X124220000Y-55360000D03*
X124220000Y-56360000D03*
X124220000Y-57360000D03*
X124220000Y-58360000D03*
X124220000Y-59360000D03*
X124220000Y-60360000D03*
X124220000Y-61360000D03*
X124220000Y-62360000D03*
X124220000Y-63360000D03*
X124220000Y-64360000D03*
X124220000Y-65360000D03*
X124220000Y-66360000D03*
X124220000Y-67360000D03*
X124220000Y-68360000D03*
X124220000Y-69360000D03*
X124220000Y-70360000D03*
X124220000Y-71360000D03*
X124220000Y-72360000D03*
X124220000Y-73360000D03*
X124220000Y-74360000D03*
D14*
X149820000Y-79960000D03*
X149820000Y-49760000D03*
D15*
X154420000Y-54360000D03*
X154420000Y-75360000D03*
D14*
X128820000Y-49760000D03*
D15*
X124220000Y-75360000D03*
X124220000Y-54360000D03*
D10*
X152260000Y-82970000D03*
X152260000Y-83990000D03*
D16*
X126395000Y-43690000D03*
X129345000Y-43690000D03*
D17*
X127870000Y-45240000D03*
D18*
X96280000Y-87260000D03*
X95260000Y-87260000D03*
D19*
X157690000Y-57385000D03*
X157690000Y-60460000D03*
D10*
X154800000Y-82940000D03*
X154800000Y-83960000D03*
D20*
X121800000Y-85090000D03*
X121800000Y-86050000D03*
D21*
X131830000Y-81950000D03*
X132790000Y-81950000D03*
D22*
X136520000Y-47020000D03*
X137540000Y-47020000D03*
D23*
X121610000Y-80647500D03*
X121610000Y-82472500D03*
D10*
X155870000Y-88820000D03*
X155870000Y-89840000D03*
D24*
X122060000Y-73472500D03*
X122060000Y-71347500D03*
D18*
X96350000Y-84810000D03*
X95330000Y-84810000D03*
D25*
X95020000Y-46155000D03*
X94370000Y-46155000D03*
X93720000Y-46155000D03*
X93070000Y-46155000D03*
X92420000Y-46155000D03*
D26*
X97220000Y-43455000D03*
D27*
X92720000Y-43455000D03*
D28*
X96620000Y-43455000D03*
D29*
X96220000Y-46155000D03*
D27*
X94720000Y-43455000D03*
D29*
X91220000Y-46155000D03*
D26*
X90220000Y-43455000D03*
D28*
X90820000Y-43455000D03*
D30*
X94400000Y-69415000D03*
X94400000Y-70385000D03*
D31*
X82200000Y-91380000D03*
X82200000Y-90420000D03*
D32*
X148040000Y-93900000D03*
X145500000Y-93900000D03*
X142960000Y-93900000D03*
D33*
X150800000Y-88000000D03*
D32*
X148040000Y-82100000D03*
X145500000Y-82100000D03*
X142960000Y-82100000D03*
D33*
X140200000Y-88000000D03*
D34*
X63000000Y-77600000D03*
D35*
X63000000Y-75060000D03*
X63000000Y-72520000D03*
X63000000Y-69980000D03*
X63000000Y-67440000D03*
X63000000Y-64900000D03*
X63000000Y-62360000D03*
D10*
X153950000Y-89180000D03*
X153950000Y-90200000D03*
D30*
X96900000Y-69415000D03*
X96900000Y-70385000D03*
D10*
X153350000Y-82970000D03*
X153350000Y-83990000D03*
D36*
X141962500Y-45740000D03*
X141962500Y-47640000D03*
X143837500Y-46690000D03*
D37*
X151882500Y-43770000D03*
X153957500Y-43770000D03*
D36*
X126662500Y-83750000D03*
X126662500Y-85650000D03*
X128537500Y-84700000D03*
D38*
X92962500Y-86880000D03*
X93932500Y-86880000D03*
D13*
X134087500Y-90000000D03*
X135912500Y-90000000D03*
D19*
X121050000Y-58885000D03*
X121050000Y-61960000D03*
D39*
X157690000Y-55155000D03*
X157690000Y-52080000D03*
D40*
X113195000Y-59587500D03*
X113195000Y-62287500D03*
D18*
X149500000Y-47940000D03*
X148480000Y-47940000D03*
D41*
X108752500Y-67105000D03*
X106927500Y-67105000D03*
D36*
X90562500Y-77750000D03*
X90562500Y-79650000D03*
X92437500Y-78700000D03*
D42*
X91990000Y-55215000D03*
X91340000Y-55215000D03*
X90690000Y-55215000D03*
X90040000Y-55215000D03*
X89390000Y-55215000D03*
X88740000Y-55215000D03*
X88090000Y-55215000D03*
X87440000Y-55215000D03*
X86790000Y-55215000D03*
X86140000Y-55215000D03*
X85490000Y-55215000D03*
X84840000Y-55215000D03*
X84190000Y-55215000D03*
X83540000Y-55215000D03*
X83540000Y-62415000D03*
X84190000Y-62415000D03*
X84840000Y-62415000D03*
X85490000Y-62415000D03*
X86140000Y-62415000D03*
X86790000Y-62415000D03*
X87440000Y-62415000D03*
X88090000Y-62415000D03*
X88740000Y-62415000D03*
X89390000Y-62415000D03*
X90040000Y-62415000D03*
X90690000Y-62415000D03*
X91340000Y-62415000D03*
X91990000Y-62415000D03*
D43*
X83904000Y-88682000D03*
X91864000Y-88682000D03*
X83904000Y-93182000D03*
X91864000Y-93182000D03*
D10*
X151470000Y-45340000D03*
X151470000Y-46360000D03*
D21*
X154790000Y-81720000D03*
X155750000Y-81720000D03*
D30*
X105940000Y-56085000D03*
X105940000Y-57055000D03*
D44*
X95665000Y-54640000D03*
X95665000Y-56190000D03*
D45*
X102690000Y-62370000D03*
X99990000Y-62370000D03*
D46*
X95702500Y-52815000D03*
X97827500Y-52815000D03*
X120077500Y-69670000D03*
X122202500Y-69670000D03*
D34*
X85010000Y-44150000D03*
D35*
X82470000Y-44150000D03*
D38*
X101972500Y-60470000D03*
X102942500Y-60470000D03*
D22*
X90480000Y-71450000D03*
X91500000Y-71450000D03*
D47*
X133740000Y-84922500D03*
X131840000Y-84922500D03*
X132790000Y-86797500D03*
D38*
X91715000Y-83000000D03*
X92685000Y-83000000D03*
D16*
X146525000Y-43640000D03*
X149475000Y-43640000D03*
D17*
X148000000Y-45190000D03*
D48*
X112860000Y-55427500D03*
X112860000Y-52727500D03*
D16*
X118595000Y-66310000D03*
X121545000Y-66310000D03*
D17*
X120070000Y-67860000D03*
D49*
X123230000Y-45092500D03*
X115030000Y-45092500D03*
D50*
X121130000Y-45092500D03*
D51*
X119130000Y-45092500D03*
X117130000Y-45092500D03*
D10*
X130840000Y-44880000D03*
X130840000Y-45900000D03*
D38*
X91715000Y-84800000D03*
X92685000Y-84800000D03*
D43*
X124020000Y-88950000D03*
X131980000Y-88950000D03*
X124020000Y-93450000D03*
X131980000Y-93450000D03*
D20*
X123900000Y-86000000D03*
X123900000Y-86960000D03*
D52*
X119888000Y-87272500D03*
X119888000Y-85447500D03*
D53*
X116450000Y-87249000D03*
X116450000Y-85979000D03*
X116450000Y-84709000D03*
X116450000Y-83439000D03*
X116450000Y-82169000D03*
X116450000Y-80899000D03*
X116450000Y-79629000D03*
X116450000Y-78359000D03*
X116450000Y-77089000D03*
X116450000Y-75819000D03*
X116450000Y-74549000D03*
X116450000Y-73279000D03*
X116450000Y-72009000D03*
X116450000Y-70739000D03*
D54*
X113665000Y-69739000D03*
X112395000Y-69739000D03*
X111125000Y-69739000D03*
X109855000Y-69739000D03*
X108585000Y-69739000D03*
X107315000Y-69739000D03*
X106045000Y-69739000D03*
X104775000Y-69739000D03*
X103505000Y-69739000D03*
X102235000Y-69739000D03*
D53*
X99450000Y-70739000D03*
X99450000Y-72009000D03*
X99450000Y-73279000D03*
X99450000Y-74549000D03*
X99450000Y-75819000D03*
X99450000Y-77089000D03*
X99450000Y-78359000D03*
X99450000Y-79629000D03*
X99450000Y-80899000D03*
X99450000Y-82169000D03*
X99450000Y-83439000D03*
X99450000Y-84709000D03*
X99450000Y-85979000D03*
X99450000Y-87249000D03*
D55*
X108950000Y-79749000D03*
D56*
X148175000Y-46690000D03*
X147205000Y-46690000D03*
D38*
X131855000Y-83240000D03*
X132825000Y-83240000D03*
D10*
X156650000Y-82950000D03*
X156650000Y-83970000D03*
D19*
X117510000Y-58845000D03*
X117510000Y-61920000D03*
D44*
X97765000Y-54640000D03*
X97765000Y-56190000D03*
D40*
X112950000Y-47912500D03*
X112950000Y-50612500D03*
D37*
X130782500Y-47560000D03*
X132857500Y-47560000D03*
D18*
X96320000Y-82560000D03*
X95300000Y-82560000D03*
D22*
X135050000Y-83840000D03*
X136070000Y-83840000D03*
D57*
X128430000Y-47480000D03*
X126355000Y-47480000D03*
D31*
X122170000Y-57040000D03*
X122170000Y-56080000D03*
D58*
X105985000Y-64695000D03*
X107255000Y-64695000D03*
X108525000Y-64695000D03*
X109795000Y-64695000D03*
X109795000Y-59745000D03*
X108525000Y-59745000D03*
X107255000Y-59745000D03*
X105985000Y-59745000D03*
D59*
X107890000Y-62220000D03*
D37*
X153042500Y-47360000D03*
X155117500Y-47360000D03*
D10*
X120220000Y-71980000D03*
X120220000Y-73000000D03*
D38*
X145772500Y-47950000D03*
X146742500Y-47950000D03*
D10*
X101990000Y-56210000D03*
X101990000Y-57230000D03*
D21*
X156480000Y-48940000D03*
X157440000Y-48940000D03*
D22*
X90460000Y-70410000D03*
X91480000Y-70410000D03*
D60*
X135330000Y-93010000D03*
X137870000Y-93010000D03*
D18*
X136080000Y-84970000D03*
X135060000Y-84970000D03*
D61*
X108040000Y-48520000D03*
D62*
X106040000Y-48520000D03*
D63*
X108540000Y-56930000D03*
X108540000Y-55910000D03*
D64*
X127110000Y-78380000D03*
X134760000Y-47020000D03*
X123440000Y-91590000D03*
X144560000Y-43450000D03*
X152300000Y-81160000D03*
X137275000Y-86165000D03*
X121730000Y-50210000D03*
X155380000Y-79870000D03*
X123080000Y-85180000D03*
X92410000Y-47990000D03*
X121545000Y-63845000D03*
X155030000Y-84940000D03*
X111290000Y-62220000D03*
X152395000Y-86405000D03*
X87320000Y-52920000D03*
X97620000Y-62360000D03*
X102260000Y-87220000D03*
X118595000Y-63855000D03*
X157740000Y-50030000D03*
X110620000Y-50580000D03*
X97780000Y-57410000D03*
X87460000Y-64170000D03*
X157690000Y-62480000D03*
X126415000Y-45705000D03*
X91715000Y-86012500D03*
X156660000Y-84780000D03*
X153637500Y-50362500D03*
X122660000Y-55360000D03*
X138880000Y-82100000D03*
X112075000Y-85825000D03*
X93920000Y-56200000D03*
X92570000Y-91370000D03*
X122375000Y-60635000D03*
X104250000Y-60460000D03*
X109800000Y-66320000D03*
X118594500Y-85979000D03*
X66840000Y-64900000D03*
X117940000Y-53350000D03*
X112860000Y-57220000D03*
X155420000Y-51650000D03*
X149370000Y-47050000D03*
X85910000Y-80920000D03*
X113600000Y-84610000D03*
X89400000Y-53140000D03*
X101640000Y-83470000D03*
X89380000Y-69410000D03*
X101850000Y-82130000D03*
X91950000Y-68500000D03*
X91950000Y-53200000D03*
X93850000Y-73300000D03*
X93845000Y-58245000D03*
X125100000Y-84720000D03*
X118680000Y-74150000D03*
X95105000Y-58145000D03*
X95080000Y-72960000D03*
X107280000Y-57140000D03*
X107130000Y-55250000D03*
X153610000Y-92100000D03*
X154005000Y-80455000D03*
X122740000Y-63560000D03*
X116560000Y-66950000D03*
X116900000Y-65660000D03*
X126110000Y-65360000D03*
X118850000Y-81010000D03*
X134060006Y-88400001D03*
X118770000Y-72040000D03*
X104680000Y-67700000D03*
X72750000Y-68840000D03*
X84840000Y-64070000D03*
X88640000Y-70420000D03*
X157450003Y-85830004D03*
X154090000Y-85850000D03*
X144600000Y-92120000D03*
X150600000Y-91250000D03*
X137130000Y-83840000D03*
X119880000Y-79530000D03*
D65*
X112917500Y-50580000D02*
X110620000Y-50580000D01*
D66*
X148820000Y-51510000D02*
X148930000Y-51620000D01*
D65*
X89410000Y-64170000D02*
X87460000Y-64170000D01*
X157740000Y-52030000D02*
X157740000Y-50030000D01*
X154800000Y-83960000D02*
X155030000Y-84190000D01*
X138820000Y-82040000D02*
X138880000Y-82100000D01*
X122170000Y-55850000D02*
X122660000Y-55360000D01*
X151100000Y-79960000D02*
X152300000Y-81160000D01*
X152837500Y-42650000D02*
X153957500Y-43770000D01*
D66*
X125180000Y-74360000D02*
X124220000Y-74360000D01*
D65*
X112950000Y-50612500D02*
X112950000Y-52637500D01*
D67*
X107890000Y-62220000D02*
X113090000Y-62220000D01*
D65*
X139110000Y-88000000D02*
X136080000Y-84970000D01*
X91864000Y-92076000D02*
X92570000Y-91370000D01*
X108752500Y-67105000D02*
X112281000Y-67105000D01*
X138820000Y-79960000D02*
X138820000Y-82040000D01*
X128821784Y-42414980D02*
X129365000Y-42958196D01*
X155380000Y-79870000D02*
X155760000Y-80250000D01*
X108525000Y-66895000D02*
X108525000Y-64695000D01*
X97765000Y-56190000D02*
X97765000Y-57395000D01*
X149820000Y-79960000D02*
X151100000Y-79960000D01*
X121800000Y-85090000D02*
X122990000Y-85090000D01*
X139494520Y-78735480D02*
X142575480Y-78735480D01*
X127690000Y-78380000D02*
X127110000Y-78380000D01*
D66*
X122080000Y-69722500D02*
X122342500Y-69460000D01*
D65*
X154420000Y-58360000D02*
X155590000Y-58360000D01*
D66*
X153230000Y-51890000D02*
X153637500Y-51482500D01*
X92420000Y-47980000D02*
X92410000Y-47990000D01*
D65*
X157440000Y-48933070D02*
X157440000Y-48940000D01*
X153957500Y-46200000D02*
X155117500Y-47360000D01*
X91715000Y-83000000D02*
X91715000Y-84800000D01*
X121700000Y-50180000D02*
X121730000Y-50210000D01*
X108752500Y-67105000D02*
X108735000Y-67105000D01*
D66*
X124220000Y-72360000D02*
X124220000Y-71360000D01*
X147227500Y-46570000D02*
X143957500Y-46570000D01*
D65*
X113665000Y-68489000D02*
X113665000Y-69739000D01*
D66*
X153824090Y-55360000D02*
X154420000Y-55360000D01*
X121545000Y-66310000D02*
X121545000Y-65525732D01*
D65*
X126830132Y-42740000D02*
X126830132Y-42500000D01*
X132790000Y-81950000D02*
X132790000Y-83205000D01*
X149910000Y-43640000D02*
X150900000Y-42650000D01*
X122375000Y-60635000D02*
X121050000Y-61960000D01*
X129820000Y-79960000D02*
X129270000Y-79960000D01*
X124020000Y-93450000D02*
X124020000Y-92170000D01*
X131980000Y-93450000D02*
X124020000Y-93450000D01*
X157690000Y-60460000D02*
X157690000Y-62480000D01*
X108735000Y-67105000D02*
X108525000Y-66895000D01*
X133397500Y-47020000D02*
X132857500Y-47560000D01*
D66*
X119105643Y-65012025D02*
X118595000Y-65522668D01*
D65*
X149820000Y-80510000D02*
X148230000Y-82100000D01*
D66*
X146525000Y-43500000D02*
X146525000Y-45867500D01*
D65*
X138820000Y-79960000D02*
X138820000Y-79410000D01*
D66*
X126040000Y-71650000D02*
X126040000Y-73500000D01*
D65*
X157690000Y-62570000D02*
X157690000Y-62480000D01*
X123650000Y-59360000D02*
X122375000Y-60635000D01*
X132825000Y-83240000D02*
X133965000Y-82100000D01*
X86120000Y-64170000D02*
X87460000Y-64170000D01*
D66*
X118595000Y-65522668D02*
X118595000Y-66310000D01*
D65*
X149820000Y-79960000D02*
X149820000Y-80510000D01*
X142820000Y-78980000D02*
X142820000Y-79960000D01*
D66*
X153637500Y-51482500D02*
X153637500Y-50362500D01*
D65*
X88090000Y-55215000D02*
X88090000Y-53690000D01*
D66*
X146525000Y-43500000D02*
X146525000Y-42712668D01*
X143957500Y-46570000D02*
X143837500Y-46690000D01*
D65*
X108525000Y-64695000D02*
X108525000Y-63595000D01*
X124220000Y-58360000D02*
X124220000Y-59360000D01*
X132790000Y-86797500D02*
X136642500Y-86797500D01*
D66*
X121545000Y-68662500D02*
X121545000Y-66310000D01*
D65*
X122170000Y-56080000D02*
X122170000Y-55850000D01*
X126830132Y-42500000D02*
X126915152Y-42414980D01*
X112950000Y-52637500D02*
X112860000Y-52727500D01*
X133965000Y-82100000D02*
X138880000Y-82100000D01*
X129270000Y-79960000D02*
X127690000Y-78380000D01*
X92962500Y-86880000D02*
X92582500Y-86880000D01*
X108540000Y-62870000D02*
X107890000Y-62220000D01*
X113499000Y-87249000D02*
X108950000Y-82700000D01*
D66*
X153040000Y-54575910D02*
X153824090Y-55360000D01*
D65*
X148230000Y-82100000D02*
X148040000Y-82100000D01*
X108525000Y-63595000D02*
X108540000Y-63580000D01*
D66*
X146525000Y-45867500D02*
X147227500Y-46570000D01*
D65*
X99990000Y-62370000D02*
X97690000Y-62370000D01*
X108540000Y-63580000D02*
X108540000Y-62870000D01*
X91864000Y-93182000D02*
X91864000Y-92076000D01*
X156650000Y-84770000D02*
X156660000Y-84780000D01*
D66*
X118595000Y-63005000D02*
X117510000Y-61920000D01*
X121545000Y-65525732D02*
X121031293Y-65012025D01*
X131820000Y-49760000D02*
X132820000Y-49760000D01*
D65*
X140200000Y-88000000D02*
X139110000Y-88000000D01*
X129820000Y-49170000D02*
X129820000Y-49760000D01*
X112950000Y-50612500D02*
X112917500Y-50580000D01*
X142575480Y-78735480D02*
X142820000Y-78980000D01*
X132790000Y-83205000D02*
X132825000Y-83240000D01*
X126355000Y-47480000D02*
X126415000Y-47420000D01*
D66*
X122080000Y-71185000D02*
X122080000Y-69722500D01*
D65*
X126415000Y-43155132D02*
X126830132Y-42740000D01*
X87440000Y-64150000D02*
X87460000Y-64170000D01*
X116450000Y-87249000D02*
X113499000Y-87249000D01*
X155590000Y-58360000D02*
X157690000Y-60460000D01*
D66*
X153040000Y-53500000D02*
X153040000Y-54575910D01*
D65*
X83904000Y-93182000D02*
X91864000Y-93182000D01*
X90040000Y-63540000D02*
X89410000Y-64170000D01*
X132820000Y-49760000D02*
X132820000Y-47597500D01*
X155760000Y-80250000D02*
X155760000Y-81710000D01*
D66*
X153637500Y-52902500D02*
X153040000Y-53500000D01*
D65*
X150900000Y-42650000D02*
X152837500Y-42650000D01*
X138820000Y-79410000D02*
X139494520Y-78735480D01*
D66*
X121545000Y-66310000D02*
X121545000Y-63845000D01*
D65*
X126915152Y-42414980D02*
X128821784Y-42414980D01*
D66*
X147180000Y-51620000D02*
X148930000Y-51620000D01*
D65*
X157440000Y-48940000D02*
X157440000Y-49730000D01*
X126415000Y-45705000D02*
X126415000Y-43155132D01*
D66*
X149200000Y-51890000D02*
X153230000Y-51890000D01*
D65*
X149475000Y-43640000D02*
X149910000Y-43640000D01*
X155117500Y-47360000D02*
X155866930Y-47360000D01*
X85490000Y-62415000D02*
X85490000Y-63540000D01*
X99450000Y-87249000D02*
X102231000Y-87249000D01*
D66*
X148930000Y-51620000D02*
X149200000Y-51890000D01*
D65*
X126415000Y-47420000D02*
X126415000Y-45705000D01*
X153350000Y-84160000D02*
X153350000Y-85450000D01*
X153957500Y-43770000D02*
X153957500Y-46200000D01*
D66*
X148820000Y-49760000D02*
X148820000Y-51510000D01*
D65*
X129179520Y-48529520D02*
X127404520Y-48529520D01*
X88090000Y-53690000D02*
X87320000Y-52920000D01*
D66*
X121545000Y-62455000D02*
X121545000Y-63845000D01*
D65*
X108950000Y-82700000D02*
X108950000Y-79749000D01*
X97660000Y-62320000D02*
X97620000Y-62360000D01*
D66*
X122342500Y-69460000D02*
X121545000Y-68662500D01*
D65*
X155030000Y-84190000D02*
X155030000Y-84940000D01*
D66*
X146820000Y-49760000D02*
X146820000Y-51260000D01*
D65*
X97765000Y-57395000D02*
X97780000Y-57410000D01*
D66*
X126040000Y-73500000D02*
X125180000Y-74360000D01*
D65*
X95665000Y-56190000D02*
X93930000Y-56190000D01*
X112281000Y-67105000D02*
X113665000Y-68489000D01*
D66*
X121031293Y-65012025D02*
X119105643Y-65012025D01*
X149475000Y-42715732D02*
X149475000Y-43500000D01*
D65*
X90040000Y-62415000D02*
X90040000Y-63540000D01*
D66*
X146820000Y-51260000D02*
X147180000Y-51620000D01*
D65*
X157690000Y-52080000D02*
X157740000Y-52030000D01*
X136642500Y-86797500D02*
X137275000Y-86165000D01*
X127404520Y-48529520D02*
X126355000Y-47480000D01*
X132790000Y-81950000D02*
X133820000Y-80920000D01*
X129365000Y-42958196D02*
X129365000Y-43910000D01*
X124020000Y-92170000D02*
X123440000Y-91590000D01*
X155866930Y-47360000D02*
X157440000Y-48933070D01*
D66*
X122255000Y-71360000D02*
X122080000Y-71185000D01*
D65*
X153350000Y-85450000D02*
X150800000Y-88000000D01*
X153180000Y-83990000D02*
X153350000Y-84160000D01*
X120240000Y-50180000D02*
X121700000Y-50180000D01*
X85490000Y-63540000D02*
X86120000Y-64170000D01*
X122990000Y-85090000D02*
X123900000Y-86000000D01*
X82200000Y-91380000D02*
X84270000Y-93450000D01*
D66*
X144610000Y-43500000D02*
X144560000Y-43450000D01*
D65*
X133820000Y-80920000D02*
X133820000Y-79960000D01*
X117550000Y-61960000D02*
X117510000Y-61920000D01*
D66*
X121050000Y-61960000D02*
X121545000Y-62455000D01*
D65*
X124220000Y-59360000D02*
X123650000Y-59360000D01*
X121050000Y-61960000D02*
X117550000Y-61960000D01*
X87440000Y-62415000D02*
X87440000Y-64150000D01*
X102231000Y-87249000D02*
X102260000Y-87220000D01*
D66*
X153637500Y-51482500D02*
X153637500Y-52902500D01*
D65*
X129179520Y-48529520D02*
X129820000Y-49170000D01*
X129820000Y-50360000D02*
X129820000Y-49760000D01*
X155760000Y-81710000D02*
X155750000Y-81720000D01*
D66*
X125750000Y-71360000D02*
X126040000Y-71650000D01*
X146525000Y-43500000D02*
X144610000Y-43500000D01*
D65*
X124220000Y-55360000D02*
X122660000Y-55360000D01*
X156650000Y-83970000D02*
X156650000Y-84770000D01*
X130820000Y-79960000D02*
X129820000Y-79960000D01*
X91715000Y-84800000D02*
X91715000Y-86012500D01*
D66*
X118595000Y-66310000D02*
X118595000Y-63005000D01*
X92420000Y-46155000D02*
X92420000Y-47980000D01*
D65*
X157440000Y-49730000D02*
X157740000Y-50030000D01*
D66*
X124220000Y-71360000D02*
X122255000Y-71360000D01*
X124220000Y-71360000D02*
X125750000Y-71360000D01*
D65*
X93930000Y-56190000D02*
X93920000Y-56200000D01*
X132820000Y-47597500D02*
X132857500Y-47560000D01*
X136520000Y-47020000D02*
X133397500Y-47020000D01*
X92582500Y-86880000D02*
X91715000Y-86012500D01*
X95265000Y-59145000D02*
X88935000Y-59145000D01*
X109795000Y-64695000D02*
X109800000Y-64700000D01*
X88935000Y-59145000D02*
X86790000Y-61290000D01*
X86790000Y-61290000D02*
X86790000Y-62415000D01*
D68*
X109800000Y-64700000D02*
X109800000Y-66320000D01*
D65*
X96775000Y-55630000D02*
X96775000Y-57635000D01*
X96775000Y-57635000D02*
X95265000Y-59145000D01*
X97765000Y-54640000D02*
X96775000Y-55630000D01*
X112850000Y-57230000D02*
X112860000Y-57220000D01*
X117940000Y-56480000D02*
X117940000Y-50180000D01*
X112860000Y-55427500D02*
X112860000Y-57220000D01*
D66*
X118594500Y-85979000D02*
X116450000Y-85979000D01*
X119888000Y-87272500D02*
X118594500Y-85979000D01*
D65*
X63000000Y-64900000D02*
X66840000Y-64900000D01*
X149500000Y-47940000D02*
X149500000Y-47360000D01*
X157690000Y-54229993D02*
X157690000Y-55155000D01*
X149370000Y-47230000D02*
X149370000Y-47050000D01*
X149410000Y-47270000D02*
X149370000Y-47230000D01*
X157665000Y-57360000D02*
X157690000Y-57385000D01*
D67*
X119560000Y-47950000D02*
X115870000Y-47950000D01*
D68*
X112865000Y-59745000D02*
X113090000Y-59520000D01*
D67*
X121130000Y-46380000D02*
X119560000Y-47950000D01*
D65*
X149500000Y-47360000D02*
X149410000Y-47270000D01*
X156480000Y-50590000D02*
X155420000Y-51650000D01*
D67*
X115640000Y-48180000D02*
X115640000Y-50180000D01*
X121130000Y-45092500D02*
X121130000Y-46380000D01*
D65*
X155420000Y-51959993D02*
X157690000Y-54229993D01*
D68*
X109795000Y-59745000D02*
X112865000Y-59745000D01*
D65*
X156480000Y-48940000D02*
X156480000Y-50590000D01*
D67*
X115870000Y-47950000D02*
X115640000Y-48180000D01*
D65*
X126662500Y-85650000D02*
X129962500Y-88950000D01*
D66*
X121800000Y-86050000D02*
X122710000Y-86960000D01*
D65*
X85120000Y-80860000D02*
X85180000Y-80920000D01*
X129962500Y-88950000D02*
X131980000Y-88950000D01*
X123990000Y-88980000D02*
X124020000Y-88950000D01*
X85180000Y-80920000D02*
X85910000Y-80920000D01*
X126662500Y-85650000D02*
X125352500Y-86960000D01*
D66*
X119888000Y-85447500D02*
X119149500Y-84709000D01*
X122710000Y-86960000D02*
X123900000Y-86960000D01*
D65*
X63000000Y-72520000D02*
X76780000Y-72520000D01*
X123900000Y-88830000D02*
X124020000Y-88950000D01*
X113699000Y-84709000D02*
X116450000Y-84709000D01*
X76780000Y-72520000D02*
X85120000Y-80860000D01*
D66*
X120490500Y-86050000D02*
X121800000Y-86050000D01*
X119149500Y-84709000D02*
X116450000Y-84709000D01*
D65*
X125352500Y-86960000D02*
X123900000Y-86960000D01*
X113600000Y-84610000D02*
X113699000Y-84709000D01*
D66*
X119888000Y-85447500D02*
X120490500Y-86050000D01*
D65*
X123900000Y-86960000D02*
X123900000Y-88830000D01*
D68*
X92437500Y-78700000D02*
X92437500Y-77042500D01*
X96290000Y-73190000D02*
X96290000Y-72399000D01*
X91280000Y-82040000D02*
X84720000Y-88600000D01*
X96290000Y-72399000D02*
X97950000Y-70739000D01*
X92437500Y-80882500D02*
X91280000Y-82040000D01*
D65*
X83904000Y-88682000D02*
X91864000Y-88682000D01*
D68*
X97950000Y-70739000D02*
X99450000Y-70739000D01*
X92437500Y-77042500D02*
X96290000Y-73190000D01*
X92437500Y-78700000D02*
X92437500Y-80882500D01*
X83670000Y-88950000D02*
X82200000Y-90420000D01*
D65*
X108365000Y-56085000D02*
X105940000Y-56085000D01*
X108540000Y-55910000D02*
X108365000Y-56085000D01*
X101990000Y-57230000D02*
X101990000Y-60452500D01*
X101990000Y-60452500D02*
X101972500Y-60470000D01*
D66*
X89390000Y-53150000D02*
X89400000Y-53140000D01*
X101640000Y-83470000D02*
X99481000Y-83470000D01*
X89390000Y-55215000D02*
X89390000Y-53150000D01*
X94400000Y-69415000D02*
X89385000Y-69415000D01*
X99481000Y-83470000D02*
X99450000Y-83439000D01*
X89385000Y-69415000D02*
X89380000Y-69410000D01*
X96900000Y-69415000D02*
X96900000Y-68880000D01*
X91960000Y-68490000D02*
X91950000Y-68500000D01*
X96900000Y-68880000D02*
X96510000Y-68490000D01*
X99489000Y-82130000D02*
X99450000Y-82169000D01*
X91990000Y-53240000D02*
X91950000Y-53200000D01*
X96510000Y-68490000D02*
X91960000Y-68490000D01*
X91990000Y-55215000D02*
X91990000Y-53240000D01*
X101850000Y-82130000D02*
X99489000Y-82130000D01*
D69*
X94370000Y-47167501D02*
X94370000Y-46155000D01*
X84190000Y-61102499D02*
X84090000Y-61002499D01*
X84190000Y-62415000D02*
X84190000Y-61102499D01*
X86613200Y-49445000D02*
X93663200Y-49445000D01*
X84090000Y-61002499D02*
X84090000Y-59181800D01*
X81965000Y-57056800D02*
X81965000Y-54093200D01*
X94270000Y-47267501D02*
X94370000Y-47167501D01*
X84090000Y-59181800D02*
X81965000Y-57056800D01*
X81965000Y-54093200D02*
X86613200Y-49445000D01*
X94270000Y-48838200D02*
X94270000Y-47267501D01*
X93663200Y-49445000D02*
X94270000Y-48838200D01*
X93720000Y-47167501D02*
X93720000Y-46155000D01*
X81515000Y-57243200D02*
X81515000Y-53906800D01*
X93476800Y-48995000D02*
X93820000Y-48651800D01*
X93820000Y-48651800D02*
X93820000Y-47267501D01*
X83540000Y-62415000D02*
X83540000Y-61102499D01*
X83640000Y-61002499D02*
X83640000Y-59368200D01*
X93820000Y-47267501D02*
X93720000Y-47167501D01*
X81515000Y-53906800D02*
X86426800Y-48995000D01*
X83640000Y-59368200D02*
X81515000Y-57243200D01*
X83540000Y-61102499D02*
X83640000Y-61002499D01*
X86426800Y-48995000D02*
X93476800Y-48995000D01*
D65*
X126662500Y-83750000D02*
X125405000Y-82492500D01*
X125405000Y-82492500D02*
X121630000Y-82492500D01*
X121630000Y-82492500D02*
X121610000Y-82472500D01*
X90690000Y-56340000D02*
X90690000Y-55215000D01*
X92595000Y-58245000D02*
X90690000Y-56340000D01*
X90710489Y-76439511D02*
X87447989Y-76439511D01*
X93850000Y-73300000D02*
X90710489Y-76439511D01*
X93845000Y-58245000D02*
X92595000Y-58245000D01*
X125100000Y-84720000D02*
X128517500Y-84720000D01*
X87447989Y-76439511D02*
X86087500Y-77800000D01*
X128517500Y-84720000D02*
X128537500Y-84700000D01*
D68*
X90562500Y-77750000D02*
X87962500Y-77750000D01*
X87962500Y-77750000D02*
X87912500Y-77800000D01*
D65*
X84930000Y-78430000D02*
X86150000Y-79650000D01*
X95080000Y-72960000D02*
X94470000Y-72350000D01*
X121610000Y-77070000D02*
X118690000Y-74150000D01*
X84930000Y-77432507D02*
X84930000Y-78430000D01*
X86150000Y-79650000D02*
X90562500Y-79650000D01*
X88960000Y-75390000D02*
X86972507Y-75390000D01*
X86972507Y-75390000D02*
X84930000Y-77432507D01*
X121610000Y-80647500D02*
X121610000Y-77070000D01*
X91340000Y-55215000D02*
X91340000Y-56340000D01*
X91340000Y-56340000D02*
X92345000Y-57345000D01*
X92000000Y-72350000D02*
X88960000Y-75390000D01*
X94525000Y-57345000D02*
X95105000Y-57925000D01*
X92345000Y-57345000D02*
X94525000Y-57345000D01*
X118690000Y-74150000D02*
X118680000Y-74150000D01*
X94470000Y-72350000D02*
X92000000Y-72350000D01*
X95105000Y-57925000D02*
X95105000Y-58145000D01*
X106985000Y-67105000D02*
X107255000Y-66835000D01*
X107255000Y-66835000D02*
X107255000Y-64695000D01*
X106927500Y-67105000D02*
X106985000Y-67105000D01*
X108540000Y-59730000D02*
X108525000Y-59745000D01*
X108540000Y-56930000D02*
X108540000Y-59730000D01*
X107280000Y-57140000D02*
X107280000Y-59720000D01*
X103570000Y-54630000D02*
X106510000Y-54630000D01*
X107280000Y-59720000D02*
X107255000Y-59745000D01*
X101990000Y-56210000D02*
X103570000Y-54630000D01*
X106510000Y-54630000D02*
X107130000Y-55250000D01*
D66*
X127890000Y-45460000D02*
X129220000Y-45460000D01*
X129220000Y-45460000D02*
X130260000Y-45460000D01*
X128430000Y-47480000D02*
X128430000Y-47350000D01*
D65*
X127870000Y-46920000D02*
X128430000Y-47480000D01*
D66*
X130260000Y-45460000D02*
X130840000Y-44880000D01*
D65*
X127870000Y-45240000D02*
X127870000Y-46920000D01*
D66*
X120350000Y-72080000D02*
X120217500Y-71947500D01*
X120217500Y-69460000D02*
X120217500Y-68007500D01*
X120217500Y-68007500D02*
X120070000Y-67860000D01*
X120217500Y-71947500D02*
X120217500Y-69460000D01*
D65*
X150500000Y-92570000D02*
X150860000Y-92210000D01*
X148820000Y-79960000D02*
X148820000Y-79410000D01*
X154005000Y-80455000D02*
X154800000Y-81250000D01*
X148040000Y-93900000D02*
X149170000Y-93900000D01*
X149170000Y-93900000D02*
X150500000Y-92570000D01*
X149890000Y-78340000D02*
X151890000Y-78340000D01*
X151890000Y-78340000D02*
X154005000Y-80455000D01*
X154800000Y-81710000D02*
X154790000Y-81720000D01*
X150860000Y-92210000D02*
X153530000Y-92210000D01*
X153610000Y-92130000D02*
X153610000Y-92100000D01*
X148820000Y-79410000D02*
X149890000Y-78340000D01*
X153530000Y-92210000D02*
X153610000Y-92130000D01*
X154800000Y-81250000D02*
X154800000Y-81710000D01*
X135330000Y-92870000D02*
X135460000Y-93000000D01*
X135912500Y-90000000D02*
X135330000Y-90582500D01*
X135330000Y-90582500D02*
X135330000Y-92870000D01*
D66*
X122130000Y-73360000D02*
X122080000Y-73310000D01*
X124220000Y-73360000D02*
X122130000Y-73360000D01*
X120940000Y-73310000D02*
X120630000Y-73000000D01*
X120630000Y-73000000D02*
X120220000Y-73000000D01*
X122080000Y-73310000D02*
X120940000Y-73310000D01*
D65*
X151470000Y-44182500D02*
X151882500Y-43770000D01*
X151320000Y-45190000D02*
X151470000Y-45340000D01*
X148175000Y-46690000D02*
X149525000Y-45340000D01*
D66*
X148197500Y-46570000D02*
X148197500Y-45247500D01*
D65*
X149525000Y-45340000D02*
X151470000Y-45340000D01*
X151470000Y-45340000D02*
X151470000Y-44182500D01*
D66*
X148197500Y-45247500D02*
X148000000Y-45050000D01*
D65*
X111589726Y-74549000D02*
X114889022Y-71249704D01*
X124220000Y-62360000D02*
X123620000Y-62360000D01*
X114889022Y-71249704D02*
X114889022Y-68560978D01*
X114889022Y-68560978D02*
X116520000Y-66930000D01*
X123620000Y-62360000D02*
X122740000Y-63240000D01*
X122740000Y-63240000D02*
X122740000Y-63560000D01*
X99450000Y-74549000D02*
X111589726Y-74549000D01*
X116540000Y-66930000D02*
X116560000Y-66950000D01*
X116520000Y-66930000D02*
X116540000Y-66930000D01*
X126110000Y-65360000D02*
X124220000Y-65360000D01*
X112035296Y-73279000D02*
X114439511Y-70874785D01*
X114439511Y-70874785D02*
X114439511Y-68045889D01*
X114439511Y-68045889D02*
X116825400Y-65660000D01*
X99450000Y-73279000D02*
X112035296Y-73279000D01*
X116825400Y-65660000D02*
X116900000Y-65660000D01*
D66*
X130820000Y-47597500D02*
X130782500Y-47560000D01*
X130820000Y-49760000D02*
X130820000Y-47597500D01*
X130782500Y-47560000D02*
X130782500Y-46017500D01*
X130782500Y-46017500D02*
X130790000Y-46010000D01*
X151562500Y-47537500D02*
X152865000Y-47537500D01*
X149820000Y-49722500D02*
X151562500Y-47980000D01*
X151562500Y-47980000D02*
X151562500Y-47537500D01*
X151562500Y-47537500D02*
X151562500Y-46452500D01*
X149820000Y-49760000D02*
X149820000Y-49722500D01*
X151562500Y-46452500D02*
X151470000Y-46360000D01*
X152865000Y-47537500D02*
X153042500Y-47360000D01*
X116561000Y-81010000D02*
X116450000Y-80899000D01*
X118850000Y-81010000D02*
X116561000Y-81010000D01*
X134087500Y-90000000D02*
X134087500Y-88427500D01*
X134087500Y-88427500D02*
X134060000Y-88400000D01*
D65*
X131855000Y-84907500D02*
X131840000Y-84922500D01*
X131820000Y-79960000D02*
X131820000Y-81940000D01*
X131855000Y-83240000D02*
X131855000Y-84907500D01*
X131830000Y-81950000D02*
X131830000Y-83215000D01*
X131830000Y-83215000D02*
X131855000Y-83240000D01*
X131820000Y-81940000D02*
X131830000Y-81950000D01*
X92685000Y-83000000D02*
X94860000Y-83000000D01*
X94860000Y-83000000D02*
X95300000Y-82560000D01*
X95320000Y-84800000D02*
X95330000Y-84810000D01*
X92685000Y-84800000D02*
X95320000Y-84800000D01*
X99450000Y-77089000D02*
X98154090Y-77089000D01*
X98154090Y-77089000D02*
X96320000Y-78923090D01*
X96320000Y-78923090D02*
X96320000Y-82560000D01*
X104520000Y-67540000D02*
X104680000Y-67700000D01*
X87010000Y-66050000D02*
X103030000Y-66050000D01*
X82940000Y-66050000D02*
X87010000Y-66050000D01*
X118770000Y-72040000D02*
X116481000Y-72040000D01*
X81550000Y-67440000D02*
X81620000Y-67370000D01*
X103030000Y-66050000D02*
X104520000Y-67540000D01*
X116481000Y-72040000D02*
X116450000Y-72009000D01*
X63000000Y-67440000D02*
X81550000Y-67440000D01*
X81620000Y-67370000D02*
X82940000Y-66050000D01*
X85170000Y-67770000D02*
X99680000Y-67770000D01*
X100990000Y-70650000D02*
X101680000Y-71340000D01*
X112395000Y-70568022D02*
X112395000Y-69739000D01*
X63000000Y-69980000D02*
X82960000Y-69980000D01*
X111623022Y-71340000D02*
X112395000Y-70568022D01*
X100990000Y-69080000D02*
X100990000Y-70650000D01*
X82960000Y-69980000D02*
X85170000Y-67770000D01*
X99680000Y-67770000D02*
X100990000Y-69080000D01*
X101680000Y-71340000D02*
X111623022Y-71340000D01*
X103505000Y-69739000D02*
X103505000Y-68489000D01*
X103505000Y-68489000D02*
X101966000Y-66950000D01*
X82060000Y-68840000D02*
X72750000Y-68840000D01*
X83950000Y-66950000D02*
X82060000Y-68840000D01*
X101966000Y-66950000D02*
X83950000Y-66950000D01*
D66*
X90450000Y-70420000D02*
X90460000Y-70410000D01*
X84840000Y-62415000D02*
X84840000Y-64070000D01*
X90460000Y-70410000D02*
X90460000Y-71430000D01*
X88640000Y-70420000D02*
X90450000Y-70420000D01*
X90460000Y-71430000D02*
X90480000Y-71450000D01*
X96785000Y-70385000D02*
X95720000Y-71450000D01*
X96900000Y-70385000D02*
X96785000Y-70385000D01*
X95720000Y-71450000D02*
X91500000Y-71450000D01*
X94375000Y-70410000D02*
X94400000Y-70385000D01*
X91480000Y-70410000D02*
X94375000Y-70410000D01*
D65*
X154030000Y-83760141D02*
X154800000Y-82990141D01*
D66*
X157890000Y-79640000D02*
X157890000Y-85390000D01*
X155200000Y-76950000D02*
X157890000Y-79640000D01*
D65*
X153950000Y-89180000D02*
X154030000Y-89100000D01*
D66*
X146820000Y-79364090D02*
X149234090Y-76950000D01*
X157890000Y-85390000D02*
X157450000Y-85830000D01*
X149234090Y-76950000D02*
X155200000Y-76950000D01*
X146820000Y-79960000D02*
X146820000Y-79364090D01*
D65*
X154800000Y-82990141D02*
X154800000Y-82940000D01*
X154030000Y-89100000D02*
X154030000Y-83760141D01*
X147820000Y-79960000D02*
X147820000Y-79410000D01*
X156650000Y-82950000D02*
X155880000Y-83720000D01*
X149680000Y-77550000D02*
X154720000Y-77550000D01*
X155880000Y-83720000D02*
X155880000Y-88810000D01*
X156710000Y-79540000D02*
X156710000Y-82890000D01*
X155880000Y-88810000D02*
X155870000Y-88820000D01*
X147820000Y-79410000D02*
X149680000Y-77550000D01*
X156710000Y-82890000D02*
X156650000Y-82950000D01*
X154720000Y-77550000D02*
X156710000Y-79540000D01*
X147490000Y-83200000D02*
X149070000Y-83200000D01*
X145820000Y-80720978D02*
X146860000Y-81760978D01*
X152200000Y-82970000D02*
X153350000Y-82970000D01*
X145820000Y-79960000D02*
X145820000Y-80720978D01*
X152110000Y-82880000D02*
X152110000Y-82990000D01*
X146860000Y-81760978D02*
X146860000Y-82570000D01*
X149070000Y-83200000D02*
X150050000Y-82220000D01*
X146860000Y-82570000D02*
X147490000Y-83200000D01*
X153160000Y-82990000D02*
X153180000Y-82970000D01*
X151450000Y-82220000D02*
X152200000Y-82970000D01*
X150050000Y-82220000D02*
X151450000Y-82220000D01*
X99450000Y-78359000D02*
X98154090Y-78359000D01*
X98154090Y-78359000D02*
X97330000Y-79183090D01*
X97330006Y-79183078D02*
X97330006Y-83830008D01*
X97330000Y-83830000D02*
X96350000Y-84810000D01*
X99450000Y-80899000D02*
X98154090Y-80899000D01*
X97880000Y-85660000D02*
X96280000Y-87260000D01*
X98154090Y-80899000D02*
X97880000Y-81173090D01*
X97880000Y-81173090D02*
X97880000Y-85660000D01*
X93932500Y-86880000D02*
X94880000Y-86880000D01*
X94880000Y-86880000D02*
X95260000Y-87260000D01*
X153950000Y-90200000D02*
X150040978Y-90200000D01*
X150040978Y-90200000D02*
X146340978Y-93900000D01*
X146340978Y-93900000D02*
X145500000Y-93900000D01*
X155870000Y-89840000D02*
X154440000Y-91270000D01*
X150620000Y-91270000D02*
X150600000Y-91250000D01*
X154440000Y-91270000D02*
X150620000Y-91270000D01*
X144600000Y-92260000D02*
X142960000Y-93900000D01*
X144600000Y-92120000D02*
X144600000Y-92260000D01*
X149870000Y-83790000D02*
X152060000Y-83790000D01*
X152060000Y-83790000D02*
X152260000Y-83990000D01*
X149870000Y-83790000D02*
X144650000Y-83790000D01*
X144650000Y-83790000D02*
X142960000Y-82100000D01*
X138840000Y-49740000D02*
X138820000Y-49760000D01*
X138840000Y-48030000D02*
X138840000Y-49740000D01*
X141962500Y-47640000D02*
X145462500Y-47640000D01*
X145462500Y-47640000D02*
X145772500Y-47950000D01*
X148470000Y-47950000D02*
X148480000Y-47940000D01*
X146742500Y-47950000D02*
X148470000Y-47950000D01*
X138840000Y-47010000D02*
X140692500Y-47010000D01*
X140692500Y-47010000D02*
X141962500Y-45740000D01*
X137550000Y-47010000D02*
X137540000Y-47020000D01*
X138840000Y-47010000D02*
X137550000Y-47010000D01*
X135060000Y-83850000D02*
X135050000Y-83840000D01*
X135060000Y-84970000D02*
X135060000Y-83850000D01*
X135012500Y-84922500D02*
X135060000Y-84970000D01*
X133740000Y-84922500D02*
X135012500Y-84922500D01*
X116450000Y-79629000D02*
X119301000Y-79629000D01*
X137130000Y-83840000D02*
X136070000Y-83840000D01*
X119301000Y-79629000D02*
X119781000Y-79629000D01*
X119781000Y-79629000D02*
X119880000Y-79530000D01*
X119301000Y-79629000D02*
X119440000Y-79490000D01*
G04 #@! TA.AperFunction,Conductor*
G36*
X97760591Y-52000001D02*
G01*
X98377510Y-52000001D01*
X98445631Y-52020003D01*
X98492124Y-52073659D01*
X98503460Y-52122442D01*
X98550000Y-53770000D01*
X101620000Y-61140000D01*
X101638175Y-61140574D01*
X101828533Y-61146585D01*
X102570000Y-61170000D01*
X102566697Y-60831527D01*
X102561091Y-60256944D01*
X102580427Y-60188632D01*
X102633627Y-60141618D01*
X102686618Y-60129716D01*
X104813239Y-60121839D01*
X105259854Y-60120185D01*
X105288951Y-56712876D01*
X105309534Y-56644929D01*
X105363584Y-56598896D01*
X105412863Y-56587969D01*
X105863721Y-56580517D01*
X105865804Y-56580500D01*
X106145486Y-56580500D01*
X106155075Y-56579088D01*
X106172906Y-56576464D01*
X106189172Y-56575138D01*
X106274867Y-56573721D01*
X106372806Y-56572102D01*
X106441247Y-56590975D01*
X106488621Y-56643855D01*
X106500885Y-56697208D01*
X106525664Y-60256944D01*
X106528651Y-60686123D01*
X106509124Y-60754381D01*
X106455793Y-60801247D01*
X106402654Y-60813000D01*
X106219252Y-60813000D01*
X106213184Y-60814207D01*
X106172939Y-60822212D01*
X106172938Y-60822212D01*
X106160769Y-60824633D01*
X106150454Y-60831525D01*
X106150450Y-60831527D01*
X106112154Y-60857116D01*
X106041726Y-60878350D01*
X103588117Y-60870061D01*
X103588116Y-60870061D01*
X103570000Y-60870000D01*
X103569659Y-60882802D01*
X103569659Y-60882803D01*
X103503264Y-63377352D01*
X103481457Y-63444917D01*
X103426583Y-63489966D01*
X103377309Y-63500000D01*
X101126000Y-63500000D01*
X101057879Y-63479998D01*
X101011386Y-63426342D01*
X101000000Y-63374000D01*
X101000000Y-61500000D01*
X98977054Y-56644929D01*
X98506968Y-55516722D01*
X98506967Y-55516721D01*
X98500000Y-55500000D01*
X97126000Y-55500000D01*
X97057879Y-55479998D01*
X97011386Y-55426342D01*
X97000000Y-55374000D01*
X97000000Y-52126000D01*
X97020002Y-52057879D01*
X97073658Y-52011386D01*
X97126000Y-52000000D01*
X97760591Y-52000001D01*
G37*
G04 #@! TD.AperFunction*
G04 #@! TA.AperFunction,Conductor*
G36*
X95207121Y-45425002D02*
G01*
X95253614Y-45478658D01*
X95265000Y-45531000D01*
X95265000Y-49515000D01*
X96232232Y-50578955D01*
X96263255Y-50642815D01*
X96265000Y-50663712D01*
X96265000Y-54989000D01*
X96244998Y-55057121D01*
X96191342Y-55103614D01*
X96139000Y-55115000D01*
X94931000Y-55115000D01*
X94862879Y-55094998D01*
X94816386Y-55041342D01*
X94805000Y-54989000D01*
X94805000Y-45531000D01*
X94825002Y-45462879D01*
X94878658Y-45416386D01*
X94931000Y-45405000D01*
X95139000Y-45405000D01*
X95207121Y-45425002D01*
G37*
G04 #@! TD.AperFunction*
G04 #@! TA.AperFunction,Conductor*
G36*
X113841236Y-46980002D02*
G01*
X113855481Y-46990649D01*
X115855296Y-48718115D01*
X116346366Y-49142308D01*
X116384841Y-49201975D01*
X116390000Y-49237659D01*
X116390000Y-51054000D01*
X116369998Y-51122121D01*
X116316342Y-51168614D01*
X116264000Y-51180000D01*
X114890000Y-51180000D01*
X114910000Y-58240000D01*
X121600000Y-58220000D01*
X121600000Y-56656000D01*
X121620002Y-56587879D01*
X121673658Y-56541386D01*
X121726000Y-56530000D01*
X121831171Y-56530000D01*
X121884421Y-56541805D01*
X121910513Y-56553972D01*
X121960099Y-56560500D01*
X122169923Y-56560500D01*
X122379900Y-56560499D01*
X122429487Y-56553972D01*
X122455580Y-56541805D01*
X122528323Y-56507884D01*
X122528324Y-56507883D01*
X122538316Y-56503224D01*
X122623224Y-56418316D01*
X122626323Y-56411670D01*
X122686121Y-56366324D01*
X123509735Y-56077116D01*
X123551480Y-56070000D01*
X125220000Y-56070000D01*
X154150000Y-56050000D01*
X155450000Y-56050000D01*
X156582200Y-54540400D01*
X156639074Y-54497905D01*
X156683000Y-54490000D01*
X158744000Y-54490000D01*
X158812121Y-54510002D01*
X158858614Y-54563658D01*
X158870000Y-54616000D01*
X158870000Y-57924000D01*
X158849998Y-57992121D01*
X158796342Y-58038614D01*
X158744000Y-58050000D01*
X156529261Y-58050000D01*
X156491619Y-58044246D01*
X156473628Y-58038614D01*
X155360000Y-57690000D01*
X153660005Y-57690000D01*
X123410000Y-57680000D01*
X123399503Y-57688398D01*
X123399502Y-57688398D01*
X122947500Y-58050000D01*
X122860000Y-58120000D01*
X122854958Y-58485525D01*
X122841711Y-59445920D01*
X122820771Y-59513758D01*
X122766480Y-59559507D01*
X122715908Y-59570182D01*
X121809348Y-59571511D01*
X116030026Y-59579985D01*
X116030024Y-59579985D01*
X116020000Y-59580000D01*
X114191452Y-60184000D01*
X113829248Y-60303642D01*
X113789728Y-60310000D01*
X112586000Y-60310000D01*
X112517879Y-60289998D01*
X112471386Y-60236342D01*
X112460000Y-60184000D01*
X112460000Y-58616000D01*
X112480002Y-58547879D01*
X112533658Y-58501386D01*
X112586000Y-58490000D01*
X114110000Y-58490000D01*
X114110000Y-48700000D01*
X112106000Y-48700000D01*
X112037879Y-48679998D01*
X111991386Y-48626342D01*
X111980000Y-48574000D01*
X111980000Y-47086000D01*
X112000002Y-47017879D01*
X112053658Y-46971386D01*
X112106000Y-46960000D01*
X113773115Y-46960000D01*
X113841236Y-46980002D01*
G37*
G04 #@! TD.AperFunction*
M02*
