G04 #@! TF.GenerationSoftware,KiCad,Pcbnew,(6.0.1-0)*
G04 #@! TF.CreationDate,2023-01-13T10:30:12+06:00*
G04 #@! TF.ProjectId,ESP_GSM,4553505f-4753-44d2-9e6b-696361645f70,rev?*
G04 #@! TF.SameCoordinates,Original*
G04 #@! TF.FileFunction,Copper,L2,Inr*
G04 #@! TF.FilePolarity,Positive*
%FSLAX46Y46*%
G04 Gerber Fmt 4.6, Leading zero omitted, Abs format (unit mm)*
G04 Created by KiCad (PCBNEW (6.0.1-0)) date 2023-01-13 10:30:12*
%MOMM*%
%LPD*%
G01*
G04 APERTURE LIST*
G04 Aperture macros list*
%AMRoundRect*
0 Rectangle with rounded corners*
0 $1 Rounding radius*
0 $2 $3 $4 $5 $6 $7 $8 $9 X,Y pos of 4 corners*
0 Add a 4 corners polygon primitive as box body*
4,1,4,$2,$3,$4,$5,$6,$7,$8,$9,$2,$3,0*
0 Add four circle primitives for the rounded corners*
1,1,$1+$1,$2,$3*
1,1,$1+$1,$4,$5*
1,1,$1+$1,$6,$7*
1,1,$1+$1,$8,$9*
0 Add four rect primitives between the rounded corners*
20,1,$1+$1,$2,$3,$4,$5,0*
20,1,$1+$1,$4,$5,$6,$7,0*
20,1,$1+$1,$6,$7,$8,$9,0*
20,1,$1+$1,$8,$9,$2,$3,0*%
G04 Aperture macros list end*
G04 #@! TA.AperFunction,ComponentPad*
%ADD10O,0.890000X1.550000*%
G04 #@! TD*
G04 #@! TA.AperFunction,ComponentPad*
%ADD11O,1.250000X0.950000*%
G04 #@! TD*
G04 #@! TA.AperFunction,ComponentPad*
%ADD12R,1.700000X1.700000*%
G04 #@! TD*
G04 #@! TA.AperFunction,ComponentPad*
%ADD13O,1.700000X1.700000*%
G04 #@! TD*
G04 #@! TA.AperFunction,ComponentPad*
%ADD14O,2.200000X3.500000*%
G04 #@! TD*
G04 #@! TA.AperFunction,ComponentPad*
%ADD15R,1.500000X2.500000*%
G04 #@! TD*
G04 #@! TA.AperFunction,ComponentPad*
%ADD16O,1.500000X2.500000*%
G04 #@! TD*
G04 #@! TA.AperFunction,ComponentPad*
%ADD17C,1.400000*%
G04 #@! TD*
G04 #@! TA.AperFunction,ComponentPad*
%ADD18RoundRect,0.250000X0.350000X0.625000X-0.350000X0.625000X-0.350000X-0.625000X0.350000X-0.625000X0*%
G04 #@! TD*
G04 #@! TA.AperFunction,ComponentPad*
%ADD19O,1.200000X1.750000*%
G04 #@! TD*
G04 #@! TA.AperFunction,ViaPad*
%ADD20C,0.800000*%
G04 #@! TD*
G04 APERTURE END LIST*
D10*
X97220000Y-43455000D03*
D11*
X96220000Y-46155000D03*
X91220000Y-46155000D03*
D10*
X90220000Y-43455000D03*
D12*
X63000000Y-77600000D03*
D13*
X63000000Y-75060000D03*
X63000000Y-72520000D03*
X63000000Y-69980000D03*
X63000000Y-67440000D03*
X63000000Y-64900000D03*
X63000000Y-62360000D03*
D12*
X85010000Y-44150000D03*
D13*
X82470000Y-44150000D03*
D14*
X123230000Y-45092500D03*
X115030000Y-45092500D03*
D15*
X121130000Y-45092500D03*
D16*
X119130000Y-45092500D03*
X117130000Y-45092500D03*
D17*
X135330000Y-93010000D03*
X137870000Y-93010000D03*
D18*
X108040000Y-48520000D03*
D19*
X106040000Y-48520000D03*
D20*
X127110000Y-78380000D03*
X134760000Y-47020000D03*
X123440000Y-91590000D03*
X144560000Y-43450000D03*
X152300000Y-81160000D03*
X137275000Y-86165000D03*
X121730000Y-50210000D03*
X155380000Y-79870000D03*
X123080000Y-85180000D03*
X92410000Y-47990000D03*
X121545000Y-63845000D03*
X155030000Y-84940000D03*
X111290000Y-62220000D03*
X152395000Y-86405000D03*
X87320000Y-52920000D03*
X97620000Y-62360000D03*
X102260000Y-87220000D03*
X118595000Y-63855000D03*
X157740000Y-50030000D03*
X110620000Y-50580000D03*
X97780000Y-57410000D03*
X87460000Y-64170000D03*
X157690000Y-62480000D03*
X126415000Y-45705000D03*
X91715000Y-86012500D03*
X156660000Y-84780000D03*
X153637500Y-50362500D03*
X122660000Y-55360000D03*
X138880000Y-82100000D03*
X112075000Y-85825000D03*
X93920000Y-56200000D03*
X92570000Y-91370000D03*
X122375000Y-60635000D03*
X104250000Y-60460000D03*
X109800000Y-66320000D03*
X118594500Y-85979000D03*
X66840000Y-64900000D03*
X117940000Y-53350000D03*
X112860000Y-57220000D03*
X155420000Y-51650000D03*
X149370000Y-47050000D03*
X85910000Y-80920000D03*
X113600000Y-84610000D03*
X89400000Y-53140000D03*
X101640000Y-83470000D03*
X89380000Y-69410000D03*
X101850000Y-82130000D03*
X91950000Y-68500000D03*
X91950000Y-53200000D03*
X93850000Y-73300000D03*
X93845000Y-58245000D03*
X125100000Y-84720000D03*
X118680000Y-74150000D03*
X95105000Y-58145000D03*
X95080000Y-72960000D03*
X107280000Y-57140000D03*
X107130000Y-55250000D03*
X153610000Y-92100000D03*
X154005000Y-80455000D03*
X122740000Y-63560000D03*
X116560000Y-66950000D03*
X116900000Y-65660000D03*
X126110000Y-65360000D03*
X118850000Y-81010000D03*
X134060006Y-88400001D03*
X118770000Y-72040000D03*
X104680000Y-67700000D03*
X72750000Y-68840000D03*
X84840000Y-64070000D03*
X88640000Y-70420000D03*
X157450003Y-85830004D03*
X154090000Y-85850000D03*
X144600000Y-92120000D03*
X150600000Y-91250000D03*
X137130000Y-83840000D03*
X119880000Y-79530000D03*
G04 #@! TA.AperFunction,Conductor*
G36*
X156980184Y-42201953D02*
G01*
X156985813Y-42201963D01*
X156999642Y-42205143D01*
X157013481Y-42202012D01*
X157027669Y-42202037D01*
X157027668Y-42202657D01*
X157035557Y-42201997D01*
X157306439Y-42217209D01*
X157320471Y-42218790D01*
X157468279Y-42243904D01*
X157616082Y-42269017D01*
X157629857Y-42272161D01*
X157917983Y-42355169D01*
X157931320Y-42359836D01*
X158046617Y-42407593D01*
X158208341Y-42474581D01*
X158221064Y-42480708D01*
X158483502Y-42625753D01*
X158495450Y-42633260D01*
X158560779Y-42679613D01*
X158740002Y-42806779D01*
X158751048Y-42815589D01*
X158974622Y-43015386D01*
X158984614Y-43025378D01*
X159184411Y-43248952D01*
X159193221Y-43259998D01*
X159366740Y-43504550D01*
X159374247Y-43516498D01*
X159511186Y-43764269D01*
X159519290Y-43778932D01*
X159525419Y-43791659D01*
X159543597Y-43835545D01*
X159640164Y-44068680D01*
X159644831Y-44082017D01*
X159727839Y-44370143D01*
X159730983Y-44383918D01*
X159744958Y-44466169D01*
X159778750Y-44665050D01*
X159781209Y-44679524D01*
X159782791Y-44693561D01*
X159793173Y-44878439D01*
X159797971Y-44963873D01*
X159797310Y-44971624D01*
X159798061Y-44971625D01*
X159798036Y-44985815D01*
X159794857Y-44999642D01*
X159797988Y-45013481D01*
X159797980Y-45018370D01*
X159800000Y-45036448D01*
X159800000Y-91962976D01*
X159798047Y-91980184D01*
X159798037Y-91985813D01*
X159794857Y-91999642D01*
X159797988Y-92013481D01*
X159797963Y-92027669D01*
X159797343Y-92027668D01*
X159798003Y-92035557D01*
X159785152Y-92264391D01*
X159782791Y-92306435D01*
X159781210Y-92320471D01*
X159778382Y-92337112D01*
X159730983Y-92616082D01*
X159727839Y-92629857D01*
X159644831Y-92917983D01*
X159640164Y-92931320D01*
X159607574Y-93010000D01*
X159529597Y-93198256D01*
X159525421Y-93208337D01*
X159519292Y-93221064D01*
X159374247Y-93483502D01*
X159366740Y-93495450D01*
X159304534Y-93583122D01*
X159193221Y-93740002D01*
X159184411Y-93751048D01*
X158984614Y-93974622D01*
X158974622Y-93984614D01*
X158751048Y-94184411D01*
X158740002Y-94193221D01*
X158495450Y-94366740D01*
X158483502Y-94374247D01*
X158221064Y-94519292D01*
X158208341Y-94525419D01*
X158100936Y-94569908D01*
X157931320Y-94640164D01*
X157917983Y-94644831D01*
X157629857Y-94727839D01*
X157616082Y-94730983D01*
X157468279Y-94756096D01*
X157320471Y-94781210D01*
X157306439Y-94782791D01*
X157036126Y-94797971D01*
X157028376Y-94797310D01*
X157028375Y-94798061D01*
X157014185Y-94798036D01*
X157000358Y-94794857D01*
X156986519Y-94797988D01*
X156981630Y-94797980D01*
X156963552Y-94800000D01*
X122066000Y-94800000D01*
X121997879Y-94779998D01*
X121951386Y-94726342D01*
X121940000Y-94674000D01*
X121940000Y-93010000D01*
X134424540Y-93010000D01*
X134425230Y-93016565D01*
X134442114Y-93177205D01*
X134444326Y-93198256D01*
X134502821Y-93378284D01*
X134597467Y-93542216D01*
X134601885Y-93547123D01*
X134601886Y-93547124D01*
X134718655Y-93676808D01*
X134724129Y-93682888D01*
X134729468Y-93686767D01*
X134817944Y-93751048D01*
X134877270Y-93794151D01*
X135050197Y-93871144D01*
X135148212Y-93891978D01*
X135228897Y-93909128D01*
X135228901Y-93909128D01*
X135235354Y-93910500D01*
X135424646Y-93910500D01*
X135431099Y-93909128D01*
X135431103Y-93909128D01*
X135511788Y-93891978D01*
X135609803Y-93871144D01*
X135782730Y-93794151D01*
X135842057Y-93751048D01*
X135930532Y-93686767D01*
X135935871Y-93682888D01*
X135941346Y-93676808D01*
X136058114Y-93547124D01*
X136058115Y-93547123D01*
X136062533Y-93542216D01*
X136157179Y-93378284D01*
X136215674Y-93198256D01*
X136217887Y-93177205D01*
X136234770Y-93016565D01*
X136235460Y-93010000D01*
X136215674Y-92821744D01*
X136157179Y-92641716D01*
X136062533Y-92477784D01*
X136006192Y-92415211D01*
X135940286Y-92342015D01*
X135940284Y-92342014D01*
X135935871Y-92337112D01*
X135886343Y-92301128D01*
X135788072Y-92229730D01*
X135788071Y-92229729D01*
X135782730Y-92225849D01*
X135609803Y-92148856D01*
X135511788Y-92128022D01*
X135474047Y-92120000D01*
X143994318Y-92120000D01*
X144014956Y-92276762D01*
X144075464Y-92422841D01*
X144104408Y-92460562D01*
X144157259Y-92529438D01*
X144171718Y-92548282D01*
X144297159Y-92644536D01*
X144443238Y-92705044D01*
X144600000Y-92725682D01*
X144608188Y-92724604D01*
X144748574Y-92706122D01*
X144756762Y-92705044D01*
X144902841Y-92644536D01*
X145028282Y-92548282D01*
X145042742Y-92529438D01*
X145095592Y-92460562D01*
X145124536Y-92422841D01*
X145185044Y-92276762D01*
X145205682Y-92120000D01*
X145203049Y-92100000D01*
X153004318Y-92100000D01*
X153024956Y-92256762D01*
X153085464Y-92402841D01*
X153181718Y-92528282D01*
X153307159Y-92624536D01*
X153453238Y-92685044D01*
X153610000Y-92705682D01*
X153618188Y-92704604D01*
X153758574Y-92686122D01*
X153766762Y-92685044D01*
X153912841Y-92624536D01*
X154036775Y-92529438D01*
X156255066Y-92529438D01*
X156281883Y-92751044D01*
X156347519Y-92964400D01*
X156350095Y-92969390D01*
X156350095Y-92969391D01*
X156360842Y-92990212D01*
X156449901Y-93162759D01*
X156453310Y-93167201D01*
X156453312Y-93167205D01*
X156539975Y-93280146D01*
X156585790Y-93339854D01*
X156750893Y-93490086D01*
X156939990Y-93608707D01*
X157078517Y-93664394D01*
X157124523Y-93682888D01*
X157147105Y-93691966D01*
X157152593Y-93693103D01*
X157152598Y-93693104D01*
X157302896Y-93724229D01*
X157365690Y-93737233D01*
X157370303Y-93737499D01*
X157420526Y-93740395D01*
X157420530Y-93740395D01*
X157422349Y-93740500D01*
X157566630Y-93740500D01*
X157569417Y-93740251D01*
X157569423Y-93740251D01*
X157638997Y-93734041D01*
X157732339Y-93725711D01*
X157737753Y-93724230D01*
X157737758Y-93724229D01*
X157865104Y-93689390D01*
X157947651Y-93666808D01*
X157952709Y-93664396D01*
X157952713Y-93664394D01*
X158069462Y-93608707D01*
X158149129Y-93570708D01*
X158330405Y-93440448D01*
X158432194Y-93335410D01*
X158481846Y-93284174D01*
X158481848Y-93284171D01*
X158485749Y-93280146D01*
X158610250Y-93094868D01*
X158699974Y-92890471D01*
X158701282Y-92885023D01*
X158701284Y-92885017D01*
X158750775Y-92678872D01*
X158750775Y-92678871D01*
X158752085Y-92673415D01*
X158763035Y-92483505D01*
X158764611Y-92456169D01*
X158764611Y-92456166D01*
X158764934Y-92450562D01*
X158738117Y-92228956D01*
X158672481Y-92015600D01*
X158652883Y-91977629D01*
X158572672Y-91822226D01*
X158570099Y-91817241D01*
X158566690Y-91812799D01*
X158566688Y-91812795D01*
X158437620Y-91644590D01*
X158434210Y-91640146D01*
X158269107Y-91489914D01*
X158080010Y-91371293D01*
X157872895Y-91288034D01*
X157867407Y-91286897D01*
X157867402Y-91286896D01*
X157701313Y-91252501D01*
X157654310Y-91242767D01*
X157637748Y-91241812D01*
X157599474Y-91239605D01*
X157599470Y-91239605D01*
X157597651Y-91239500D01*
X157453370Y-91239500D01*
X157450583Y-91239749D01*
X157450577Y-91239749D01*
X157381003Y-91245959D01*
X157287661Y-91254289D01*
X157282247Y-91255770D01*
X157282242Y-91255771D01*
X157168470Y-91286896D01*
X157072349Y-91313192D01*
X157067291Y-91315604D01*
X157067287Y-91315606D01*
X157046322Y-91325606D01*
X156870871Y-91409292D01*
X156689595Y-91539552D01*
X156676717Y-91552841D01*
X156555156Y-91678282D01*
X156534251Y-91699854D01*
X156409750Y-91885132D01*
X156320026Y-92089529D01*
X156318718Y-92094977D01*
X156318716Y-92094983D01*
X156278045Y-92264391D01*
X156267915Y-92306585D01*
X156255066Y-92529438D01*
X154036775Y-92529438D01*
X154038282Y-92528282D01*
X154134536Y-92402841D01*
X154195044Y-92256762D01*
X154215682Y-92100000D01*
X154203189Y-92005106D01*
X154196122Y-91951426D01*
X154195044Y-91943238D01*
X154134536Y-91797159D01*
X154056781Y-91695826D01*
X154043305Y-91678264D01*
X154038282Y-91671718D01*
X153912841Y-91575464D01*
X153766762Y-91514956D01*
X153610000Y-91494318D01*
X153453238Y-91514956D01*
X153307159Y-91575464D01*
X153181718Y-91671718D01*
X153176695Y-91678264D01*
X153163219Y-91695826D01*
X153085464Y-91797159D01*
X153024956Y-91943238D01*
X153023878Y-91951426D01*
X153016811Y-92005106D01*
X153004318Y-92100000D01*
X145203049Y-92100000D01*
X145185044Y-91963238D01*
X145124536Y-91817159D01*
X145028282Y-91691718D01*
X144902841Y-91595464D01*
X144756762Y-91534956D01*
X144600000Y-91514318D01*
X144443238Y-91534956D01*
X144297159Y-91595464D01*
X144171718Y-91691718D01*
X144075464Y-91817159D01*
X144014956Y-91963238D01*
X143994318Y-92120000D01*
X135474047Y-92120000D01*
X135431103Y-92110872D01*
X135431099Y-92110872D01*
X135424646Y-92109500D01*
X135235354Y-92109500D01*
X135228901Y-92110872D01*
X135228897Y-92110872D01*
X135148212Y-92128022D01*
X135050197Y-92148856D01*
X134877270Y-92225849D01*
X134871929Y-92229729D01*
X134871928Y-92229730D01*
X134773657Y-92301128D01*
X134724129Y-92337112D01*
X134719716Y-92342014D01*
X134719714Y-92342015D01*
X134653808Y-92415211D01*
X134597467Y-92477784D01*
X134502821Y-92641716D01*
X134444326Y-92821744D01*
X134424540Y-93010000D01*
X121940000Y-93010000D01*
X121940000Y-91250000D01*
X149994318Y-91250000D01*
X150014956Y-91406762D01*
X150075464Y-91552841D01*
X150171718Y-91678282D01*
X150297159Y-91774536D01*
X150443238Y-91835044D01*
X150600000Y-91855682D01*
X150608188Y-91854604D01*
X150748574Y-91836122D01*
X150756762Y-91835044D01*
X150902841Y-91774536D01*
X151028282Y-91678282D01*
X151124536Y-91552841D01*
X151185044Y-91406762D01*
X151205682Y-91250000D01*
X151185044Y-91093238D01*
X151124536Y-90947159D01*
X151028282Y-90821718D01*
X150902841Y-90725464D01*
X150756762Y-90664956D01*
X150600000Y-90644318D01*
X150443238Y-90664956D01*
X150297159Y-90725464D01*
X150171718Y-90821718D01*
X150075464Y-90947159D01*
X150014956Y-91093238D01*
X149994318Y-91250000D01*
X121940000Y-91250000D01*
X121940000Y-88960000D01*
X118285451Y-88962612D01*
X118217316Y-88942659D01*
X118187474Y-88908935D01*
X118184844Y-88911031D01*
X118184593Y-88910715D01*
X118179384Y-88904178D01*
X118170084Y-88889353D01*
X118166688Y-88885084D01*
X118160547Y-88872295D01*
X118149464Y-88863432D01*
X118146293Y-88859446D01*
X118140809Y-88853952D01*
X118136827Y-88850773D01*
X118127985Y-88839677D01*
X118115207Y-88833514D01*
X118110936Y-88830104D01*
X118105286Y-88826546D01*
X118100366Y-88824168D01*
X118089285Y-88815306D01*
X118075457Y-88812126D01*
X118070876Y-88809912D01*
X118063551Y-88807339D01*
X118058580Y-88806201D01*
X118045798Y-88800035D01*
X118022787Y-88800015D01*
X118022789Y-88798003D01*
X118022723Y-88797988D01*
X118022723Y-88800000D01*
X118005877Y-88800000D01*
X117954551Y-88799955D01*
X117954555Y-88795150D01*
X117954457Y-88795144D01*
X117954457Y-88800000D01*
X98005877Y-88800000D01*
X97968742Y-88799967D01*
X97968740Y-88799967D01*
X97954551Y-88799955D01*
X97941758Y-88806098D01*
X97936790Y-88807227D01*
X97929465Y-88809785D01*
X97924875Y-88811994D01*
X97911038Y-88815150D01*
X97899939Y-88823994D01*
X97895015Y-88826364D01*
X97889353Y-88829916D01*
X97885084Y-88833312D01*
X97872295Y-88839453D01*
X97863432Y-88850536D01*
X97859446Y-88853707D01*
X97853952Y-88859191D01*
X97850773Y-88863173D01*
X97839677Y-88872015D01*
X97833514Y-88884793D01*
X97830104Y-88889064D01*
X97826546Y-88894714D01*
X97824168Y-88899634D01*
X97815306Y-88910715D01*
X97814768Y-88913057D01*
X97773357Y-88958785D01*
X97707663Y-88977321D01*
X93978118Y-88979987D01*
X93960000Y-88980000D01*
X93960000Y-94674000D01*
X93939998Y-94742121D01*
X93886342Y-94788614D01*
X93834000Y-94800000D01*
X63037024Y-94800000D01*
X63019816Y-94798047D01*
X63014187Y-94798037D01*
X63000358Y-94794857D01*
X62986519Y-94797988D01*
X62972331Y-94797963D01*
X62972332Y-94797343D01*
X62964443Y-94798003D01*
X62693561Y-94782791D01*
X62679529Y-94781210D01*
X62531721Y-94756096D01*
X62383918Y-94730983D01*
X62370143Y-94727839D01*
X62082017Y-94644831D01*
X62068680Y-94640164D01*
X61899064Y-94569908D01*
X61791659Y-94525419D01*
X61778936Y-94519292D01*
X61516498Y-94374247D01*
X61504550Y-94366740D01*
X61259998Y-94193221D01*
X61248952Y-94184411D01*
X61025378Y-93984614D01*
X61015386Y-93974622D01*
X60815589Y-93751048D01*
X60806779Y-93740002D01*
X60695466Y-93583122D01*
X60633260Y-93495450D01*
X60625753Y-93483502D01*
X60480708Y-93221064D01*
X60474579Y-93208337D01*
X60470404Y-93198256D01*
X60392426Y-93010000D01*
X60359836Y-92931320D01*
X60355169Y-92917983D01*
X60272161Y-92629857D01*
X60269017Y-92616082D01*
X60255995Y-92539438D01*
X61245066Y-92539438D01*
X61271883Y-92761044D01*
X61337519Y-92974400D01*
X61439901Y-93172759D01*
X61443310Y-93177201D01*
X61443312Y-93177205D01*
X61529975Y-93290146D01*
X61575790Y-93349854D01*
X61740893Y-93500086D01*
X61929990Y-93618707D01*
X62137105Y-93701966D01*
X62142593Y-93703103D01*
X62142598Y-93703104D01*
X62254174Y-93726210D01*
X62355690Y-93747233D01*
X62360303Y-93747499D01*
X62410526Y-93750395D01*
X62410530Y-93750395D01*
X62412349Y-93750500D01*
X62556630Y-93750500D01*
X62559417Y-93750251D01*
X62559423Y-93750251D01*
X62628997Y-93744041D01*
X62722339Y-93735711D01*
X62727753Y-93734230D01*
X62727758Y-93734229D01*
X62915426Y-93682888D01*
X62937651Y-93676808D01*
X62942709Y-93674396D01*
X62942713Y-93674394D01*
X63059462Y-93618707D01*
X63139129Y-93580708D01*
X63320405Y-93450448D01*
X63423926Y-93343623D01*
X63471846Y-93294174D01*
X63471848Y-93294171D01*
X63475749Y-93290146D01*
X63600250Y-93104868D01*
X63689974Y-92900471D01*
X63691282Y-92895023D01*
X63691284Y-92895017D01*
X63740775Y-92688872D01*
X63740775Y-92688871D01*
X63742085Y-92683415D01*
X63750963Y-92529438D01*
X63754611Y-92466169D01*
X63754611Y-92466166D01*
X63754934Y-92460562D01*
X63728117Y-92238956D01*
X63662481Y-92025600D01*
X63654744Y-92010609D01*
X63562672Y-91832226D01*
X63560099Y-91827241D01*
X63556690Y-91822799D01*
X63556688Y-91822795D01*
X63427620Y-91654590D01*
X63424210Y-91650146D01*
X63259107Y-91499914D01*
X63070010Y-91381293D01*
X62900602Y-91313192D01*
X62868097Y-91300125D01*
X62868095Y-91300124D01*
X62862895Y-91298034D01*
X62857407Y-91296897D01*
X62857402Y-91296896D01*
X62670487Y-91258188D01*
X62644310Y-91252767D01*
X62639697Y-91252501D01*
X62589474Y-91249605D01*
X62589470Y-91249605D01*
X62587651Y-91249500D01*
X62443370Y-91249500D01*
X62440583Y-91249749D01*
X62440577Y-91249749D01*
X62373104Y-91255771D01*
X62277661Y-91264289D01*
X62272247Y-91265770D01*
X62272242Y-91265771D01*
X62158470Y-91296896D01*
X62062349Y-91323192D01*
X62057291Y-91325604D01*
X62057287Y-91325606D01*
X61965891Y-91369200D01*
X61860871Y-91419292D01*
X61679595Y-91549552D01*
X61614752Y-91616465D01*
X61529432Y-91704508D01*
X61524251Y-91709854D01*
X61399750Y-91895132D01*
X61310026Y-92099529D01*
X61308718Y-92104977D01*
X61308716Y-92104983D01*
X61267476Y-92276762D01*
X61257915Y-92316585D01*
X61256449Y-92342015D01*
X61245420Y-92533305D01*
X61245066Y-92539438D01*
X60255995Y-92539438D01*
X60221618Y-92337112D01*
X60218790Y-92320471D01*
X60217209Y-92306435D01*
X60214420Y-92256762D01*
X60202029Y-92036126D01*
X60202690Y-92028376D01*
X60201939Y-92028375D01*
X60201964Y-92014185D01*
X60205143Y-92000358D01*
X60202012Y-91986519D01*
X60202020Y-91981630D01*
X60200000Y-91963552D01*
X60200000Y-88400001D01*
X133454324Y-88400001D01*
X133474962Y-88556763D01*
X133535470Y-88702842D01*
X133631724Y-88828283D01*
X133757165Y-88924537D01*
X133903244Y-88985045D01*
X134060006Y-89005683D01*
X134068194Y-89004605D01*
X134208580Y-88986123D01*
X134216768Y-88985045D01*
X134362847Y-88924537D01*
X134488288Y-88828283D01*
X134584542Y-88702842D01*
X134645050Y-88556763D01*
X134665688Y-88400001D01*
X134645050Y-88243239D01*
X134584542Y-88097160D01*
X134488288Y-87971719D01*
X134362847Y-87875465D01*
X134216768Y-87814957D01*
X134060006Y-87794319D01*
X133903244Y-87814957D01*
X133757165Y-87875465D01*
X133631724Y-87971719D01*
X133535470Y-88097160D01*
X133474962Y-88243239D01*
X133454324Y-88400001D01*
X60200000Y-88400001D01*
X60200000Y-85979000D01*
X117988818Y-85979000D01*
X118009456Y-86135762D01*
X118069964Y-86281841D01*
X118166218Y-86407282D01*
X118291659Y-86503536D01*
X118437738Y-86564044D01*
X118594500Y-86584682D01*
X118602688Y-86583604D01*
X118743074Y-86565122D01*
X118751262Y-86564044D01*
X118897341Y-86503536D01*
X119022782Y-86407282D01*
X119119036Y-86281841D01*
X119179544Y-86135762D01*
X119200182Y-85979000D01*
X119183199Y-85850000D01*
X153484318Y-85850000D01*
X153504956Y-86006762D01*
X153565464Y-86152841D01*
X153661718Y-86278282D01*
X153787159Y-86374536D01*
X153933238Y-86435044D01*
X154090000Y-86455682D01*
X154098188Y-86454604D01*
X154238574Y-86436122D01*
X154246762Y-86435044D01*
X154392841Y-86374536D01*
X154518282Y-86278282D01*
X154614536Y-86152841D01*
X154675044Y-86006762D01*
X154695682Y-85850000D01*
X154693049Y-85830004D01*
X156844321Y-85830004D01*
X156864959Y-85986766D01*
X156925467Y-86132845D01*
X157021721Y-86258286D01*
X157147162Y-86354540D01*
X157293241Y-86415048D01*
X157450003Y-86435686D01*
X157458191Y-86434608D01*
X157598577Y-86416126D01*
X157606765Y-86415048D01*
X157752844Y-86354540D01*
X157878285Y-86258286D01*
X157974539Y-86132845D01*
X158035047Y-85986766D01*
X158055685Y-85830004D01*
X158035047Y-85673242D01*
X157974539Y-85527163D01*
X157878285Y-85401722D01*
X157752844Y-85305468D01*
X157606765Y-85244960D01*
X157450003Y-85224322D01*
X157293241Y-85244960D01*
X157147162Y-85305468D01*
X157021721Y-85401722D01*
X156925467Y-85527163D01*
X156864959Y-85673242D01*
X156844321Y-85830004D01*
X154693049Y-85830004D01*
X154675044Y-85693238D01*
X154614536Y-85547159D01*
X154518282Y-85421718D01*
X154392841Y-85325464D01*
X154246762Y-85264956D01*
X154090000Y-85244318D01*
X153933238Y-85264956D01*
X153787159Y-85325464D01*
X153661718Y-85421718D01*
X153565464Y-85547159D01*
X153504956Y-85693238D01*
X153484318Y-85850000D01*
X119183199Y-85850000D01*
X119179544Y-85822238D01*
X119119036Y-85676159D01*
X119022782Y-85550718D01*
X118897341Y-85454464D01*
X118751262Y-85393956D01*
X118594500Y-85373318D01*
X118437738Y-85393956D01*
X118291659Y-85454464D01*
X118166218Y-85550718D01*
X118069964Y-85676159D01*
X118009456Y-85822238D01*
X117988818Y-85979000D01*
X60200000Y-85979000D01*
X60200000Y-84610000D01*
X112994318Y-84610000D01*
X113014956Y-84766762D01*
X113075464Y-84912841D01*
X113171718Y-85038282D01*
X113297159Y-85134536D01*
X113443238Y-85195044D01*
X113600000Y-85215682D01*
X113608188Y-85214604D01*
X113748574Y-85196122D01*
X113756762Y-85195044D01*
X113902841Y-85134536D01*
X114028282Y-85038282D01*
X114124536Y-84912841D01*
X114185044Y-84766762D01*
X114191200Y-84720000D01*
X124494318Y-84720000D01*
X124514956Y-84876762D01*
X124575464Y-85022841D01*
X124671718Y-85148282D01*
X124797159Y-85244536D01*
X124943238Y-85305044D01*
X125100000Y-85325682D01*
X125108188Y-85324604D01*
X125125659Y-85322304D01*
X125256762Y-85305044D01*
X125402841Y-85244536D01*
X125528282Y-85148282D01*
X125624536Y-85022841D01*
X125685044Y-84876762D01*
X125705682Y-84720000D01*
X125685044Y-84563238D01*
X125624536Y-84417159D01*
X125528282Y-84291718D01*
X125402841Y-84195464D01*
X125256762Y-84134956D01*
X125100000Y-84114318D01*
X124943238Y-84134956D01*
X124797159Y-84195464D01*
X124671718Y-84291718D01*
X124575464Y-84417159D01*
X124514956Y-84563238D01*
X124494318Y-84720000D01*
X114191200Y-84720000D01*
X114205682Y-84610000D01*
X114185044Y-84453238D01*
X114124536Y-84307159D01*
X114028282Y-84181718D01*
X113902841Y-84085464D01*
X113756762Y-84024956D01*
X113600000Y-84004318D01*
X113443238Y-84024956D01*
X113297159Y-84085464D01*
X113171718Y-84181718D01*
X113075464Y-84307159D01*
X113014956Y-84453238D01*
X112994318Y-84610000D01*
X60200000Y-84610000D01*
X60200000Y-83470000D01*
X101034318Y-83470000D01*
X101054956Y-83626762D01*
X101115464Y-83772841D01*
X101211718Y-83898282D01*
X101337159Y-83994536D01*
X101483238Y-84055044D01*
X101640000Y-84075682D01*
X101648188Y-84074604D01*
X101788574Y-84056122D01*
X101796762Y-84055044D01*
X101942841Y-83994536D01*
X102068282Y-83898282D01*
X102113003Y-83840000D01*
X136524318Y-83840000D01*
X136544956Y-83996762D01*
X136605464Y-84142841D01*
X136701718Y-84268282D01*
X136827159Y-84364536D01*
X136973238Y-84425044D01*
X137130000Y-84445682D01*
X137138188Y-84444604D01*
X137278574Y-84426122D01*
X137286762Y-84425044D01*
X137432841Y-84364536D01*
X137558282Y-84268282D01*
X137654536Y-84142841D01*
X137715044Y-83996762D01*
X137735682Y-83840000D01*
X137715044Y-83683238D01*
X137654536Y-83537159D01*
X137558282Y-83411718D01*
X137432841Y-83315464D01*
X137286762Y-83254956D01*
X137130000Y-83234318D01*
X136973238Y-83254956D01*
X136827159Y-83315464D01*
X136701718Y-83411718D01*
X136605464Y-83537159D01*
X136544956Y-83683238D01*
X136524318Y-83840000D01*
X102113003Y-83840000D01*
X102164536Y-83772841D01*
X102225044Y-83626762D01*
X102245682Y-83470000D01*
X102225044Y-83313238D01*
X102164536Y-83167159D01*
X102068282Y-83041718D01*
X101942841Y-82945464D01*
X101943630Y-82944436D01*
X101900423Y-82899120D01*
X101886989Y-82829406D01*
X101913377Y-82763496D01*
X101971210Y-82722315D01*
X101995971Y-82716465D01*
X102006762Y-82715044D01*
X102152841Y-82654536D01*
X102278282Y-82558282D01*
X102374536Y-82432841D01*
X102435044Y-82286762D01*
X102455682Y-82130000D01*
X102435044Y-81973238D01*
X102374536Y-81827159D01*
X102278282Y-81701718D01*
X102152841Y-81605464D01*
X102006762Y-81544956D01*
X101850000Y-81524318D01*
X101693238Y-81544956D01*
X101547159Y-81605464D01*
X101421718Y-81701718D01*
X101325464Y-81827159D01*
X101264956Y-81973238D01*
X101244318Y-82130000D01*
X101264956Y-82286762D01*
X101325464Y-82432841D01*
X101421718Y-82558282D01*
X101428264Y-82563305D01*
X101547159Y-82654536D01*
X101546370Y-82655564D01*
X101589577Y-82700880D01*
X101603011Y-82770594D01*
X101576623Y-82836504D01*
X101518790Y-82877685D01*
X101494029Y-82883535D01*
X101483238Y-82884956D01*
X101337159Y-82945464D01*
X101211718Y-83041718D01*
X101115464Y-83167159D01*
X101054956Y-83313238D01*
X101034318Y-83470000D01*
X60200000Y-83470000D01*
X60200000Y-80920000D01*
X85304318Y-80920000D01*
X85324956Y-81076762D01*
X85385464Y-81222841D01*
X85481718Y-81348282D01*
X85607159Y-81444536D01*
X85753238Y-81505044D01*
X85910000Y-81525682D01*
X85918188Y-81524604D01*
X85920361Y-81524318D01*
X86066762Y-81505044D01*
X86212841Y-81444536D01*
X86338282Y-81348282D01*
X86434536Y-81222841D01*
X86495044Y-81076762D01*
X86503833Y-81010000D01*
X118244318Y-81010000D01*
X118264956Y-81166762D01*
X118325464Y-81312841D01*
X118421718Y-81438282D01*
X118547159Y-81534536D01*
X118693238Y-81595044D01*
X118850000Y-81615682D01*
X118858188Y-81614604D01*
X118998574Y-81596122D01*
X119006762Y-81595044D01*
X119152841Y-81534536D01*
X119278282Y-81438282D01*
X119374536Y-81312841D01*
X119435044Y-81166762D01*
X119455682Y-81010000D01*
X119435044Y-80853238D01*
X119374536Y-80707159D01*
X119278282Y-80581718D01*
X119152841Y-80485464D01*
X119079295Y-80455000D01*
X153399318Y-80455000D01*
X153419956Y-80611762D01*
X153480464Y-80757841D01*
X153576718Y-80883282D01*
X153702159Y-80979536D01*
X153848238Y-81040044D01*
X154005000Y-81060682D01*
X154013188Y-81059604D01*
X154153574Y-81041122D01*
X154161762Y-81040044D01*
X154307841Y-80979536D01*
X154433282Y-80883282D01*
X154529536Y-80757841D01*
X154590044Y-80611762D01*
X154610682Y-80455000D01*
X154590044Y-80298238D01*
X154529536Y-80152159D01*
X154433282Y-80026718D01*
X154307841Y-79930464D01*
X154161762Y-79869956D01*
X154005000Y-79849318D01*
X153848238Y-79869956D01*
X153702159Y-79930464D01*
X153576718Y-80026718D01*
X153480464Y-80152159D01*
X153419956Y-80298238D01*
X153399318Y-80455000D01*
X119079295Y-80455000D01*
X119006762Y-80424956D01*
X118850000Y-80404318D01*
X118693238Y-80424956D01*
X118547159Y-80485464D01*
X118421718Y-80581718D01*
X118325464Y-80707159D01*
X118264956Y-80853238D01*
X118244318Y-81010000D01*
X86503833Y-81010000D01*
X86515682Y-80920000D01*
X86495044Y-80763238D01*
X86434536Y-80617159D01*
X86338282Y-80491718D01*
X86212841Y-80395464D01*
X86066762Y-80334956D01*
X85910000Y-80314318D01*
X85753238Y-80334956D01*
X85607159Y-80395464D01*
X85481718Y-80491718D01*
X85385464Y-80617159D01*
X85324956Y-80763238D01*
X85304318Y-80920000D01*
X60200000Y-80920000D01*
X60200000Y-79530000D01*
X119274318Y-79530000D01*
X119294956Y-79686762D01*
X119355464Y-79832841D01*
X119451718Y-79958282D01*
X119577159Y-80054536D01*
X119723238Y-80115044D01*
X119880000Y-80135682D01*
X119888188Y-80134604D01*
X120028574Y-80116122D01*
X120036762Y-80115044D01*
X120182841Y-80054536D01*
X120308282Y-79958282D01*
X120404536Y-79832841D01*
X120465044Y-79686762D01*
X120485682Y-79530000D01*
X120465044Y-79373238D01*
X120404536Y-79227159D01*
X120308282Y-79101718D01*
X120182841Y-79005464D01*
X120036762Y-78944956D01*
X119880000Y-78924318D01*
X119723238Y-78944956D01*
X119577159Y-79005464D01*
X119451718Y-79101718D01*
X119355464Y-79227159D01*
X119294956Y-79373238D01*
X119274318Y-79530000D01*
X60200000Y-79530000D01*
X60200000Y-78469748D01*
X61949500Y-78469748D01*
X61961133Y-78528231D01*
X62005448Y-78594552D01*
X62071769Y-78638867D01*
X62083938Y-78641288D01*
X62083939Y-78641288D01*
X62124184Y-78649293D01*
X62130252Y-78650500D01*
X63869748Y-78650500D01*
X63875816Y-78649293D01*
X63916061Y-78641288D01*
X63916062Y-78641288D01*
X63928231Y-78638867D01*
X63994552Y-78594552D01*
X64038867Y-78528231D01*
X64050500Y-78469748D01*
X64050500Y-76730252D01*
X64038867Y-76671769D01*
X63994552Y-76605448D01*
X63928231Y-76561133D01*
X63916062Y-76558712D01*
X63916061Y-76558712D01*
X63875816Y-76550707D01*
X63869748Y-76549500D01*
X62130252Y-76549500D01*
X62124184Y-76550707D01*
X62083939Y-76558712D01*
X62083938Y-76558712D01*
X62071769Y-76561133D01*
X62005448Y-76605448D01*
X61961133Y-76671769D01*
X61949500Y-76730252D01*
X61949500Y-78469748D01*
X60200000Y-78469748D01*
X60200000Y-75045262D01*
X61944520Y-75045262D01*
X61961759Y-75250553D01*
X62018544Y-75448586D01*
X62021359Y-75454063D01*
X62021360Y-75454066D01*
X62042247Y-75494707D01*
X62112712Y-75631818D01*
X62240677Y-75793270D01*
X62397564Y-75926791D01*
X62577398Y-76027297D01*
X62672238Y-76058113D01*
X62767471Y-76089056D01*
X62767475Y-76089057D01*
X62773329Y-76090959D01*
X62977894Y-76115351D01*
X62984029Y-76114879D01*
X62984031Y-76114879D01*
X63040039Y-76110569D01*
X63183300Y-76099546D01*
X63189230Y-76097890D01*
X63189232Y-76097890D01*
X63375797Y-76045800D01*
X63375796Y-76045800D01*
X63381725Y-76044145D01*
X63387214Y-76041372D01*
X63387220Y-76041370D01*
X63560116Y-75954033D01*
X63565610Y-75951258D01*
X63727951Y-75824424D01*
X63862564Y-75668472D01*
X63883387Y-75631818D01*
X63961276Y-75494707D01*
X63964323Y-75489344D01*
X64029351Y-75293863D01*
X64055171Y-75089474D01*
X64055583Y-75060000D01*
X64035480Y-74854970D01*
X63975935Y-74657749D01*
X63879218Y-74475849D01*
X63805859Y-74385902D01*
X63752906Y-74320975D01*
X63752903Y-74320972D01*
X63749011Y-74316200D01*
X63742173Y-74310543D01*
X63595025Y-74188811D01*
X63595021Y-74188809D01*
X63590275Y-74184882D01*
X63525762Y-74150000D01*
X118074318Y-74150000D01*
X118094956Y-74306762D01*
X118155464Y-74452841D01*
X118251718Y-74578282D01*
X118377159Y-74674536D01*
X118523238Y-74735044D01*
X118680000Y-74755682D01*
X118688188Y-74754604D01*
X118828574Y-74736122D01*
X118836762Y-74735044D01*
X118982841Y-74674536D01*
X119108282Y-74578282D01*
X119204536Y-74452841D01*
X119265044Y-74306762D01*
X119285682Y-74150000D01*
X119265044Y-73993238D01*
X119204536Y-73847159D01*
X119108282Y-73721718D01*
X118982841Y-73625464D01*
X118836762Y-73564956D01*
X118680000Y-73544318D01*
X118523238Y-73564956D01*
X118377159Y-73625464D01*
X118251718Y-73721718D01*
X118155464Y-73847159D01*
X118094956Y-73993238D01*
X118074318Y-74150000D01*
X63525762Y-74150000D01*
X63409055Y-74086897D01*
X63212254Y-74025977D01*
X63206129Y-74025333D01*
X63206128Y-74025333D01*
X63013498Y-74005087D01*
X63013496Y-74005087D01*
X63007369Y-74004443D01*
X62920529Y-74012346D01*
X62808342Y-74022555D01*
X62808339Y-74022556D01*
X62802203Y-74023114D01*
X62604572Y-74081280D01*
X62422002Y-74176726D01*
X62417201Y-74180586D01*
X62417198Y-74180588D01*
X62406971Y-74188811D01*
X62261447Y-74305815D01*
X62129024Y-74463630D01*
X62126056Y-74469028D01*
X62126053Y-74469033D01*
X62063232Y-74583305D01*
X62029776Y-74644162D01*
X61967484Y-74840532D01*
X61966798Y-74846649D01*
X61966797Y-74846653D01*
X61945207Y-75039137D01*
X61944520Y-75045262D01*
X60200000Y-75045262D01*
X60200000Y-72505262D01*
X61944520Y-72505262D01*
X61945036Y-72511406D01*
X61960396Y-72694318D01*
X61961759Y-72710553D01*
X61963458Y-72716478D01*
X62009171Y-72875897D01*
X62018544Y-72908586D01*
X62021359Y-72914063D01*
X62021360Y-72914066D01*
X62040759Y-72951812D01*
X62112712Y-73091818D01*
X62240677Y-73253270D01*
X62245370Y-73257264D01*
X62245371Y-73257265D01*
X62305206Y-73308188D01*
X62397564Y-73386791D01*
X62577398Y-73487297D01*
X62672238Y-73518113D01*
X62767471Y-73549056D01*
X62767475Y-73549057D01*
X62773329Y-73550959D01*
X62977894Y-73575351D01*
X62984029Y-73574879D01*
X62984031Y-73574879D01*
X63040039Y-73570569D01*
X63183300Y-73559546D01*
X63189230Y-73557890D01*
X63189232Y-73557890D01*
X63375797Y-73505800D01*
X63375796Y-73505800D01*
X63381725Y-73504145D01*
X63387214Y-73501372D01*
X63387220Y-73501370D01*
X63560116Y-73414033D01*
X63565610Y-73411258D01*
X63586589Y-73394868D01*
X63697534Y-73308188D01*
X63708014Y-73300000D01*
X93244318Y-73300000D01*
X93264956Y-73456762D01*
X93325464Y-73602841D01*
X93421718Y-73728282D01*
X93547159Y-73824536D01*
X93693238Y-73885044D01*
X93850000Y-73905682D01*
X93858188Y-73904604D01*
X93998574Y-73886122D01*
X94006762Y-73885044D01*
X94152841Y-73824536D01*
X94278282Y-73728282D01*
X94374536Y-73602841D01*
X94435044Y-73456762D01*
X94436122Y-73448574D01*
X94438259Y-73440598D01*
X94442290Y-73441678D01*
X94461273Y-73394868D01*
X94519289Y-73353945D01*
X94590220Y-73350884D01*
X94648091Y-73383555D01*
X94651718Y-73388282D01*
X94777159Y-73484536D01*
X94923238Y-73545044D01*
X95080000Y-73565682D01*
X95088188Y-73564604D01*
X95123023Y-73560018D01*
X95236762Y-73545044D01*
X95382841Y-73484536D01*
X95508282Y-73388282D01*
X95604536Y-73262841D01*
X95665044Y-73116762D01*
X95685682Y-72960000D01*
X95665044Y-72803238D01*
X95604536Y-72657159D01*
X95508282Y-72531718D01*
X95382841Y-72435464D01*
X95236762Y-72374956D01*
X95080000Y-72354318D01*
X94923238Y-72374956D01*
X94777159Y-72435464D01*
X94651718Y-72531718D01*
X94555464Y-72657159D01*
X94494956Y-72803238D01*
X94493878Y-72811426D01*
X94491741Y-72819402D01*
X94487710Y-72818322D01*
X94468727Y-72865132D01*
X94410711Y-72906055D01*
X94339780Y-72909116D01*
X94281909Y-72876445D01*
X94278282Y-72871718D01*
X94152841Y-72775464D01*
X94006762Y-72714956D01*
X93850000Y-72694318D01*
X93693238Y-72714956D01*
X93547159Y-72775464D01*
X93421718Y-72871718D01*
X93325464Y-72997159D01*
X93264956Y-73143238D01*
X93244318Y-73300000D01*
X63708014Y-73300000D01*
X63727951Y-73284424D01*
X63740927Y-73269392D01*
X63858540Y-73133134D01*
X63858540Y-73133133D01*
X63862564Y-73128472D01*
X63883387Y-73091818D01*
X63937160Y-72997159D01*
X63964323Y-72949344D01*
X64029351Y-72753863D01*
X64055171Y-72549474D01*
X64055419Y-72531718D01*
X64055534Y-72523522D01*
X64055534Y-72523518D01*
X64055583Y-72520000D01*
X64035480Y-72314970D01*
X63975935Y-72117749D01*
X63934596Y-72040000D01*
X118164318Y-72040000D01*
X118184956Y-72196762D01*
X118245464Y-72342841D01*
X118341718Y-72468282D01*
X118467159Y-72564536D01*
X118613238Y-72625044D01*
X118770000Y-72645682D01*
X118778188Y-72644604D01*
X118918574Y-72626122D01*
X118926762Y-72625044D01*
X119072841Y-72564536D01*
X119198282Y-72468282D01*
X119294536Y-72342841D01*
X119355044Y-72196762D01*
X119375682Y-72040000D01*
X119355044Y-71883238D01*
X119294536Y-71737159D01*
X119198282Y-71611718D01*
X119072841Y-71515464D01*
X118926762Y-71454956D01*
X118770000Y-71434318D01*
X118613238Y-71454956D01*
X118467159Y-71515464D01*
X118341718Y-71611718D01*
X118245464Y-71737159D01*
X118184956Y-71883238D01*
X118164318Y-72040000D01*
X63934596Y-72040000D01*
X63879218Y-71935849D01*
X63805859Y-71845902D01*
X63752906Y-71780975D01*
X63752903Y-71780972D01*
X63749011Y-71776200D01*
X63693900Y-71730608D01*
X63595025Y-71648811D01*
X63595021Y-71648809D01*
X63590275Y-71644882D01*
X63409055Y-71546897D01*
X63212254Y-71485977D01*
X63206129Y-71485333D01*
X63206128Y-71485333D01*
X63013498Y-71465087D01*
X63013496Y-71465087D01*
X63007369Y-71464443D01*
X62920529Y-71472346D01*
X62808342Y-71482555D01*
X62808339Y-71482556D01*
X62802203Y-71483114D01*
X62604572Y-71541280D01*
X62422002Y-71636726D01*
X62417201Y-71640586D01*
X62417198Y-71640588D01*
X62406971Y-71648811D01*
X62261447Y-71765815D01*
X62129024Y-71923630D01*
X62126056Y-71929028D01*
X62126053Y-71929033D01*
X62065049Y-72040000D01*
X62029776Y-72104162D01*
X61967484Y-72300532D01*
X61966798Y-72306649D01*
X61966797Y-72306653D01*
X61945207Y-72499137D01*
X61944520Y-72505262D01*
X60200000Y-72505262D01*
X60200000Y-69965262D01*
X61944520Y-69965262D01*
X61945036Y-69971406D01*
X61956747Y-70110862D01*
X61961759Y-70170553D01*
X62018544Y-70368586D01*
X62021359Y-70374063D01*
X62021360Y-70374066D01*
X62040759Y-70411812D01*
X62112712Y-70551818D01*
X62240677Y-70713270D01*
X62397564Y-70846791D01*
X62577398Y-70947297D01*
X62672238Y-70978113D01*
X62767471Y-71009056D01*
X62767475Y-71009057D01*
X62773329Y-71010959D01*
X62977894Y-71035351D01*
X62984029Y-71034879D01*
X62984031Y-71034879D01*
X63040039Y-71030569D01*
X63183300Y-71019546D01*
X63189230Y-71017890D01*
X63189232Y-71017890D01*
X63375797Y-70965800D01*
X63375796Y-70965800D01*
X63381725Y-70964145D01*
X63387214Y-70961372D01*
X63387220Y-70961370D01*
X63560116Y-70874033D01*
X63565610Y-70871258D01*
X63727951Y-70744424D01*
X63740927Y-70729392D01*
X63858540Y-70593134D01*
X63858540Y-70593133D01*
X63862564Y-70588472D01*
X63883387Y-70551818D01*
X63953618Y-70428188D01*
X63958269Y-70420000D01*
X88034318Y-70420000D01*
X88054956Y-70576762D01*
X88115464Y-70722841D01*
X88211718Y-70848282D01*
X88337159Y-70944536D01*
X88483238Y-71005044D01*
X88640000Y-71025682D01*
X88648188Y-71024604D01*
X88683023Y-71020018D01*
X88796762Y-71005044D01*
X88942841Y-70944536D01*
X89068282Y-70848282D01*
X89164536Y-70722841D01*
X89225044Y-70576762D01*
X89245682Y-70420000D01*
X89225044Y-70263238D01*
X89191167Y-70181452D01*
X89183578Y-70110862D01*
X89215357Y-70047375D01*
X89276415Y-70011148D01*
X89324020Y-70008312D01*
X89380000Y-70015682D01*
X89388188Y-70014604D01*
X89528574Y-69996122D01*
X89536762Y-69995044D01*
X89682841Y-69934536D01*
X89808282Y-69838282D01*
X89904536Y-69712841D01*
X89965044Y-69566762D01*
X89985682Y-69410000D01*
X89965044Y-69253238D01*
X89959965Y-69240975D01*
X89952084Y-69221950D01*
X89904536Y-69107159D01*
X89829851Y-69009827D01*
X89813305Y-68988264D01*
X89808282Y-68981718D01*
X89682841Y-68885464D01*
X89536762Y-68824956D01*
X89380000Y-68804318D01*
X89223238Y-68824956D01*
X89077159Y-68885464D01*
X88951718Y-68981718D01*
X88946695Y-68988264D01*
X88930149Y-69009827D01*
X88855464Y-69107159D01*
X88807916Y-69221950D01*
X88800036Y-69240975D01*
X88794956Y-69253238D01*
X88774318Y-69410000D01*
X88794956Y-69566762D01*
X88798116Y-69574391D01*
X88828833Y-69648548D01*
X88836422Y-69719138D01*
X88804643Y-69782625D01*
X88743585Y-69818852D01*
X88695980Y-69821688D01*
X88640000Y-69814318D01*
X88483238Y-69834956D01*
X88337159Y-69895464D01*
X88211718Y-69991718D01*
X88115464Y-70117159D01*
X88054956Y-70263238D01*
X88034318Y-70420000D01*
X63958269Y-70420000D01*
X63964323Y-70409344D01*
X64029351Y-70213863D01*
X64055171Y-70009474D01*
X64055419Y-69991718D01*
X64055534Y-69983522D01*
X64055534Y-69983518D01*
X64055583Y-69980000D01*
X64035480Y-69774970D01*
X63975935Y-69577749D01*
X63879218Y-69395849D01*
X63805859Y-69305902D01*
X63752906Y-69240975D01*
X63752903Y-69240972D01*
X63749011Y-69236200D01*
X63731786Y-69221950D01*
X63595025Y-69108811D01*
X63595021Y-69108809D01*
X63590275Y-69104882D01*
X63441678Y-69024536D01*
X63414474Y-69009827D01*
X63409055Y-69006897D01*
X63212254Y-68945977D01*
X63206129Y-68945333D01*
X63206128Y-68945333D01*
X63013498Y-68925087D01*
X63013496Y-68925087D01*
X63007369Y-68924443D01*
X62920529Y-68932346D01*
X62808342Y-68942555D01*
X62808339Y-68942556D01*
X62802203Y-68943114D01*
X62604572Y-69001280D01*
X62422002Y-69096726D01*
X62417201Y-69100586D01*
X62417198Y-69100588D01*
X62406971Y-69108811D01*
X62261447Y-69225815D01*
X62129024Y-69383630D01*
X62126056Y-69389028D01*
X62126053Y-69389033D01*
X62032848Y-69558574D01*
X62029776Y-69564162D01*
X61967484Y-69760532D01*
X61966798Y-69766649D01*
X61966797Y-69766653D01*
X61952703Y-69892304D01*
X61944520Y-69965262D01*
X60200000Y-69965262D01*
X60200000Y-68840000D01*
X72144318Y-68840000D01*
X72164956Y-68996762D01*
X72225464Y-69142841D01*
X72321718Y-69268282D01*
X72447159Y-69364536D01*
X72593238Y-69425044D01*
X72750000Y-69445682D01*
X72758188Y-69444604D01*
X72898574Y-69426122D01*
X72906762Y-69425044D01*
X73052841Y-69364536D01*
X73178282Y-69268282D01*
X73274536Y-69142841D01*
X73335044Y-68996762D01*
X73355682Y-68840000D01*
X73335044Y-68683238D01*
X73274536Y-68537159D01*
X73246023Y-68500000D01*
X91344318Y-68500000D01*
X91364956Y-68656762D01*
X91425464Y-68802841D01*
X91521718Y-68928282D01*
X91647159Y-69024536D01*
X91793238Y-69085044D01*
X91950000Y-69105682D01*
X91958188Y-69104604D01*
X92098574Y-69086122D01*
X92106762Y-69085044D01*
X92252841Y-69024536D01*
X92378282Y-68928282D01*
X92474536Y-68802841D01*
X92535044Y-68656762D01*
X92555682Y-68500000D01*
X92535044Y-68343238D01*
X92474536Y-68197159D01*
X92378282Y-68071718D01*
X92252841Y-67975464D01*
X92106762Y-67914956D01*
X91950000Y-67894318D01*
X91793238Y-67914956D01*
X91647159Y-67975464D01*
X91521718Y-68071718D01*
X91425464Y-68197159D01*
X91364956Y-68343238D01*
X91344318Y-68500000D01*
X73246023Y-68500000D01*
X73206059Y-68447918D01*
X73183305Y-68418264D01*
X73178282Y-68411718D01*
X73052841Y-68315464D01*
X72906762Y-68254956D01*
X72750000Y-68234318D01*
X72593238Y-68254956D01*
X72447159Y-68315464D01*
X72321718Y-68411718D01*
X72316695Y-68418264D01*
X72293941Y-68447918D01*
X72225464Y-68537159D01*
X72164956Y-68683238D01*
X72144318Y-68840000D01*
X60200000Y-68840000D01*
X60200000Y-67425262D01*
X61944520Y-67425262D01*
X61961759Y-67630553D01*
X62018544Y-67828586D01*
X62021359Y-67834063D01*
X62021360Y-67834066D01*
X62096612Y-67980491D01*
X62112712Y-68011818D01*
X62240677Y-68173270D01*
X62245370Y-68177264D01*
X62245371Y-68177265D01*
X62268747Y-68197159D01*
X62397564Y-68306791D01*
X62402942Y-68309797D01*
X62402944Y-68309798D01*
X62462778Y-68343238D01*
X62577398Y-68407297D01*
X62672238Y-68438113D01*
X62767471Y-68469056D01*
X62767475Y-68469057D01*
X62773329Y-68470959D01*
X62977894Y-68495351D01*
X62984029Y-68494879D01*
X62984031Y-68494879D01*
X63040039Y-68490569D01*
X63183300Y-68479546D01*
X63189230Y-68477890D01*
X63189232Y-68477890D01*
X63375797Y-68425800D01*
X63375796Y-68425800D01*
X63381725Y-68424145D01*
X63387214Y-68421372D01*
X63387220Y-68421370D01*
X63525684Y-68351426D01*
X63565610Y-68331258D01*
X63727951Y-68204424D01*
X63793675Y-68128282D01*
X63858540Y-68053134D01*
X63858540Y-68053133D01*
X63862564Y-68048472D01*
X63883387Y-68011818D01*
X63904038Y-67975464D01*
X63964323Y-67869344D01*
X64020656Y-67700000D01*
X104074318Y-67700000D01*
X104094956Y-67856762D01*
X104155464Y-68002841D01*
X104251718Y-68128282D01*
X104377159Y-68224536D01*
X104523238Y-68285044D01*
X104680000Y-68305682D01*
X104688188Y-68304604D01*
X104828574Y-68286122D01*
X104836762Y-68285044D01*
X104982841Y-68224536D01*
X105108282Y-68128282D01*
X105204536Y-68002841D01*
X105265044Y-67856762D01*
X105285682Y-67700000D01*
X105265044Y-67543238D01*
X105204536Y-67397159D01*
X105108282Y-67271718D01*
X104982841Y-67175464D01*
X104836762Y-67114956D01*
X104680000Y-67094318D01*
X104523238Y-67114956D01*
X104377159Y-67175464D01*
X104251718Y-67271718D01*
X104155464Y-67397159D01*
X104094956Y-67543238D01*
X104074318Y-67700000D01*
X64020656Y-67700000D01*
X64029351Y-67673863D01*
X64055171Y-67469474D01*
X64055583Y-67440000D01*
X64035480Y-67234970D01*
X63975935Y-67037749D01*
X63929278Y-66950000D01*
X115954318Y-66950000D01*
X115974956Y-67106762D01*
X116035464Y-67252841D01*
X116131718Y-67378282D01*
X116257159Y-67474536D01*
X116403238Y-67535044D01*
X116560000Y-67555682D01*
X116568188Y-67554604D01*
X116708574Y-67536122D01*
X116716762Y-67535044D01*
X116862841Y-67474536D01*
X116988282Y-67378282D01*
X117084536Y-67252841D01*
X117145044Y-67106762D01*
X117165682Y-66950000D01*
X117152390Y-66849033D01*
X117146122Y-66801426D01*
X117145044Y-66793238D01*
X117084536Y-66647159D01*
X116988282Y-66521718D01*
X116931877Y-66478437D01*
X116890010Y-66421099D01*
X116885788Y-66350228D01*
X116920552Y-66288325D01*
X116983265Y-66255044D01*
X116992128Y-66253553D01*
X117056762Y-66245044D01*
X117202841Y-66184536D01*
X117328282Y-66088282D01*
X117424536Y-65962841D01*
X117485044Y-65816762D01*
X117488901Y-65787469D01*
X117498531Y-65714318D01*
X117505682Y-65660000D01*
X117485044Y-65503238D01*
X117425713Y-65360000D01*
X125504318Y-65360000D01*
X125524956Y-65516762D01*
X125585464Y-65662841D01*
X125681718Y-65788282D01*
X125807159Y-65884536D01*
X125953238Y-65945044D01*
X125961426Y-65946122D01*
X126027943Y-65954879D01*
X126110000Y-65965682D01*
X126118188Y-65964604D01*
X126131580Y-65962841D01*
X126192057Y-65954879D01*
X126258574Y-65946122D01*
X126266762Y-65945044D01*
X126412841Y-65884536D01*
X126538282Y-65788282D01*
X126634536Y-65662841D01*
X126695044Y-65516762D01*
X126715682Y-65360000D01*
X126695044Y-65203238D01*
X126634536Y-65057159D01*
X126538282Y-64931718D01*
X126412841Y-64835464D01*
X126266762Y-64774956D01*
X126110000Y-64754318D01*
X125953238Y-64774956D01*
X125807159Y-64835464D01*
X125681718Y-64931718D01*
X125585464Y-65057159D01*
X125524956Y-65203238D01*
X125504318Y-65360000D01*
X117425713Y-65360000D01*
X117424536Y-65357159D01*
X117328282Y-65231718D01*
X117202841Y-65135464D01*
X117056762Y-65074956D01*
X116900000Y-65054318D01*
X116743238Y-65074956D01*
X116597159Y-65135464D01*
X116471718Y-65231718D01*
X116375464Y-65357159D01*
X116314956Y-65503238D01*
X116294318Y-65660000D01*
X116301469Y-65714318D01*
X116311100Y-65787469D01*
X116314956Y-65816762D01*
X116375464Y-65962841D01*
X116471718Y-66088282D01*
X116478264Y-66093305D01*
X116528123Y-66131563D01*
X116569990Y-66188901D01*
X116574212Y-66259772D01*
X116539448Y-66321675D01*
X116476735Y-66354956D01*
X116467872Y-66356447D01*
X116403238Y-66364956D01*
X116257159Y-66425464D01*
X116131718Y-66521718D01*
X116035464Y-66647159D01*
X115974956Y-66793238D01*
X115973878Y-66801426D01*
X115967610Y-66849033D01*
X115954318Y-66950000D01*
X63929278Y-66950000D01*
X63879218Y-66855849D01*
X63791488Y-66748282D01*
X63752906Y-66700975D01*
X63752903Y-66700972D01*
X63749011Y-66696200D01*
X63681812Y-66640608D01*
X63595025Y-66568811D01*
X63595021Y-66568809D01*
X63590275Y-66564882D01*
X63409055Y-66466897D01*
X63212254Y-66405977D01*
X63206129Y-66405333D01*
X63206128Y-66405333D01*
X63013498Y-66385087D01*
X63013496Y-66385087D01*
X63007369Y-66384443D01*
X62920529Y-66392346D01*
X62808342Y-66402555D01*
X62808339Y-66402556D01*
X62802203Y-66403114D01*
X62604572Y-66461280D01*
X62422002Y-66556726D01*
X62417201Y-66560586D01*
X62417198Y-66560588D01*
X62266254Y-66681950D01*
X62261447Y-66685815D01*
X62129024Y-66843630D01*
X62126056Y-66849028D01*
X62126053Y-66849033D01*
X62066045Y-66958188D01*
X62029776Y-67024162D01*
X61967484Y-67220532D01*
X61966798Y-67226649D01*
X61966797Y-67226653D01*
X61961008Y-67278264D01*
X61944520Y-67425262D01*
X60200000Y-67425262D01*
X60200000Y-66320000D01*
X109194318Y-66320000D01*
X109195396Y-66328188D01*
X109207787Y-66422304D01*
X109214956Y-66476762D01*
X109275464Y-66622841D01*
X109371718Y-66748282D01*
X109497159Y-66844536D01*
X109643238Y-66905044D01*
X109800000Y-66925682D01*
X109808188Y-66924604D01*
X109948574Y-66906122D01*
X109956762Y-66905044D01*
X110102841Y-66844536D01*
X110228282Y-66748282D01*
X110324536Y-66622841D01*
X110385044Y-66476762D01*
X110392214Y-66422304D01*
X110404604Y-66328188D01*
X110405682Y-66320000D01*
X110385044Y-66163238D01*
X110324536Y-66017159D01*
X110228282Y-65891718D01*
X110220570Y-65885800D01*
X110192082Y-65863941D01*
X110102841Y-65795464D01*
X109956762Y-65734956D01*
X109800000Y-65714318D01*
X109643238Y-65734956D01*
X109497159Y-65795464D01*
X109407918Y-65863941D01*
X109379431Y-65885800D01*
X109371718Y-65891718D01*
X109275464Y-66017159D01*
X109214956Y-66163238D01*
X109194318Y-66320000D01*
X60200000Y-66320000D01*
X60200000Y-64885262D01*
X61944520Y-64885262D01*
X61945036Y-64891406D01*
X61960715Y-65078116D01*
X61961759Y-65090553D01*
X61963458Y-65096478D01*
X61995836Y-65209392D01*
X62018544Y-65288586D01*
X62021359Y-65294063D01*
X62021360Y-65294066D01*
X62085829Y-65419509D01*
X62112712Y-65471818D01*
X62240677Y-65633270D01*
X62245370Y-65637264D01*
X62245371Y-65637265D01*
X62281706Y-65668188D01*
X62397564Y-65766791D01*
X62402942Y-65769797D01*
X62402944Y-65769798D01*
X62441342Y-65791258D01*
X62577398Y-65867297D01*
X62637099Y-65886695D01*
X62767471Y-65929056D01*
X62767475Y-65929057D01*
X62773329Y-65930959D01*
X62977894Y-65955351D01*
X62984029Y-65954879D01*
X62984031Y-65954879D01*
X63040039Y-65950569D01*
X63183300Y-65939546D01*
X63189230Y-65937890D01*
X63189232Y-65937890D01*
X63354601Y-65891718D01*
X63381725Y-65884145D01*
X63387214Y-65881372D01*
X63387220Y-65881370D01*
X63531330Y-65808574D01*
X63565610Y-65791258D01*
X63727951Y-65664424D01*
X63735904Y-65655211D01*
X63858540Y-65513134D01*
X63858540Y-65513133D01*
X63862564Y-65508472D01*
X63883387Y-65471818D01*
X63913102Y-65419509D01*
X63964323Y-65329344D01*
X64029351Y-65133863D01*
X64055171Y-64929474D01*
X64055583Y-64900000D01*
X66234318Y-64900000D01*
X66254956Y-65056762D01*
X66315464Y-65202841D01*
X66411718Y-65328282D01*
X66537159Y-65424536D01*
X66683238Y-65485044D01*
X66840000Y-65505682D01*
X66848188Y-65504604D01*
X66988574Y-65486122D01*
X66996762Y-65485044D01*
X67142841Y-65424536D01*
X67268282Y-65328282D01*
X67364536Y-65202841D01*
X67425044Y-65056762D01*
X67445682Y-64900000D01*
X67425044Y-64743238D01*
X67364536Y-64597159D01*
X67292783Y-64503649D01*
X67273305Y-64478264D01*
X67268282Y-64471718D01*
X67142841Y-64375464D01*
X66996762Y-64314956D01*
X66840000Y-64294318D01*
X66683238Y-64314956D01*
X66537159Y-64375464D01*
X66411718Y-64471718D01*
X66406695Y-64478264D01*
X66387217Y-64503649D01*
X66315464Y-64597159D01*
X66254956Y-64743238D01*
X66234318Y-64900000D01*
X64055583Y-64900000D01*
X64035480Y-64694970D01*
X63975935Y-64497749D01*
X63879218Y-64315849D01*
X63799882Y-64218574D01*
X63752906Y-64160975D01*
X63752903Y-64160972D01*
X63749011Y-64156200D01*
X63666204Y-64087696D01*
X63644813Y-64070000D01*
X84234318Y-64070000D01*
X84254956Y-64226762D01*
X84315464Y-64372841D01*
X84320491Y-64379392D01*
X84387481Y-64466695D01*
X84411718Y-64498282D01*
X84537159Y-64594536D01*
X84683238Y-64655044D01*
X84840000Y-64675682D01*
X84848188Y-64674604D01*
X84988574Y-64656122D01*
X84996762Y-64655044D01*
X85142841Y-64594536D01*
X85268282Y-64498282D01*
X85292520Y-64466695D01*
X85359509Y-64379392D01*
X85364536Y-64372841D01*
X85425044Y-64226762D01*
X85445682Y-64070000D01*
X85425044Y-63913238D01*
X85364536Y-63767159D01*
X85268282Y-63641718D01*
X85161785Y-63560000D01*
X122134318Y-63560000D01*
X122154956Y-63716762D01*
X122215464Y-63862841D01*
X122311718Y-63988282D01*
X122437159Y-64084536D01*
X122583238Y-64145044D01*
X122740000Y-64165682D01*
X122748188Y-64164604D01*
X122888574Y-64146122D01*
X122896762Y-64145044D01*
X123042841Y-64084536D01*
X123168282Y-63988282D01*
X123264536Y-63862841D01*
X123325044Y-63716762D01*
X123345682Y-63560000D01*
X123325044Y-63403238D01*
X123264536Y-63257159D01*
X123168282Y-63131718D01*
X123042841Y-63035464D01*
X122896762Y-62974956D01*
X122740000Y-62954318D01*
X122583238Y-62974956D01*
X122437159Y-63035464D01*
X122311718Y-63131718D01*
X122215464Y-63257159D01*
X122154956Y-63403238D01*
X122134318Y-63560000D01*
X85161785Y-63560000D01*
X85142841Y-63545464D01*
X84996762Y-63484956D01*
X84840000Y-63464318D01*
X84683238Y-63484956D01*
X84537159Y-63545464D01*
X84411718Y-63641718D01*
X84315464Y-63767159D01*
X84254956Y-63913238D01*
X84234318Y-64070000D01*
X63644813Y-64070000D01*
X63595025Y-64028811D01*
X63595021Y-64028809D01*
X63590275Y-64024882D01*
X63409055Y-63926897D01*
X63212254Y-63865977D01*
X63206129Y-63865333D01*
X63206128Y-63865333D01*
X63013498Y-63845087D01*
X63013496Y-63845087D01*
X63007369Y-63844443D01*
X62920529Y-63852346D01*
X62808342Y-63862555D01*
X62808339Y-63862556D01*
X62802203Y-63863114D01*
X62604572Y-63921280D01*
X62422002Y-64016726D01*
X62417201Y-64020586D01*
X62417198Y-64020588D01*
X62266336Y-64141884D01*
X62261447Y-64145815D01*
X62129024Y-64303630D01*
X62126056Y-64309028D01*
X62126053Y-64309033D01*
X62036617Y-64471718D01*
X62029776Y-64484162D01*
X61967484Y-64680532D01*
X61966798Y-64686649D01*
X61966797Y-64686653D01*
X61956538Y-64778116D01*
X61944520Y-64885262D01*
X60200000Y-64885262D01*
X60200000Y-60460000D01*
X103644318Y-60460000D01*
X103664956Y-60616762D01*
X103725464Y-60762841D01*
X103821718Y-60888282D01*
X103947159Y-60984536D01*
X104093238Y-61045044D01*
X104250000Y-61065682D01*
X104258188Y-61064604D01*
X104398574Y-61046122D01*
X104406762Y-61045044D01*
X104552841Y-60984536D01*
X104678282Y-60888282D01*
X104774536Y-60762841D01*
X104835044Y-60616762D01*
X104855682Y-60460000D01*
X104835044Y-60303238D01*
X104774536Y-60157159D01*
X104678282Y-60031718D01*
X104552841Y-59935464D01*
X104406762Y-59874956D01*
X104250000Y-59854318D01*
X104093238Y-59874956D01*
X103947159Y-59935464D01*
X103821718Y-60031718D01*
X103725464Y-60157159D01*
X103664956Y-60303238D01*
X103644318Y-60460000D01*
X60200000Y-60460000D01*
X60200000Y-58245000D01*
X93239318Y-58245000D01*
X93259956Y-58401762D01*
X93320464Y-58547841D01*
X93416718Y-58673282D01*
X93542159Y-58769536D01*
X93688238Y-58830044D01*
X93845000Y-58850682D01*
X93853188Y-58849604D01*
X93993574Y-58831122D01*
X94001762Y-58830044D01*
X94147841Y-58769536D01*
X94273282Y-58673282D01*
X94369536Y-58547841D01*
X94386865Y-58506005D01*
X94431413Y-58450724D01*
X94498777Y-58428303D01*
X94567568Y-58445861D01*
X94603236Y-58477518D01*
X94676718Y-58573282D01*
X94802159Y-58669536D01*
X94948238Y-58730044D01*
X95105000Y-58750682D01*
X95113188Y-58749604D01*
X95253574Y-58731122D01*
X95261762Y-58730044D01*
X95407841Y-58669536D01*
X95533282Y-58573282D01*
X95629536Y-58447841D01*
X95690044Y-58301762D01*
X95710682Y-58145000D01*
X95690044Y-57988238D01*
X95629536Y-57842159D01*
X95533282Y-57716718D01*
X95407841Y-57620464D01*
X95261762Y-57559956D01*
X95105000Y-57539318D01*
X94948238Y-57559956D01*
X94802159Y-57620464D01*
X94676718Y-57716718D01*
X94580464Y-57842159D01*
X94577304Y-57849789D01*
X94563135Y-57883995D01*
X94518587Y-57939276D01*
X94451223Y-57961697D01*
X94382432Y-57944139D01*
X94346763Y-57912481D01*
X94278305Y-57823264D01*
X94273282Y-57816718D01*
X94147841Y-57720464D01*
X94001762Y-57659956D01*
X93845000Y-57639318D01*
X93688238Y-57659956D01*
X93542159Y-57720464D01*
X93416718Y-57816718D01*
X93320464Y-57942159D01*
X93259956Y-58088238D01*
X93239318Y-58245000D01*
X60200000Y-58245000D01*
X60200000Y-57140000D01*
X106674318Y-57140000D01*
X106694956Y-57296762D01*
X106755464Y-57442841D01*
X106851718Y-57568282D01*
X106977159Y-57664536D01*
X107123238Y-57725044D01*
X107280000Y-57745682D01*
X107288188Y-57744604D01*
X107428574Y-57726122D01*
X107436762Y-57725044D01*
X107582841Y-57664536D01*
X107708282Y-57568282D01*
X107804536Y-57442841D01*
X107865044Y-57296762D01*
X107875150Y-57220000D01*
X112254318Y-57220000D01*
X112274956Y-57376762D01*
X112335464Y-57522841D01*
X112431718Y-57648282D01*
X112557159Y-57744536D01*
X112703238Y-57805044D01*
X112860000Y-57825682D01*
X112868188Y-57824604D01*
X112878367Y-57823264D01*
X113016762Y-57805044D01*
X113162841Y-57744536D01*
X113288282Y-57648282D01*
X113384536Y-57522841D01*
X113445044Y-57376762D01*
X113465682Y-57220000D01*
X113445044Y-57063238D01*
X113384536Y-56917159D01*
X113288282Y-56791718D01*
X113162841Y-56695464D01*
X113016762Y-56634956D01*
X112860000Y-56614318D01*
X112703238Y-56634956D01*
X112557159Y-56695464D01*
X112431718Y-56791718D01*
X112335464Y-56917159D01*
X112274956Y-57063238D01*
X112254318Y-57220000D01*
X107875150Y-57220000D01*
X107885682Y-57140000D01*
X107865044Y-56983238D01*
X107804536Y-56837159D01*
X107708282Y-56711718D01*
X107582841Y-56615464D01*
X107436762Y-56554956D01*
X107280000Y-56534318D01*
X107123238Y-56554956D01*
X106977159Y-56615464D01*
X106851718Y-56711718D01*
X106755464Y-56837159D01*
X106694956Y-56983238D01*
X106674318Y-57140000D01*
X60200000Y-57140000D01*
X60200000Y-55250000D01*
X106524318Y-55250000D01*
X106544956Y-55406762D01*
X106605464Y-55552841D01*
X106701718Y-55678282D01*
X106827159Y-55774536D01*
X106973238Y-55835044D01*
X107130000Y-55855682D01*
X107138188Y-55854604D01*
X107278574Y-55836122D01*
X107286762Y-55835044D01*
X107432841Y-55774536D01*
X107558282Y-55678282D01*
X107654536Y-55552841D01*
X107715044Y-55406762D01*
X107735682Y-55250000D01*
X107715044Y-55093238D01*
X107654536Y-54947159D01*
X107558282Y-54821718D01*
X107432841Y-54725464D01*
X107286762Y-54664956D01*
X107130000Y-54644318D01*
X106973238Y-54664956D01*
X106827159Y-54725464D01*
X106701718Y-54821718D01*
X106605464Y-54947159D01*
X106544956Y-55093238D01*
X106524318Y-55250000D01*
X60200000Y-55250000D01*
X60200000Y-53140000D01*
X88794318Y-53140000D01*
X88814956Y-53296762D01*
X88875464Y-53442841D01*
X88971718Y-53568282D01*
X89097159Y-53664536D01*
X89243238Y-53725044D01*
X89400000Y-53745682D01*
X89408188Y-53744604D01*
X89548574Y-53726122D01*
X89556762Y-53725044D01*
X89702841Y-53664536D01*
X89828282Y-53568282D01*
X89924536Y-53442841D01*
X89985044Y-53296762D01*
X89997783Y-53200000D01*
X91344318Y-53200000D01*
X91364956Y-53356762D01*
X91425464Y-53502841D01*
X91521718Y-53628282D01*
X91647159Y-53724536D01*
X91793238Y-53785044D01*
X91950000Y-53805682D01*
X91958188Y-53804604D01*
X92098574Y-53786122D01*
X92106762Y-53785044D01*
X92252841Y-53724536D01*
X92378282Y-53628282D01*
X92474536Y-53502841D01*
X92535044Y-53356762D01*
X92535934Y-53350000D01*
X117334318Y-53350000D01*
X117354956Y-53506762D01*
X117415464Y-53652841D01*
X117511718Y-53778282D01*
X117637159Y-53874536D01*
X117783238Y-53935044D01*
X117940000Y-53955682D01*
X117948188Y-53954604D01*
X118088574Y-53936122D01*
X118096762Y-53935044D01*
X118242841Y-53874536D01*
X118368282Y-53778282D01*
X118464536Y-53652841D01*
X118525044Y-53506762D01*
X118545682Y-53350000D01*
X118525044Y-53193238D01*
X118464536Y-53047159D01*
X118368282Y-52921718D01*
X118242841Y-52825464D01*
X118096762Y-52764956D01*
X117940000Y-52744318D01*
X117783238Y-52764956D01*
X117637159Y-52825464D01*
X117511718Y-52921718D01*
X117415464Y-53047159D01*
X117354956Y-53193238D01*
X117334318Y-53350000D01*
X92535934Y-53350000D01*
X92555682Y-53200000D01*
X92535044Y-53043238D01*
X92474536Y-52897159D01*
X92378282Y-52771718D01*
X92252841Y-52675464D01*
X92106762Y-52614956D01*
X91950000Y-52594318D01*
X91793238Y-52614956D01*
X91647159Y-52675464D01*
X91521718Y-52771718D01*
X91425464Y-52897159D01*
X91364956Y-53043238D01*
X91344318Y-53200000D01*
X89997783Y-53200000D01*
X90005682Y-53140000D01*
X89985044Y-52983238D01*
X89924536Y-52837159D01*
X89828282Y-52711718D01*
X89702841Y-52615464D01*
X89556762Y-52554956D01*
X89400000Y-52534318D01*
X89243238Y-52554956D01*
X89097159Y-52615464D01*
X88971718Y-52711718D01*
X88875464Y-52837159D01*
X88814956Y-52983238D01*
X88794318Y-53140000D01*
X60200000Y-53140000D01*
X60200000Y-51650000D01*
X154814318Y-51650000D01*
X154834956Y-51806762D01*
X154895464Y-51952841D01*
X154991718Y-52078282D01*
X155117159Y-52174536D01*
X155263238Y-52235044D01*
X155420000Y-52255682D01*
X155428188Y-52254604D01*
X155568574Y-52236122D01*
X155576762Y-52235044D01*
X155722841Y-52174536D01*
X155848282Y-52078282D01*
X155944536Y-51952841D01*
X156005044Y-51806762D01*
X156025682Y-51650000D01*
X156005044Y-51493238D01*
X155944536Y-51347159D01*
X155848282Y-51221718D01*
X155722841Y-51125464D01*
X155576762Y-51064956D01*
X155420000Y-51044318D01*
X155263238Y-51064956D01*
X155117159Y-51125464D01*
X154991718Y-51221718D01*
X154895464Y-51347159D01*
X154834956Y-51493238D01*
X154814318Y-51650000D01*
X60200000Y-51650000D01*
X60200000Y-49198834D01*
X107239500Y-49198834D01*
X107242481Y-49230369D01*
X107287366Y-49358184D01*
X107292958Y-49365754D01*
X107292959Y-49365757D01*
X107355335Y-49450206D01*
X107367850Y-49467150D01*
X107375421Y-49472742D01*
X107469243Y-49542041D01*
X107469246Y-49542042D01*
X107476816Y-49547634D01*
X107604631Y-49592519D01*
X107612277Y-49593242D01*
X107612278Y-49593242D01*
X107618248Y-49593806D01*
X107636166Y-49595500D01*
X108443834Y-49595500D01*
X108461752Y-49593806D01*
X108467722Y-49593242D01*
X108467723Y-49593242D01*
X108475369Y-49592519D01*
X108603184Y-49547634D01*
X108610754Y-49542042D01*
X108610757Y-49542041D01*
X108704579Y-49472742D01*
X108712150Y-49467150D01*
X108724665Y-49450206D01*
X108787041Y-49365757D01*
X108787042Y-49365754D01*
X108792634Y-49358184D01*
X108837519Y-49230369D01*
X108840500Y-49198834D01*
X108840500Y-47841166D01*
X108837519Y-47809631D01*
X108792634Y-47681816D01*
X108787042Y-47674246D01*
X108787041Y-47674243D01*
X108717742Y-47580421D01*
X108712150Y-47572850D01*
X108695206Y-47560335D01*
X108610757Y-47497959D01*
X108610754Y-47497958D01*
X108603184Y-47492366D01*
X108475369Y-47447481D01*
X108467723Y-47446758D01*
X108467722Y-47446758D01*
X108461752Y-47446194D01*
X108443834Y-47444500D01*
X107636166Y-47444500D01*
X107618248Y-47446194D01*
X107612278Y-47446758D01*
X107612277Y-47446758D01*
X107604631Y-47447481D01*
X107476816Y-47492366D01*
X107469246Y-47497958D01*
X107469243Y-47497959D01*
X107384794Y-47560335D01*
X107367850Y-47572850D01*
X107362258Y-47580421D01*
X107292959Y-47674243D01*
X107292958Y-47674246D01*
X107287366Y-47681816D01*
X107242481Y-47809631D01*
X107239500Y-47841166D01*
X107239500Y-49198834D01*
X60200000Y-49198834D01*
X60200000Y-48037312D01*
X60203254Y-48008860D01*
X60205142Y-48000716D01*
X60205143Y-48000000D01*
X60203154Y-47991282D01*
X60200000Y-47963267D01*
X60200000Y-47050000D01*
X148764318Y-47050000D01*
X148784956Y-47206762D01*
X148845464Y-47352841D01*
X148941718Y-47478282D01*
X149067159Y-47574536D01*
X149213238Y-47635044D01*
X149370000Y-47655682D01*
X149378188Y-47654604D01*
X149518574Y-47636122D01*
X149526762Y-47635044D01*
X149672841Y-47574536D01*
X149798282Y-47478282D01*
X149894536Y-47352841D01*
X149955044Y-47206762D01*
X149975682Y-47050000D01*
X149955044Y-46893238D01*
X149894536Y-46747159D01*
X149798282Y-46621718D01*
X149672841Y-46525464D01*
X149526762Y-46464956D01*
X149370000Y-46444318D01*
X149213238Y-46464956D01*
X149067159Y-46525464D01*
X148941718Y-46621718D01*
X148845464Y-46747159D01*
X148784956Y-46893238D01*
X148764318Y-47050000D01*
X60200000Y-47050000D01*
X60200000Y-46233210D01*
X90394049Y-46233210D01*
X90395821Y-46240590D01*
X90395821Y-46240592D01*
X90425028Y-46362248D01*
X90432216Y-46392190D01*
X90507204Y-46537476D01*
X90512196Y-46543198D01*
X90512197Y-46543200D01*
X90609688Y-46654956D01*
X90609691Y-46654959D01*
X90614683Y-46660681D01*
X90748448Y-46754693D01*
X90900776Y-46814083D01*
X91025473Y-46830500D01*
X91410996Y-46830500D01*
X91532313Y-46815819D01*
X91685255Y-46758027D01*
X91703182Y-46745706D01*
X91813738Y-46669723D01*
X91813739Y-46669722D01*
X91819997Y-46665421D01*
X91928760Y-46543348D01*
X91935442Y-46530728D01*
X92001712Y-46405566D01*
X92001713Y-46405564D01*
X92005265Y-46398855D01*
X92034020Y-46284375D01*
X92043244Y-46247655D01*
X92043244Y-46247651D01*
X92045095Y-46240284D01*
X92045132Y-46233210D01*
X95394049Y-46233210D01*
X95395821Y-46240590D01*
X95395821Y-46240592D01*
X95425028Y-46362248D01*
X95432216Y-46392190D01*
X95507204Y-46537476D01*
X95512196Y-46543198D01*
X95512197Y-46543200D01*
X95609688Y-46654956D01*
X95609691Y-46654959D01*
X95614683Y-46660681D01*
X95748448Y-46754693D01*
X95900776Y-46814083D01*
X96025473Y-46830500D01*
X96410996Y-46830500D01*
X96532313Y-46815819D01*
X96685255Y-46758027D01*
X96703182Y-46745706D01*
X96813738Y-46669723D01*
X96813739Y-46669722D01*
X96819997Y-46665421D01*
X96928760Y-46543348D01*
X96935442Y-46530728D01*
X97001712Y-46405566D01*
X97001713Y-46405564D01*
X97005265Y-46398855D01*
X97034020Y-46284375D01*
X97043244Y-46247655D01*
X97043244Y-46247651D01*
X97045095Y-46240284D01*
X97045246Y-46211548D01*
X97045911Y-46084384D01*
X97045951Y-46076790D01*
X97041576Y-46058565D01*
X97009556Y-45925189D01*
X97009555Y-45925185D01*
X97007784Y-45917810D01*
X96946608Y-45799284D01*
X113729500Y-45799284D01*
X113744365Y-45969192D01*
X113745789Y-45974505D01*
X113745789Y-45974507D01*
X113788038Y-46132181D01*
X113803261Y-46188996D01*
X113805583Y-46193976D01*
X113805584Y-46193978D01*
X113894572Y-46384811D01*
X113899432Y-46395234D01*
X114029953Y-46581639D01*
X114190861Y-46742547D01*
X114377266Y-46873068D01*
X114382244Y-46875389D01*
X114382247Y-46875391D01*
X114578522Y-46966916D01*
X114583504Y-46969239D01*
X114588812Y-46970661D01*
X114588814Y-46970662D01*
X114797993Y-47026711D01*
X114797995Y-47026711D01*
X114803308Y-47028135D01*
X115030000Y-47047968D01*
X115256692Y-47028135D01*
X115262005Y-47026711D01*
X115262007Y-47026711D01*
X115471186Y-46970662D01*
X115471188Y-46970661D01*
X115476496Y-46969239D01*
X115481478Y-46966916D01*
X115677753Y-46875391D01*
X115677756Y-46875389D01*
X115682734Y-46873068D01*
X115869139Y-46742547D01*
X116030047Y-46581639D01*
X116160568Y-46395234D01*
X116165429Y-46384811D01*
X116220850Y-46265960D01*
X116267768Y-46212675D01*
X116336045Y-46193214D01*
X116404005Y-46213756D01*
X116430710Y-46237210D01*
X116471136Y-46284375D01*
X116476178Y-46288286D01*
X116476179Y-46288287D01*
X116618665Y-46398811D01*
X116618668Y-46398813D01*
X116623714Y-46402727D01*
X116796974Y-46487981D01*
X116803144Y-46489588D01*
X116803149Y-46489590D01*
X116977655Y-46535045D01*
X116977658Y-46535045D01*
X116983837Y-46536655D01*
X117067203Y-46541024D01*
X117170290Y-46546427D01*
X117170294Y-46546427D01*
X117176671Y-46546761D01*
X117367599Y-46517886D01*
X117432675Y-46493943D01*
X117542832Y-46453414D01*
X117542836Y-46453412D01*
X117548821Y-46451210D01*
X117712934Y-46349455D01*
X117820585Y-46247655D01*
X117848596Y-46221166D01*
X117848597Y-46221165D01*
X117853235Y-46216779D01*
X117869201Y-46193978D01*
X117960327Y-46063835D01*
X117960328Y-46063834D01*
X117963991Y-46058602D01*
X117982602Y-46015595D01*
X118012703Y-45946037D01*
X118058115Y-45891463D01*
X118125822Y-45870103D01*
X118194329Y-45888740D01*
X118241885Y-45941456D01*
X118248575Y-45958402D01*
X118251856Y-45968873D01*
X118345472Y-46137761D01*
X118471136Y-46284375D01*
X118476178Y-46288286D01*
X118476179Y-46288287D01*
X118618665Y-46398811D01*
X118618668Y-46398813D01*
X118623714Y-46402727D01*
X118796974Y-46487981D01*
X118803144Y-46489588D01*
X118803149Y-46489590D01*
X118977655Y-46535045D01*
X118977658Y-46535045D01*
X118983837Y-46536655D01*
X119067203Y-46541024D01*
X119170290Y-46546427D01*
X119170294Y-46546427D01*
X119176671Y-46546761D01*
X119367599Y-46517886D01*
X119432675Y-46493943D01*
X119542832Y-46453414D01*
X119542836Y-46453412D01*
X119548821Y-46451210D01*
X119712934Y-46349455D01*
X119820585Y-46247655D01*
X119848596Y-46221166D01*
X119848597Y-46221165D01*
X119853235Y-46216779D01*
X119950288Y-46078172D01*
X120005743Y-46033844D01*
X120076363Y-46026535D01*
X120139723Y-46058565D01*
X120175709Y-46119766D01*
X120179500Y-46150443D01*
X120179500Y-46362248D01*
X120180707Y-46368316D01*
X120188113Y-46405547D01*
X120191133Y-46420731D01*
X120235448Y-46487052D01*
X120301769Y-46531367D01*
X120313938Y-46533788D01*
X120313939Y-46533788D01*
X120354184Y-46541793D01*
X120360252Y-46543000D01*
X121899748Y-46543000D01*
X121905816Y-46541793D01*
X121946061Y-46533788D01*
X121946062Y-46533788D01*
X121958231Y-46531367D01*
X121968548Y-46524473D01*
X121968551Y-46524472D01*
X122016859Y-46492193D01*
X122084612Y-46470977D01*
X122153079Y-46489759D01*
X122190075Y-46524687D01*
X122229953Y-46581639D01*
X122390861Y-46742547D01*
X122577266Y-46873068D01*
X122582244Y-46875389D01*
X122582247Y-46875391D01*
X122778522Y-46966916D01*
X122783504Y-46969239D01*
X122788812Y-46970661D01*
X122788814Y-46970662D01*
X122997993Y-47026711D01*
X122997995Y-47026711D01*
X123003308Y-47028135D01*
X123230000Y-47047968D01*
X123456692Y-47028135D01*
X123462005Y-47026711D01*
X123462007Y-47026711D01*
X123671186Y-46970662D01*
X123671188Y-46970661D01*
X123676496Y-46969239D01*
X123681478Y-46966916D01*
X123877753Y-46875391D01*
X123877756Y-46875389D01*
X123882734Y-46873068D01*
X124069139Y-46742547D01*
X124230047Y-46581639D01*
X124360568Y-46395234D01*
X124365429Y-46384811D01*
X124454416Y-46193978D01*
X124454417Y-46193976D01*
X124456739Y-46188996D01*
X124471963Y-46132181D01*
X124514211Y-45974507D01*
X124514211Y-45974505D01*
X124515635Y-45969192D01*
X124530500Y-45799284D01*
X124530500Y-44539438D01*
X156245066Y-44539438D01*
X156271883Y-44761044D01*
X156337519Y-44974400D01*
X156340095Y-44979390D01*
X156340095Y-44979391D01*
X156411275Y-45117297D01*
X156439901Y-45172759D01*
X156443310Y-45177201D01*
X156443312Y-45177205D01*
X156529975Y-45290146D01*
X156575790Y-45349854D01*
X156740893Y-45500086D01*
X156929990Y-45618707D01*
X157068517Y-45674394D01*
X157113227Y-45692367D01*
X157137105Y-45701966D01*
X157142593Y-45703103D01*
X157142598Y-45703104D01*
X157292896Y-45734229D01*
X157355690Y-45747233D01*
X157360303Y-45747499D01*
X157410526Y-45750395D01*
X157410530Y-45750395D01*
X157412349Y-45750500D01*
X157556630Y-45750500D01*
X157559417Y-45750251D01*
X157559423Y-45750251D01*
X157628997Y-45744041D01*
X157722339Y-45735711D01*
X157727753Y-45734230D01*
X157727758Y-45734229D01*
X157880777Y-45692367D01*
X157937651Y-45676808D01*
X157942709Y-45674396D01*
X157942713Y-45674394D01*
X158059462Y-45618707D01*
X158139129Y-45580708D01*
X158320405Y-45450448D01*
X158475749Y-45290146D01*
X158600250Y-45104868D01*
X158607415Y-45088547D01*
X158640666Y-45012798D01*
X158689974Y-44900471D01*
X158691282Y-44895023D01*
X158691284Y-44895017D01*
X158740775Y-44688872D01*
X158740775Y-44688871D01*
X158742085Y-44683415D01*
X158750109Y-44544241D01*
X158754611Y-44466169D01*
X158754611Y-44466166D01*
X158754934Y-44460562D01*
X158728117Y-44238956D01*
X158662481Y-44025600D01*
X158657956Y-44016832D01*
X158562672Y-43832226D01*
X158560099Y-43827241D01*
X158556690Y-43822799D01*
X158556688Y-43822795D01*
X158427620Y-43654590D01*
X158424210Y-43650146D01*
X158259107Y-43499914D01*
X158070010Y-43381293D01*
X157862895Y-43298034D01*
X157857407Y-43296897D01*
X157857402Y-43296896D01*
X157679227Y-43259998D01*
X157644310Y-43252767D01*
X157639697Y-43252501D01*
X157589474Y-43249605D01*
X157589470Y-43249605D01*
X157587651Y-43249500D01*
X157443370Y-43249500D01*
X157440583Y-43249749D01*
X157440577Y-43249749D01*
X157371003Y-43255959D01*
X157277661Y-43264289D01*
X157272247Y-43265770D01*
X157272242Y-43265771D01*
X157158470Y-43296896D01*
X157062349Y-43323192D01*
X157057291Y-43325604D01*
X157057287Y-43325606D01*
X156961610Y-43371242D01*
X156860871Y-43419292D01*
X156679595Y-43549552D01*
X156631225Y-43599466D01*
X156529302Y-43704642D01*
X156524251Y-43709854D01*
X156399750Y-43895132D01*
X156397491Y-43900278D01*
X156397490Y-43900280D01*
X156380520Y-43938940D01*
X156310026Y-44099529D01*
X156308718Y-44104977D01*
X156308716Y-44104983D01*
X156261029Y-44303615D01*
X156257915Y-44316585D01*
X156254480Y-44376158D01*
X156245457Y-44532662D01*
X156245066Y-44539438D01*
X124530500Y-44539438D01*
X124530500Y-44385716D01*
X124529733Y-44376942D01*
X124521298Y-44280542D01*
X124515635Y-44215808D01*
X124506838Y-44182978D01*
X124458162Y-44001314D01*
X124458161Y-44001312D01*
X124456739Y-43996004D01*
X124446223Y-43973452D01*
X124362891Y-43794747D01*
X124362889Y-43794744D01*
X124360568Y-43789766D01*
X124230047Y-43603361D01*
X124069139Y-43442453D01*
X123882734Y-43311932D01*
X123877756Y-43309611D01*
X123877753Y-43309609D01*
X123681478Y-43218084D01*
X123681476Y-43218083D01*
X123676496Y-43215761D01*
X123671188Y-43214339D01*
X123671186Y-43214338D01*
X123462007Y-43158289D01*
X123462005Y-43158289D01*
X123456692Y-43156865D01*
X123230000Y-43137032D01*
X123003308Y-43156865D01*
X122997995Y-43158289D01*
X122997993Y-43158289D01*
X122788814Y-43214338D01*
X122788812Y-43214339D01*
X122783504Y-43215761D01*
X122778524Y-43218083D01*
X122778522Y-43218084D01*
X122582247Y-43309609D01*
X122582244Y-43309611D01*
X122577266Y-43311932D01*
X122390861Y-43442453D01*
X122229953Y-43603361D01*
X122226794Y-43607873D01*
X122190075Y-43660313D01*
X122134618Y-43704642D01*
X122063999Y-43711951D01*
X122016859Y-43692807D01*
X121968551Y-43660528D01*
X121968548Y-43660527D01*
X121958231Y-43653633D01*
X121946062Y-43651212D01*
X121946061Y-43651212D01*
X121905816Y-43643207D01*
X121899748Y-43642000D01*
X120360252Y-43642000D01*
X120354184Y-43643207D01*
X120313939Y-43651212D01*
X120313938Y-43651212D01*
X120301769Y-43653633D01*
X120235448Y-43697948D01*
X120191133Y-43764269D01*
X120188712Y-43776438D01*
X120188712Y-43776439D01*
X120180707Y-43816684D01*
X120179500Y-43822752D01*
X120179500Y-44038056D01*
X120159498Y-44106177D01*
X120105842Y-44152670D01*
X120035568Y-44162774D01*
X119970988Y-44133280D01*
X119943298Y-44099142D01*
X119938826Y-44091073D01*
X119914528Y-44047239D01*
X119788864Y-43900625D01*
X119783821Y-43896713D01*
X119641335Y-43786189D01*
X119641332Y-43786187D01*
X119636286Y-43782273D01*
X119463026Y-43697019D01*
X119456856Y-43695412D01*
X119456851Y-43695410D01*
X119282345Y-43649955D01*
X119282342Y-43649955D01*
X119276163Y-43648345D01*
X119192797Y-43643976D01*
X119089710Y-43638573D01*
X119089706Y-43638573D01*
X119083329Y-43638239D01*
X118892401Y-43667114D01*
X118886406Y-43669320D01*
X118886405Y-43669320D01*
X118717168Y-43731586D01*
X118717164Y-43731588D01*
X118711179Y-43733790D01*
X118547066Y-43835545D01*
X118482383Y-43896713D01*
X118420594Y-43955144D01*
X118406765Y-43968221D01*
X118403103Y-43973451D01*
X118403102Y-43973452D01*
X118318422Y-44094388D01*
X118296009Y-44126398D01*
X118280268Y-44162774D01*
X118247297Y-44238963D01*
X118201885Y-44293537D01*
X118134178Y-44314897D01*
X118065671Y-44296260D01*
X118018115Y-44243544D01*
X118011425Y-44226597D01*
X118010055Y-44222226D01*
X118008144Y-44216127D01*
X117914528Y-44047239D01*
X117788864Y-43900625D01*
X117783821Y-43896713D01*
X117641335Y-43786189D01*
X117641332Y-43786187D01*
X117636286Y-43782273D01*
X117463026Y-43697019D01*
X117456856Y-43695412D01*
X117456851Y-43695410D01*
X117282345Y-43649955D01*
X117282342Y-43649955D01*
X117276163Y-43648345D01*
X117192797Y-43643976D01*
X117089710Y-43638573D01*
X117089706Y-43638573D01*
X117083329Y-43638239D01*
X116892401Y-43667114D01*
X116886406Y-43669320D01*
X116886405Y-43669320D01*
X116717168Y-43731586D01*
X116717164Y-43731588D01*
X116711179Y-43733790D01*
X116547066Y-43835545D01*
X116420594Y-43955144D01*
X116357356Y-43987415D01*
X116286709Y-43980375D01*
X116231084Y-43936258D01*
X116219826Y-43916845D01*
X116210439Y-43896713D01*
X116175950Y-43822752D01*
X116162891Y-43794747D01*
X116162889Y-43794744D01*
X116160568Y-43789766D01*
X116030047Y-43603361D01*
X115869139Y-43442453D01*
X115682734Y-43311932D01*
X115677756Y-43309611D01*
X115677753Y-43309609D01*
X115481478Y-43218084D01*
X115481476Y-43218083D01*
X115476496Y-43215761D01*
X115471188Y-43214339D01*
X115471186Y-43214338D01*
X115262007Y-43158289D01*
X115262005Y-43158289D01*
X115256692Y-43156865D01*
X115030000Y-43137032D01*
X114803308Y-43156865D01*
X114797995Y-43158289D01*
X114797993Y-43158289D01*
X114588814Y-43214338D01*
X114588812Y-43214339D01*
X114583504Y-43215761D01*
X114578524Y-43218083D01*
X114578522Y-43218084D01*
X114382247Y-43309609D01*
X114382244Y-43309611D01*
X114377266Y-43311932D01*
X114190861Y-43442453D01*
X114029953Y-43603361D01*
X113899432Y-43789766D01*
X113897111Y-43794744D01*
X113897109Y-43794747D01*
X113813777Y-43973452D01*
X113803261Y-43996004D01*
X113801839Y-44001312D01*
X113801838Y-44001314D01*
X113753162Y-44182978D01*
X113744365Y-44215808D01*
X113738702Y-44280542D01*
X113730268Y-44376942D01*
X113729500Y-44385716D01*
X113729500Y-45799284D01*
X96946608Y-45799284D01*
X96932796Y-45772524D01*
X96927674Y-45766652D01*
X96830312Y-45655044D01*
X96830309Y-45655041D01*
X96825317Y-45649319D01*
X96691552Y-45555307D01*
X96539224Y-45495917D01*
X96414527Y-45479500D01*
X96029004Y-45479500D01*
X95907687Y-45494181D01*
X95754745Y-45551973D01*
X95748487Y-45556274D01*
X95654602Y-45620800D01*
X95620003Y-45644579D01*
X95511240Y-45766652D01*
X95507688Y-45773361D01*
X95507687Y-45773362D01*
X95456466Y-45870103D01*
X95434735Y-45911145D01*
X95425971Y-45946037D01*
X95397697Y-46058602D01*
X95394905Y-46069716D01*
X95394049Y-46233210D01*
X92045132Y-46233210D01*
X92045246Y-46211548D01*
X92045911Y-46084384D01*
X92045951Y-46076790D01*
X92041576Y-46058565D01*
X92009556Y-45925189D01*
X92009555Y-45925185D01*
X92007784Y-45917810D01*
X91932796Y-45772524D01*
X91927674Y-45766652D01*
X91830312Y-45655044D01*
X91830309Y-45655041D01*
X91825317Y-45649319D01*
X91691552Y-45555307D01*
X91539224Y-45495917D01*
X91414527Y-45479500D01*
X91029004Y-45479500D01*
X90907687Y-45494181D01*
X90754745Y-45551973D01*
X90748487Y-45556274D01*
X90654602Y-45620800D01*
X90620003Y-45644579D01*
X90511240Y-45766652D01*
X90507688Y-45773361D01*
X90507687Y-45773362D01*
X90456466Y-45870103D01*
X90434735Y-45911145D01*
X90425971Y-45946037D01*
X90397697Y-46058602D01*
X90394905Y-46069716D01*
X90394049Y-46233210D01*
X60200000Y-46233210D01*
X60200000Y-45037024D01*
X60201953Y-45019816D01*
X60201963Y-45014187D01*
X60205143Y-45000358D01*
X60202012Y-44986519D01*
X60202037Y-44972331D01*
X60202657Y-44972332D01*
X60201997Y-44964443D01*
X60217209Y-44693561D01*
X60218791Y-44679524D01*
X60221251Y-44665050D01*
X60242593Y-44539438D01*
X61245066Y-44539438D01*
X61271883Y-44761044D01*
X61337519Y-44974400D01*
X61340095Y-44979390D01*
X61340095Y-44979391D01*
X61411275Y-45117297D01*
X61439901Y-45172759D01*
X61443310Y-45177201D01*
X61443312Y-45177205D01*
X61529975Y-45290146D01*
X61575790Y-45349854D01*
X61740893Y-45500086D01*
X61929990Y-45618707D01*
X62068517Y-45674394D01*
X62113227Y-45692367D01*
X62137105Y-45701966D01*
X62142593Y-45703103D01*
X62142598Y-45703104D01*
X62292896Y-45734229D01*
X62355690Y-45747233D01*
X62360303Y-45747499D01*
X62410526Y-45750395D01*
X62410530Y-45750395D01*
X62412349Y-45750500D01*
X62556630Y-45750500D01*
X62559417Y-45750251D01*
X62559423Y-45750251D01*
X62628997Y-45744041D01*
X62722339Y-45735711D01*
X62727753Y-45734230D01*
X62727758Y-45734229D01*
X62880777Y-45692367D01*
X62937651Y-45676808D01*
X62942709Y-45674396D01*
X62942713Y-45674394D01*
X63059462Y-45618707D01*
X63139129Y-45580708D01*
X63320405Y-45450448D01*
X63475749Y-45290146D01*
X63600250Y-45104868D01*
X63607415Y-45088547D01*
X63640666Y-45012798D01*
X63689974Y-44900471D01*
X63691282Y-44895023D01*
X63691284Y-44895017D01*
X63740775Y-44688872D01*
X63740775Y-44688871D01*
X63742085Y-44683415D01*
X63750109Y-44544241D01*
X63754611Y-44466169D01*
X63754611Y-44466166D01*
X63754934Y-44460562D01*
X63728117Y-44238956D01*
X63696217Y-44135262D01*
X81414520Y-44135262D01*
X81415036Y-44141406D01*
X81431238Y-44334345D01*
X81431759Y-44340553D01*
X81433458Y-44346478D01*
X81477184Y-44498968D01*
X81488544Y-44538586D01*
X81491359Y-44544063D01*
X81491360Y-44544066D01*
X81564561Y-44686500D01*
X81582712Y-44721818D01*
X81710677Y-44883270D01*
X81715370Y-44887264D01*
X81715371Y-44887265D01*
X81847835Y-45000000D01*
X81867564Y-45016791D01*
X81872942Y-45019797D01*
X81872944Y-45019798D01*
X81904563Y-45037469D01*
X82047398Y-45117297D01*
X82131280Y-45144552D01*
X82237471Y-45179056D01*
X82237475Y-45179057D01*
X82243329Y-45180959D01*
X82447894Y-45205351D01*
X82454029Y-45204879D01*
X82454031Y-45204879D01*
X82526625Y-45199293D01*
X82653300Y-45189546D01*
X82659230Y-45187890D01*
X82659232Y-45187890D01*
X82845797Y-45135800D01*
X82845796Y-45135800D01*
X82851725Y-45134145D01*
X82857214Y-45131372D01*
X82857220Y-45131370D01*
X83030116Y-45044033D01*
X83035610Y-45041258D01*
X83041030Y-45037024D01*
X83063142Y-45019748D01*
X83959500Y-45019748D01*
X83960707Y-45025816D01*
X83964331Y-45044033D01*
X83971133Y-45078231D01*
X84015448Y-45144552D01*
X84081769Y-45188867D01*
X84093938Y-45191288D01*
X84093939Y-45191288D01*
X84134184Y-45199293D01*
X84140252Y-45200500D01*
X85879748Y-45200500D01*
X85885816Y-45199293D01*
X85926061Y-45191288D01*
X85926062Y-45191288D01*
X85938231Y-45188867D01*
X86004552Y-45144552D01*
X86048867Y-45078231D01*
X86055670Y-45044033D01*
X86059293Y-45025816D01*
X86060500Y-45019748D01*
X86060500Y-43825608D01*
X89574500Y-43825608D01*
X89576309Y-43839928D01*
X89588479Y-43936258D01*
X89589811Y-43946805D01*
X89592728Y-43954171D01*
X89592728Y-43954173D01*
X89596553Y-43963834D01*
X89649849Y-44098443D01*
X89654509Y-44104856D01*
X89654510Y-44104859D01*
X89741048Y-44223970D01*
X89741052Y-44223974D01*
X89745711Y-44230387D01*
X89751819Y-44235440D01*
X89751821Y-44235442D01*
X89806338Y-44280542D01*
X89871375Y-44334345D01*
X89878548Y-44337720D01*
X89878549Y-44337721D01*
X89897159Y-44346478D01*
X90018944Y-44403786D01*
X90112628Y-44421657D01*
X90171361Y-44432861D01*
X90171363Y-44432861D01*
X90179147Y-44434346D01*
X90260532Y-44429226D01*
X90334005Y-44424604D01*
X90334007Y-44424604D01*
X90341916Y-44424106D01*
X90349452Y-44421657D01*
X90349454Y-44421657D01*
X90404454Y-44403786D01*
X90497025Y-44373708D01*
X90634727Y-44286319D01*
X90746371Y-44167431D01*
X90793327Y-44082017D01*
X90821120Y-44031462D01*
X90821121Y-44031461D01*
X90824940Y-44024513D01*
X90865500Y-43866546D01*
X90865500Y-43825608D01*
X96574500Y-43825608D01*
X96576309Y-43839928D01*
X96588479Y-43936258D01*
X96589811Y-43946805D01*
X96592728Y-43954171D01*
X96592728Y-43954173D01*
X96596553Y-43963834D01*
X96649849Y-44098443D01*
X96654509Y-44104856D01*
X96654510Y-44104859D01*
X96741048Y-44223970D01*
X96741052Y-44223974D01*
X96745711Y-44230387D01*
X96751819Y-44235440D01*
X96751821Y-44235442D01*
X96806338Y-44280542D01*
X96871375Y-44334345D01*
X96878548Y-44337720D01*
X96878549Y-44337721D01*
X96897159Y-44346478D01*
X97018944Y-44403786D01*
X97112628Y-44421657D01*
X97171361Y-44432861D01*
X97171363Y-44432861D01*
X97179147Y-44434346D01*
X97260532Y-44429226D01*
X97334005Y-44424604D01*
X97334007Y-44424604D01*
X97341916Y-44424106D01*
X97349452Y-44421657D01*
X97349454Y-44421657D01*
X97404454Y-44403786D01*
X97497025Y-44373708D01*
X97634727Y-44286319D01*
X97746371Y-44167431D01*
X97793327Y-44082017D01*
X97821120Y-44031462D01*
X97821121Y-44031461D01*
X97824940Y-44024513D01*
X97865500Y-43866546D01*
X97865500Y-43084392D01*
X97850189Y-42963195D01*
X97790151Y-42811557D01*
X97785490Y-42805141D01*
X97698952Y-42686030D01*
X97698948Y-42686026D01*
X97694289Y-42679613D01*
X97633318Y-42629173D01*
X97574733Y-42580708D01*
X97568625Y-42575655D01*
X97421056Y-42506214D01*
X97311923Y-42485396D01*
X97268639Y-42477139D01*
X97268637Y-42477139D01*
X97260853Y-42475654D01*
X97180486Y-42480710D01*
X97105995Y-42485396D01*
X97105993Y-42485396D01*
X97098084Y-42485894D01*
X97090548Y-42488343D01*
X97090546Y-42488343D01*
X97047023Y-42502485D01*
X96942975Y-42536292D01*
X96805273Y-42623681D01*
X96693629Y-42742569D01*
X96615060Y-42885487D01*
X96574500Y-43043454D01*
X96574500Y-43825608D01*
X90865500Y-43825608D01*
X90865500Y-43084392D01*
X90850189Y-42963195D01*
X90790151Y-42811557D01*
X90785490Y-42805141D01*
X90698952Y-42686030D01*
X90698948Y-42686026D01*
X90694289Y-42679613D01*
X90633318Y-42629173D01*
X90574733Y-42580708D01*
X90568625Y-42575655D01*
X90421056Y-42506214D01*
X90311923Y-42485396D01*
X90268639Y-42477139D01*
X90268637Y-42477139D01*
X90260853Y-42475654D01*
X90180486Y-42480710D01*
X90105995Y-42485396D01*
X90105993Y-42485396D01*
X90098084Y-42485894D01*
X90090548Y-42488343D01*
X90090546Y-42488343D01*
X90047023Y-42502485D01*
X89942975Y-42536292D01*
X89805273Y-42623681D01*
X89693629Y-42742569D01*
X89615060Y-42885487D01*
X89574500Y-43043454D01*
X89574500Y-43825608D01*
X86060500Y-43825608D01*
X86060500Y-43280252D01*
X86048867Y-43221769D01*
X86004552Y-43155448D01*
X85938231Y-43111133D01*
X85926062Y-43108712D01*
X85926061Y-43108712D01*
X85885816Y-43100707D01*
X85879748Y-43099500D01*
X84140252Y-43099500D01*
X84134184Y-43100707D01*
X84093939Y-43108712D01*
X84093938Y-43108712D01*
X84081769Y-43111133D01*
X84015448Y-43155448D01*
X83971133Y-43221769D01*
X83959500Y-43280252D01*
X83959500Y-45019748D01*
X83063142Y-45019748D01*
X83193101Y-44918213D01*
X83197951Y-44914424D01*
X83205558Y-44905612D01*
X83328540Y-44763134D01*
X83328540Y-44763133D01*
X83332564Y-44758472D01*
X83353387Y-44721818D01*
X83431276Y-44584707D01*
X83434323Y-44579344D01*
X83499351Y-44383863D01*
X83525171Y-44179474D01*
X83525404Y-44162774D01*
X83525534Y-44153522D01*
X83525534Y-44153518D01*
X83525583Y-44150000D01*
X83505480Y-43944970D01*
X83445935Y-43747749D01*
X83349218Y-43565849D01*
X83251755Y-43446348D01*
X83222906Y-43410975D01*
X83222903Y-43410972D01*
X83219011Y-43406200D01*
X83116883Y-43321712D01*
X83065025Y-43278811D01*
X83065021Y-43278809D01*
X83060275Y-43274882D01*
X82879055Y-43176897D01*
X82682254Y-43115977D01*
X82676129Y-43115333D01*
X82676128Y-43115333D01*
X82483498Y-43095087D01*
X82483496Y-43095087D01*
X82477369Y-43094443D01*
X82390529Y-43102346D01*
X82278342Y-43112555D01*
X82278339Y-43112556D01*
X82272203Y-43113114D01*
X82074572Y-43171280D01*
X81892002Y-43266726D01*
X81887201Y-43270586D01*
X81887198Y-43270588D01*
X81752112Y-43379200D01*
X81731447Y-43395815D01*
X81599024Y-43553630D01*
X81596056Y-43559028D01*
X81596053Y-43559033D01*
X81510581Y-43714508D01*
X81499776Y-43734162D01*
X81437484Y-43930532D01*
X81436798Y-43936649D01*
X81436797Y-43936653D01*
X81419105Y-44094388D01*
X81414520Y-44135262D01*
X63696217Y-44135262D01*
X63662481Y-44025600D01*
X63657956Y-44016832D01*
X63562672Y-43832226D01*
X63560099Y-43827241D01*
X63556690Y-43822799D01*
X63556688Y-43822795D01*
X63427620Y-43654590D01*
X63424210Y-43650146D01*
X63259107Y-43499914D01*
X63070010Y-43381293D01*
X62862895Y-43298034D01*
X62857407Y-43296897D01*
X62857402Y-43296896D01*
X62679227Y-43259998D01*
X62644310Y-43252767D01*
X62639697Y-43252501D01*
X62589474Y-43249605D01*
X62589470Y-43249605D01*
X62587651Y-43249500D01*
X62443370Y-43249500D01*
X62440583Y-43249749D01*
X62440577Y-43249749D01*
X62371003Y-43255959D01*
X62277661Y-43264289D01*
X62272247Y-43265770D01*
X62272242Y-43265771D01*
X62158470Y-43296896D01*
X62062349Y-43323192D01*
X62057291Y-43325604D01*
X62057287Y-43325606D01*
X61961610Y-43371242D01*
X61860871Y-43419292D01*
X61679595Y-43549552D01*
X61631225Y-43599466D01*
X61529302Y-43704642D01*
X61524251Y-43709854D01*
X61399750Y-43895132D01*
X61397491Y-43900278D01*
X61397490Y-43900280D01*
X61380520Y-43938940D01*
X61310026Y-44099529D01*
X61308718Y-44104977D01*
X61308716Y-44104983D01*
X61261029Y-44303615D01*
X61257915Y-44316585D01*
X61254480Y-44376158D01*
X61245457Y-44532662D01*
X61245066Y-44539438D01*
X60242593Y-44539438D01*
X60255042Y-44466169D01*
X60269017Y-44383918D01*
X60272161Y-44370143D01*
X60355169Y-44082017D01*
X60359836Y-44068680D01*
X60456403Y-43835545D01*
X60474581Y-43791659D01*
X60480710Y-43778932D01*
X60488814Y-43764269D01*
X60625753Y-43516498D01*
X60633260Y-43504550D01*
X60806779Y-43259998D01*
X60815589Y-43248952D01*
X61015386Y-43025378D01*
X61025378Y-43015386D01*
X61248952Y-42815589D01*
X61259998Y-42806779D01*
X61439221Y-42679613D01*
X61504550Y-42633260D01*
X61516498Y-42625753D01*
X61778936Y-42480708D01*
X61791659Y-42474581D01*
X61953383Y-42407593D01*
X62068680Y-42359836D01*
X62082017Y-42355169D01*
X62370143Y-42272161D01*
X62383918Y-42269017D01*
X62531721Y-42243904D01*
X62679529Y-42218790D01*
X62693561Y-42217209D01*
X62963874Y-42202029D01*
X62971624Y-42202690D01*
X62971625Y-42201939D01*
X62985815Y-42201964D01*
X62999642Y-42205143D01*
X63013481Y-42202012D01*
X63018370Y-42202020D01*
X63036448Y-42200000D01*
X156962976Y-42200000D01*
X156980184Y-42201953D01*
G37*
G04 #@! TD.AperFunction*
M02*
